M48
;GenerationSoftware,Autodesk,EAGLE,9.2.0*%
;CreationDate,2019-02-18T23:29:54Z*%
FMAT,2
ICI,OFF
METRIC,TZ,000.000
T8C0.350
T7C0.700
T6C0.813
T5C0.914
T4C1.016
T3C1.194
T2C1.200
T1C3.390
%
G90
M71
T1
X4627Y6849
X29432Y6849
X31718Y75692
X2595Y75946
T2
X9572Y45434
X24972Y45434
X14772Y16034
X19772Y16034
T3
X19772Y3556
X14772Y3556
T4
X26111Y76429
X26111Y71907
X19609Y76429
X19609Y71907
X30099Y12954
X32639Y12954
T5
X14617Y9611
X20901Y12233
T6
X32360Y19558
X29820Y19558
X29820Y27178
X32360Y27178
T7
X31792Y68056
X31792Y66056
X31792Y64056
X31792Y59806
X31792Y57806
X31792Y55806
X31792Y53806
X31792Y49302
X31792Y47302
X31792Y45302
X31792Y43302
X31792Y70056
X12906Y75480
X10906Y75480
X8906Y75480
X6906Y75480
X2752Y35004
X31792Y38830
X31792Y36830
X31792Y34830
X2752Y33004
X2752Y31004
X2752Y20352
X2752Y22352
X2752Y24352
X2752Y29004
T8
X13030Y41986
X25679Y56464
X29947Y49911
X26137Y42215
X25502Y63881
X1502Y52832
X5347Y52819
X7541Y48811
X5080Y48514
X9906Y48514
X29413Y37414
M30