G04 EAGLE Gerber RS-274X export*
G75*
%MOMM*%
%FSLAX34Y34*%
%LPD*%
%INTop Copper*%
%IPPOS*%
%AMOC8*
5,1,8,0,0,1.08239X$1,22.5*%
G01*
%ADD10R,1.200000X2.286000*%
%ADD11R,1.100000X1.000000*%
%ADD12R,1.000000X1.100000*%
%ADD13R,1.700000X1.282600*%
%ADD14C,1.320800*%
%ADD15C,1.879600*%
%ADD16C,1.600000*%
%ADD17R,2.032000X1.270000*%
%ADD18R,1.219200X2.235200*%
%ADD19R,3.600000X2.200000*%
%ADD20C,1.800000*%
%ADD21C,1.422400*%
%ADD22C,1.790700*%
%ADD23R,3.150000X1.780000*%
%ADD24C,1.524000*%
%ADD25C,0.152400*%
%ADD26C,0.756400*%
%ADD27C,2.540000*%

G36*
X287034Y132220D02*
X287034Y132220D01*
X287059Y132217D01*
X287155Y132238D01*
X287251Y132252D01*
X287274Y132264D01*
X287300Y132270D01*
X287383Y132320D01*
X287470Y132364D01*
X287489Y132382D01*
X287511Y132396D01*
X287574Y132470D01*
X287642Y132539D01*
X287658Y132568D01*
X287671Y132583D01*
X287683Y132613D01*
X287723Y132686D01*
X289579Y137166D01*
X293366Y140953D01*
X298314Y143003D01*
X303670Y143003D01*
X303851Y142928D01*
X303916Y142913D01*
X303966Y142892D01*
X304001Y142888D01*
X304039Y142877D01*
X304065Y142877D01*
X304091Y142872D01*
X304125Y142875D01*
X304132Y142874D01*
X304138Y142874D01*
X304169Y142879D01*
X304187Y142881D01*
X304285Y142883D01*
X304309Y142892D01*
X304335Y142895D01*
X304377Y142913D01*
X304381Y142914D01*
X304396Y142921D01*
X304424Y142934D01*
X304516Y142968D01*
X304536Y142984D01*
X304560Y142995D01*
X304596Y143027D01*
X304598Y143029D01*
X304606Y143036D01*
X304632Y143061D01*
X304708Y143121D01*
X304722Y143143D01*
X304741Y143161D01*
X304765Y143204D01*
X304768Y143207D01*
X304774Y143220D01*
X304788Y143246D01*
X304841Y143328D01*
X304847Y143354D01*
X304860Y143377D01*
X304868Y143424D01*
X304871Y143430D01*
X304874Y143456D01*
X304877Y143472D01*
X304901Y143567D01*
X304899Y143593D01*
X304904Y143619D01*
X304897Y143663D01*
X304898Y143675D01*
X304889Y143717D01*
X304882Y143812D01*
X304872Y143836D01*
X304868Y143862D01*
X304850Y143896D01*
X304846Y143915D01*
X304818Y143963D01*
X304786Y144038D01*
X304765Y144064D01*
X304756Y144081D01*
X304733Y144104D01*
X304720Y144126D01*
X304705Y144139D01*
X304681Y144169D01*
X296925Y151925D01*
X296925Y152234D01*
X296922Y152254D01*
X296924Y152273D01*
X296902Y152375D01*
X296886Y152477D01*
X296876Y152494D01*
X296872Y152514D01*
X296819Y152603D01*
X296770Y152694D01*
X296756Y152708D01*
X296746Y152725D01*
X296667Y152792D01*
X296592Y152864D01*
X296574Y152872D01*
X296559Y152885D01*
X296463Y152924D01*
X296369Y152967D01*
X296349Y152969D01*
X296331Y152977D01*
X296164Y152995D01*
X294696Y152995D01*
X292315Y155376D01*
X292315Y169744D01*
X293997Y171425D01*
X294024Y171462D01*
X294057Y171494D01*
X294095Y171562D01*
X294140Y171625D01*
X294154Y171669D01*
X294176Y171709D01*
X294190Y171786D01*
X294213Y171860D01*
X294211Y171906D01*
X294220Y171951D01*
X294208Y172028D01*
X294206Y172106D01*
X294191Y172149D01*
X294184Y172194D01*
X294149Y172264D01*
X294122Y172337D01*
X294093Y172373D01*
X294072Y172414D01*
X294017Y172468D01*
X293968Y172529D01*
X293930Y172554D01*
X293897Y172586D01*
X293777Y172652D01*
X293761Y172662D01*
X293756Y172663D01*
X293750Y172667D01*
X292155Y173327D01*
X289153Y176329D01*
X287529Y180250D01*
X287529Y197702D01*
X289153Y201623D01*
X292155Y204625D01*
X296076Y206249D01*
X300320Y206249D01*
X304241Y204625D01*
X307243Y201623D01*
X308867Y197702D01*
X308867Y180250D01*
X307243Y176329D01*
X304338Y173424D01*
X304296Y173366D01*
X304247Y173314D01*
X304225Y173267D01*
X304195Y173225D01*
X304174Y173156D01*
X304143Y173091D01*
X304138Y173039D01*
X304122Y172989D01*
X304124Y172918D01*
X304116Y172847D01*
X304127Y172796D01*
X304129Y172744D01*
X304153Y172676D01*
X304168Y172606D01*
X304195Y172561D01*
X304213Y172513D01*
X304258Y172457D01*
X304295Y172395D01*
X304334Y172361D01*
X304367Y172321D01*
X304427Y172282D01*
X304482Y172235D01*
X304530Y172216D01*
X304574Y172188D01*
X304643Y172170D01*
X304710Y172143D01*
X304781Y172135D01*
X304812Y172127D01*
X304835Y172129D01*
X304876Y172125D01*
X308064Y172125D01*
X309342Y170847D01*
X309358Y170835D01*
X309370Y170819D01*
X309458Y170763D01*
X309541Y170703D01*
X309560Y170697D01*
X309577Y170686D01*
X309678Y170661D01*
X309777Y170631D01*
X309796Y170631D01*
X309816Y170626D01*
X309919Y170634D01*
X310022Y170637D01*
X310041Y170644D01*
X310061Y170646D01*
X310156Y170686D01*
X310253Y170722D01*
X310269Y170734D01*
X310287Y170742D01*
X310418Y170847D01*
X311696Y172125D01*
X312928Y172125D01*
X312948Y172128D01*
X312967Y172126D01*
X313069Y172148D01*
X313171Y172164D01*
X313188Y172174D01*
X313208Y172178D01*
X313297Y172231D01*
X313388Y172280D01*
X313402Y172294D01*
X313419Y172304D01*
X313486Y172383D01*
X313558Y172458D01*
X313566Y172476D01*
X313579Y172491D01*
X313618Y172587D01*
X313661Y172681D01*
X313663Y172701D01*
X313671Y172719D01*
X313689Y172886D01*
X313689Y178264D01*
X313679Y178328D01*
X313678Y178394D01*
X313655Y178474D01*
X313650Y178506D01*
X313640Y178524D01*
X313631Y178555D01*
X312929Y180250D01*
X312929Y197702D01*
X314553Y201623D01*
X317555Y204625D01*
X321476Y206249D01*
X325720Y206249D01*
X329641Y204625D01*
X330874Y203392D01*
X330933Y203350D01*
X330986Y203300D01*
X331032Y203278D01*
X331073Y203249D01*
X331143Y203227D01*
X331209Y203197D01*
X331260Y203191D01*
X331308Y203176D01*
X331381Y203178D01*
X331454Y203171D01*
X331503Y203181D01*
X331554Y203183D01*
X331623Y203208D01*
X331694Y203224D01*
X331737Y203250D01*
X331785Y203267D01*
X331842Y203313D01*
X331905Y203350D01*
X331938Y203389D01*
X331977Y203421D01*
X332017Y203482D01*
X332064Y203538D01*
X332083Y203585D01*
X332110Y203628D01*
X332128Y203699D01*
X332155Y203766D01*
X332163Y203836D01*
X332170Y203866D01*
X332168Y203890D01*
X332173Y203933D01*
X331980Y263239D01*
X331968Y263308D01*
X331967Y263379D01*
X331948Y263429D01*
X331939Y263481D01*
X331906Y263543D01*
X331882Y263610D01*
X331849Y263651D01*
X331824Y263698D01*
X331772Y263747D01*
X331728Y263802D01*
X331683Y263831D01*
X331645Y263867D01*
X331581Y263897D01*
X331521Y263935D01*
X331470Y263948D01*
X331421Y263970D01*
X331351Y263978D01*
X331283Y263995D01*
X331230Y263991D01*
X331177Y263996D01*
X331108Y263981D01*
X331038Y263976D01*
X330989Y263955D01*
X330937Y263943D01*
X330876Y263907D01*
X330811Y263879D01*
X330754Y263833D01*
X330726Y263816D01*
X330711Y263799D01*
X330680Y263775D01*
X329641Y262735D01*
X325720Y261111D01*
X321476Y261111D01*
X317555Y262735D01*
X314553Y265737D01*
X312929Y269658D01*
X312929Y287110D01*
X313631Y288805D01*
X313646Y288869D01*
X313671Y288930D01*
X313680Y289013D01*
X313687Y289045D01*
X313686Y289064D01*
X313689Y289096D01*
X313689Y299554D01*
X313686Y299574D01*
X313688Y299593D01*
X313666Y299695D01*
X313650Y299797D01*
X313640Y299814D01*
X313636Y299834D01*
X313583Y299923D01*
X313534Y300014D01*
X313520Y300028D01*
X313510Y300045D01*
X313431Y300112D01*
X313356Y300184D01*
X313338Y300192D01*
X313323Y300205D01*
X313227Y300244D01*
X313133Y300287D01*
X313113Y300289D01*
X313095Y300297D01*
X312928Y300315D01*
X311696Y300315D01*
X310418Y301593D01*
X310402Y301605D01*
X310390Y301621D01*
X310302Y301677D01*
X310219Y301737D01*
X310200Y301743D01*
X310183Y301754D01*
X310082Y301779D01*
X309983Y301809D01*
X309964Y301809D01*
X309944Y301814D01*
X309841Y301806D01*
X309738Y301803D01*
X309719Y301796D01*
X309699Y301794D01*
X309604Y301754D01*
X309507Y301718D01*
X309491Y301706D01*
X309473Y301698D01*
X309342Y301593D01*
X308064Y300315D01*
X294696Y300315D01*
X292315Y302696D01*
X292315Y304546D01*
X292312Y304566D01*
X292314Y304585D01*
X292292Y304687D01*
X292276Y304789D01*
X292266Y304806D01*
X292262Y304826D01*
X292209Y304915D01*
X292160Y305006D01*
X292146Y305020D01*
X292136Y305037D01*
X292057Y305104D01*
X291982Y305176D01*
X291964Y305184D01*
X291949Y305197D01*
X291853Y305236D01*
X291759Y305279D01*
X291739Y305281D01*
X291721Y305289D01*
X291554Y305307D01*
X245651Y305307D01*
X201164Y349794D01*
X201106Y349836D01*
X201054Y349885D01*
X201007Y349907D01*
X200965Y349937D01*
X200896Y349958D01*
X200831Y349989D01*
X200779Y349994D01*
X200729Y350010D01*
X200658Y350008D01*
X200587Y350016D01*
X200536Y350005D01*
X200484Y350003D01*
X200416Y349979D01*
X200346Y349963D01*
X200301Y349937D01*
X200253Y349919D01*
X200197Y349874D01*
X200135Y349837D01*
X200101Y349798D01*
X200061Y349765D01*
X200022Y349705D01*
X199975Y349650D01*
X199956Y349602D01*
X199928Y349558D01*
X199910Y349489D01*
X199883Y349422D01*
X199875Y349351D01*
X199867Y349320D01*
X199869Y349296D01*
X199865Y349255D01*
X199865Y330595D01*
X197484Y328214D01*
X158116Y328214D01*
X155735Y330595D01*
X155735Y355963D01*
X158116Y358344D01*
X190776Y358344D01*
X190847Y358355D01*
X190919Y358357D01*
X190968Y358375D01*
X191019Y358383D01*
X191082Y358417D01*
X191150Y358442D01*
X191191Y358474D01*
X191237Y358499D01*
X191286Y358550D01*
X191342Y358595D01*
X191370Y358639D01*
X191406Y358677D01*
X191436Y358742D01*
X191475Y358802D01*
X191488Y358853D01*
X191510Y358900D01*
X191517Y358971D01*
X191535Y359041D01*
X191531Y359093D01*
X191537Y359144D01*
X191521Y359215D01*
X191516Y359286D01*
X191495Y359334D01*
X191484Y359385D01*
X191448Y359446D01*
X191420Y359512D01*
X191375Y359568D01*
X191358Y359596D01*
X191340Y359611D01*
X191315Y359643D01*
X171607Y379351D01*
X171591Y379362D01*
X171579Y379378D01*
X171491Y379434D01*
X171408Y379494D01*
X171389Y379500D01*
X171372Y379511D01*
X171271Y379536D01*
X171172Y379567D01*
X171153Y379566D01*
X171133Y379571D01*
X171030Y379563D01*
X170927Y379560D01*
X170908Y379553D01*
X170888Y379552D01*
X170793Y379511D01*
X170696Y379476D01*
X170680Y379463D01*
X170662Y379455D01*
X170531Y379351D01*
X39217Y248037D01*
X39149Y247943D01*
X39079Y247848D01*
X39077Y247842D01*
X39073Y247837D01*
X39039Y247726D01*
X39002Y247614D01*
X39003Y247608D01*
X39001Y247602D01*
X39004Y247485D01*
X39005Y247368D01*
X39007Y247361D01*
X39007Y247356D01*
X39013Y247338D01*
X39052Y247207D01*
X39585Y245920D01*
X39585Y241120D01*
X37748Y236686D01*
X35120Y234058D01*
X35109Y234042D01*
X35093Y234030D01*
X35037Y233942D01*
X34977Y233859D01*
X34971Y233840D01*
X34960Y233823D01*
X34935Y233722D01*
X34904Y233623D01*
X34905Y233604D01*
X34900Y233584D01*
X34908Y233481D01*
X34911Y233378D01*
X34918Y233359D01*
X34919Y233339D01*
X34960Y233244D01*
X34995Y233147D01*
X35008Y233131D01*
X35016Y233113D01*
X35120Y232982D01*
X37748Y230354D01*
X39585Y225920D01*
X39585Y221120D01*
X37748Y216686D01*
X34354Y213292D01*
X34113Y213192D01*
X34023Y213137D01*
X33931Y213085D01*
X33919Y213072D01*
X33903Y213062D01*
X33836Y212981D01*
X33766Y212904D01*
X33758Y212887D01*
X33747Y212873D01*
X33709Y212775D01*
X33667Y212678D01*
X33665Y212660D01*
X33658Y212643D01*
X33654Y212538D01*
X33645Y212433D01*
X33649Y212416D01*
X33648Y212398D01*
X33677Y212296D01*
X33702Y212194D01*
X33711Y212179D01*
X33717Y212161D01*
X33777Y212075D01*
X33832Y211986D01*
X33849Y211971D01*
X33857Y211959D01*
X33882Y211940D01*
X33956Y211873D01*
X34387Y211560D01*
X35560Y210387D01*
X36535Y209045D01*
X37288Y207566D01*
X37801Y205988D01*
X37951Y205043D01*
X28282Y205043D01*
X28262Y205040D01*
X28243Y205042D01*
X28141Y205020D01*
X28039Y205003D01*
X28022Y204994D01*
X28002Y204990D01*
X27913Y204937D01*
X27822Y204888D01*
X27808Y204874D01*
X27791Y204864D01*
X27724Y204785D01*
X27653Y204710D01*
X27644Y204692D01*
X27631Y204677D01*
X27593Y204581D01*
X27549Y204487D01*
X27547Y204467D01*
X27539Y204449D01*
X27521Y204282D01*
X27521Y203519D01*
X27519Y203519D01*
X27519Y204282D01*
X27516Y204302D01*
X27518Y204321D01*
X27496Y204423D01*
X27479Y204525D01*
X27470Y204542D01*
X27466Y204562D01*
X27413Y204651D01*
X27364Y204742D01*
X27350Y204756D01*
X27340Y204773D01*
X27261Y204840D01*
X27186Y204911D01*
X27168Y204920D01*
X27153Y204933D01*
X27057Y204972D01*
X26963Y205015D01*
X26943Y205017D01*
X26925Y205025D01*
X26758Y205043D01*
X17089Y205043D01*
X17239Y205988D01*
X17752Y207566D01*
X18505Y209045D01*
X19480Y210387D01*
X20653Y211560D01*
X21084Y211873D01*
X21157Y211947D01*
X21235Y212019D01*
X21244Y212035D01*
X21257Y212048D01*
X21303Y212142D01*
X21354Y212234D01*
X21357Y212252D01*
X21365Y212268D01*
X21379Y212373D01*
X21397Y212476D01*
X21395Y212494D01*
X21397Y212512D01*
X21377Y212615D01*
X21362Y212720D01*
X21353Y212736D01*
X21350Y212754D01*
X21298Y212845D01*
X21250Y212939D01*
X21237Y212952D01*
X21228Y212967D01*
X21149Y213038D01*
X21074Y213111D01*
X21055Y213122D01*
X21044Y213131D01*
X21015Y213144D01*
X20927Y213192D01*
X20686Y213292D01*
X17292Y216686D01*
X15455Y221120D01*
X15455Y225920D01*
X17292Y230354D01*
X19920Y232982D01*
X19931Y232998D01*
X19947Y233010D01*
X20003Y233098D01*
X20063Y233181D01*
X20069Y233200D01*
X20080Y233217D01*
X20105Y233318D01*
X20136Y233417D01*
X20135Y233436D01*
X20140Y233456D01*
X20132Y233559D01*
X20129Y233662D01*
X20122Y233681D01*
X20121Y233701D01*
X20080Y233796D01*
X20045Y233893D01*
X20032Y233909D01*
X20024Y233927D01*
X19920Y234058D01*
X17292Y236686D01*
X15455Y241120D01*
X15455Y245920D01*
X17292Y250354D01*
X20686Y253748D01*
X25120Y255585D01*
X29920Y255585D01*
X31708Y254844D01*
X31821Y254818D01*
X31935Y254789D01*
X31941Y254789D01*
X31947Y254788D01*
X32064Y254799D01*
X32180Y254808D01*
X32186Y254811D01*
X32192Y254811D01*
X32299Y254859D01*
X32406Y254904D01*
X32412Y254909D01*
X32417Y254911D01*
X32430Y254924D01*
X32537Y255009D01*
X163705Y386177D01*
X163716Y386193D01*
X163732Y386205D01*
X163788Y386293D01*
X163848Y386376D01*
X163854Y386395D01*
X163865Y386412D01*
X163890Y386513D01*
X163921Y386612D01*
X163920Y386631D01*
X163925Y386651D01*
X163917Y386754D01*
X163914Y386857D01*
X163907Y386876D01*
X163906Y386896D01*
X163865Y386991D01*
X163830Y387088D01*
X163817Y387104D01*
X163809Y387122D01*
X163705Y387253D01*
X161165Y389793D01*
X161091Y389846D01*
X161021Y389906D01*
X160991Y389918D01*
X160965Y389937D01*
X160878Y389964D01*
X160793Y389998D01*
X160752Y390002D01*
X160730Y390009D01*
X160698Y390008D01*
X160626Y390016D01*
X146906Y390016D01*
X144525Y392397D01*
X144525Y402082D01*
X144522Y402102D01*
X144524Y402121D01*
X144502Y402223D01*
X144486Y402325D01*
X144476Y402342D01*
X144472Y402362D01*
X144419Y402451D01*
X144370Y402542D01*
X144356Y402556D01*
X144346Y402573D01*
X144267Y402640D01*
X144192Y402712D01*
X144174Y402720D01*
X144159Y402733D01*
X144063Y402772D01*
X143969Y402815D01*
X143949Y402817D01*
X143931Y402825D01*
X143764Y402843D01*
X142938Y402843D01*
X142919Y402840D01*
X142899Y402842D01*
X142798Y402820D01*
X142696Y402804D01*
X142678Y402794D01*
X142659Y402790D01*
X142570Y402737D01*
X142478Y402688D01*
X142465Y402674D01*
X142448Y402664D01*
X142380Y402585D01*
X142309Y402510D01*
X142301Y402492D01*
X142288Y402477D01*
X142249Y402381D01*
X142205Y402287D01*
X142203Y402267D01*
X142196Y402249D01*
X142177Y402082D01*
X142177Y399636D01*
X139796Y397255D01*
X117602Y397255D01*
X117582Y397252D01*
X117563Y397254D01*
X117461Y397232D01*
X117359Y397216D01*
X117342Y397206D01*
X117322Y397202D01*
X117233Y397149D01*
X117142Y397100D01*
X117128Y397086D01*
X117111Y397076D01*
X117044Y396997D01*
X116972Y396922D01*
X116964Y396904D01*
X116951Y396889D01*
X116912Y396793D01*
X116869Y396699D01*
X116867Y396679D01*
X116859Y396661D01*
X116841Y396494D01*
X116841Y384302D01*
X116844Y384282D01*
X116842Y384263D01*
X116864Y384161D01*
X116880Y384059D01*
X116890Y384042D01*
X116894Y384022D01*
X116947Y383933D01*
X116996Y383842D01*
X117010Y383828D01*
X117020Y383811D01*
X117099Y383744D01*
X117174Y383672D01*
X117192Y383664D01*
X117207Y383651D01*
X117303Y383612D01*
X117397Y383569D01*
X117417Y383567D01*
X117435Y383559D01*
X117602Y383541D01*
X126429Y383541D01*
X126429Y375412D01*
X126433Y375392D01*
X126430Y375373D01*
X126452Y375271D01*
X126469Y375169D01*
X126478Y375152D01*
X126483Y375132D01*
X126536Y375043D01*
X126584Y374952D01*
X126599Y374938D01*
X126609Y374921D01*
X126687Y374854D01*
X126762Y374783D01*
X126781Y374774D01*
X126796Y374761D01*
X126892Y374722D01*
X126986Y374679D01*
X127005Y374677D01*
X127024Y374669D01*
X127191Y374651D01*
X127953Y374651D01*
X127953Y374649D01*
X127191Y374649D01*
X127171Y374646D01*
X127151Y374648D01*
X127050Y374626D01*
X126948Y374609D01*
X126930Y374600D01*
X126911Y374596D01*
X126822Y374543D01*
X126730Y374494D01*
X126717Y374480D01*
X126700Y374470D01*
X126632Y374391D01*
X126561Y374316D01*
X126553Y374298D01*
X126540Y374283D01*
X126501Y374187D01*
X126457Y374093D01*
X126455Y374073D01*
X126448Y374055D01*
X126429Y373888D01*
X126429Y365759D01*
X117602Y365759D01*
X117582Y365756D01*
X117563Y365758D01*
X117461Y365736D01*
X117359Y365720D01*
X117342Y365710D01*
X117322Y365706D01*
X117233Y365653D01*
X117142Y365604D01*
X117128Y365590D01*
X117111Y365580D01*
X117044Y365501D01*
X116972Y365426D01*
X116964Y365408D01*
X39808Y288252D01*
X39755Y288178D01*
X39695Y288108D01*
X39683Y288078D01*
X39664Y288052D01*
X39637Y287965D01*
X39603Y287880D01*
X39599Y287839D01*
X39592Y287817D01*
X39593Y287785D01*
X39585Y287713D01*
X39585Y287640D01*
X37748Y283206D01*
X34354Y279812D01*
X29920Y277975D01*
X25120Y277975D01*
X20686Y279812D01*
X17292Y283206D01*
X15455Y287640D01*
X15455Y292440D01*
X17292Y296874D01*
X19920Y299502D01*
X19931Y299518D01*
X19947Y299530D01*
X20003Y299618D01*
X20063Y299701D01*
X20069Y299720D01*
X20080Y299737D01*
X20105Y299838D01*
X20136Y299937D01*
X20135Y299956D01*
X20140Y299976D01*
X20132Y300079D01*
X20129Y300182D01*
X20122Y300201D01*
X20121Y300221D01*
X20080Y300316D01*
X20045Y300413D01*
X20032Y300429D01*
X20024Y300447D01*
X19920Y300578D01*
X17292Y303206D01*
X15455Y307640D01*
X15455Y312440D01*
X16094Y313982D01*
X16120Y314095D01*
X16149Y314209D01*
X16149Y314215D01*
X16150Y314221D01*
X16139Y314338D01*
X16130Y314454D01*
X16128Y314460D01*
X16127Y314466D01*
X16079Y314573D01*
X16034Y314680D01*
X16029Y314686D01*
X16027Y314691D01*
X16014Y314704D01*
X15929Y314811D01*
X12542Y318198D01*
X12484Y318240D01*
X12432Y318289D01*
X12385Y318311D01*
X12343Y318341D01*
X12274Y318362D01*
X12209Y318393D01*
X12157Y318398D01*
X12107Y318414D01*
X12036Y318412D01*
X11965Y318420D01*
X11914Y318409D01*
X11862Y318407D01*
X11794Y318383D01*
X11724Y318367D01*
X11679Y318341D01*
X11631Y318323D01*
X11575Y318278D01*
X11513Y318241D01*
X11479Y318202D01*
X11439Y318169D01*
X11400Y318109D01*
X11353Y318054D01*
X11334Y318006D01*
X11306Y317962D01*
X11288Y317893D01*
X11261Y317826D01*
X11253Y317755D01*
X11245Y317724D01*
X11247Y317700D01*
X11243Y317659D01*
X11243Y175956D01*
X11257Y175866D01*
X11265Y175775D01*
X11277Y175745D01*
X11282Y175713D01*
X11325Y175633D01*
X11361Y175549D01*
X11387Y175517D01*
X11398Y175496D01*
X11421Y175474D01*
X11466Y175418D01*
X22322Y164562D01*
X22396Y164509D01*
X22465Y164449D01*
X22495Y164437D01*
X22521Y164418D01*
X22608Y164391D01*
X22693Y164357D01*
X22734Y164353D01*
X22757Y164346D01*
X22789Y164347D01*
X22860Y164339D01*
X40640Y164339D01*
X40730Y164354D01*
X40821Y164361D01*
X40851Y164373D01*
X40883Y164379D01*
X40963Y164421D01*
X41047Y164457D01*
X41079Y164483D01*
X41100Y164494D01*
X41122Y164517D01*
X41178Y164562D01*
X134935Y258319D01*
X190185Y258319D01*
X286259Y162245D01*
X286259Y132978D01*
X286274Y132882D01*
X286284Y132785D01*
X286294Y132761D01*
X286299Y132735D01*
X286344Y132649D01*
X286384Y132560D01*
X286401Y132541D01*
X286414Y132518D01*
X286484Y132450D01*
X286550Y132379D01*
X286573Y132366D01*
X286592Y132348D01*
X286680Y132307D01*
X286766Y132260D01*
X286791Y132256D01*
X286815Y132245D01*
X286912Y132234D01*
X287008Y132216D01*
X287034Y132220D01*
G37*
G36*
X306590Y583204D02*
X306590Y583204D01*
X306706Y583221D01*
X306712Y583223D01*
X306718Y583224D01*
X306820Y583279D01*
X306926Y583332D01*
X306930Y583337D01*
X306935Y583340D01*
X307016Y583424D01*
X307098Y583508D01*
X307101Y583514D01*
X307105Y583518D01*
X307113Y583535D01*
X307179Y583655D01*
X307692Y584894D01*
X311086Y588288D01*
X311327Y588388D01*
X311417Y588443D01*
X311509Y588495D01*
X311521Y588508D01*
X311537Y588518D01*
X311604Y588599D01*
X311674Y588676D01*
X311682Y588693D01*
X311693Y588707D01*
X311731Y588805D01*
X311773Y588902D01*
X311775Y588920D01*
X311782Y588937D01*
X311786Y589042D01*
X311795Y589147D01*
X311791Y589164D01*
X311792Y589182D01*
X311763Y589283D01*
X311738Y589386D01*
X311729Y589401D01*
X311723Y589419D01*
X311664Y589505D01*
X311608Y589594D01*
X311591Y589609D01*
X311583Y589621D01*
X311558Y589640D01*
X311484Y589707D01*
X311053Y590020D01*
X309880Y591193D01*
X308905Y592535D01*
X308152Y594014D01*
X307639Y595592D01*
X307489Y596537D01*
X317158Y596537D01*
X317178Y596540D01*
X317197Y596538D01*
X317299Y596560D01*
X317401Y596577D01*
X317418Y596586D01*
X317438Y596590D01*
X317527Y596643D01*
X317618Y596692D01*
X317632Y596706D01*
X317649Y596716D01*
X317716Y596795D01*
X317787Y596870D01*
X317796Y596888D01*
X317809Y596903D01*
X317847Y596999D01*
X317891Y597093D01*
X317893Y597113D01*
X317901Y597131D01*
X317919Y597298D01*
X317919Y598061D01*
X318682Y598061D01*
X318702Y598064D01*
X318721Y598062D01*
X318823Y598084D01*
X318925Y598101D01*
X318942Y598110D01*
X318962Y598114D01*
X319051Y598167D01*
X319142Y598216D01*
X319156Y598230D01*
X319173Y598240D01*
X319240Y598319D01*
X319311Y598394D01*
X319320Y598412D01*
X319333Y598427D01*
X319372Y598523D01*
X319415Y598617D01*
X319417Y598637D01*
X319425Y598655D01*
X319443Y598822D01*
X319443Y608491D01*
X320388Y608341D01*
X321966Y607828D01*
X322488Y607562D01*
X322560Y607539D01*
X322629Y607508D01*
X322677Y607502D01*
X322723Y607488D01*
X322798Y607489D01*
X322873Y607480D01*
X322921Y607491D01*
X322969Y607491D01*
X323040Y607517D01*
X323114Y607533D01*
X323155Y607557D01*
X323201Y607573D01*
X323260Y607620D01*
X323325Y607659D01*
X323356Y607695D01*
X323394Y607725D01*
X323436Y607788D01*
X323485Y607846D01*
X323503Y607890D01*
X323529Y607931D01*
X323548Y608004D01*
X323577Y608074D01*
X323584Y608139D01*
X323592Y608169D01*
X323590Y608194D01*
X323595Y608241D01*
X323595Y628713D01*
X323588Y628758D01*
X323590Y628804D01*
X323568Y628879D01*
X323556Y628955D01*
X323534Y628996D01*
X323521Y629040D01*
X323477Y629104D01*
X323440Y629173D01*
X323407Y629204D01*
X323381Y629242D01*
X323319Y629289D01*
X323262Y629342D01*
X323220Y629362D01*
X323184Y629389D01*
X323110Y629413D01*
X323039Y629446D01*
X322993Y629451D01*
X322950Y629465D01*
X322872Y629464D01*
X322795Y629473D01*
X322750Y629463D01*
X322704Y629463D01*
X322572Y629425D01*
X322554Y629421D01*
X322550Y629418D01*
X322543Y629416D01*
X320320Y628495D01*
X315520Y628495D01*
X311086Y630332D01*
X307692Y633726D01*
X305855Y638160D01*
X305855Y642960D01*
X307692Y647394D01*
X310320Y650022D01*
X310331Y650038D01*
X310347Y650050D01*
X310403Y650138D01*
X310463Y650221D01*
X310469Y650240D01*
X310480Y650257D01*
X310505Y650358D01*
X310536Y650457D01*
X310535Y650476D01*
X310540Y650496D01*
X310532Y650599D01*
X310529Y650702D01*
X310522Y650721D01*
X310521Y650741D01*
X310480Y650836D01*
X310445Y650933D01*
X310432Y650949D01*
X310424Y650967D01*
X310320Y651098D01*
X307692Y653726D01*
X305855Y658160D01*
X305855Y662960D01*
X307692Y667394D01*
X310320Y670022D01*
X310331Y670038D01*
X310347Y670050D01*
X310403Y670138D01*
X310463Y670221D01*
X310469Y670240D01*
X310480Y670257D01*
X310505Y670358D01*
X310536Y670457D01*
X310535Y670476D01*
X310540Y670496D01*
X310532Y670599D01*
X310529Y670702D01*
X310522Y670721D01*
X310521Y670741D01*
X310480Y670836D01*
X310445Y670933D01*
X310432Y670949D01*
X310424Y670967D01*
X310320Y671098D01*
X307692Y673726D01*
X305855Y678160D01*
X305855Y682960D01*
X307692Y687394D01*
X311086Y690788D01*
X311327Y690888D01*
X311417Y690943D01*
X311509Y690995D01*
X311521Y691008D01*
X311537Y691018D01*
X311604Y691099D01*
X311674Y691176D01*
X311682Y691193D01*
X311693Y691207D01*
X311731Y691305D01*
X311773Y691402D01*
X311775Y691420D01*
X311782Y691437D01*
X311786Y691542D01*
X311795Y691647D01*
X311791Y691664D01*
X311792Y691682D01*
X311763Y691784D01*
X311738Y691886D01*
X311729Y691901D01*
X311723Y691919D01*
X311663Y692005D01*
X311608Y692094D01*
X311591Y692109D01*
X311583Y692121D01*
X311558Y692140D01*
X311484Y692207D01*
X311053Y692520D01*
X309880Y693693D01*
X308905Y695035D01*
X308152Y696514D01*
X307639Y698092D01*
X307489Y699037D01*
X317158Y699037D01*
X317178Y699040D01*
X317197Y699038D01*
X317299Y699060D01*
X317401Y699077D01*
X317418Y699086D01*
X317438Y699090D01*
X317527Y699143D01*
X317618Y699192D01*
X317632Y699206D01*
X317649Y699216D01*
X317716Y699295D01*
X317787Y699370D01*
X317796Y699388D01*
X317809Y699403D01*
X317847Y699499D01*
X317891Y699593D01*
X317893Y699613D01*
X317901Y699631D01*
X317919Y699798D01*
X317919Y700561D01*
X317921Y700561D01*
X317921Y699798D01*
X317924Y699778D01*
X317922Y699759D01*
X317944Y699657D01*
X317961Y699555D01*
X317970Y699538D01*
X317974Y699518D01*
X318027Y699429D01*
X318076Y699338D01*
X318090Y699324D01*
X318100Y699307D01*
X318179Y699240D01*
X318254Y699169D01*
X318272Y699160D01*
X318287Y699147D01*
X318383Y699108D01*
X318477Y699065D01*
X318497Y699063D01*
X318515Y699055D01*
X318682Y699037D01*
X328351Y699037D01*
X328201Y698092D01*
X327688Y696514D01*
X326935Y695035D01*
X325960Y693693D01*
X324787Y692520D01*
X324356Y692207D01*
X324283Y692133D01*
X324205Y692061D01*
X324196Y692045D01*
X324183Y692032D01*
X324137Y691938D01*
X324086Y691846D01*
X324083Y691828D01*
X324075Y691812D01*
X324061Y691707D01*
X324043Y691604D01*
X324045Y691586D01*
X324043Y691568D01*
X324063Y691465D01*
X324078Y691360D01*
X324087Y691344D01*
X324090Y691326D01*
X324142Y691235D01*
X324190Y691141D01*
X324203Y691128D01*
X324212Y691113D01*
X324291Y691042D01*
X324366Y690969D01*
X324385Y690958D01*
X324396Y690949D01*
X324425Y690936D01*
X324513Y690888D01*
X324754Y690788D01*
X328148Y687394D01*
X329141Y684997D01*
X329193Y684913D01*
X329239Y684826D01*
X329257Y684809D01*
X329271Y684788D01*
X329346Y684725D01*
X329418Y684657D01*
X329441Y684647D01*
X329460Y684631D01*
X329552Y684596D01*
X329642Y684555D01*
X329666Y684552D01*
X329690Y684543D01*
X329788Y684539D01*
X329886Y684528D01*
X329910Y684534D01*
X329935Y684533D01*
X330030Y684560D01*
X330126Y684581D01*
X330148Y684594D01*
X330172Y684601D01*
X330253Y684657D01*
X330337Y684708D01*
X330353Y684727D01*
X330374Y684741D01*
X330432Y684820D01*
X330496Y684896D01*
X330506Y684919D01*
X330520Y684939D01*
X330551Y685032D01*
X330588Y685124D01*
X330591Y685155D01*
X330597Y685173D01*
X330596Y685206D01*
X330605Y685291D01*
X330495Y719289D01*
X330480Y719378D01*
X330473Y719467D01*
X330460Y719498D01*
X330454Y719532D01*
X330412Y719611D01*
X330377Y719694D01*
X330350Y719727D01*
X330338Y719749D01*
X330315Y719770D01*
X330272Y719825D01*
X320510Y729586D01*
X320436Y729639D01*
X320367Y729699D01*
X320337Y729711D01*
X320311Y729730D01*
X320224Y729757D01*
X320139Y729791D01*
X320098Y729795D01*
X320075Y729802D01*
X320043Y729801D01*
X319972Y729809D01*
X313611Y729809D01*
X306716Y731657D01*
X301411Y734719D01*
X301305Y734760D01*
X301197Y734803D01*
X301187Y734804D01*
X301181Y734806D01*
X301159Y734807D01*
X301031Y734821D01*
X292415Y734821D01*
X282701Y744535D01*
X282701Y768256D01*
X282698Y768276D01*
X282700Y768295D01*
X282678Y768397D01*
X282662Y768499D01*
X282652Y768516D01*
X282648Y768536D01*
X282595Y768625D01*
X282546Y768716D01*
X282532Y768730D01*
X282522Y768747D01*
X282443Y768814D01*
X282368Y768886D01*
X282350Y768894D01*
X282335Y768907D01*
X282239Y768946D01*
X282145Y768989D01*
X282125Y768991D01*
X282107Y768999D01*
X281940Y769017D01*
X280559Y769017D01*
X280514Y769010D01*
X280468Y769012D01*
X280393Y768990D01*
X280316Y768978D01*
X280276Y768956D01*
X280232Y768943D01*
X280168Y768899D01*
X280099Y768862D01*
X280067Y768829D01*
X280030Y768803D01*
X279983Y768741D01*
X279929Y768684D01*
X279910Y768642D01*
X279883Y768606D01*
X279859Y768532D01*
X279826Y768461D01*
X279821Y768415D01*
X279807Y768372D01*
X279807Y768294D01*
X279799Y768217D01*
X279809Y768172D01*
X279809Y768126D01*
X279847Y767994D01*
X279851Y767976D01*
X279854Y767972D01*
X279856Y767965D01*
X280417Y766610D01*
X280417Y761962D01*
X278638Y757667D01*
X275351Y754380D01*
X271056Y752601D01*
X251168Y752601D01*
X246873Y754380D01*
X243586Y757667D01*
X243039Y758989D01*
X242977Y759089D01*
X242917Y759189D01*
X242912Y759193D01*
X242909Y759198D01*
X242818Y759273D01*
X242730Y759349D01*
X242724Y759351D01*
X242719Y759355D01*
X242611Y759397D01*
X242502Y759441D01*
X242494Y759442D01*
X242490Y759443D01*
X242472Y759444D01*
X242335Y759459D01*
X214865Y759459D01*
X214750Y759440D01*
X214634Y759423D01*
X214628Y759421D01*
X214622Y759420D01*
X214520Y759365D01*
X214415Y759312D01*
X214410Y759307D01*
X214405Y759304D01*
X214325Y759220D01*
X214242Y759136D01*
X214239Y759130D01*
X214235Y759126D01*
X214227Y759109D01*
X214161Y758989D01*
X213614Y757667D01*
X210327Y754380D01*
X206032Y752601D01*
X191291Y752601D01*
X191201Y752587D01*
X191110Y752579D01*
X191080Y752567D01*
X191048Y752562D01*
X190967Y752519D01*
X190883Y752483D01*
X190851Y752457D01*
X190831Y752446D01*
X190808Y752423D01*
X190752Y752378D01*
X183358Y744984D01*
X183305Y744910D01*
X183245Y744840D01*
X183233Y744810D01*
X183214Y744784D01*
X183187Y744697D01*
X183153Y744612D01*
X183149Y744571D01*
X183142Y744549D01*
X183143Y744517D01*
X183135Y744445D01*
X183135Y729002D01*
X183147Y728928D01*
X183150Y728852D01*
X183167Y728807D01*
X183174Y728760D01*
X183210Y728693D01*
X183237Y728622D01*
X183267Y728585D01*
X183290Y728542D01*
X183344Y728490D01*
X183392Y728432D01*
X183433Y728406D01*
X183468Y728373D01*
X183536Y728341D01*
X183601Y728301D01*
X183647Y728290D01*
X183691Y728269D01*
X183766Y728261D01*
X183840Y728243D01*
X183888Y728248D01*
X183935Y728242D01*
X184009Y728258D01*
X184085Y728265D01*
X184145Y728288D01*
X184176Y728294D01*
X184198Y728308D01*
X184242Y728324D01*
X184567Y728490D01*
X186089Y728985D01*
X187668Y729235D01*
X194565Y729235D01*
X194565Y719836D01*
X194568Y719816D01*
X194566Y719797D01*
X194588Y719695D01*
X194605Y719593D01*
X194614Y719576D01*
X194618Y719556D01*
X194671Y719467D01*
X194720Y719376D01*
X194734Y719362D01*
X194744Y719345D01*
X194823Y719278D01*
X194898Y719207D01*
X194916Y719198D01*
X194931Y719185D01*
X195027Y719147D01*
X195121Y719103D01*
X195141Y719101D01*
X195159Y719093D01*
X195326Y719075D01*
X196089Y719075D01*
X196089Y719073D01*
X195326Y719073D01*
X195306Y719070D01*
X195287Y719072D01*
X195185Y719050D01*
X195083Y719033D01*
X195066Y719024D01*
X195046Y719020D01*
X194957Y718967D01*
X194866Y718918D01*
X194852Y718904D01*
X194835Y718894D01*
X194768Y718815D01*
X194697Y718740D01*
X194688Y718722D01*
X194675Y718707D01*
X194636Y718611D01*
X194593Y718517D01*
X194591Y718497D01*
X194583Y718479D01*
X194565Y718312D01*
X194565Y708913D01*
X192434Y708913D01*
X192363Y708902D01*
X192291Y708900D01*
X192242Y708882D01*
X192191Y708874D01*
X192128Y708840D01*
X192060Y708815D01*
X192020Y708783D01*
X191974Y708758D01*
X191924Y708707D01*
X191868Y708662D01*
X191840Y708618D01*
X191804Y708580D01*
X191774Y708515D01*
X191735Y708455D01*
X191723Y708404D01*
X191701Y708357D01*
X191693Y708286D01*
X191675Y708216D01*
X191679Y708164D01*
X191674Y708113D01*
X191689Y708042D01*
X191694Y707971D01*
X191715Y707923D01*
X191726Y707872D01*
X191763Y707811D01*
X191791Y707745D01*
X191835Y707689D01*
X191852Y707661D01*
X191870Y707646D01*
X191895Y707614D01*
X193878Y705631D01*
X193894Y705620D01*
X193907Y705604D01*
X193987Y705552D01*
X193992Y705548D01*
X193996Y705546D01*
X194078Y705488D01*
X194097Y705482D01*
X194113Y705471D01*
X194214Y705446D01*
X194313Y705415D01*
X194333Y705416D01*
X194352Y705411D01*
X194455Y705419D01*
X194559Y705422D01*
X194577Y705429D01*
X194597Y705430D01*
X194692Y705470D01*
X194790Y705506D01*
X194805Y705519D01*
X194824Y705526D01*
X194955Y705631D01*
X196733Y707409D01*
X196850Y707409D01*
X196870Y707413D01*
X196889Y707410D01*
X196991Y707432D01*
X197093Y707449D01*
X197110Y707458D01*
X197130Y707463D01*
X197219Y707516D01*
X197310Y707564D01*
X197324Y707579D01*
X197341Y707589D01*
X197408Y707667D01*
X197479Y707742D01*
X197488Y707761D01*
X197501Y707776D01*
X197540Y707872D01*
X197583Y707966D01*
X197585Y707985D01*
X197593Y708004D01*
X197611Y708171D01*
X197611Y717551D01*
X213754Y717551D01*
X213619Y716695D01*
X213124Y715174D01*
X212398Y713749D01*
X211458Y712455D01*
X210327Y711324D01*
X209033Y710384D01*
X207608Y709658D01*
X206087Y709163D01*
X204565Y708922D01*
X204505Y708902D01*
X204442Y708892D01*
X204389Y708864D01*
X204332Y708845D01*
X204281Y708807D01*
X204224Y708777D01*
X204183Y708734D01*
X204135Y708698D01*
X204099Y708645D01*
X204055Y708599D01*
X204030Y708544D01*
X203996Y708495D01*
X203978Y708434D01*
X203951Y708376D01*
X203945Y708316D01*
X203928Y708258D01*
X203931Y708195D01*
X203924Y708131D01*
X203937Y708072D01*
X203940Y708013D01*
X203963Y707953D01*
X203977Y707891D01*
X204007Y707839D01*
X204029Y707783D01*
X204070Y707734D01*
X204103Y707680D01*
X204148Y707641D01*
X204187Y707595D01*
X204241Y707561D01*
X204290Y707520D01*
X204345Y707497D01*
X204396Y707466D01*
X204458Y707452D01*
X204518Y707428D01*
X204604Y707418D01*
X204636Y707411D01*
X204660Y707412D01*
X204684Y707409D01*
X212100Y707409D01*
X214481Y705028D01*
X214481Y704257D01*
X214485Y704233D01*
X214482Y704209D01*
X214505Y704112D01*
X214521Y704014D01*
X214532Y703993D01*
X214537Y703969D01*
X214589Y703884D01*
X214636Y703797D01*
X214653Y703780D01*
X214666Y703760D01*
X214742Y703696D01*
X214814Y703627D01*
X214836Y703617D01*
X214854Y703602D01*
X214947Y703566D01*
X215037Y703524D01*
X215061Y703521D01*
X215084Y703512D01*
X215183Y703508D01*
X215282Y703497D01*
X215305Y703502D01*
X215329Y703501D01*
X215425Y703528D01*
X215522Y703549D01*
X215543Y703561D01*
X215566Y703568D01*
X215648Y703624D01*
X215733Y703675D01*
X215749Y703693D01*
X215769Y703707D01*
X215828Y703786D01*
X215893Y703862D01*
X215902Y703884D01*
X215917Y703904D01*
X215978Y704060D01*
X216049Y704325D01*
X216383Y704905D01*
X216856Y705378D01*
X217436Y705712D01*
X218082Y705885D01*
X222893Y705885D01*
X222893Y692677D01*
X222896Y692657D01*
X222894Y692637D01*
X222916Y692536D01*
X222933Y692434D01*
X222942Y692416D01*
X222946Y692397D01*
X223000Y692308D01*
X223048Y692217D01*
X223062Y692203D01*
X223073Y692186D01*
X223151Y692118D01*
X223226Y692047D01*
X223244Y692039D01*
X223259Y692026D01*
X223356Y691987D01*
X223449Y691944D01*
X223469Y691941D01*
X223488Y691934D01*
X223654Y691915D01*
X224417Y691915D01*
X224417Y691914D01*
X223654Y691914D01*
X223635Y691910D01*
X223615Y691913D01*
X223514Y691891D01*
X223412Y691874D01*
X223394Y691865D01*
X223374Y691860D01*
X223285Y691807D01*
X223194Y691759D01*
X223180Y691744D01*
X223163Y691734D01*
X223096Y691656D01*
X223025Y691581D01*
X223016Y691562D01*
X223003Y691547D01*
X222965Y691451D01*
X222921Y691357D01*
X222919Y691338D01*
X222912Y691319D01*
X222893Y691152D01*
X222893Y678039D01*
X222908Y677949D01*
X222915Y677858D01*
X222928Y677828D01*
X222933Y677796D01*
X222951Y677763D01*
X222953Y677753D01*
X222977Y677713D01*
X223011Y677632D01*
X223037Y677600D01*
X223048Y677579D01*
X223068Y677560D01*
X223079Y677542D01*
X223093Y677530D01*
X223116Y677501D01*
X253737Y646880D01*
X253811Y646827D01*
X253881Y646767D01*
X253911Y646755D01*
X253937Y646736D01*
X254024Y646709D01*
X254109Y646675D01*
X254150Y646671D01*
X254172Y646664D01*
X254204Y646665D01*
X254275Y646657D01*
X256577Y646657D01*
X259461Y645462D01*
X261668Y643255D01*
X262863Y640371D01*
X262863Y637249D01*
X261668Y634365D01*
X259461Y632158D01*
X256577Y630963D01*
X253455Y630963D01*
X250571Y632158D01*
X248364Y634365D01*
X247169Y637249D01*
X247169Y639480D01*
X247155Y639570D01*
X247147Y639661D01*
X247135Y639691D01*
X247130Y639723D01*
X247087Y639804D01*
X247051Y639887D01*
X247025Y639920D01*
X247014Y639940D01*
X246991Y639962D01*
X246946Y640018D01*
X210768Y676197D01*
X210694Y676250D01*
X210624Y676309D01*
X210594Y676322D01*
X210568Y676340D01*
X210481Y676367D01*
X210396Y676401D01*
X210355Y676406D01*
X210333Y676413D01*
X210301Y676412D01*
X210230Y676420D01*
X196733Y676420D01*
X194955Y678198D01*
X194938Y678210D01*
X194926Y678225D01*
X194839Y678281D01*
X194755Y678341D01*
X194736Y678347D01*
X194719Y678358D01*
X194618Y678383D01*
X194520Y678414D01*
X194500Y678413D01*
X194480Y678418D01*
X194377Y678410D01*
X194274Y678407D01*
X194255Y678401D01*
X194235Y678399D01*
X194140Y678359D01*
X194043Y678323D01*
X194027Y678310D01*
X194009Y678303D01*
X193878Y678198D01*
X192100Y676420D01*
X181610Y676420D01*
X181590Y676417D01*
X181571Y676419D01*
X181469Y676397D01*
X181367Y676380D01*
X181350Y676371D01*
X181330Y676367D01*
X181241Y676313D01*
X181150Y676265D01*
X181136Y676251D01*
X181119Y676240D01*
X181052Y676162D01*
X180980Y676087D01*
X180972Y676069D01*
X180959Y676053D01*
X180920Y675957D01*
X180877Y675864D01*
X180875Y675844D01*
X180867Y675825D01*
X180849Y675659D01*
X180849Y657635D01*
X180863Y657545D01*
X180871Y657454D01*
X180883Y657424D01*
X180888Y657392D01*
X180931Y657311D01*
X180967Y657227D01*
X180993Y657195D01*
X181004Y657175D01*
X181027Y657152D01*
X181072Y657096D01*
X254760Y583408D01*
X254834Y583355D01*
X254904Y583295D01*
X254934Y583283D01*
X254960Y583264D01*
X255047Y583237D01*
X255132Y583203D01*
X255173Y583199D01*
X255195Y583192D01*
X255227Y583193D01*
X255299Y583185D01*
X306475Y583185D01*
X306590Y583204D01*
G37*
G36*
X36302Y298685D02*
X36302Y298685D01*
X36405Y298688D01*
X36424Y298695D01*
X36444Y298696D01*
X36539Y298737D01*
X36636Y298772D01*
X36652Y298785D01*
X36670Y298793D01*
X36801Y298897D01*
X102364Y364460D01*
X102406Y364518D01*
X102455Y364570D01*
X102477Y364617D01*
X102507Y364659D01*
X102528Y364728D01*
X102559Y364793D01*
X102564Y364845D01*
X102580Y364895D01*
X102578Y364966D01*
X102586Y365037D01*
X102575Y365088D01*
X102573Y365140D01*
X102549Y365208D01*
X102533Y365278D01*
X102507Y365323D01*
X102489Y365371D01*
X102444Y365427D01*
X102407Y365489D01*
X102368Y365523D01*
X102335Y365563D01*
X102275Y365602D01*
X102220Y365649D01*
X102172Y365668D01*
X102128Y365696D01*
X102059Y365714D01*
X101992Y365741D01*
X101921Y365749D01*
X101890Y365757D01*
X101866Y365755D01*
X101825Y365759D01*
X100583Y365759D01*
X100583Y373888D01*
X100580Y373908D01*
X100582Y373927D01*
X100560Y374029D01*
X100543Y374131D01*
X100534Y374148D01*
X100530Y374168D01*
X100477Y374257D01*
X100428Y374348D01*
X100414Y374362D01*
X100404Y374379D01*
X100325Y374446D01*
X100250Y374517D01*
X100232Y374526D01*
X100217Y374539D01*
X100121Y374578D01*
X100027Y374621D01*
X100007Y374623D01*
X99989Y374631D01*
X99822Y374649D01*
X99059Y374649D01*
X99059Y374651D01*
X99822Y374651D01*
X99842Y374654D01*
X99861Y374652D01*
X99963Y374674D01*
X100065Y374691D01*
X100082Y374700D01*
X100102Y374704D01*
X100191Y374757D01*
X100282Y374806D01*
X100296Y374820D01*
X100313Y374830D01*
X100380Y374909D01*
X100451Y374984D01*
X100460Y375002D01*
X100473Y375017D01*
X100512Y375113D01*
X100555Y375207D01*
X100557Y375227D01*
X100565Y375245D01*
X100583Y375412D01*
X100583Y383541D01*
X106426Y383541D01*
X106446Y383544D01*
X106465Y383542D01*
X106567Y383564D01*
X106669Y383580D01*
X106686Y383590D01*
X106706Y383594D01*
X106795Y383647D01*
X106886Y383696D01*
X106900Y383710D01*
X106917Y383720D01*
X106984Y383799D01*
X107056Y383874D01*
X107064Y383892D01*
X107077Y383907D01*
X107116Y384003D01*
X107159Y384097D01*
X107161Y384117D01*
X107169Y384135D01*
X107187Y384302D01*
X107187Y396494D01*
X107184Y396514D01*
X107186Y396533D01*
X107164Y396635D01*
X107148Y396737D01*
X107138Y396754D01*
X107134Y396774D01*
X107081Y396863D01*
X107032Y396954D01*
X107018Y396968D01*
X107008Y396985D01*
X106929Y397052D01*
X106854Y397124D01*
X106836Y397132D01*
X106821Y397145D01*
X106725Y397184D01*
X106631Y397227D01*
X106611Y397229D01*
X106593Y397237D01*
X106426Y397255D01*
X87216Y397255D01*
X84835Y399636D01*
X84835Y415704D01*
X87216Y418085D01*
X93472Y418085D01*
X93492Y418088D01*
X93511Y418086D01*
X93613Y418108D01*
X93715Y418124D01*
X93732Y418134D01*
X93752Y418138D01*
X93841Y418191D01*
X93932Y418240D01*
X93946Y418254D01*
X93963Y418264D01*
X94030Y418343D01*
X94102Y418418D01*
X94110Y418436D01*
X94123Y418451D01*
X94162Y418547D01*
X94205Y418641D01*
X94207Y418661D01*
X94215Y418679D01*
X94233Y418846D01*
X94233Y431514D01*
X94230Y431534D01*
X94232Y431553D01*
X94210Y431655D01*
X94194Y431757D01*
X94184Y431774D01*
X94180Y431794D01*
X94127Y431883D01*
X94078Y431974D01*
X94064Y431988D01*
X94054Y432005D01*
X93975Y432072D01*
X93900Y432144D01*
X93882Y432152D01*
X93867Y432165D01*
X93771Y432204D01*
X93677Y432247D01*
X93657Y432249D01*
X93639Y432257D01*
X93472Y432275D01*
X93121Y432275D01*
X88319Y434264D01*
X84644Y437939D01*
X82655Y442741D01*
X82655Y465939D01*
X84644Y470741D01*
X88319Y474416D01*
X93121Y476405D01*
X98319Y476405D01*
X103121Y474416D01*
X106796Y470741D01*
X108785Y465939D01*
X108785Y442741D01*
X106796Y437939D01*
X104110Y435253D01*
X104057Y435179D01*
X103997Y435110D01*
X103985Y435080D01*
X103966Y435054D01*
X103939Y434967D01*
X103905Y434882D01*
X103901Y434841D01*
X103894Y434819D01*
X103895Y434786D01*
X103887Y434715D01*
X103887Y418846D01*
X103890Y418826D01*
X103888Y418807D01*
X103910Y418705D01*
X103926Y418603D01*
X103936Y418586D01*
X103940Y418566D01*
X103993Y418477D01*
X104042Y418386D01*
X104056Y418372D01*
X104066Y418355D01*
X104145Y418288D01*
X104220Y418216D01*
X104238Y418208D01*
X104253Y418195D01*
X104349Y418156D01*
X104443Y418113D01*
X104463Y418111D01*
X104481Y418103D01*
X104648Y418085D01*
X110940Y418085D01*
X111010Y418035D01*
X111029Y418029D01*
X111045Y418018D01*
X111146Y417993D01*
X111245Y417963D01*
X111265Y417963D01*
X111284Y417958D01*
X111387Y417966D01*
X111491Y417969D01*
X111509Y417976D01*
X111529Y417977D01*
X111624Y418018D01*
X111722Y418053D01*
X111737Y418066D01*
X111755Y418074D01*
X111886Y418178D01*
X138968Y445260D01*
X139021Y445334D01*
X139081Y445404D01*
X139093Y445434D01*
X139112Y445460D01*
X139139Y445547D01*
X139173Y445632D01*
X139177Y445673D01*
X139184Y445695D01*
X139183Y445727D01*
X139191Y445799D01*
X139191Y521819D01*
X139188Y521838D01*
X139190Y521858D01*
X139168Y521959D01*
X139152Y522061D01*
X139142Y522079D01*
X139138Y522098D01*
X139085Y522187D01*
X139036Y522279D01*
X139022Y522292D01*
X139012Y522310D01*
X138933Y522377D01*
X138858Y522448D01*
X138840Y522456D01*
X138825Y522469D01*
X138729Y522508D01*
X138635Y522552D01*
X138615Y522554D01*
X138597Y522561D01*
X138430Y522580D01*
X136780Y522580D01*
X136709Y522568D01*
X136638Y522566D01*
X136589Y522548D01*
X136537Y522540D01*
X136474Y522507D01*
X136407Y522482D01*
X136366Y522449D01*
X136320Y522425D01*
X136271Y522373D01*
X136215Y522328D01*
X136186Y522284D01*
X136151Y522247D01*
X136120Y522182D01*
X136082Y522121D01*
X136069Y522071D01*
X136047Y522024D01*
X136039Y521952D01*
X136022Y521883D01*
X136026Y521831D01*
X136020Y521779D01*
X136035Y521709D01*
X136041Y521638D01*
X136061Y521590D01*
X136072Y521539D01*
X136109Y521477D01*
X136137Y521411D01*
X136182Y521355D01*
X136198Y521328D01*
X136216Y521312D01*
X136242Y521280D01*
X137158Y520364D01*
X137158Y506996D01*
X135880Y505718D01*
X135869Y505702D01*
X135853Y505690D01*
X135797Y505602D01*
X135737Y505519D01*
X135731Y505500D01*
X135720Y505483D01*
X135695Y505382D01*
X135665Y505283D01*
X135665Y505264D01*
X135660Y505244D01*
X135668Y505141D01*
X135671Y505038D01*
X135678Y505019D01*
X135679Y504999D01*
X135720Y504904D01*
X135755Y504807D01*
X135768Y504791D01*
X135776Y504773D01*
X135880Y504642D01*
X137158Y503364D01*
X137158Y489996D01*
X134777Y487615D01*
X120410Y487615D01*
X118029Y489996D01*
X118029Y498908D01*
X118014Y498998D01*
X118007Y499089D01*
X117994Y499118D01*
X117989Y499150D01*
X117947Y499231D01*
X117911Y499315D01*
X117885Y499347D01*
X117874Y499368D01*
X117851Y499390D01*
X117806Y499446D01*
X117616Y499636D01*
X117557Y499678D01*
X117506Y499727D01*
X117458Y499749D01*
X117416Y499780D01*
X117347Y499801D01*
X117282Y499831D01*
X117231Y499837D01*
X117181Y499852D01*
X117109Y499850D01*
X117038Y499858D01*
X116987Y499847D01*
X116935Y499846D01*
X116868Y499821D01*
X116798Y499806D01*
X116753Y499779D01*
X116704Y499761D01*
X116648Y499717D01*
X116587Y499680D01*
X116553Y499640D01*
X116512Y499608D01*
X116473Y499547D01*
X116427Y499493D01*
X116407Y499445D01*
X116379Y499401D01*
X116362Y499331D01*
X116335Y499265D01*
X116327Y499193D01*
X116319Y499162D01*
X116321Y499139D01*
X116316Y499098D01*
X116316Y489996D01*
X113935Y487615D01*
X99568Y487615D01*
X97187Y489996D01*
X97187Y503364D01*
X98465Y504642D01*
X98476Y504658D01*
X98492Y504670D01*
X98548Y504758D01*
X98608Y504841D01*
X98614Y504860D01*
X98625Y504877D01*
X98650Y504978D01*
X98681Y505077D01*
X98680Y505096D01*
X98685Y505116D01*
X98677Y505219D01*
X98674Y505322D01*
X98667Y505341D01*
X98666Y505361D01*
X98626Y505456D01*
X98590Y505553D01*
X98577Y505569D01*
X98570Y505587D01*
X98465Y505718D01*
X97187Y506996D01*
X97187Y508000D01*
X97184Y508020D01*
X97186Y508039D01*
X97164Y508141D01*
X97147Y508243D01*
X97138Y508260D01*
X97133Y508280D01*
X97080Y508369D01*
X97032Y508460D01*
X97017Y508474D01*
X97007Y508491D01*
X96929Y508558D01*
X96854Y508630D01*
X96836Y508638D01*
X96820Y508651D01*
X96724Y508690D01*
X96630Y508733D01*
X96611Y508735D01*
X96592Y508743D01*
X96425Y508761D01*
X95713Y508761D01*
X95693Y508758D01*
X95673Y508760D01*
X95572Y508738D01*
X95470Y508722D01*
X95453Y508712D01*
X95433Y508708D01*
X95344Y508655D01*
X95253Y508606D01*
X95239Y508592D01*
X95222Y508582D01*
X95155Y508503D01*
X95083Y508428D01*
X95075Y508410D01*
X95062Y508395D01*
X95023Y508299D01*
X94980Y508205D01*
X94978Y508185D01*
X94970Y508167D01*
X94952Y508000D01*
X94952Y506996D01*
X92596Y504641D01*
X92584Y504624D01*
X92569Y504612D01*
X92512Y504524D01*
X92452Y504441D01*
X92447Y504422D01*
X92436Y504405D01*
X92410Y504305D01*
X92380Y504206D01*
X92381Y504186D01*
X92376Y504167D01*
X92384Y504064D01*
X92386Y503960D01*
X92393Y503941D01*
X92395Y503921D01*
X92435Y503826D01*
X92471Y503729D01*
X92483Y503713D01*
X92491Y503695D01*
X92596Y503564D01*
X92920Y503240D01*
X93254Y502661D01*
X93428Y502014D01*
X93428Y498203D01*
X86149Y498203D01*
X86129Y498200D01*
X86110Y498202D01*
X86008Y498180D01*
X85906Y498163D01*
X85889Y498154D01*
X85869Y498150D01*
X85780Y498097D01*
X85689Y498048D01*
X85675Y498034D01*
X85658Y498024D01*
X85591Y497945D01*
X85520Y497870D01*
X85511Y497852D01*
X85498Y497837D01*
X85459Y497741D01*
X85416Y497647D01*
X85414Y497627D01*
X85406Y497609D01*
X85388Y497442D01*
X85388Y496679D01*
X85386Y496679D01*
X85386Y497442D01*
X85383Y497462D01*
X85385Y497481D01*
X85363Y497583D01*
X85346Y497685D01*
X85337Y497702D01*
X85333Y497722D01*
X85280Y497811D01*
X85231Y497902D01*
X85217Y497916D01*
X85207Y497933D01*
X85128Y498000D01*
X85053Y498071D01*
X85035Y498080D01*
X85020Y498093D01*
X84923Y498132D01*
X84830Y498175D01*
X84810Y498177D01*
X84792Y498185D01*
X84625Y498203D01*
X77346Y498203D01*
X77346Y502014D01*
X77519Y502661D01*
X77854Y503240D01*
X78178Y503564D01*
X78189Y503580D01*
X78205Y503593D01*
X78261Y503680D01*
X78321Y503764D01*
X78327Y503783D01*
X78338Y503800D01*
X78363Y503900D01*
X78394Y503999D01*
X78393Y504019D01*
X78398Y504038D01*
X78390Y504141D01*
X78387Y504245D01*
X78381Y504264D01*
X78379Y504283D01*
X78339Y504378D01*
X78303Y504476D01*
X78290Y504491D01*
X78283Y504510D01*
X78178Y504641D01*
X75822Y506996D01*
X75822Y520364D01*
X76847Y521389D01*
X76859Y521405D01*
X76874Y521417D01*
X76930Y521505D01*
X76991Y521588D01*
X76997Y521607D01*
X77007Y521624D01*
X77033Y521725D01*
X77063Y521823D01*
X77063Y521843D01*
X77067Y521863D01*
X77059Y521966D01*
X77057Y522069D01*
X77050Y522088D01*
X77048Y522108D01*
X77008Y522203D01*
X76972Y522300D01*
X76960Y522316D01*
X76952Y522334D01*
X76847Y522465D01*
X76532Y522781D01*
X76515Y522793D01*
X76503Y522808D01*
X76416Y522864D01*
X76332Y522924D01*
X76313Y522930D01*
X76296Y522941D01*
X76195Y522966D01*
X76097Y522997D01*
X76077Y522996D01*
X76057Y523001D01*
X75954Y522993D01*
X75851Y522990D01*
X75832Y522984D01*
X75812Y522982D01*
X75717Y522942D01*
X75620Y522906D01*
X75604Y522893D01*
X75586Y522886D01*
X75455Y522781D01*
X71270Y518596D01*
X71217Y518522D01*
X71157Y518453D01*
X71145Y518422D01*
X71127Y518396D01*
X71100Y518309D01*
X71066Y518224D01*
X71061Y518184D01*
X71054Y518161D01*
X71055Y518129D01*
X71047Y518058D01*
X71047Y511404D01*
X71062Y511314D01*
X71069Y511223D01*
X71082Y511193D01*
X71087Y511162D01*
X71130Y511081D01*
X71165Y510997D01*
X71191Y510965D01*
X71202Y510944D01*
X71225Y510922D01*
X71270Y510866D01*
X74169Y507967D01*
X74169Y467393D01*
X36292Y429516D01*
X36239Y429442D01*
X36179Y429372D01*
X36167Y429342D01*
X36148Y429316D01*
X36121Y429229D01*
X36087Y429144D01*
X36083Y429103D01*
X36076Y429081D01*
X36077Y429049D01*
X36069Y428977D01*
X36069Y428238D01*
X36072Y428218D01*
X36070Y428198D01*
X36092Y428097D01*
X36108Y427995D01*
X36118Y427977D01*
X36122Y427958D01*
X36175Y427869D01*
X36224Y427777D01*
X36238Y427764D01*
X36248Y427747D01*
X36327Y427679D01*
X36402Y427608D01*
X36420Y427600D01*
X36435Y427587D01*
X36531Y427548D01*
X36625Y427504D01*
X36645Y427502D01*
X36663Y427495D01*
X36830Y427476D01*
X40806Y427476D01*
X43187Y425095D01*
X43187Y408902D01*
X40806Y406521D01*
X29972Y406521D01*
X29952Y406518D01*
X29933Y406520D01*
X29831Y406498D01*
X29729Y406481D01*
X29712Y406472D01*
X29692Y406468D01*
X29603Y406414D01*
X29512Y406366D01*
X29498Y406352D01*
X29481Y406341D01*
X29414Y406263D01*
X29342Y406188D01*
X29334Y406170D01*
X29321Y406155D01*
X29282Y406058D01*
X29239Y405965D01*
X29237Y405945D01*
X29229Y405926D01*
X29211Y405760D01*
X29211Y399511D01*
X29214Y399491D01*
X29212Y399472D01*
X29234Y399370D01*
X29250Y399268D01*
X29260Y399251D01*
X29264Y399231D01*
X29317Y399142D01*
X29366Y399051D01*
X29380Y399037D01*
X29390Y399020D01*
X29469Y398953D01*
X29544Y398882D01*
X29562Y398873D01*
X29577Y398860D01*
X29673Y398822D01*
X29767Y398778D01*
X29787Y398776D01*
X29805Y398768D01*
X29972Y398750D01*
X32097Y398750D01*
X32097Y391471D01*
X32100Y391452D01*
X32098Y391432D01*
X32120Y391331D01*
X32137Y391229D01*
X32146Y391211D01*
X32150Y391191D01*
X32203Y391102D01*
X32252Y391011D01*
X32266Y390997D01*
X32276Y390980D01*
X32355Y390913D01*
X32430Y390842D01*
X32448Y390833D01*
X32463Y390820D01*
X32559Y390782D01*
X32653Y390738D01*
X32673Y390736D01*
X32691Y390729D01*
X32858Y390710D01*
X33621Y390710D01*
X33621Y390708D01*
X32858Y390708D01*
X32838Y390705D01*
X32819Y390707D01*
X32717Y390685D01*
X32615Y390669D01*
X32598Y390659D01*
X32578Y390655D01*
X32489Y390602D01*
X32398Y390554D01*
X32384Y390539D01*
X32367Y390529D01*
X32300Y390450D01*
X32229Y390375D01*
X32220Y390357D01*
X32207Y390342D01*
X32168Y390246D01*
X32125Y390152D01*
X32123Y390132D01*
X32115Y390114D01*
X32097Y389947D01*
X32097Y385001D01*
X32112Y384910D01*
X32119Y384820D01*
X32131Y384790D01*
X32137Y384758D01*
X32179Y384677D01*
X32215Y384593D01*
X32241Y384561D01*
X32252Y384540D01*
X32259Y384534D01*
X32259Y361645D01*
X32278Y361530D01*
X32295Y361414D01*
X32297Y361408D01*
X32298Y361402D01*
X32353Y361299D01*
X32406Y361194D01*
X32411Y361190D01*
X32414Y361184D01*
X32498Y361105D01*
X32582Y361022D01*
X32588Y361019D01*
X32592Y361015D01*
X32609Y361007D01*
X32729Y360941D01*
X34354Y360268D01*
X37748Y356874D01*
X39585Y352440D01*
X39585Y347640D01*
X37748Y343206D01*
X34354Y339812D01*
X34113Y339712D01*
X34023Y339657D01*
X33931Y339605D01*
X33919Y339592D01*
X33903Y339582D01*
X33836Y339501D01*
X33766Y339424D01*
X33758Y339407D01*
X33747Y339393D01*
X33709Y339295D01*
X33667Y339198D01*
X33665Y339180D01*
X33658Y339163D01*
X33654Y339058D01*
X33645Y338953D01*
X33649Y338936D01*
X33648Y338918D01*
X33677Y338816D01*
X33702Y338714D01*
X33711Y338699D01*
X33717Y338681D01*
X33777Y338595D01*
X33832Y338506D01*
X33849Y338491D01*
X33857Y338479D01*
X33882Y338460D01*
X33956Y338393D01*
X34387Y338080D01*
X35560Y336907D01*
X36535Y335565D01*
X37288Y334086D01*
X37801Y332508D01*
X37951Y331563D01*
X28282Y331563D01*
X28262Y331560D01*
X28243Y331562D01*
X28141Y331540D01*
X28039Y331523D01*
X28022Y331514D01*
X28002Y331510D01*
X27913Y331457D01*
X27822Y331408D01*
X27808Y331394D01*
X27791Y331384D01*
X27724Y331305D01*
X27653Y331230D01*
X27644Y331212D01*
X27631Y331197D01*
X27593Y331101D01*
X27549Y331007D01*
X27547Y330987D01*
X27539Y330969D01*
X27521Y330802D01*
X27521Y329278D01*
X27524Y329258D01*
X27522Y329239D01*
X27544Y329137D01*
X27561Y329035D01*
X27570Y329018D01*
X27574Y328998D01*
X27627Y328909D01*
X27676Y328818D01*
X27690Y328804D01*
X27700Y328787D01*
X27779Y328720D01*
X27854Y328649D01*
X27872Y328640D01*
X27887Y328627D01*
X27983Y328588D01*
X28077Y328545D01*
X28097Y328543D01*
X28115Y328535D01*
X28282Y328517D01*
X37951Y328517D01*
X37801Y327572D01*
X37288Y325994D01*
X36535Y324515D01*
X35560Y323173D01*
X34387Y322000D01*
X33956Y321687D01*
X33883Y321613D01*
X33805Y321541D01*
X33796Y321525D01*
X33783Y321512D01*
X33737Y321418D01*
X33686Y321326D01*
X33683Y321308D01*
X33675Y321292D01*
X33661Y321187D01*
X33643Y321084D01*
X33645Y321066D01*
X33643Y321048D01*
X33663Y320945D01*
X33678Y320840D01*
X33687Y320824D01*
X33690Y320806D01*
X33742Y320715D01*
X33790Y320621D01*
X33803Y320608D01*
X33812Y320593D01*
X33891Y320522D01*
X33966Y320449D01*
X33985Y320438D01*
X33996Y320429D01*
X34025Y320416D01*
X34113Y320368D01*
X34354Y320268D01*
X37748Y316874D01*
X39585Y312440D01*
X39585Y307640D01*
X37748Y303206D01*
X35120Y300578D01*
X35109Y300562D01*
X35093Y300550D01*
X35037Y300462D01*
X34977Y300379D01*
X34971Y300360D01*
X34960Y300343D01*
X34935Y300242D01*
X34904Y300143D01*
X34905Y300124D01*
X34900Y300104D01*
X34908Y300001D01*
X34911Y299898D01*
X34918Y299879D01*
X34919Y299859D01*
X34960Y299764D01*
X34995Y299667D01*
X35008Y299651D01*
X35016Y299633D01*
X35120Y299502D01*
X35725Y298897D01*
X35741Y298886D01*
X35753Y298870D01*
X35841Y298814D01*
X35924Y298754D01*
X35943Y298748D01*
X35960Y298737D01*
X36061Y298712D01*
X36160Y298681D01*
X36179Y298682D01*
X36199Y298677D01*
X36302Y298685D01*
G37*
G36*
X134935Y563641D02*
X134935Y563641D01*
X135026Y563649D01*
X135056Y563661D01*
X135088Y563666D01*
X135169Y563709D01*
X135253Y563745D01*
X135285Y563771D01*
X135305Y563782D01*
X135328Y563805D01*
X135384Y563850D01*
X154815Y583281D01*
X154826Y583297D01*
X154842Y583309D01*
X154898Y583397D01*
X154958Y583480D01*
X154964Y583499D01*
X154975Y583516D01*
X155000Y583617D01*
X155031Y583716D01*
X155030Y583735D01*
X155035Y583755D01*
X155027Y583858D01*
X155024Y583961D01*
X155017Y583980D01*
X155016Y584000D01*
X154975Y584095D01*
X154940Y584192D01*
X154927Y584208D01*
X154919Y584226D01*
X154815Y584357D01*
X132336Y606836D01*
X132262Y606889D01*
X132192Y606949D01*
X132162Y606961D01*
X132136Y606980D01*
X132049Y607007D01*
X131964Y607041D01*
X131923Y607045D01*
X131901Y607052D01*
X131869Y607051D01*
X131797Y607059D01*
X121949Y607059D01*
X121859Y607045D01*
X121768Y607037D01*
X121738Y607025D01*
X121706Y607020D01*
X121625Y606977D01*
X121541Y606941D01*
X121509Y606915D01*
X121489Y606904D01*
X121466Y606881D01*
X121410Y606836D01*
X121252Y606678D01*
X117254Y606678D01*
X114203Y609729D01*
X110997Y612935D01*
X110997Y675659D01*
X110994Y675678D01*
X110996Y675698D01*
X110974Y675799D01*
X110958Y675901D01*
X110948Y675919D01*
X110944Y675938D01*
X110891Y676027D01*
X110842Y676119D01*
X110828Y676132D01*
X110818Y676150D01*
X110739Y676217D01*
X110664Y676288D01*
X110646Y676296D01*
X110631Y676309D01*
X110535Y676348D01*
X110441Y676392D01*
X110421Y676394D01*
X110403Y676401D01*
X110236Y676420D01*
X96733Y676420D01*
X94955Y678198D01*
X94938Y678210D01*
X94926Y678225D01*
X94839Y678281D01*
X94755Y678341D01*
X94736Y678347D01*
X94719Y678358D01*
X94618Y678383D01*
X94520Y678414D01*
X94500Y678413D01*
X94480Y678418D01*
X94377Y678410D01*
X94274Y678407D01*
X94255Y678401D01*
X94235Y678399D01*
X94140Y678359D01*
X94043Y678323D01*
X94027Y678310D01*
X94009Y678303D01*
X93878Y678198D01*
X92100Y676420D01*
X76733Y676420D01*
X74352Y678801D01*
X74352Y705028D01*
X76733Y707409D01*
X78994Y707409D01*
X79014Y707413D01*
X79033Y707410D01*
X79135Y707432D01*
X79237Y707449D01*
X79254Y707458D01*
X79274Y707463D01*
X79363Y707516D01*
X79454Y707564D01*
X79468Y707579D01*
X79485Y707589D01*
X79552Y707667D01*
X79624Y707742D01*
X79632Y707761D01*
X79645Y707776D01*
X79684Y707872D01*
X79727Y707966D01*
X79729Y707985D01*
X79737Y708004D01*
X79755Y708171D01*
X79755Y746727D01*
X79741Y746817D01*
X79733Y746908D01*
X79721Y746938D01*
X79716Y746970D01*
X79673Y747051D01*
X79637Y747135D01*
X79611Y747167D01*
X79600Y747187D01*
X79577Y747210D01*
X79532Y747266D01*
X78832Y747966D01*
X78732Y748207D01*
X78677Y748297D01*
X78625Y748389D01*
X78612Y748401D01*
X78602Y748417D01*
X78521Y748484D01*
X78444Y748554D01*
X78427Y748562D01*
X78413Y748573D01*
X78315Y748611D01*
X78218Y748653D01*
X78200Y748655D01*
X78183Y748662D01*
X78078Y748666D01*
X77973Y748675D01*
X77956Y748671D01*
X77938Y748672D01*
X77836Y748643D01*
X77734Y748618D01*
X77719Y748609D01*
X77701Y748603D01*
X77615Y748543D01*
X77526Y748488D01*
X77511Y748471D01*
X77499Y748463D01*
X77480Y748438D01*
X77413Y748364D01*
X77100Y747933D01*
X75927Y746760D01*
X74585Y745785D01*
X73106Y745032D01*
X71528Y744519D01*
X70583Y744369D01*
X70583Y754038D01*
X70580Y754058D01*
X70582Y754077D01*
X70560Y754179D01*
X70543Y754281D01*
X70534Y754298D01*
X70530Y754318D01*
X70477Y754407D01*
X70428Y754498D01*
X70414Y754512D01*
X70404Y754529D01*
X70325Y754596D01*
X70250Y754667D01*
X70232Y754676D01*
X70217Y754689D01*
X70121Y754727D01*
X70027Y754771D01*
X70007Y754773D01*
X69989Y754781D01*
X69822Y754799D01*
X68298Y754799D01*
X68278Y754796D01*
X68259Y754798D01*
X68157Y754776D01*
X68055Y754759D01*
X68038Y754750D01*
X68018Y754746D01*
X67929Y754693D01*
X67838Y754644D01*
X67824Y754630D01*
X67807Y754620D01*
X67740Y754541D01*
X67669Y754466D01*
X67660Y754448D01*
X67647Y754433D01*
X67608Y754337D01*
X67565Y754243D01*
X67563Y754223D01*
X67555Y754205D01*
X67537Y754038D01*
X67537Y744369D01*
X66592Y744519D01*
X65014Y745032D01*
X64354Y745368D01*
X64282Y745391D01*
X64213Y745423D01*
X64165Y745428D01*
X64119Y745443D01*
X64044Y745442D01*
X63969Y745450D01*
X63921Y745440D01*
X63873Y745439D01*
X63802Y745414D01*
X63728Y745398D01*
X63687Y745373D01*
X63641Y745357D01*
X63582Y745310D01*
X63517Y745271D01*
X63486Y745235D01*
X63448Y745205D01*
X63406Y745142D01*
X63357Y745085D01*
X63339Y745040D01*
X63313Y745000D01*
X63294Y744927D01*
X63265Y744856D01*
X63258Y744792D01*
X63250Y744762D01*
X63252Y744736D01*
X63247Y744690D01*
X63247Y655095D01*
X63261Y655005D01*
X63269Y654914D01*
X63281Y654884D01*
X63286Y654852D01*
X63329Y654771D01*
X63365Y654687D01*
X63391Y654655D01*
X63402Y654635D01*
X63425Y654612D01*
X63470Y654556D01*
X78487Y639539D01*
X78487Y564388D01*
X78490Y564368D01*
X78488Y564349D01*
X78510Y564247D01*
X78526Y564145D01*
X78536Y564128D01*
X78540Y564108D01*
X78593Y564019D01*
X78642Y563928D01*
X78656Y563914D01*
X78666Y563897D01*
X78745Y563830D01*
X78820Y563758D01*
X78838Y563750D01*
X78853Y563737D01*
X78949Y563698D01*
X79043Y563655D01*
X79063Y563653D01*
X79081Y563645D01*
X79248Y563627D01*
X134845Y563627D01*
X134935Y563641D01*
G37*
G36*
X18816Y400277D02*
X18816Y400277D01*
X18835Y400275D01*
X18937Y400297D01*
X19039Y400314D01*
X19056Y400323D01*
X19076Y400327D01*
X19165Y400380D01*
X19256Y400429D01*
X19270Y400443D01*
X19287Y400453D01*
X19354Y400532D01*
X19426Y400607D01*
X19434Y400625D01*
X19447Y400640D01*
X19486Y400737D01*
X19529Y400830D01*
X19531Y400850D01*
X19539Y400868D01*
X19557Y401035D01*
X19557Y402307D01*
X19543Y402397D01*
X19535Y402488D01*
X19523Y402518D01*
X19518Y402550D01*
X19475Y402631D01*
X19439Y402715D01*
X19413Y402747D01*
X19402Y402767D01*
X19379Y402790D01*
X19334Y402846D01*
X14985Y407195D01*
X14985Y426433D01*
X36409Y447857D01*
X36451Y447916D01*
X36501Y447968D01*
X36523Y448015D01*
X36553Y448057D01*
X36574Y448126D01*
X36604Y448191D01*
X36610Y448242D01*
X36625Y448292D01*
X36623Y448364D01*
X36631Y448435D01*
X36620Y448486D01*
X36619Y448538D01*
X36594Y448605D01*
X36579Y448675D01*
X36552Y448720D01*
X36534Y448769D01*
X36490Y448825D01*
X36453Y448887D01*
X36413Y448920D01*
X36381Y448961D01*
X36320Y449000D01*
X36266Y449046D01*
X36218Y449066D01*
X36174Y449094D01*
X36104Y449112D01*
X36038Y449138D01*
X35966Y449146D01*
X35935Y449154D01*
X35912Y449152D01*
X35871Y449157D01*
X32146Y449157D01*
X32146Y456587D01*
X41663Y456587D01*
X41663Y454949D01*
X41675Y454878D01*
X41677Y454807D01*
X41695Y454758D01*
X41703Y454706D01*
X41737Y454643D01*
X41761Y454576D01*
X41794Y454535D01*
X41818Y454489D01*
X41870Y454440D01*
X41915Y454384D01*
X41959Y454355D01*
X41996Y454320D01*
X42061Y454289D01*
X42122Y454251D01*
X42172Y454238D01*
X42220Y454216D01*
X42291Y454208D01*
X42360Y454191D01*
X42412Y454195D01*
X42464Y454189D01*
X42534Y454204D01*
X42606Y454210D01*
X42653Y454230D01*
X42704Y454241D01*
X42766Y454278D01*
X42832Y454306D01*
X42888Y454351D01*
X42915Y454367D01*
X42931Y454385D01*
X42963Y454411D01*
X55148Y466596D01*
X55201Y466670D01*
X55261Y466740D01*
X55273Y466770D01*
X55292Y466796D01*
X55319Y466883D01*
X55353Y466968D01*
X55357Y467009D01*
X55364Y467031D01*
X55363Y467063D01*
X55371Y467135D01*
X55371Y486854D01*
X55368Y486874D01*
X55370Y486893D01*
X55348Y486995D01*
X55332Y487097D01*
X55322Y487114D01*
X55318Y487134D01*
X55265Y487223D01*
X55216Y487314D01*
X55202Y487328D01*
X55192Y487345D01*
X55113Y487412D01*
X55038Y487484D01*
X55020Y487492D01*
X55005Y487505D01*
X54909Y487544D01*
X54815Y487587D01*
X54795Y487589D01*
X54777Y487597D01*
X54610Y487615D01*
X54299Y487615D01*
X51918Y489996D01*
X51918Y501773D01*
X51903Y501863D01*
X51896Y501954D01*
X51883Y501984D01*
X51878Y502016D01*
X51835Y502096D01*
X51799Y502180D01*
X51774Y502213D01*
X51763Y502233D01*
X51739Y502255D01*
X51695Y502311D01*
X51564Y502442D01*
X48513Y505493D01*
X48513Y521734D01*
X48499Y521825D01*
X48491Y521915D01*
X48479Y521945D01*
X48474Y521977D01*
X48431Y522058D01*
X48395Y522142D01*
X48369Y522174D01*
X48358Y522195D01*
X48335Y522217D01*
X48290Y522273D01*
X46815Y523748D01*
X46103Y525468D01*
X46078Y525507D01*
X46063Y525550D01*
X46014Y525611D01*
X45973Y525677D01*
X45938Y525706D01*
X45909Y525742D01*
X45843Y525784D01*
X45783Y525834D01*
X45741Y525850D01*
X45702Y525875D01*
X45626Y525894D01*
X45554Y525922D01*
X45508Y525924D01*
X45463Y525935D01*
X45386Y525929D01*
X45308Y525932D01*
X45264Y525920D01*
X45218Y525916D01*
X45147Y525886D01*
X45072Y525864D01*
X45034Y525838D01*
X44992Y525820D01*
X44885Y525734D01*
X44870Y525724D01*
X44867Y525720D01*
X44861Y525715D01*
X43410Y524264D01*
X43357Y524190D01*
X43298Y524121D01*
X43286Y524091D01*
X43267Y524064D01*
X43240Y523977D01*
X43206Y523893D01*
X43201Y523852D01*
X43194Y523829D01*
X43195Y523797D01*
X43187Y523726D01*
X43187Y514705D01*
X40806Y512324D01*
X20439Y512324D01*
X18058Y514705D01*
X18058Y519944D01*
X18050Y519989D01*
X18052Y520035D01*
X18031Y520110D01*
X18018Y520187D01*
X17997Y520227D01*
X17984Y520272D01*
X17939Y520336D01*
X17903Y520404D01*
X17870Y520436D01*
X17844Y520474D01*
X17781Y520520D01*
X17725Y520574D01*
X17683Y520593D01*
X17646Y520620D01*
X17572Y520644D01*
X17502Y520677D01*
X17456Y520682D01*
X17412Y520697D01*
X17334Y520696D01*
X17257Y520704D01*
X17212Y520695D01*
X17166Y520694D01*
X17035Y520656D01*
X17017Y520652D01*
X17012Y520650D01*
X17005Y520647D01*
X16585Y520473D01*
X13463Y520473D01*
X12295Y520957D01*
X12251Y520968D01*
X12209Y520987D01*
X12132Y520995D01*
X12056Y521013D01*
X12010Y521009D01*
X11965Y521014D01*
X11888Y520997D01*
X11811Y520990D01*
X11769Y520971D01*
X11724Y520962D01*
X11657Y520922D01*
X11586Y520890D01*
X11552Y520859D01*
X11513Y520836D01*
X11462Y520776D01*
X11405Y520724D01*
X11383Y520683D01*
X11353Y520649D01*
X11324Y520576D01*
X11287Y520508D01*
X11278Y520463D01*
X11261Y520420D01*
X11246Y520285D01*
X11243Y520266D01*
X11244Y520261D01*
X11243Y520254D01*
X11243Y401035D01*
X11246Y401015D01*
X11244Y400996D01*
X11266Y400894D01*
X11282Y400792D01*
X11292Y400775D01*
X11296Y400755D01*
X11349Y400666D01*
X11398Y400575D01*
X11412Y400561D01*
X11422Y400544D01*
X11501Y400477D01*
X11576Y400406D01*
X11594Y400397D01*
X11609Y400384D01*
X11705Y400346D01*
X11799Y400302D01*
X11819Y400300D01*
X11837Y400292D01*
X12004Y400274D01*
X18796Y400274D01*
X18816Y400277D01*
G37*
G36*
X307472Y359930D02*
X307472Y359930D01*
X307544Y359932D01*
X307593Y359950D01*
X307644Y359958D01*
X307707Y359992D01*
X307775Y360017D01*
X307816Y360049D01*
X307861Y360074D01*
X307911Y360125D01*
X307967Y360170D01*
X307995Y360214D01*
X308031Y360252D01*
X308061Y360317D01*
X308100Y360377D01*
X308113Y360428D01*
X308134Y360475D01*
X308142Y360546D01*
X308160Y360616D01*
X308156Y360668D01*
X308162Y360719D01*
X308146Y360790D01*
X308141Y360861D01*
X308120Y360909D01*
X308109Y360960D01*
X308073Y361021D01*
X308044Y361087D01*
X308000Y361143D01*
X307983Y361171D01*
X307965Y361186D01*
X307940Y361218D01*
X307692Y361466D01*
X305855Y365900D01*
X305855Y370700D01*
X306592Y372479D01*
X306604Y372530D01*
X306621Y372566D01*
X306628Y372629D01*
X306648Y372706D01*
X306647Y372712D01*
X306648Y372719D01*
X306644Y372770D01*
X306648Y372811D01*
X306634Y372874D01*
X306628Y372951D01*
X306626Y372957D01*
X306625Y372963D01*
X306605Y373009D01*
X306596Y373051D01*
X306561Y373109D01*
X306532Y373178D01*
X306527Y373184D01*
X306525Y373188D01*
X306513Y373202D01*
X306486Y373236D01*
X306470Y373262D01*
X306453Y373277D01*
X306427Y373309D01*
X301500Y378236D01*
X301426Y378289D01*
X301356Y378349D01*
X301326Y378361D01*
X301300Y378380D01*
X301213Y378407D01*
X301128Y378441D01*
X301087Y378445D01*
X301065Y378452D01*
X301033Y378451D01*
X300961Y378459D01*
X270002Y378459D01*
X269982Y378456D01*
X269963Y378458D01*
X269861Y378436D01*
X269759Y378420D01*
X269742Y378410D01*
X269722Y378406D01*
X269633Y378353D01*
X269542Y378304D01*
X269528Y378290D01*
X269511Y378280D01*
X269444Y378201D01*
X269372Y378126D01*
X269364Y378108D01*
X269351Y378093D01*
X269312Y377997D01*
X269269Y377903D01*
X269267Y377883D01*
X269259Y377865D01*
X269241Y377698D01*
X269241Y376173D01*
X257302Y376173D01*
X257282Y376170D01*
X257263Y376172D01*
X257161Y376150D01*
X257059Y376133D01*
X257042Y376124D01*
X257022Y376120D01*
X256933Y376067D01*
X256842Y376018D01*
X256828Y376004D01*
X256811Y375994D01*
X256744Y375915D01*
X256673Y375840D01*
X256664Y375822D01*
X256651Y375807D01*
X256612Y375711D01*
X256569Y375617D01*
X256567Y375597D01*
X256559Y375579D01*
X256541Y375412D01*
X256541Y374649D01*
X256539Y374649D01*
X256539Y375412D01*
X256536Y375432D01*
X256538Y375451D01*
X256516Y375553D01*
X256499Y375655D01*
X256490Y375672D01*
X256486Y375692D01*
X256433Y375781D01*
X256384Y375872D01*
X256370Y375886D01*
X256360Y375903D01*
X256281Y375970D01*
X256206Y376041D01*
X256188Y376050D01*
X256173Y376063D01*
X256077Y376102D01*
X255983Y376145D01*
X255963Y376147D01*
X255945Y376155D01*
X255778Y376173D01*
X243839Y376173D01*
X243839Y381334D01*
X244012Y381981D01*
X244347Y382560D01*
X244820Y383033D01*
X245399Y383368D01*
X246046Y383541D01*
X251685Y383541D01*
X251756Y383552D01*
X251828Y383554D01*
X251877Y383572D01*
X251928Y383580D01*
X251992Y383614D01*
X252059Y383639D01*
X252100Y383671D01*
X252146Y383696D01*
X252195Y383748D01*
X252251Y383792D01*
X252279Y383836D01*
X252315Y383874D01*
X252345Y383939D01*
X252384Y383999D01*
X252397Y384050D01*
X252419Y384097D01*
X252426Y384168D01*
X252444Y384238D01*
X252440Y384290D01*
X252446Y384341D01*
X252430Y384412D01*
X252425Y384483D01*
X252404Y384531D01*
X252393Y384582D01*
X252357Y384643D01*
X252329Y384709D01*
X252284Y384765D01*
X252267Y384793D01*
X252249Y384808D01*
X252224Y384840D01*
X240032Y397032D01*
X239958Y397085D01*
X239888Y397145D01*
X239858Y397157D01*
X239832Y397176D01*
X239745Y397203D01*
X239660Y397237D01*
X239619Y397241D01*
X239597Y397248D01*
X239565Y397247D01*
X239493Y397255D01*
X215804Y397255D01*
X213423Y399636D01*
X213423Y406562D01*
X213408Y406652D01*
X213401Y406743D01*
X213388Y406773D01*
X213383Y406805D01*
X213340Y406885D01*
X213305Y406969D01*
X213279Y407001D01*
X213268Y407022D01*
X213245Y407044D01*
X213200Y407100D01*
X210850Y409450D01*
X210792Y409492D01*
X210740Y409541D01*
X210693Y409563D01*
X210651Y409593D01*
X210582Y409614D01*
X210517Y409645D01*
X210465Y409650D01*
X210415Y409666D01*
X210344Y409664D01*
X210273Y409672D01*
X210222Y409661D01*
X210170Y409659D01*
X210102Y409635D01*
X210032Y409619D01*
X209988Y409593D01*
X209939Y409575D01*
X209883Y409530D01*
X209821Y409493D01*
X209787Y409454D01*
X209747Y409421D01*
X209708Y409361D01*
X209661Y409306D01*
X209642Y409258D01*
X209614Y409214D01*
X209596Y409145D01*
X209569Y409078D01*
X209561Y409007D01*
X209553Y408976D01*
X209555Y408952D01*
X209551Y408911D01*
X209551Y406780D01*
X201676Y406780D01*
X201656Y406777D01*
X201637Y406779D01*
X201535Y406757D01*
X201433Y406740D01*
X201416Y406731D01*
X201396Y406727D01*
X201307Y406674D01*
X201216Y406625D01*
X201202Y406611D01*
X201185Y406601D01*
X201118Y406522D01*
X201047Y406447D01*
X201038Y406429D01*
X201025Y406414D01*
X200986Y406318D01*
X200943Y406224D01*
X200941Y406204D01*
X200933Y406186D01*
X200915Y406019D01*
X200915Y405256D01*
X200913Y405256D01*
X200913Y406019D01*
X200910Y406039D01*
X200912Y406058D01*
X200890Y406160D01*
X200873Y406262D01*
X200864Y406279D01*
X200860Y406299D01*
X200807Y406388D01*
X200758Y406479D01*
X200744Y406493D01*
X200734Y406510D01*
X200655Y406577D01*
X200580Y406648D01*
X200562Y406657D01*
X200547Y406670D01*
X200451Y406709D01*
X200357Y406752D01*
X200337Y406754D01*
X200319Y406762D01*
X200152Y406780D01*
X192277Y406780D01*
X192277Y410689D01*
X192266Y410760D01*
X192264Y410832D01*
X192246Y410881D01*
X192238Y410932D01*
X192204Y410995D01*
X192179Y411063D01*
X192147Y411104D01*
X192122Y411150D01*
X192071Y411199D01*
X192026Y411255D01*
X191982Y411283D01*
X191944Y411319D01*
X191879Y411349D01*
X191819Y411388D01*
X191768Y411401D01*
X191721Y411423D01*
X191650Y411430D01*
X191580Y411448D01*
X191528Y411444D01*
X191477Y411450D01*
X191406Y411434D01*
X191335Y411429D01*
X191287Y411408D01*
X191236Y411397D01*
X191175Y411361D01*
X191109Y411333D01*
X191053Y411288D01*
X191025Y411271D01*
X191010Y411253D01*
X190978Y411228D01*
X188184Y408434D01*
X188131Y408360D01*
X188071Y408290D01*
X188059Y408260D01*
X188040Y408234D01*
X188013Y408147D01*
X187979Y408062D01*
X187975Y408021D01*
X187968Y407999D01*
X187969Y407967D01*
X187961Y407895D01*
X187961Y401349D01*
X187975Y401259D01*
X187983Y401168D01*
X187995Y401138D01*
X188000Y401106D01*
X188043Y401025D01*
X188079Y400941D01*
X188105Y400909D01*
X188116Y400888D01*
X188139Y400866D01*
X188184Y400810D01*
X190978Y398016D01*
X191036Y397974D01*
X191088Y397925D01*
X191135Y397903D01*
X191177Y397873D01*
X191246Y397852D01*
X191311Y397821D01*
X191363Y397816D01*
X191413Y397800D01*
X191484Y397802D01*
X191555Y397794D01*
X191606Y397805D01*
X191658Y397807D01*
X191726Y397831D01*
X191796Y397847D01*
X191840Y397873D01*
X191889Y397891D01*
X191945Y397936D01*
X192007Y397973D01*
X192041Y398012D01*
X192081Y398045D01*
X192120Y398105D01*
X192167Y398160D01*
X192186Y398208D01*
X192214Y398252D01*
X192232Y398321D01*
X192259Y398388D01*
X192267Y398459D01*
X192275Y398490D01*
X192273Y398514D01*
X192277Y398555D01*
X192277Y403734D01*
X199391Y403734D01*
X199391Y391540D01*
X199292Y391540D01*
X199221Y391529D01*
X199149Y391527D01*
X199100Y391509D01*
X199049Y391501D01*
X198986Y391467D01*
X198918Y391442D01*
X198877Y391410D01*
X198831Y391385D01*
X198782Y391334D01*
X198726Y391289D01*
X198698Y391245D01*
X198662Y391207D01*
X198632Y391142D01*
X198593Y391082D01*
X198580Y391031D01*
X198558Y390984D01*
X198551Y390913D01*
X198533Y390843D01*
X198537Y390791D01*
X198531Y390740D01*
X198547Y390669D01*
X198552Y390598D01*
X198573Y390550D01*
X198584Y390499D01*
X198620Y390438D01*
X198648Y390372D01*
X198693Y390316D01*
X198710Y390288D01*
X198728Y390273D01*
X198753Y390241D01*
X213647Y375347D01*
X213705Y375305D01*
X213757Y375256D01*
X213805Y375234D01*
X213847Y375203D01*
X213915Y375182D01*
X213981Y375152D01*
X214032Y375146D01*
X214082Y375131D01*
X214154Y375133D01*
X214225Y375125D01*
X214276Y375136D01*
X214328Y375137D01*
X214395Y375162D01*
X214465Y375177D01*
X214510Y375204D01*
X214559Y375222D01*
X214615Y375267D01*
X214676Y375303D01*
X214710Y375343D01*
X214751Y375375D01*
X214790Y375436D01*
X214836Y375490D01*
X214856Y375539D01*
X214884Y375582D01*
X214901Y375652D01*
X214928Y375718D01*
X214936Y375790D01*
X214944Y375821D01*
X214942Y375844D01*
X214947Y375885D01*
X214947Y381334D01*
X215120Y381981D01*
X215454Y382560D01*
X215927Y383033D01*
X216507Y383368D01*
X217153Y383541D01*
X226124Y383541D01*
X226124Y375412D01*
X226128Y375392D01*
X226125Y375373D01*
X226147Y375271D01*
X226164Y375169D01*
X226173Y375152D01*
X226178Y375132D01*
X226231Y375043D01*
X226279Y374952D01*
X226294Y374938D01*
X226304Y374921D01*
X226382Y374854D01*
X226457Y374783D01*
X226476Y374774D01*
X226491Y374761D01*
X226587Y374722D01*
X226681Y374679D01*
X226700Y374677D01*
X226719Y374669D01*
X226886Y374651D01*
X227648Y374651D01*
X227648Y374649D01*
X226886Y374649D01*
X226866Y374646D01*
X226846Y374648D01*
X226745Y374626D01*
X226643Y374609D01*
X226625Y374600D01*
X226606Y374596D01*
X226517Y374543D01*
X226425Y374494D01*
X226412Y374480D01*
X226395Y374470D01*
X226327Y374391D01*
X226256Y374316D01*
X226248Y374298D01*
X226235Y374283D01*
X226196Y374187D01*
X226152Y374093D01*
X226150Y374073D01*
X226143Y374055D01*
X226124Y373888D01*
X226124Y365759D01*
X225073Y365759D01*
X225002Y365748D01*
X224930Y365746D01*
X224881Y365728D01*
X224830Y365720D01*
X224767Y365686D01*
X224699Y365661D01*
X224659Y365629D01*
X224612Y365604D01*
X224563Y365552D01*
X224507Y365508D01*
X224479Y365464D01*
X224443Y365426D01*
X224413Y365361D01*
X224374Y365301D01*
X224361Y365250D01*
X224339Y365203D01*
X224332Y365132D01*
X224314Y365062D01*
X224318Y365010D01*
X224312Y364959D01*
X224328Y364888D01*
X224333Y364817D01*
X224354Y364769D01*
X224365Y364718D01*
X224401Y364657D01*
X224430Y364591D01*
X224474Y364535D01*
X224491Y364507D01*
X224509Y364492D01*
X224534Y364460D01*
X228852Y360142D01*
X228926Y360089D01*
X228996Y360029D01*
X229026Y360017D01*
X229052Y359998D01*
X229139Y359971D01*
X229224Y359937D01*
X229265Y359933D01*
X229287Y359926D01*
X229319Y359927D01*
X229391Y359919D01*
X307401Y359919D01*
X307472Y359930D01*
G37*
G36*
X317178Y386780D02*
X317178Y386780D01*
X317197Y386778D01*
X317299Y386800D01*
X317401Y386817D01*
X317418Y386826D01*
X317438Y386830D01*
X317527Y386883D01*
X317618Y386932D01*
X317632Y386946D01*
X317649Y386956D01*
X317716Y387035D01*
X317787Y387110D01*
X317796Y387128D01*
X317809Y387143D01*
X317847Y387239D01*
X317891Y387333D01*
X317893Y387353D01*
X317901Y387371D01*
X317919Y387538D01*
X317919Y389062D01*
X317916Y389082D01*
X317918Y389101D01*
X317896Y389203D01*
X317879Y389305D01*
X317870Y389322D01*
X317866Y389342D01*
X317813Y389431D01*
X317764Y389522D01*
X317750Y389536D01*
X317740Y389553D01*
X317661Y389620D01*
X317586Y389691D01*
X317568Y389700D01*
X317553Y389713D01*
X317457Y389752D01*
X317363Y389795D01*
X317343Y389797D01*
X317325Y389805D01*
X317158Y389823D01*
X307489Y389823D01*
X307639Y390768D01*
X308152Y392346D01*
X308905Y393825D01*
X309880Y395167D01*
X311053Y396340D01*
X312395Y397315D01*
X313874Y398068D01*
X314265Y398196D01*
X314332Y398230D01*
X314403Y398256D01*
X314441Y398286D01*
X314484Y398308D01*
X314536Y398363D01*
X314595Y398410D01*
X314621Y398450D01*
X314655Y398485D01*
X314687Y398553D01*
X314728Y398617D01*
X314740Y398664D01*
X314761Y398707D01*
X314770Y398782D01*
X314788Y398855D01*
X314785Y398903D01*
X314790Y398951D01*
X314775Y399025D01*
X314769Y399101D01*
X314750Y399145D01*
X314741Y399192D01*
X314702Y399257D01*
X314673Y399327D01*
X314632Y399378D01*
X314617Y399405D01*
X314597Y399421D01*
X314568Y399458D01*
X301500Y412526D01*
X301426Y412579D01*
X301356Y412639D01*
X301326Y412651D01*
X301300Y412670D01*
X301213Y412697D01*
X301128Y412731D01*
X301087Y412735D01*
X301065Y412742D01*
X301033Y412741D01*
X300961Y412749D01*
X271526Y412749D01*
X271506Y412746D01*
X271487Y412748D01*
X271385Y412726D01*
X271283Y412710D01*
X271266Y412700D01*
X271246Y412696D01*
X271157Y412643D01*
X271066Y412594D01*
X271052Y412580D01*
X271035Y412570D01*
X270968Y412491D01*
X270896Y412416D01*
X270888Y412398D01*
X270875Y412383D01*
X270836Y412287D01*
X270793Y412193D01*
X270791Y412173D01*
X270783Y412155D01*
X270765Y411988D01*
X270765Y399636D01*
X268384Y397255D01*
X255299Y397255D01*
X255228Y397244D01*
X255156Y397242D01*
X255107Y397224D01*
X255056Y397216D01*
X254992Y397182D01*
X254925Y397157D01*
X254884Y397125D01*
X254838Y397100D01*
X254789Y397048D01*
X254733Y397004D01*
X254705Y396960D01*
X254669Y396922D01*
X254639Y396857D01*
X254600Y396797D01*
X254587Y396746D01*
X254565Y396699D01*
X254558Y396628D01*
X254540Y396558D01*
X254544Y396506D01*
X254538Y396455D01*
X254554Y396384D01*
X254559Y396313D01*
X254580Y396265D01*
X254591Y396214D01*
X254627Y396153D01*
X254655Y396087D01*
X254700Y396031D01*
X254717Y396003D01*
X254735Y395988D01*
X254760Y395956D01*
X262380Y388336D01*
X262454Y388283D01*
X262524Y388223D01*
X262554Y388211D01*
X262580Y388192D01*
X262667Y388165D01*
X262752Y388131D01*
X262793Y388127D01*
X262815Y388120D01*
X262847Y388121D01*
X262919Y388113D01*
X305275Y388113D01*
X306388Y387000D01*
X306462Y386947D01*
X306532Y386887D01*
X306562Y386875D01*
X306588Y386856D01*
X306675Y386829D01*
X306760Y386795D01*
X306801Y386791D01*
X306823Y386784D01*
X306855Y386785D01*
X306927Y386777D01*
X317158Y386777D01*
X317178Y386780D01*
G37*
G36*
X305184Y473203D02*
X305184Y473203D01*
X305236Y473205D01*
X305304Y473229D01*
X305374Y473245D01*
X305418Y473271D01*
X305467Y473289D01*
X305523Y473334D01*
X305585Y473371D01*
X305619Y473410D01*
X305659Y473443D01*
X305698Y473503D01*
X305745Y473558D01*
X305764Y473606D01*
X305792Y473650D01*
X305810Y473719D01*
X305837Y473786D01*
X305845Y473857D01*
X305853Y473888D01*
X305851Y473911D01*
X305855Y473953D01*
X305855Y475420D01*
X307692Y479854D01*
X311086Y483248D01*
X311327Y483348D01*
X311417Y483403D01*
X311509Y483455D01*
X311521Y483468D01*
X311537Y483478D01*
X311604Y483559D01*
X311674Y483636D01*
X311682Y483653D01*
X311693Y483667D01*
X311731Y483765D01*
X311773Y483862D01*
X311775Y483880D01*
X311782Y483897D01*
X311786Y484002D01*
X311795Y484107D01*
X311791Y484124D01*
X311792Y484142D01*
X311763Y484244D01*
X311738Y484346D01*
X311729Y484361D01*
X311723Y484379D01*
X311663Y484465D01*
X311608Y484554D01*
X311591Y484569D01*
X311583Y484581D01*
X311558Y484600D01*
X311484Y484667D01*
X311053Y484980D01*
X309880Y486153D01*
X308905Y487495D01*
X308152Y488974D01*
X307639Y490552D01*
X307489Y491497D01*
X317158Y491497D01*
X317178Y491500D01*
X317197Y491498D01*
X317299Y491520D01*
X317401Y491537D01*
X317418Y491546D01*
X317438Y491550D01*
X317527Y491603D01*
X317618Y491652D01*
X317632Y491666D01*
X317649Y491676D01*
X317716Y491755D01*
X317787Y491830D01*
X317796Y491848D01*
X317809Y491863D01*
X317847Y491959D01*
X317891Y492053D01*
X317893Y492073D01*
X317901Y492091D01*
X317919Y492258D01*
X317919Y493021D01*
X318682Y493021D01*
X318702Y493024D01*
X318721Y493022D01*
X318823Y493044D01*
X318925Y493061D01*
X318942Y493070D01*
X318962Y493074D01*
X319051Y493127D01*
X319142Y493176D01*
X319156Y493190D01*
X319173Y493200D01*
X319240Y493279D01*
X319311Y493354D01*
X319320Y493372D01*
X319333Y493387D01*
X319372Y493483D01*
X319415Y493577D01*
X319417Y493597D01*
X319425Y493615D01*
X319443Y493782D01*
X319443Y503451D01*
X320388Y503301D01*
X321966Y502788D01*
X322488Y502522D01*
X322560Y502499D01*
X322629Y502468D01*
X322677Y502462D01*
X322723Y502448D01*
X322798Y502449D01*
X322873Y502440D01*
X322921Y502451D01*
X322969Y502451D01*
X323040Y502477D01*
X323114Y502493D01*
X323155Y502517D01*
X323201Y502533D01*
X323260Y502580D01*
X323325Y502619D01*
X323356Y502655D01*
X323394Y502685D01*
X323436Y502748D01*
X323485Y502806D01*
X323503Y502850D01*
X323529Y502891D01*
X323548Y502964D01*
X323577Y503034D01*
X323584Y503099D01*
X323592Y503129D01*
X323590Y503154D01*
X323595Y503201D01*
X323595Y526213D01*
X323588Y526258D01*
X323590Y526304D01*
X323568Y526379D01*
X323556Y526455D01*
X323534Y526496D01*
X323521Y526540D01*
X323477Y526604D01*
X323440Y526673D01*
X323407Y526704D01*
X323381Y526742D01*
X323318Y526789D01*
X323262Y526842D01*
X323220Y526862D01*
X323184Y526889D01*
X323110Y526913D01*
X323039Y526946D01*
X322993Y526951D01*
X322950Y526965D01*
X322872Y526964D01*
X322795Y526973D01*
X322750Y526963D01*
X322704Y526963D01*
X322572Y526925D01*
X322554Y526921D01*
X322550Y526918D01*
X322543Y526916D01*
X320320Y525995D01*
X315520Y525995D01*
X313928Y526655D01*
X313814Y526682D01*
X313700Y526710D01*
X313694Y526710D01*
X313688Y526711D01*
X313572Y526700D01*
X313455Y526691D01*
X313450Y526689D01*
X313443Y526688D01*
X313336Y526640D01*
X313229Y526595D01*
X313223Y526590D01*
X313219Y526588D01*
X313205Y526575D01*
X313098Y526490D01*
X298420Y511812D01*
X298367Y511738D01*
X298307Y511668D01*
X298295Y511638D01*
X298276Y511612D01*
X298249Y511525D01*
X298215Y511440D01*
X298211Y511399D01*
X298204Y511377D01*
X298205Y511345D01*
X298197Y511273D01*
X298197Y507718D01*
X298200Y507698D01*
X298198Y507679D01*
X298220Y507577D01*
X298236Y507475D01*
X298246Y507458D01*
X298250Y507438D01*
X298303Y507349D01*
X298352Y507258D01*
X298366Y507244D01*
X298376Y507227D01*
X298455Y507160D01*
X298530Y507088D01*
X298548Y507080D01*
X298563Y507067D01*
X298659Y507028D01*
X298753Y506985D01*
X298773Y506983D01*
X298791Y506975D01*
X298958Y506957D01*
X301027Y506957D01*
X303911Y505762D01*
X306118Y503555D01*
X307313Y500671D01*
X307313Y498591D01*
X307324Y498524D01*
X307325Y498456D01*
X307343Y498403D01*
X307352Y498348D01*
X307384Y498288D01*
X307407Y498224D01*
X307441Y498180D01*
X307468Y498131D01*
X307517Y498084D01*
X307559Y498031D01*
X307605Y498000D01*
X307646Y497961D01*
X307707Y497933D01*
X307764Y497896D01*
X307818Y497881D01*
X307869Y497858D01*
X307936Y497850D01*
X308002Y497833D01*
X308058Y497837D01*
X308113Y497831D01*
X308180Y497845D01*
X308247Y497850D01*
X308299Y497871D01*
X308354Y497883D01*
X308412Y497918D01*
X308475Y497944D01*
X308517Y497980D01*
X308565Y498009D01*
X308609Y498061D01*
X308660Y498105D01*
X308703Y498171D01*
X308725Y498196D01*
X308733Y498215D01*
X308752Y498245D01*
X308905Y498545D01*
X309880Y499887D01*
X311053Y501060D01*
X312395Y502035D01*
X313874Y502788D01*
X315452Y503301D01*
X316397Y503451D01*
X316397Y494543D01*
X307277Y494543D01*
X307243Y494586D01*
X307173Y494677D01*
X307166Y494681D01*
X307161Y494688D01*
X307065Y494750D01*
X306969Y494814D01*
X306961Y494816D01*
X306954Y494821D01*
X306843Y494849D01*
X306732Y494879D01*
X306724Y494879D01*
X306716Y494881D01*
X306601Y494872D01*
X306486Y494865D01*
X306479Y494862D01*
X306471Y494862D01*
X306365Y494817D01*
X306258Y494774D01*
X306252Y494768D01*
X306244Y494765D01*
X306113Y494660D01*
X304516Y493063D01*
X304463Y492989D01*
X304403Y492919D01*
X304391Y492889D01*
X304372Y492863D01*
X304345Y492776D01*
X304311Y492691D01*
X304307Y492650D01*
X304300Y492628D01*
X304301Y492596D01*
X304293Y492524D01*
X304293Y473993D01*
X304294Y473983D01*
X304294Y473978D01*
X304299Y473953D01*
X304307Y473903D01*
X304314Y473812D01*
X304327Y473782D01*
X304332Y473750D01*
X304375Y473670D01*
X304411Y473586D01*
X304437Y473553D01*
X304448Y473533D01*
X304471Y473510D01*
X304515Y473455D01*
X304556Y473415D01*
X304614Y473373D01*
X304666Y473323D01*
X304713Y473301D01*
X304755Y473271D01*
X304824Y473250D01*
X304889Y473219D01*
X304941Y473214D01*
X304990Y473198D01*
X305062Y473200D01*
X305133Y473192D01*
X305184Y473203D01*
G37*
G36*
X250502Y454344D02*
X250502Y454344D01*
X250521Y454342D01*
X250623Y454364D01*
X250725Y454381D01*
X250742Y454390D01*
X250762Y454394D01*
X250851Y454447D01*
X250942Y454496D01*
X250956Y454510D01*
X250973Y454520D01*
X251040Y454599D01*
X251111Y454674D01*
X251120Y454692D01*
X251133Y454707D01*
X251172Y454803D01*
X251215Y454897D01*
X251217Y454917D01*
X251225Y454935D01*
X251243Y455102D01*
X251243Y474783D01*
X252422Y474597D01*
X254150Y474035D01*
X255432Y473382D01*
X255504Y473359D01*
X255573Y473327D01*
X255621Y473322D01*
X255667Y473307D01*
X255742Y473308D01*
X255817Y473300D01*
X255865Y473310D01*
X255913Y473311D01*
X255984Y473336D01*
X256058Y473352D01*
X256099Y473377D01*
X256145Y473393D01*
X256204Y473440D01*
X256269Y473478D01*
X256300Y473515D01*
X256338Y473545D01*
X256380Y473608D01*
X256429Y473665D01*
X256447Y473710D01*
X256473Y473750D01*
X256492Y473823D01*
X256521Y473893D01*
X256528Y473958D01*
X256536Y473988D01*
X256534Y474014D01*
X256539Y474060D01*
X256539Y491461D01*
X256525Y491551D01*
X256517Y491642D01*
X256505Y491672D01*
X256500Y491704D01*
X256457Y491785D01*
X256421Y491869D01*
X256395Y491901D01*
X256384Y491921D01*
X256361Y491944D01*
X256316Y492000D01*
X238420Y509896D01*
X238361Y509938D01*
X238309Y509988D01*
X238262Y510010D01*
X238220Y510040D01*
X238151Y510061D01*
X238086Y510091D01*
X238035Y510097D01*
X237985Y510112D01*
X237913Y510110D01*
X237842Y510118D01*
X237791Y510107D01*
X237739Y510106D01*
X237672Y510081D01*
X237602Y510066D01*
X237557Y510039D01*
X237508Y510021D01*
X237452Y509977D01*
X237390Y509940D01*
X237357Y509900D01*
X237316Y509868D01*
X237277Y509807D01*
X237231Y509753D01*
X237211Y509705D01*
X237183Y509661D01*
X237165Y509591D01*
X237139Y509525D01*
X237131Y509453D01*
X237123Y509422D01*
X237125Y509399D01*
X237120Y509358D01*
X237120Y508399D01*
X237135Y508309D01*
X237142Y508218D01*
X237155Y508188D01*
X237160Y508157D01*
X237203Y508076D01*
X237238Y507992D01*
X237264Y507960D01*
X237275Y507939D01*
X237298Y507917D01*
X237343Y507861D01*
X242571Y502633D01*
X242571Y473892D01*
X242583Y473817D01*
X242586Y473742D01*
X242603Y473697D01*
X242610Y473649D01*
X242646Y473582D01*
X242673Y473512D01*
X242703Y473474D01*
X242726Y473432D01*
X242780Y473380D01*
X242828Y473321D01*
X242869Y473296D01*
X242904Y473262D01*
X242973Y473231D01*
X243037Y473190D01*
X243083Y473179D01*
X243127Y473159D01*
X243202Y473151D01*
X243276Y473133D01*
X243324Y473137D01*
X243371Y473132D01*
X243445Y473148D01*
X243521Y473154D01*
X243581Y473177D01*
X243612Y473184D01*
X243634Y473197D01*
X243678Y473214D01*
X245290Y474035D01*
X247018Y474597D01*
X248197Y474783D01*
X248197Y455102D01*
X248200Y455082D01*
X248198Y455063D01*
X248220Y454961D01*
X248237Y454859D01*
X248246Y454842D01*
X248250Y454822D01*
X248303Y454733D01*
X248352Y454642D01*
X248366Y454628D01*
X248376Y454611D01*
X248455Y454544D01*
X248530Y454473D01*
X248548Y454464D01*
X248563Y454451D01*
X248659Y454413D01*
X248753Y454369D01*
X248773Y454367D01*
X248791Y454359D01*
X248958Y454341D01*
X250482Y454341D01*
X250502Y454344D01*
G37*
G36*
X253462Y418092D02*
X253462Y418092D01*
X253508Y418090D01*
X253583Y418112D01*
X253659Y418124D01*
X253700Y418146D01*
X253744Y418159D01*
X253808Y418203D01*
X253877Y418240D01*
X253908Y418273D01*
X253946Y418299D01*
X253992Y418361D01*
X254046Y418418D01*
X254065Y418460D01*
X254093Y418496D01*
X254117Y418570D01*
X254150Y418641D01*
X254155Y418687D01*
X254169Y418730D01*
X254168Y418808D01*
X254177Y418885D01*
X254167Y418930D01*
X254167Y418976D01*
X254128Y419108D01*
X254125Y419126D01*
X254122Y419130D01*
X254120Y419137D01*
X253519Y420587D01*
X253519Y423709D01*
X254714Y426593D01*
X256316Y428195D01*
X256369Y428269D01*
X256429Y428339D01*
X256441Y428369D01*
X256460Y428395D01*
X256487Y428482D01*
X256521Y428567D01*
X256525Y428608D01*
X256532Y428630D01*
X256531Y428662D01*
X256539Y428734D01*
X256539Y434620D01*
X256527Y434695D01*
X256524Y434770D01*
X256507Y434815D01*
X256500Y434863D01*
X256464Y434929D01*
X256437Y435000D01*
X256407Y435037D01*
X256384Y435080D01*
X256330Y435132D01*
X256282Y435191D01*
X256241Y435216D01*
X256206Y435249D01*
X256137Y435281D01*
X256073Y435321D01*
X256027Y435333D01*
X255983Y435353D01*
X255908Y435361D01*
X255834Y435379D01*
X255786Y435375D01*
X255739Y435380D01*
X255665Y435364D01*
X255589Y435357D01*
X255529Y435334D01*
X255498Y435328D01*
X255476Y435315D01*
X255432Y435298D01*
X254150Y434645D01*
X252422Y434083D01*
X251243Y433897D01*
X251243Y453578D01*
X251240Y453598D01*
X251242Y453617D01*
X251220Y453719D01*
X251203Y453821D01*
X251194Y453838D01*
X251190Y453858D01*
X251137Y453947D01*
X251088Y454038D01*
X251074Y454052D01*
X251064Y454069D01*
X250985Y454136D01*
X250910Y454207D01*
X250892Y454216D01*
X250877Y454229D01*
X250781Y454267D01*
X250687Y454311D01*
X250667Y454313D01*
X250649Y454321D01*
X250482Y454339D01*
X248958Y454339D01*
X248938Y454336D01*
X248919Y454338D01*
X248817Y454316D01*
X248715Y454299D01*
X248698Y454290D01*
X248678Y454286D01*
X248589Y454233D01*
X248498Y454184D01*
X248484Y454170D01*
X248467Y454160D01*
X248400Y454081D01*
X248329Y454006D01*
X248320Y453988D01*
X248307Y453973D01*
X248268Y453877D01*
X248225Y453783D01*
X248223Y453763D01*
X248215Y453745D01*
X248197Y453578D01*
X248197Y433897D01*
X247018Y434083D01*
X245290Y434645D01*
X243678Y435466D01*
X243606Y435489D01*
X243537Y435521D01*
X243489Y435526D01*
X243443Y435541D01*
X243368Y435540D01*
X243293Y435548D01*
X243245Y435538D01*
X243197Y435537D01*
X243126Y435512D01*
X243052Y435496D01*
X243011Y435471D01*
X242965Y435455D01*
X242906Y435409D01*
X242841Y435370D01*
X242810Y435333D01*
X242772Y435304D01*
X242730Y435240D01*
X242681Y435183D01*
X242663Y435138D01*
X242637Y435098D01*
X242618Y435025D01*
X242589Y434955D01*
X242582Y434890D01*
X242574Y434860D01*
X242576Y434835D01*
X242571Y434788D01*
X242571Y428273D01*
X242585Y428183D01*
X242593Y428092D01*
X242605Y428062D01*
X242610Y428030D01*
X242653Y427949D01*
X242689Y427865D01*
X242715Y427833D01*
X242726Y427813D01*
X242749Y427790D01*
X242794Y427734D01*
X252220Y418308D01*
X252294Y418255D01*
X252364Y418195D01*
X252394Y418183D01*
X252420Y418164D01*
X252507Y418137D01*
X252592Y418103D01*
X252633Y418099D01*
X252655Y418092D01*
X252687Y418093D01*
X252759Y418085D01*
X253417Y418085D01*
X253462Y418092D01*
G37*
%LPC*%
G36*
X299721Y273303D02*
X299721Y273303D01*
X299721Y294009D01*
X300865Y293781D01*
X302530Y293092D01*
X304028Y292091D01*
X305301Y290818D01*
X306302Y289320D01*
X306991Y287655D01*
X307343Y285889D01*
X307343Y273303D01*
X299721Y273303D01*
G37*
%LPD*%
%LPC*%
G36*
X289053Y273303D02*
X289053Y273303D01*
X289053Y285889D01*
X289405Y287655D01*
X290094Y289320D01*
X291095Y290818D01*
X292368Y292091D01*
X293866Y293092D01*
X295531Y293781D01*
X296675Y294009D01*
X296675Y273303D01*
X289053Y273303D01*
G37*
%LPD*%
%LPC*%
G36*
X197611Y720597D02*
X197611Y720597D01*
X197611Y729235D01*
X204508Y729235D01*
X206087Y728985D01*
X207608Y728490D01*
X209033Y727764D01*
X210327Y726824D01*
X211458Y725693D01*
X212398Y724399D01*
X213124Y722974D01*
X213619Y721453D01*
X213754Y720597D01*
X197611Y720597D01*
G37*
%LPD*%
%LPC*%
G36*
X262635Y720597D02*
X262635Y720597D01*
X262635Y729235D01*
X269532Y729235D01*
X271111Y728985D01*
X272632Y728490D01*
X274057Y727764D01*
X275351Y726824D01*
X276482Y725693D01*
X277422Y724399D01*
X278148Y722974D01*
X278643Y721453D01*
X278778Y720597D01*
X262635Y720597D01*
G37*
%LPD*%
%LPC*%
G36*
X243446Y720597D02*
X243446Y720597D01*
X243581Y721453D01*
X244076Y722974D01*
X244802Y724399D01*
X245742Y725693D01*
X246873Y726824D01*
X248167Y727764D01*
X249592Y728490D01*
X251113Y728985D01*
X252692Y729235D01*
X259589Y729235D01*
X259589Y720597D01*
X243446Y720597D01*
G37*
%LPD*%
%LPC*%
G36*
X262635Y708913D02*
X262635Y708913D01*
X262635Y717551D01*
X278778Y717551D01*
X278643Y716695D01*
X278148Y715174D01*
X277422Y713749D01*
X276482Y712455D01*
X275351Y711324D01*
X274057Y710384D01*
X272632Y709658D01*
X271111Y709163D01*
X269532Y708913D01*
X262635Y708913D01*
G37*
%LPD*%
%LPC*%
G36*
X252692Y708913D02*
X252692Y708913D01*
X251113Y709163D01*
X249592Y709658D01*
X248167Y710384D01*
X246873Y711324D01*
X245742Y712455D01*
X244802Y713749D01*
X244076Y715174D01*
X243581Y716695D01*
X243446Y717551D01*
X259589Y717551D01*
X259589Y708913D01*
X252692Y708913D01*
G37*
%LPD*%
%LPC*%
G36*
X225939Y693438D02*
X225939Y693438D01*
X225939Y705885D01*
X230751Y705885D01*
X231397Y705712D01*
X231976Y705378D01*
X232449Y704905D01*
X232784Y704325D01*
X232957Y703679D01*
X232957Y693438D01*
X225939Y693438D01*
G37*
%LPD*%
%LPC*%
G36*
X225939Y677944D02*
X225939Y677944D01*
X225939Y690391D01*
X232957Y690391D01*
X232957Y680150D01*
X232784Y679504D01*
X232449Y678925D01*
X231976Y678451D01*
X231397Y678117D01*
X230751Y677944D01*
X225939Y677944D01*
G37*
%LPD*%
%LPC*%
G36*
X202437Y391540D02*
X202437Y391540D01*
X202437Y403734D01*
X209551Y403734D01*
X209551Y393747D01*
X209378Y393100D01*
X209043Y392521D01*
X208570Y392048D01*
X207991Y391713D01*
X207344Y391540D01*
X202437Y391540D01*
G37*
%LPD*%
%LPC*%
G36*
X229171Y376173D02*
X229171Y376173D01*
X229171Y383541D01*
X238142Y383541D01*
X238788Y383368D01*
X239368Y383033D01*
X239841Y382560D01*
X240175Y381981D01*
X240348Y381334D01*
X240348Y376173D01*
X229171Y376173D01*
G37*
%LPD*%
%LPC*%
G36*
X129476Y376173D02*
X129476Y376173D01*
X129476Y383541D01*
X138447Y383541D01*
X139093Y383368D01*
X139673Y383033D01*
X140146Y382560D01*
X140480Y381981D01*
X140653Y381334D01*
X140653Y376173D01*
X129476Y376173D01*
G37*
%LPD*%
%LPC*%
G36*
X86359Y376173D02*
X86359Y376173D01*
X86359Y381334D01*
X86532Y381981D01*
X86867Y382560D01*
X87340Y383033D01*
X87919Y383368D01*
X88566Y383541D01*
X97537Y383541D01*
X97537Y376173D01*
X86359Y376173D01*
G37*
%LPD*%
%LPC*%
G36*
X129476Y365759D02*
X129476Y365759D01*
X129476Y373127D01*
X140653Y373127D01*
X140653Y367966D01*
X140480Y367319D01*
X140146Y366740D01*
X139673Y366267D01*
X139093Y365932D01*
X138447Y365759D01*
X129476Y365759D01*
G37*
%LPD*%
%LPC*%
G36*
X229171Y365759D02*
X229171Y365759D01*
X229171Y373127D01*
X240348Y373127D01*
X240348Y367966D01*
X240175Y367319D01*
X239841Y366740D01*
X239368Y366267D01*
X238788Y365932D01*
X238142Y365759D01*
X229171Y365759D01*
G37*
%LPD*%
%LPC*%
G36*
X258063Y365759D02*
X258063Y365759D01*
X258063Y373127D01*
X269241Y373127D01*
X269241Y367966D01*
X269068Y367319D01*
X268733Y366740D01*
X268260Y366267D01*
X267681Y365932D01*
X267034Y365759D01*
X258063Y365759D01*
G37*
%LPD*%
%LPC*%
G36*
X246046Y365759D02*
X246046Y365759D01*
X245399Y365932D01*
X244820Y366267D01*
X244347Y366740D01*
X244012Y367319D01*
X243839Y367966D01*
X243839Y373127D01*
X255017Y373127D01*
X255017Y365759D01*
X246046Y365759D01*
G37*
%LPD*%
%LPC*%
G36*
X88566Y365759D02*
X88566Y365759D01*
X87919Y365932D01*
X87340Y366267D01*
X86867Y366740D01*
X86532Y367319D01*
X86359Y367966D01*
X86359Y373127D01*
X97537Y373127D01*
X97537Y365759D01*
X88566Y365759D01*
G37*
%LPD*%
%LPC*%
G36*
X32146Y483213D02*
X32146Y483213D01*
X32146Y490643D01*
X39457Y490643D01*
X40103Y490470D01*
X40683Y490135D01*
X41156Y489662D01*
X41490Y489083D01*
X41663Y488437D01*
X41663Y483213D01*
X32146Y483213D01*
G37*
%LPD*%
%LPC*%
G36*
X32146Y459634D02*
X32146Y459634D01*
X32146Y467064D01*
X39457Y467064D01*
X40103Y466891D01*
X40683Y466557D01*
X41156Y466084D01*
X41490Y465504D01*
X41663Y464858D01*
X41663Y459634D01*
X32146Y459634D01*
G37*
%LPD*%
%LPC*%
G36*
X19582Y459634D02*
X19582Y459634D01*
X19582Y464858D01*
X19755Y465504D01*
X20089Y466084D01*
X20563Y466557D01*
X21142Y466891D01*
X21788Y467064D01*
X29099Y467064D01*
X29099Y459634D01*
X19582Y459634D01*
G37*
%LPD*%
%LPC*%
G36*
X19582Y483213D02*
X19582Y483213D01*
X19582Y488437D01*
X19755Y489083D01*
X20089Y489662D01*
X20563Y490135D01*
X21142Y490470D01*
X21788Y490643D01*
X29099Y490643D01*
X29099Y483213D01*
X19582Y483213D01*
G37*
%LPD*%
%LPC*%
G36*
X32146Y472736D02*
X32146Y472736D01*
X32146Y480166D01*
X41663Y480166D01*
X41663Y474942D01*
X41490Y474296D01*
X41156Y473716D01*
X40683Y473243D01*
X40103Y472909D01*
X39457Y472736D01*
X32146Y472736D01*
G37*
%LPD*%
%LPC*%
G36*
X21788Y449157D02*
X21788Y449157D01*
X21142Y449330D01*
X20563Y449665D01*
X20089Y450138D01*
X19755Y450717D01*
X19582Y451363D01*
X19582Y456587D01*
X29099Y456587D01*
X29099Y449157D01*
X21788Y449157D01*
G37*
%LPD*%
%LPC*%
G36*
X21788Y472736D02*
X21788Y472736D01*
X21142Y472909D01*
X20563Y473243D01*
X20089Y473716D01*
X19755Y474296D01*
X19582Y474942D01*
X19582Y480166D01*
X29099Y480166D01*
X29099Y472736D01*
X21788Y472736D01*
G37*
%LPD*%
%LPC*%
G36*
X319443Y702083D02*
X319443Y702083D01*
X319443Y710991D01*
X320388Y710841D01*
X321966Y710328D01*
X323445Y709575D01*
X324787Y708600D01*
X325960Y707427D01*
X326935Y706085D01*
X327688Y704606D01*
X328201Y703028D01*
X328351Y702083D01*
X319443Y702083D01*
G37*
%LPD*%
%LPC*%
G36*
X29043Y201997D02*
X29043Y201997D01*
X37951Y201997D01*
X37801Y201052D01*
X37288Y199474D01*
X36535Y197995D01*
X35560Y196653D01*
X34387Y195480D01*
X33045Y194505D01*
X31566Y193752D01*
X29988Y193239D01*
X29043Y193089D01*
X29043Y201997D01*
G37*
%LPD*%
%LPC*%
G36*
X307489Y599583D02*
X307489Y599583D01*
X307639Y600528D01*
X308152Y602106D01*
X308905Y603585D01*
X309880Y604927D01*
X311053Y606100D01*
X312395Y607075D01*
X313874Y607828D01*
X315452Y608341D01*
X316397Y608491D01*
X316397Y599583D01*
X307489Y599583D01*
G37*
%LPD*%
%LPC*%
G36*
X307489Y702083D02*
X307489Y702083D01*
X307639Y703028D01*
X308152Y704606D01*
X308905Y706085D01*
X309880Y707427D01*
X311053Y708600D01*
X312395Y709575D01*
X313874Y710328D01*
X315452Y710841D01*
X316397Y710991D01*
X316397Y702083D01*
X307489Y702083D01*
G37*
%LPD*%
%LPC*%
G36*
X25052Y193239D02*
X25052Y193239D01*
X23474Y193752D01*
X21995Y194505D01*
X20653Y195480D01*
X19480Y196653D01*
X18505Y197995D01*
X17752Y199474D01*
X17239Y201052D01*
X17089Y201997D01*
X25997Y201997D01*
X25997Y193089D01*
X25052Y193239D01*
G37*
%LPD*%
%LPC*%
G36*
X299721Y270257D02*
X299721Y270257D01*
X307219Y270257D01*
X306991Y269113D01*
X306302Y267448D01*
X305301Y265950D01*
X304028Y264677D01*
X302530Y263676D01*
X300865Y262987D01*
X299721Y262759D01*
X299721Y270257D01*
G37*
%LPD*%
%LPC*%
G36*
X295531Y262987D02*
X295531Y262987D01*
X293866Y263676D01*
X292368Y264677D01*
X291095Y265950D01*
X290094Y267448D01*
X289405Y269113D01*
X289177Y270257D01*
X296675Y270257D01*
X296675Y262759D01*
X295531Y262987D01*
G37*
%LPD*%
%LPC*%
G36*
X35143Y392232D02*
X35143Y392232D01*
X35143Y398750D01*
X38954Y398750D01*
X39601Y398577D01*
X40180Y398242D01*
X40653Y397769D01*
X40988Y397190D01*
X41161Y396544D01*
X41161Y392232D01*
X35143Y392232D01*
G37*
%LPD*%
%LPC*%
G36*
X86910Y489139D02*
X86910Y489139D01*
X86910Y495157D01*
X93428Y495157D01*
X93428Y491346D01*
X93254Y490699D01*
X92920Y490120D01*
X92447Y489647D01*
X91868Y489312D01*
X91221Y489139D01*
X86910Y489139D01*
G37*
%LPD*%
%LPC*%
G36*
X35143Y382668D02*
X35143Y382668D01*
X35143Y389186D01*
X41161Y389186D01*
X41161Y384875D01*
X40988Y384228D01*
X40653Y383649D01*
X40180Y383176D01*
X39601Y382842D01*
X38954Y382668D01*
X35143Y382668D01*
G37*
%LPD*%
%LPC*%
G36*
X79552Y489139D02*
X79552Y489139D01*
X78906Y489312D01*
X78327Y489647D01*
X77854Y490120D01*
X77519Y490699D01*
X77346Y491346D01*
X77346Y495157D01*
X83864Y495157D01*
X83864Y489139D01*
X79552Y489139D01*
G37*
%LPD*%
%LPC*%
G36*
X261111Y719073D02*
X261111Y719073D01*
X261111Y719075D01*
X261113Y719075D01*
X261113Y719073D01*
X261111Y719073D01*
G37*
%LPD*%
%LPC*%
G36*
X298197Y271779D02*
X298197Y271779D01*
X298197Y271781D01*
X298199Y271781D01*
X298199Y271779D01*
X298197Y271779D01*
G37*
%LPD*%
%LPC*%
G36*
X30622Y481689D02*
X30622Y481689D01*
X30622Y481690D01*
X30623Y481690D01*
X30623Y481689D01*
X30622Y481689D01*
G37*
%LPD*%
%LPC*%
G36*
X30622Y458110D02*
X30622Y458110D01*
X30622Y458111D01*
X30623Y458111D01*
X30623Y458110D01*
X30622Y458110D01*
G37*
%LPD*%
D10*
X84416Y538075D03*
X104416Y538075D03*
X124416Y538075D03*
X144416Y538075D03*
X164416Y538075D03*
X184416Y538075D03*
X204416Y538075D03*
X224416Y538075D03*
X84416Y691915D03*
X104416Y691915D03*
X124416Y691915D03*
X144416Y691915D03*
X164416Y691915D03*
X184416Y691915D03*
X204416Y691915D03*
X224416Y691915D03*
D11*
X227555Y496680D03*
X227555Y513680D03*
X127594Y513680D03*
X127594Y496680D03*
X61482Y513680D03*
X61482Y496680D03*
D12*
X16620Y390709D03*
X33620Y390709D03*
D13*
X30623Y416999D03*
X30623Y458111D03*
X30623Y522801D03*
X30623Y481689D03*
D14*
X323598Y195580D02*
X323598Y182372D01*
X298198Y182372D02*
X298198Y195580D01*
X298198Y271780D02*
X298198Y284988D01*
X323598Y284988D02*
X323598Y271780D01*
D12*
X318380Y162560D03*
X301380Y162560D03*
X301380Y309880D03*
X318380Y309880D03*
D15*
X300992Y129540D03*
X326392Y129540D03*
D16*
X317920Y700560D03*
X317920Y680560D03*
X317920Y660560D03*
X317920Y640560D03*
X317920Y598060D03*
X317920Y578060D03*
X317920Y558060D03*
X317920Y538060D03*
X317920Y493020D03*
X317920Y473020D03*
X317920Y453020D03*
X317920Y433020D03*
D17*
X227648Y407670D03*
X227648Y374650D03*
D18*
X200914Y405257D03*
X177800Y405257D03*
X154686Y405257D03*
D19*
X177800Y343279D03*
D17*
X256540Y407670D03*
X256540Y374650D03*
X99060Y407670D03*
X99060Y374650D03*
X127953Y407670D03*
X127953Y374650D03*
D20*
X197720Y169340D02*
X197720Y151340D01*
X147720Y151340D02*
X147720Y169340D01*
X249720Y445340D02*
X249720Y463340D01*
X95720Y463340D02*
X95720Y445340D01*
D21*
X209013Y129444D02*
X209013Y115220D01*
X146172Y103220D02*
X146172Y88996D01*
D11*
X106751Y513680D03*
X106751Y496680D03*
X85387Y496680D03*
X85387Y513680D03*
D16*
X317920Y388300D03*
X317920Y368300D03*
X317920Y348300D03*
D22*
X147720Y44514D02*
X147720Y26607D01*
X197720Y26607D02*
X197720Y44514D01*
D23*
X251460Y65240D03*
X251460Y117640D03*
D11*
X187960Y513680D03*
X187960Y496680D03*
D16*
X27520Y203520D03*
X27520Y223520D03*
X27520Y243520D03*
X27520Y290040D03*
X27520Y310040D03*
X27520Y330040D03*
X27520Y350040D03*
X69060Y754800D03*
X89060Y754800D03*
X109060Y754800D03*
X129060Y754800D03*
D24*
X188468Y719074D02*
X203708Y719074D01*
X203708Y764286D02*
X188468Y764286D01*
X253492Y719074D02*
X268732Y719074D01*
X268732Y764286D02*
X253492Y764286D01*
D25*
X85344Y485140D02*
X85344Y469392D01*
X85344Y485140D02*
X85344Y487680D01*
X85344Y496062D01*
X85344Y469392D02*
X83820Y467868D01*
X83820Y390144D01*
X99060Y374904D01*
X85344Y496062D02*
X85387Y496680D01*
X99060Y374904D02*
X99060Y374650D01*
X31242Y458724D02*
X31242Y481584D01*
X31242Y458724D02*
X30623Y458111D01*
X31242Y481584D02*
X30623Y481689D01*
X34290Y390144D02*
X34290Y358140D01*
X38100Y354330D01*
X38100Y340614D01*
X28194Y330708D01*
X34290Y390144D02*
X33620Y390709D01*
X28194Y330708D02*
X27520Y330040D01*
X35052Y390144D02*
X83820Y390144D01*
X35052Y390144D02*
X33620Y390709D01*
X127254Y374142D02*
X127254Y358140D01*
X16764Y247650D01*
X16764Y214884D01*
X27432Y204216D01*
X127254Y374142D02*
X127953Y374650D01*
X27432Y204216D02*
X27520Y203520D01*
X227838Y374904D02*
X256032Y374904D01*
X227838Y374904D02*
X227648Y374650D01*
X256032Y374904D02*
X256540Y374650D01*
X201168Y402336D02*
X201168Y404622D01*
X201168Y402336D02*
X227838Y375666D01*
X201168Y404622D02*
X200914Y405257D01*
X227838Y375666D02*
X227648Y374650D01*
X256794Y374142D02*
X294132Y374142D01*
X256794Y374142D02*
X256540Y374650D01*
X224028Y692658D02*
X213360Y703326D01*
X213360Y704088D01*
X198882Y718566D01*
X196596Y718566D01*
X224028Y692658D02*
X224416Y691915D01*
X196596Y718566D02*
X196088Y719074D01*
X250698Y718566D02*
X260604Y718566D01*
X250698Y718566D02*
X224790Y692658D01*
X260604Y718566D02*
X261112Y719074D01*
X224790Y692658D02*
X224416Y691915D01*
X278892Y701040D02*
X307086Y701040D01*
X317754Y701040D01*
X278892Y701040D02*
X261366Y718566D01*
X317754Y701040D02*
X317920Y700560D01*
X261366Y718566D02*
X261112Y719074D01*
X317754Y625602D02*
X317754Y598170D01*
X317754Y625602D02*
X307086Y636270D01*
X307086Y701040D01*
X317754Y598170D02*
X317920Y598060D01*
D26*
X294132Y374142D03*
X99060Y485140D03*
D25*
X85344Y485140D01*
X30623Y464963D02*
X30623Y458111D01*
X30623Y464963D02*
X50800Y485140D01*
D26*
X50800Y485140D03*
X75410Y488106D03*
D25*
X75836Y487680D01*
X85344Y487680D01*
X317754Y438150D02*
X317754Y433578D01*
X317754Y438150D02*
X293370Y462534D01*
X293370Y513588D01*
X317754Y537972D01*
X317754Y433578D02*
X317920Y433020D01*
X317754Y537972D02*
X317920Y538060D01*
X99060Y451104D02*
X99060Y407670D01*
X99060Y451104D02*
X96012Y454152D01*
X95720Y454340D01*
X247650Y310134D02*
X300990Y310134D01*
X171069Y386715D02*
X154686Y403098D01*
X171069Y386715D02*
X247650Y310134D01*
X154686Y403098D02*
X154686Y405257D01*
X300990Y310134D02*
X301380Y309880D01*
X152400Y407670D02*
X130302Y407670D01*
X127953Y407670D01*
X152400Y407670D02*
X154686Y405384D01*
X154686Y405257D01*
X171069Y386715D02*
X28194Y243840D01*
X27520Y243520D01*
X130302Y407670D02*
X130302Y419862D01*
D26*
X130302Y419862D03*
D25*
X224790Y496824D02*
X227076Y496824D01*
X224790Y496824D02*
X192786Y528828D01*
X192786Y553212D01*
X162179Y583819D02*
X134112Y611886D01*
X162179Y583819D02*
X192786Y553212D01*
X134112Y611886D02*
X119634Y611886D01*
X119253Y611505D01*
X227076Y496824D02*
X227555Y496680D01*
X163830Y692658D02*
X153162Y703326D01*
X153162Y704088D01*
X150876Y706374D01*
X118110Y706374D01*
X115824Y704088D01*
X115824Y614934D01*
X119253Y611505D01*
X164416Y691915D02*
X163830Y692658D01*
X162179Y583819D02*
X137160Y558800D01*
X71120Y558800D01*
X35121Y522801D01*
X30623Y522801D01*
X61722Y515874D02*
X61722Y514350D01*
X61722Y515874D02*
X83820Y537972D01*
X61722Y514350D02*
X61482Y513680D01*
X83820Y537972D02*
X84416Y538075D01*
X31242Y431292D02*
X31242Y417576D01*
X31242Y431292D02*
X69342Y469392D01*
X69342Y505968D01*
X61722Y513588D01*
X31242Y417576D02*
X30623Y416999D01*
X61722Y513588D02*
X61482Y513680D01*
X127254Y514350D02*
X127254Y535686D01*
X124968Y537972D01*
X127254Y514350D02*
X127594Y513680D01*
X124968Y537972D02*
X124416Y538075D01*
X105156Y709422D02*
X105156Y750570D01*
X105156Y709422D02*
X105156Y692658D01*
X105156Y750570D02*
X108966Y754380D01*
X105156Y692658D02*
X104416Y691915D01*
X108966Y754380D02*
X109060Y754800D01*
X318516Y478536D02*
X318516Y473202D01*
X318516Y478536D02*
X328422Y488442D01*
X328422Y567690D01*
X318516Y577596D01*
X318516Y473202D02*
X317920Y473020D01*
X318516Y577596D02*
X317920Y578060D01*
X318516Y675132D02*
X318516Y680466D01*
X318516Y675132D02*
X328422Y665226D01*
X328422Y588264D01*
X318516Y578358D01*
X318516Y680466D02*
X317920Y680560D01*
X318516Y578358D02*
X317920Y578060D01*
X167640Y709422D02*
X105156Y709422D01*
X167640Y709422D02*
X176022Y701040D01*
X176022Y655320D01*
X252984Y578358D01*
X317754Y578358D01*
X317920Y578060D01*
X144780Y675132D02*
X144780Y691896D01*
X144780Y675132D02*
X255270Y564642D01*
X256794Y564642D01*
X299466Y499110D02*
X299466Y471678D01*
X317754Y453390D01*
X144780Y691896D02*
X144416Y691915D01*
X317754Y453390D02*
X317920Y453020D01*
D26*
X256794Y564642D03*
X299466Y499110D03*
D25*
X124968Y687324D02*
X124968Y691896D01*
X124968Y687324D02*
X253746Y558546D01*
X317754Y558546D01*
X124968Y691896D02*
X124416Y691915D01*
X317754Y558546D02*
X317920Y558060D01*
X184404Y692658D02*
X184404Y708660D01*
X178308Y714756D01*
X178308Y746760D01*
X195834Y764286D01*
X184404Y692658D02*
X184416Y691915D01*
X195834Y764286D02*
X196088Y764286D01*
X261112Y764286D01*
X204978Y537972D02*
X204978Y536448D01*
X220218Y521208D01*
X233934Y521208D01*
X261366Y493776D01*
X261366Y422148D01*
X204978Y537972D02*
X204416Y538075D01*
D26*
X261366Y422148D03*
D25*
X187452Y514350D02*
X187452Y535686D01*
X185166Y537972D01*
X187452Y514350D02*
X187960Y513680D01*
X185166Y537972D02*
X184416Y538075D01*
X188214Y513588D02*
X188214Y510540D01*
X234696Y464058D01*
X234696Y420624D01*
X243840Y411480D01*
X243840Y400050D01*
X260604Y383286D01*
X303276Y383286D01*
X317754Y368808D01*
X188214Y513588D02*
X187960Y513680D01*
X317754Y368808D02*
X317920Y368300D01*
X318516Y309372D02*
X318516Y276606D01*
X323088Y272034D01*
X318516Y309372D02*
X318380Y309880D01*
X323088Y272034D02*
X323598Y271780D01*
X164592Y397764D02*
X164592Y537972D01*
X164592Y397764D02*
X244602Y317754D01*
X310134Y317754D01*
X317754Y310134D01*
X164592Y537972D02*
X164416Y538075D01*
X317754Y310134D02*
X318380Y309880D01*
X144018Y443484D02*
X144018Y537972D01*
X144018Y443484D02*
X112014Y411480D01*
X112014Y367284D01*
X35052Y290322D01*
X28194Y290322D01*
X144018Y537972D02*
X144416Y538075D01*
X28194Y290322D02*
X27520Y290040D01*
X104394Y513588D02*
X106680Y513588D01*
X104394Y513588D02*
X86106Y513588D01*
X85387Y513680D01*
X106680Y513588D02*
X106751Y513680D01*
X104394Y513588D02*
X104394Y537972D01*
X104394Y513588D02*
X106751Y513680D01*
X104394Y537972D02*
X104416Y538075D01*
X84582Y692658D02*
X84582Y750570D01*
X88392Y754380D01*
X84582Y692658D02*
X84416Y691915D01*
X88392Y754380D02*
X89060Y754800D01*
X16764Y390144D02*
X16764Y320802D01*
X27432Y310134D01*
X16764Y390144D02*
X16620Y390709D01*
X27432Y310134D02*
X27520Y310040D01*
X254981Y638810D02*
X204416Y689375D01*
X204416Y691915D01*
X254981Y638810D02*
X255016Y638810D01*
D26*
X255016Y638810D03*
D25*
X227838Y513588D02*
X227838Y510540D01*
X237744Y500634D01*
X237744Y425958D01*
X256032Y407670D01*
X227838Y513588D02*
X227555Y513680D01*
X256032Y407670D02*
X256540Y407670D01*
X224790Y534924D02*
X224790Y537972D01*
X224790Y534924D02*
X267462Y492252D01*
X267462Y418338D01*
X267081Y417957D02*
X256794Y407670D01*
X267081Y417957D02*
X267462Y418338D01*
X224790Y537972D02*
X224416Y538075D01*
X256540Y407670D02*
X256794Y407670D01*
X318516Y354330D02*
X318516Y348996D01*
X318516Y354330D02*
X328422Y364236D01*
X328422Y392430D01*
X303276Y417576D01*
X267462Y417576D01*
X318516Y348996D02*
X317920Y348300D01*
X267462Y417576D02*
X267081Y417957D01*
X187452Y419100D02*
X187452Y414528D01*
X187452Y419100D02*
X187452Y496062D01*
X187452Y414528D02*
X178308Y405384D01*
X187452Y496062D02*
X187960Y496680D01*
X178308Y405384D02*
X177800Y405257D01*
X219456Y407670D02*
X227648Y407670D01*
X219456Y407670D02*
X208026Y419100D01*
X187452Y419100D01*
X60960Y496824D02*
X60960Y499872D01*
X53340Y507492D01*
X53340Y528066D01*
X53467Y528193D02*
X77724Y552450D01*
X53467Y528193D02*
X53340Y528066D01*
X109220Y552450D02*
X111252Y552450D01*
X109220Y552450D02*
X77724Y552450D01*
X111252Y552450D02*
X115824Y547878D01*
X115824Y508254D01*
X127254Y496824D01*
X61482Y496680D02*
X60960Y496824D01*
X127254Y496824D02*
X127594Y496680D01*
X27432Y382524D02*
X27432Y350520D01*
X27432Y382524D02*
X24384Y385572D01*
X24384Y404622D01*
X19812Y409194D01*
X19812Y424434D01*
X60198Y464820D01*
X60198Y496824D01*
X27432Y350520D02*
X27520Y350040D01*
X60198Y496824D02*
X61482Y496680D01*
X187452Y496824D02*
X187452Y499872D01*
X173482Y513842D02*
X172974Y514350D01*
X173482Y513842D02*
X187452Y499872D01*
X187452Y496824D02*
X187960Y496680D01*
X227076Y355092D02*
X318516Y355092D01*
X227076Y355092D02*
X177546Y404622D01*
X318516Y355092D02*
X317920Y348300D01*
X177546Y404622D02*
X177800Y405257D01*
X129060Y754800D02*
X116780Y767080D01*
X58420Y767080D01*
X58420Y652780D01*
D26*
X15024Y528320D03*
X53467Y528193D03*
D25*
X73660Y637540D02*
X58420Y652780D01*
X73660Y637540D02*
X73660Y566420D01*
X38740Y531500D01*
X21176Y531500D01*
X17995Y528320D02*
X15024Y528320D01*
X17995Y528320D02*
X21176Y531500D01*
X172702Y514622D02*
X172974Y514350D01*
X172702Y514622D02*
X172702Y550451D01*
X170704Y552450D01*
X111252Y552450D01*
X318516Y190500D02*
X318516Y163068D01*
X318516Y190500D02*
X323088Y195072D01*
X318516Y163068D02*
X318380Y162560D01*
X323088Y195072D02*
X323598Y195580D01*
X301752Y162306D02*
X301752Y153924D01*
X326136Y129540D01*
X301752Y162306D02*
X301380Y162560D01*
X326136Y129540D02*
X326392Y129540D01*
D27*
X147720Y160340D02*
X147720Y97656D01*
X146172Y96108D01*
X147720Y97656D02*
X147720Y35560D01*
X197720Y133625D02*
X197720Y160340D01*
X197720Y133625D02*
X209013Y122332D01*
X213705Y117640D02*
X251460Y117640D01*
X213705Y117640D02*
X209013Y122332D01*
X197720Y35560D02*
X221780Y35560D01*
X251460Y65240D01*
M02*
