G04 EAGLE Gerber RS-274X export*
G75*
%MOMM*%
%FSLAX34Y34*%
%LPD*%
%INBottom Copper*%
%IPPOS*%
%AMOC8*
5,1,8,0,0,1.08239X$1,22.5*%
G01*
%ADD10C,1.320800*%
%ADD11C,1.879600*%
%ADD12C,1.600000*%
%ADD13C,1.800000*%
%ADD14C,1.422400*%
%ADD15C,1.790700*%
%ADD16C,1.524000*%
%ADD17C,0.152400*%
%ADD18C,0.756400*%

G36*
X38389Y206223D02*
X38389Y206223D01*
X38464Y206229D01*
X38509Y206247D01*
X38556Y206257D01*
X38621Y206295D01*
X38691Y206325D01*
X38741Y206365D01*
X38768Y206381D01*
X38785Y206400D01*
X38822Y206430D01*
X253296Y420904D01*
X253349Y420978D01*
X253409Y421048D01*
X253421Y421078D01*
X253440Y421104D01*
X253467Y421191D01*
X253501Y421276D01*
X253505Y421317D01*
X253512Y421339D01*
X253511Y421371D01*
X253519Y421443D01*
X253519Y423709D01*
X254714Y426593D01*
X254811Y426690D01*
X254853Y426748D01*
X254902Y426800D01*
X254924Y426847D01*
X254954Y426889D01*
X254975Y426958D01*
X255006Y427023D01*
X255011Y427075D01*
X255027Y427124D01*
X255025Y427196D01*
X255033Y427267D01*
X255022Y427318D01*
X255020Y427370D01*
X254996Y427438D01*
X254980Y427508D01*
X254954Y427553D01*
X254936Y427601D01*
X254891Y427657D01*
X254854Y427719D01*
X254815Y427753D01*
X254782Y427793D01*
X254722Y427832D01*
X254667Y427879D01*
X254619Y427898D01*
X254575Y427926D01*
X254506Y427944D01*
X254439Y427971D01*
X254368Y427979D01*
X254337Y427987D01*
X254313Y427985D01*
X254273Y427989D01*
X144809Y427989D01*
X144719Y427975D01*
X144628Y427967D01*
X144598Y427955D01*
X144566Y427950D01*
X144485Y427907D01*
X144401Y427871D01*
X144369Y427845D01*
X144349Y427834D01*
X144326Y427811D01*
X144270Y427766D01*
X138372Y421868D01*
X138319Y421794D01*
X138259Y421724D01*
X138247Y421694D01*
X138228Y421668D01*
X138201Y421581D01*
X138167Y421496D01*
X138163Y421455D01*
X138156Y421433D01*
X138157Y421401D01*
X138149Y421329D01*
X138149Y418301D01*
X136954Y415417D01*
X134747Y413210D01*
X131863Y412015D01*
X128741Y412015D01*
X125857Y413210D01*
X123650Y415417D01*
X122455Y418301D01*
X122455Y420567D01*
X122441Y420657D01*
X122433Y420748D01*
X122421Y420778D01*
X122416Y420810D01*
X122373Y420891D01*
X122337Y420975D01*
X122311Y421007D01*
X122300Y421027D01*
X122277Y421050D01*
X122232Y421106D01*
X106635Y436703D01*
X106619Y436714D01*
X106607Y436730D01*
X106519Y436786D01*
X106436Y436846D01*
X106417Y436852D01*
X106400Y436863D01*
X106299Y436888D01*
X106201Y436918D01*
X106181Y436918D01*
X106161Y436923D01*
X106058Y436915D01*
X105955Y436912D01*
X105936Y436905D01*
X105916Y436904D01*
X105821Y436863D01*
X105724Y436828D01*
X105708Y436815D01*
X105690Y436807D01*
X105559Y436703D01*
X103121Y434264D01*
X98319Y432275D01*
X93121Y432275D01*
X88319Y434264D01*
X84644Y437939D01*
X82655Y442741D01*
X82655Y465939D01*
X84644Y470741D01*
X88319Y474416D01*
X93121Y476405D01*
X98319Y476405D01*
X103121Y474416D01*
X106796Y470741D01*
X108785Y465939D01*
X108785Y448521D01*
X108799Y448431D01*
X108807Y448340D01*
X108819Y448310D01*
X108824Y448278D01*
X108867Y448197D01*
X108903Y448113D01*
X108929Y448081D01*
X108940Y448061D01*
X108963Y448038D01*
X109008Y447982D01*
X129058Y427932D01*
X129132Y427879D01*
X129202Y427819D01*
X129232Y427807D01*
X129258Y427788D01*
X129345Y427761D01*
X129430Y427727D01*
X129471Y427723D01*
X129493Y427716D01*
X129525Y427717D01*
X129597Y427709D01*
X130245Y427709D01*
X130335Y427723D01*
X130426Y427731D01*
X130456Y427743D01*
X130488Y427748D01*
X130569Y427791D01*
X130653Y427827D01*
X130685Y427853D01*
X130705Y427864D01*
X130728Y427887D01*
X130784Y427932D01*
X140495Y437643D01*
X239553Y437643D01*
X239565Y437645D01*
X239577Y437643D01*
X239686Y437664D01*
X239796Y437682D01*
X239807Y437688D01*
X239818Y437690D01*
X239915Y437745D01*
X240013Y437798D01*
X240022Y437806D01*
X240032Y437812D01*
X240106Y437895D01*
X240183Y437976D01*
X240188Y437987D01*
X240196Y437996D01*
X240239Y438098D01*
X240286Y438199D01*
X240288Y438211D01*
X240292Y438222D01*
X240301Y438333D01*
X240313Y438443D01*
X240311Y438455D01*
X240312Y438467D01*
X240285Y438575D01*
X240261Y438684D01*
X240255Y438694D01*
X240252Y438706D01*
X240169Y438851D01*
X239849Y439291D01*
X239025Y440910D01*
X238463Y442638D01*
X238179Y444432D01*
X238179Y452817D01*
X248958Y452817D01*
X248978Y452820D01*
X248997Y452818D01*
X249099Y452840D01*
X249201Y452857D01*
X249218Y452866D01*
X249238Y452870D01*
X249327Y452923D01*
X249418Y452972D01*
X249432Y452986D01*
X249449Y452996D01*
X249516Y453075D01*
X249587Y453150D01*
X249596Y453168D01*
X249609Y453183D01*
X249647Y453279D01*
X249691Y453373D01*
X249693Y453393D01*
X249701Y453411D01*
X249719Y453578D01*
X249719Y454341D01*
X249721Y454341D01*
X249721Y453578D01*
X249724Y453558D01*
X249722Y453539D01*
X249744Y453437D01*
X249761Y453335D01*
X249770Y453318D01*
X249774Y453298D01*
X249827Y453209D01*
X249876Y453118D01*
X249890Y453104D01*
X249900Y453087D01*
X249979Y453020D01*
X250054Y452949D01*
X250072Y452940D01*
X250087Y452927D01*
X250183Y452888D01*
X250277Y452845D01*
X250297Y452843D01*
X250315Y452835D01*
X250482Y452817D01*
X261261Y452817D01*
X261261Y444432D01*
X260977Y442638D01*
X260415Y440910D01*
X259591Y439291D01*
X259271Y438851D01*
X259266Y438841D01*
X259257Y438832D01*
X259210Y438731D01*
X259160Y438632D01*
X259159Y438620D01*
X259154Y438609D01*
X259141Y438498D01*
X259126Y438388D01*
X259128Y438376D01*
X259127Y438365D01*
X259150Y438256D01*
X259170Y438146D01*
X259176Y438136D01*
X259179Y438124D01*
X259236Y438029D01*
X259290Y437931D01*
X259299Y437923D01*
X259305Y437913D01*
X259390Y437841D01*
X259472Y437766D01*
X259483Y437761D01*
X259492Y437753D01*
X259595Y437711D01*
X259697Y437667D01*
X259709Y437666D01*
X259720Y437661D01*
X259887Y437643D01*
X306267Y437643D01*
X306382Y437662D01*
X306498Y437679D01*
X306504Y437681D01*
X306510Y437682D01*
X306613Y437737D01*
X306718Y437790D01*
X306722Y437795D01*
X306728Y437798D01*
X306807Y437882D01*
X306890Y437966D01*
X306893Y437972D01*
X306897Y437976D01*
X306905Y437993D01*
X306971Y438113D01*
X307692Y439854D01*
X310320Y442482D01*
X310331Y442498D01*
X310347Y442510D01*
X310403Y442598D01*
X310463Y442681D01*
X310469Y442700D01*
X310480Y442717D01*
X310505Y442818D01*
X310536Y442917D01*
X310535Y442936D01*
X310540Y442956D01*
X310532Y443059D01*
X310529Y443162D01*
X310522Y443181D01*
X310521Y443201D01*
X310480Y443296D01*
X310445Y443393D01*
X310432Y443409D01*
X310424Y443427D01*
X310320Y443558D01*
X307692Y446186D01*
X305855Y450620D01*
X305855Y455420D01*
X307692Y459854D01*
X310320Y462482D01*
X310331Y462498D01*
X310347Y462510D01*
X310403Y462598D01*
X310463Y462681D01*
X310469Y462700D01*
X310480Y462717D01*
X310505Y462818D01*
X310536Y462917D01*
X310535Y462936D01*
X310540Y462956D01*
X310532Y463059D01*
X310529Y463162D01*
X310522Y463181D01*
X310521Y463201D01*
X310480Y463296D01*
X310445Y463393D01*
X310432Y463409D01*
X310424Y463427D01*
X310320Y463558D01*
X307692Y466186D01*
X305855Y470620D01*
X305855Y475420D01*
X307692Y479854D01*
X311086Y483248D01*
X311327Y483348D01*
X311417Y483403D01*
X311509Y483455D01*
X311521Y483468D01*
X311537Y483478D01*
X311604Y483559D01*
X311674Y483636D01*
X311682Y483653D01*
X311693Y483667D01*
X311731Y483765D01*
X311773Y483862D01*
X311775Y483880D01*
X311782Y483897D01*
X311786Y484002D01*
X311795Y484107D01*
X311791Y484124D01*
X311792Y484142D01*
X311763Y484243D01*
X311738Y484346D01*
X311729Y484361D01*
X311723Y484379D01*
X311664Y484465D01*
X311608Y484554D01*
X311591Y484569D01*
X311583Y484581D01*
X311558Y484600D01*
X311484Y484667D01*
X311053Y484980D01*
X309880Y486153D01*
X308905Y487495D01*
X308152Y488974D01*
X307639Y490552D01*
X307489Y491497D01*
X316397Y491497D01*
X316397Y485846D01*
X316400Y485826D01*
X316398Y485807D01*
X316420Y485705D01*
X316437Y485603D01*
X316446Y485586D01*
X316450Y485566D01*
X316503Y485477D01*
X316552Y485386D01*
X316566Y485372D01*
X316576Y485355D01*
X316655Y485288D01*
X316730Y485216D01*
X316748Y485208D01*
X316763Y485195D01*
X316859Y485156D01*
X316953Y485113D01*
X316973Y485111D01*
X316991Y485103D01*
X317158Y485085D01*
X318682Y485085D01*
X318702Y485088D01*
X318721Y485086D01*
X318823Y485108D01*
X318925Y485124D01*
X318942Y485134D01*
X318962Y485138D01*
X319051Y485191D01*
X319142Y485240D01*
X319156Y485254D01*
X319173Y485264D01*
X319240Y485343D01*
X319311Y485418D01*
X319320Y485436D01*
X319333Y485451D01*
X319372Y485547D01*
X319415Y485641D01*
X319417Y485661D01*
X319425Y485679D01*
X319443Y485846D01*
X319443Y491497D01*
X328351Y491497D01*
X328201Y490552D01*
X327688Y488974D01*
X326935Y487495D01*
X325960Y486153D01*
X324787Y484980D01*
X324356Y484667D01*
X324283Y484593D01*
X324205Y484521D01*
X324196Y484505D01*
X324183Y484492D01*
X324137Y484398D01*
X324086Y484306D01*
X324083Y484288D01*
X324075Y484272D01*
X324061Y484167D01*
X324043Y484064D01*
X324045Y484046D01*
X324043Y484028D01*
X324063Y483925D01*
X324078Y483820D01*
X324087Y483804D01*
X324090Y483786D01*
X324142Y483695D01*
X324190Y483601D01*
X324203Y483588D01*
X324212Y483573D01*
X324291Y483502D01*
X324366Y483429D01*
X324385Y483418D01*
X324396Y483409D01*
X324425Y483396D01*
X324513Y483348D01*
X324754Y483248D01*
X328148Y479854D01*
X329822Y475812D01*
X329874Y475728D01*
X329921Y475642D01*
X329939Y475624D01*
X329952Y475603D01*
X330028Y475540D01*
X330099Y475473D01*
X330122Y475462D01*
X330141Y475446D01*
X330233Y475411D01*
X330323Y475370D01*
X330348Y475367D01*
X330371Y475358D01*
X330469Y475354D01*
X330567Y475344D01*
X330592Y475349D01*
X330617Y475348D01*
X330711Y475375D01*
X330808Y475397D01*
X330829Y475409D01*
X330853Y475416D01*
X330934Y475473D01*
X331018Y475523D01*
X331034Y475542D01*
X331055Y475557D01*
X331114Y475636D01*
X331178Y475711D01*
X331187Y475734D01*
X331202Y475754D01*
X331232Y475848D01*
X331269Y475939D01*
X331272Y475970D01*
X331278Y475988D01*
X331278Y476021D01*
X331287Y476106D01*
X331096Y534520D01*
X331081Y534614D01*
X331072Y534710D01*
X331060Y534735D01*
X331056Y534762D01*
X331011Y534847D01*
X330972Y534935D01*
X330953Y534955D01*
X330940Y534979D01*
X330870Y535045D01*
X330805Y535116D01*
X330781Y535129D01*
X330761Y535148D01*
X330674Y535188D01*
X330590Y535235D01*
X330563Y535239D01*
X330538Y535251D01*
X330442Y535261D01*
X330348Y535278D01*
X330321Y535274D01*
X330293Y535277D01*
X330200Y535256D01*
X330104Y535242D01*
X330080Y535230D01*
X330053Y535224D01*
X329971Y535175D01*
X329885Y535131D01*
X329866Y535111D01*
X329842Y535097D01*
X329780Y535024D01*
X329713Y534955D01*
X329696Y534925D01*
X329683Y534910D01*
X329671Y534879D01*
X329632Y534808D01*
X328148Y531226D01*
X324754Y527832D01*
X320320Y525995D01*
X315520Y525995D01*
X311086Y527832D01*
X307692Y531226D01*
X305855Y535660D01*
X305855Y540460D01*
X307692Y544894D01*
X310320Y547522D01*
X310331Y547538D01*
X310347Y547550D01*
X310403Y547638D01*
X310463Y547721D01*
X310469Y547740D01*
X310480Y547757D01*
X310505Y547858D01*
X310536Y547957D01*
X310535Y547976D01*
X310540Y547996D01*
X310532Y548099D01*
X310529Y548202D01*
X310522Y548221D01*
X310521Y548241D01*
X310480Y548336D01*
X310445Y548433D01*
X310432Y548449D01*
X310424Y548467D01*
X310320Y548598D01*
X307692Y551226D01*
X305855Y555660D01*
X305855Y560460D01*
X307692Y564894D01*
X310320Y567522D01*
X310331Y567538D01*
X310347Y567550D01*
X310403Y567638D01*
X310463Y567721D01*
X310469Y567740D01*
X310480Y567757D01*
X310505Y567858D01*
X310536Y567957D01*
X310535Y567976D01*
X310540Y567996D01*
X310532Y568099D01*
X310529Y568202D01*
X310522Y568221D01*
X310521Y568241D01*
X310480Y568336D01*
X310445Y568433D01*
X310432Y568449D01*
X310424Y568467D01*
X310320Y568598D01*
X307692Y571226D01*
X305855Y575660D01*
X305855Y580460D01*
X307692Y584894D01*
X311086Y588288D01*
X311327Y588388D01*
X311417Y588443D01*
X311509Y588495D01*
X311521Y588508D01*
X311537Y588518D01*
X311604Y588599D01*
X311674Y588676D01*
X311682Y588693D01*
X311693Y588707D01*
X311731Y588805D01*
X311773Y588902D01*
X311775Y588920D01*
X311782Y588937D01*
X311786Y589042D01*
X311795Y589147D01*
X311791Y589164D01*
X311792Y589182D01*
X311763Y589284D01*
X311738Y589386D01*
X311729Y589401D01*
X311723Y589419D01*
X311663Y589505D01*
X311608Y589594D01*
X311591Y589609D01*
X311583Y589621D01*
X311558Y589640D01*
X311484Y589707D01*
X311053Y590020D01*
X309880Y591193D01*
X308905Y592535D01*
X308152Y594014D01*
X307639Y595592D01*
X307489Y596537D01*
X316397Y596537D01*
X316397Y590886D01*
X316400Y590866D01*
X316398Y590847D01*
X316420Y590745D01*
X316437Y590643D01*
X316446Y590626D01*
X316450Y590606D01*
X316503Y590517D01*
X316552Y590426D01*
X316566Y590412D01*
X316576Y590395D01*
X316655Y590328D01*
X316730Y590256D01*
X316748Y590248D01*
X316763Y590235D01*
X316859Y590196D01*
X316953Y590153D01*
X316973Y590151D01*
X316991Y590143D01*
X317158Y590125D01*
X318682Y590125D01*
X318702Y590128D01*
X318721Y590126D01*
X318823Y590148D01*
X318925Y590164D01*
X318942Y590174D01*
X318962Y590178D01*
X319051Y590231D01*
X319142Y590280D01*
X319156Y590294D01*
X319173Y590304D01*
X319240Y590383D01*
X319311Y590458D01*
X319320Y590476D01*
X319333Y590491D01*
X319372Y590587D01*
X319415Y590681D01*
X319417Y590701D01*
X319425Y590719D01*
X319443Y590886D01*
X319443Y597298D01*
X319440Y597318D01*
X319442Y597337D01*
X319420Y597439D01*
X319403Y597541D01*
X319394Y597558D01*
X319390Y597578D01*
X319337Y597667D01*
X319288Y597758D01*
X319274Y597772D01*
X319264Y597789D01*
X319185Y597856D01*
X319110Y597927D01*
X319092Y597936D01*
X319077Y597949D01*
X318981Y597987D01*
X318887Y598031D01*
X318867Y598033D01*
X318849Y598041D01*
X318682Y598059D01*
X317919Y598059D01*
X317919Y598822D01*
X317916Y598842D01*
X317918Y598861D01*
X317896Y598963D01*
X317879Y599065D01*
X317870Y599082D01*
X317866Y599102D01*
X317813Y599191D01*
X317764Y599282D01*
X317750Y599296D01*
X317740Y599313D01*
X317661Y599380D01*
X317586Y599451D01*
X317568Y599460D01*
X317553Y599473D01*
X317457Y599512D01*
X317363Y599555D01*
X317343Y599557D01*
X317325Y599565D01*
X317158Y599583D01*
X307489Y599583D01*
X307639Y600528D01*
X308152Y602106D01*
X308905Y603585D01*
X309880Y604927D01*
X311053Y606100D01*
X312395Y607075D01*
X313874Y607828D01*
X314682Y608091D01*
X314749Y608126D01*
X314820Y608152D01*
X314857Y608182D01*
X314900Y608204D01*
X314953Y608258D01*
X315012Y608305D01*
X315038Y608346D01*
X315071Y608380D01*
X315104Y608449D01*
X315145Y608512D01*
X315157Y608559D01*
X315177Y608602D01*
X315187Y608677D01*
X315205Y608751D01*
X315201Y608799D01*
X315207Y608847D01*
X315192Y608921D01*
X315186Y608996D01*
X315167Y609040D01*
X315157Y609087D01*
X315119Y609153D01*
X315090Y609222D01*
X315049Y609273D01*
X315033Y609300D01*
X315014Y609317D01*
X314985Y609353D01*
X313689Y610649D01*
X313689Y628745D01*
X313670Y628860D01*
X313653Y628976D01*
X313651Y628982D01*
X313650Y628988D01*
X313595Y629090D01*
X313542Y629195D01*
X313537Y629200D01*
X313534Y629205D01*
X313450Y629285D01*
X313366Y629367D01*
X313360Y629371D01*
X313356Y629375D01*
X313339Y629382D01*
X313219Y629448D01*
X311086Y630332D01*
X307692Y633726D01*
X305855Y638160D01*
X305855Y642960D01*
X307692Y647394D01*
X310320Y650022D01*
X310331Y650038D01*
X310347Y650050D01*
X310403Y650138D01*
X310463Y650221D01*
X310469Y650240D01*
X310480Y650257D01*
X310505Y650358D01*
X310536Y650457D01*
X310535Y650476D01*
X310540Y650496D01*
X310532Y650599D01*
X310529Y650702D01*
X310522Y650721D01*
X310521Y650741D01*
X310480Y650836D01*
X310445Y650933D01*
X310432Y650949D01*
X310424Y650967D01*
X310320Y651098D01*
X307692Y653726D01*
X307332Y654595D01*
X307270Y654695D01*
X307210Y654795D01*
X307206Y654799D01*
X307202Y654804D01*
X307112Y654879D01*
X307023Y654955D01*
X307018Y654957D01*
X307013Y654961D01*
X306904Y655003D01*
X306795Y655047D01*
X306788Y655048D01*
X306783Y655049D01*
X306765Y655050D01*
X306629Y655065D01*
X196625Y655065D01*
X196535Y655051D01*
X196444Y655043D01*
X196414Y655031D01*
X196382Y655026D01*
X196301Y654983D01*
X196217Y654947D01*
X196185Y654921D01*
X196165Y654910D01*
X196142Y654887D01*
X196086Y654842D01*
X136111Y594867D01*
X126017Y594867D01*
X84327Y636557D01*
X84327Y743193D01*
X84308Y743308D01*
X84291Y743424D01*
X84289Y743430D01*
X84288Y743436D01*
X84233Y743538D01*
X84180Y743643D01*
X84175Y743648D01*
X84172Y743653D01*
X84088Y743733D01*
X84004Y743815D01*
X83998Y743819D01*
X83994Y743822D01*
X83977Y743830D01*
X83857Y743896D01*
X82226Y744572D01*
X78832Y747966D01*
X78732Y748207D01*
X78677Y748297D01*
X78625Y748389D01*
X78612Y748401D01*
X78602Y748417D01*
X78521Y748484D01*
X78444Y748554D01*
X78427Y748562D01*
X78413Y748573D01*
X78315Y748611D01*
X78218Y748653D01*
X78200Y748655D01*
X78183Y748662D01*
X78078Y748666D01*
X77973Y748675D01*
X77956Y748671D01*
X77938Y748672D01*
X77837Y748643D01*
X77734Y748618D01*
X77719Y748609D01*
X77701Y748603D01*
X77615Y748544D01*
X77526Y748488D01*
X77511Y748471D01*
X77499Y748463D01*
X77480Y748438D01*
X77413Y748364D01*
X77100Y747933D01*
X75927Y746760D01*
X74585Y745785D01*
X73106Y745032D01*
X71528Y744519D01*
X70583Y744369D01*
X70583Y753277D01*
X76234Y753277D01*
X76254Y753280D01*
X76273Y753278D01*
X76375Y753300D01*
X76477Y753317D01*
X76494Y753326D01*
X76514Y753330D01*
X76603Y753383D01*
X76694Y753432D01*
X76708Y753446D01*
X76725Y753456D01*
X76792Y753535D01*
X76864Y753610D01*
X76872Y753628D01*
X76885Y753643D01*
X76924Y753739D01*
X76967Y753833D01*
X76969Y753853D01*
X76977Y753871D01*
X76995Y754038D01*
X76995Y755562D01*
X76992Y755582D01*
X76994Y755601D01*
X76972Y755703D01*
X76956Y755805D01*
X76946Y755822D01*
X76942Y755842D01*
X76889Y755931D01*
X76840Y756022D01*
X76826Y756036D01*
X76816Y756053D01*
X76737Y756120D01*
X76662Y756191D01*
X76644Y756200D01*
X76629Y756213D01*
X76533Y756252D01*
X76439Y756295D01*
X76419Y756297D01*
X76401Y756305D01*
X76234Y756323D01*
X70583Y756323D01*
X70583Y765231D01*
X71528Y765081D01*
X73106Y764568D01*
X74585Y763815D01*
X75927Y762840D01*
X77100Y761667D01*
X77413Y761236D01*
X77488Y761162D01*
X77559Y761085D01*
X77575Y761076D01*
X77588Y761063D01*
X77682Y761017D01*
X77774Y760966D01*
X77792Y760963D01*
X77808Y760955D01*
X77913Y760941D01*
X78016Y760923D01*
X78034Y760925D01*
X78052Y760923D01*
X78156Y760943D01*
X78260Y760958D01*
X78276Y760967D01*
X78294Y760970D01*
X78385Y761022D01*
X78479Y761070D01*
X78492Y761083D01*
X78507Y761092D01*
X78577Y761170D01*
X78651Y761246D01*
X78662Y761265D01*
X78671Y761275D01*
X78684Y761305D01*
X78732Y761393D01*
X78832Y761634D01*
X82226Y765028D01*
X86660Y766865D01*
X91460Y766865D01*
X95894Y765028D01*
X98522Y762400D01*
X98538Y762389D01*
X98550Y762373D01*
X98638Y762317D01*
X98721Y762257D01*
X98740Y762251D01*
X98757Y762240D01*
X98858Y762215D01*
X98957Y762184D01*
X98976Y762185D01*
X98996Y762180D01*
X99099Y762188D01*
X99202Y762191D01*
X99221Y762198D01*
X99241Y762199D01*
X99336Y762240D01*
X99433Y762275D01*
X99449Y762288D01*
X99467Y762296D01*
X99598Y762400D01*
X102226Y765028D01*
X106660Y766865D01*
X111460Y766865D01*
X115894Y765028D01*
X118522Y762400D01*
X118538Y762389D01*
X118550Y762373D01*
X118638Y762317D01*
X118721Y762257D01*
X118740Y762251D01*
X118757Y762240D01*
X118858Y762215D01*
X118957Y762184D01*
X118976Y762185D01*
X118996Y762180D01*
X119099Y762188D01*
X119202Y762191D01*
X119221Y762198D01*
X119241Y762199D01*
X119336Y762240D01*
X119433Y762275D01*
X119449Y762288D01*
X119467Y762296D01*
X119598Y762400D01*
X122226Y765028D01*
X126660Y766865D01*
X131460Y766865D01*
X135894Y765028D01*
X139288Y761634D01*
X141125Y757200D01*
X141125Y752400D01*
X139288Y747966D01*
X135894Y744572D01*
X131460Y742735D01*
X126660Y742735D01*
X122226Y744572D01*
X119598Y747200D01*
X119582Y747211D01*
X119570Y747227D01*
X119482Y747283D01*
X119399Y747343D01*
X119380Y747349D01*
X119363Y747360D01*
X119262Y747385D01*
X119163Y747416D01*
X119144Y747415D01*
X119124Y747420D01*
X119021Y747412D01*
X118918Y747409D01*
X118899Y747402D01*
X118879Y747401D01*
X118784Y747360D01*
X118687Y747325D01*
X118671Y747312D01*
X118653Y747304D01*
X118522Y747200D01*
X115894Y744572D01*
X111460Y742735D01*
X106660Y742735D01*
X102226Y744572D01*
X99598Y747200D01*
X99582Y747211D01*
X99570Y747227D01*
X99482Y747283D01*
X99399Y747343D01*
X99380Y747349D01*
X99363Y747360D01*
X99262Y747385D01*
X99163Y747416D01*
X99144Y747415D01*
X99124Y747420D01*
X99021Y747412D01*
X98918Y747409D01*
X98899Y747402D01*
X98879Y747401D01*
X98784Y747360D01*
X98687Y747325D01*
X98671Y747312D01*
X98653Y747304D01*
X98522Y747200D01*
X95894Y744572D01*
X94451Y743974D01*
X94351Y743912D01*
X94251Y743853D01*
X94247Y743848D01*
X94242Y743845D01*
X94167Y743754D01*
X94091Y743666D01*
X94089Y743660D01*
X94085Y743655D01*
X94043Y743547D01*
X93999Y743438D01*
X93998Y743430D01*
X93997Y743425D01*
X93996Y743407D01*
X93981Y743271D01*
X93981Y640871D01*
X93995Y640781D01*
X94003Y640690D01*
X94015Y640660D01*
X94020Y640628D01*
X94063Y640547D01*
X94099Y640463D01*
X94125Y640431D01*
X94136Y640411D01*
X94159Y640388D01*
X94204Y640332D01*
X129792Y604744D01*
X129866Y604691D01*
X129936Y604631D01*
X129966Y604619D01*
X129992Y604600D01*
X130079Y604573D01*
X130164Y604539D01*
X130205Y604535D01*
X130227Y604528D01*
X130259Y604529D01*
X130331Y604521D01*
X131797Y604521D01*
X131887Y604535D01*
X131978Y604543D01*
X132008Y604555D01*
X132040Y604560D01*
X132121Y604603D01*
X132205Y604639D01*
X132237Y604665D01*
X132257Y604676D01*
X132280Y604699D01*
X132336Y604744D01*
X192311Y664719D01*
X306075Y664719D01*
X306190Y664738D01*
X306306Y664755D01*
X306312Y664757D01*
X306318Y664758D01*
X306421Y664813D01*
X306525Y664866D01*
X306530Y664871D01*
X306535Y664874D01*
X306615Y664958D01*
X306698Y665042D01*
X306701Y665048D01*
X306705Y665052D01*
X306712Y665069D01*
X306778Y665189D01*
X307692Y667394D01*
X310320Y670022D01*
X310331Y670038D01*
X310347Y670050D01*
X310403Y670138D01*
X310463Y670221D01*
X310469Y670240D01*
X310480Y670257D01*
X310505Y670358D01*
X310536Y670457D01*
X310535Y670476D01*
X310540Y670496D01*
X310532Y670599D01*
X310529Y670702D01*
X310522Y670721D01*
X310521Y670741D01*
X310480Y670836D01*
X310445Y670933D01*
X310432Y670949D01*
X310424Y670967D01*
X310320Y671098D01*
X307692Y673726D01*
X305855Y678160D01*
X305855Y682960D01*
X307692Y687394D01*
X311086Y690788D01*
X311327Y690888D01*
X311417Y690943D01*
X311509Y690995D01*
X311521Y691008D01*
X311537Y691018D01*
X311604Y691099D01*
X311674Y691176D01*
X311682Y691193D01*
X311693Y691207D01*
X311731Y691305D01*
X311773Y691402D01*
X311775Y691420D01*
X311782Y691437D01*
X311786Y691542D01*
X311795Y691647D01*
X311791Y691664D01*
X311792Y691682D01*
X311763Y691784D01*
X311738Y691886D01*
X311729Y691901D01*
X311723Y691919D01*
X311663Y692005D01*
X311608Y692094D01*
X311591Y692109D01*
X311583Y692121D01*
X311558Y692140D01*
X311484Y692207D01*
X311053Y692520D01*
X309880Y693693D01*
X308905Y695035D01*
X308152Y696514D01*
X307639Y698092D01*
X307489Y699037D01*
X317158Y699037D01*
X317178Y699040D01*
X317197Y699038D01*
X317299Y699060D01*
X317401Y699077D01*
X317418Y699086D01*
X317438Y699090D01*
X317527Y699143D01*
X317618Y699192D01*
X317632Y699206D01*
X317649Y699216D01*
X317716Y699295D01*
X317787Y699370D01*
X317796Y699388D01*
X317809Y699403D01*
X317847Y699499D01*
X317891Y699593D01*
X317893Y699613D01*
X317901Y699631D01*
X317919Y699798D01*
X317919Y700561D01*
X317921Y700561D01*
X317921Y699798D01*
X317924Y699778D01*
X317922Y699759D01*
X317944Y699657D01*
X317961Y699555D01*
X317970Y699538D01*
X317974Y699518D01*
X318027Y699429D01*
X318076Y699338D01*
X318090Y699324D01*
X318100Y699307D01*
X318179Y699240D01*
X318254Y699169D01*
X318272Y699160D01*
X318287Y699147D01*
X318383Y699108D01*
X318477Y699065D01*
X318497Y699063D01*
X318515Y699055D01*
X318682Y699037D01*
X328351Y699037D01*
X328201Y698092D01*
X327688Y696514D01*
X326935Y695035D01*
X325960Y693693D01*
X324787Y692520D01*
X324356Y692207D01*
X324283Y692133D01*
X324205Y692061D01*
X324196Y692045D01*
X324183Y692032D01*
X324137Y691938D01*
X324086Y691846D01*
X324083Y691828D01*
X324075Y691812D01*
X324061Y691707D01*
X324043Y691604D01*
X324045Y691586D01*
X324043Y691568D01*
X324063Y691465D01*
X324078Y691360D01*
X324087Y691344D01*
X324090Y691326D01*
X324142Y691235D01*
X324190Y691141D01*
X324203Y691128D01*
X324212Y691113D01*
X324291Y691042D01*
X324366Y690969D01*
X324385Y690958D01*
X324396Y690949D01*
X324425Y690936D01*
X324513Y690888D01*
X324754Y690788D01*
X328148Y687394D01*
X329141Y684997D01*
X329193Y684913D01*
X329239Y684826D01*
X329257Y684809D01*
X329271Y684788D01*
X329346Y684725D01*
X329418Y684657D01*
X329441Y684647D01*
X329460Y684631D01*
X329552Y684596D01*
X329642Y684555D01*
X329666Y684552D01*
X329690Y684543D01*
X329788Y684539D01*
X329886Y684528D01*
X329910Y684534D01*
X329935Y684533D01*
X330030Y684560D01*
X330126Y684581D01*
X330148Y684594D01*
X330172Y684601D01*
X330253Y684657D01*
X330337Y684708D01*
X330353Y684727D01*
X330374Y684741D01*
X330432Y684820D01*
X330496Y684896D01*
X330506Y684919D01*
X330520Y684939D01*
X330551Y685032D01*
X330588Y685124D01*
X330591Y685155D01*
X330597Y685173D01*
X330596Y685206D01*
X330605Y685291D01*
X330495Y719289D01*
X330480Y719378D01*
X330473Y719467D01*
X330460Y719498D01*
X330454Y719532D01*
X330412Y719611D01*
X330377Y719694D01*
X330350Y719727D01*
X330338Y719749D01*
X330315Y719770D01*
X330272Y719825D01*
X320510Y729586D01*
X320436Y729639D01*
X320367Y729699D01*
X320337Y729711D01*
X320311Y729730D01*
X320224Y729757D01*
X320139Y729791D01*
X320098Y729795D01*
X320075Y729802D01*
X320043Y729801D01*
X319972Y729809D01*
X313611Y729809D01*
X306716Y731657D01*
X301411Y734719D01*
X301305Y734760D01*
X301197Y734803D01*
X301187Y734804D01*
X301181Y734806D01*
X301159Y734807D01*
X301031Y734821D01*
X289875Y734821D01*
X282701Y741995D01*
X282701Y768256D01*
X282698Y768276D01*
X282700Y768295D01*
X282678Y768397D01*
X282662Y768499D01*
X282652Y768516D01*
X282648Y768536D01*
X282595Y768625D01*
X282546Y768716D01*
X282532Y768730D01*
X282522Y768747D01*
X282443Y768814D01*
X282368Y768886D01*
X282350Y768894D01*
X282335Y768907D01*
X282239Y768946D01*
X282145Y768989D01*
X282125Y768991D01*
X282107Y768999D01*
X281940Y769017D01*
X280559Y769017D01*
X280514Y769010D01*
X280468Y769012D01*
X280393Y768990D01*
X280316Y768978D01*
X280276Y768956D01*
X280232Y768943D01*
X280168Y768899D01*
X280099Y768862D01*
X280067Y768829D01*
X280030Y768803D01*
X279983Y768741D01*
X279929Y768684D01*
X279910Y768642D01*
X279883Y768606D01*
X279859Y768532D01*
X279826Y768461D01*
X279821Y768415D01*
X279807Y768372D01*
X279807Y768294D01*
X279799Y768217D01*
X279809Y768172D01*
X279809Y768126D01*
X279847Y767994D01*
X279851Y767976D01*
X279854Y767972D01*
X279856Y767965D01*
X280417Y766610D01*
X280417Y761962D01*
X278638Y757667D01*
X275351Y754380D01*
X271056Y752601D01*
X251168Y752601D01*
X246873Y754380D01*
X243586Y757667D01*
X241807Y761962D01*
X241807Y766610D01*
X242368Y767965D01*
X242379Y768009D01*
X242398Y768051D01*
X242407Y768128D01*
X242424Y768204D01*
X242420Y768250D01*
X242425Y768295D01*
X242409Y768372D01*
X242401Y768449D01*
X242383Y768491D01*
X242373Y768536D01*
X242333Y768603D01*
X242301Y768674D01*
X242270Y768708D01*
X242247Y768747D01*
X242188Y768798D01*
X242135Y768855D01*
X242095Y768877D01*
X242060Y768907D01*
X241988Y768936D01*
X241919Y768973D01*
X241874Y768982D01*
X241832Y768999D01*
X241696Y769014D01*
X241677Y769017D01*
X241672Y769016D01*
X241665Y769017D01*
X215535Y769017D01*
X215490Y769010D01*
X215444Y769012D01*
X215369Y768990D01*
X215292Y768978D01*
X215252Y768956D01*
X215208Y768943D01*
X215144Y768899D01*
X215075Y768862D01*
X215043Y768829D01*
X215006Y768803D01*
X214959Y768741D01*
X214905Y768684D01*
X214886Y768642D01*
X214859Y768606D01*
X214835Y768532D01*
X214802Y768461D01*
X214797Y768415D01*
X214783Y768372D01*
X214783Y768294D01*
X214775Y768217D01*
X214785Y768172D01*
X214785Y768126D01*
X214823Y767994D01*
X214827Y767976D01*
X214830Y767972D01*
X214832Y767965D01*
X215393Y766610D01*
X215393Y761962D01*
X213614Y757667D01*
X210327Y754380D01*
X206032Y752601D01*
X186144Y752601D01*
X181849Y754380D01*
X178562Y757667D01*
X176783Y761962D01*
X176783Y766610D01*
X177344Y767965D01*
X177355Y768009D01*
X177374Y768051D01*
X177383Y768128D01*
X177400Y768204D01*
X177396Y768250D01*
X177401Y768295D01*
X177385Y768372D01*
X177377Y768449D01*
X177359Y768491D01*
X177349Y768536D01*
X177309Y768603D01*
X177277Y768674D01*
X177246Y768708D01*
X177223Y768747D01*
X177164Y768798D01*
X177111Y768855D01*
X177071Y768877D01*
X177036Y768907D01*
X176964Y768936D01*
X176895Y768973D01*
X176850Y768982D01*
X176808Y768999D01*
X176672Y769014D01*
X176653Y769017D01*
X176648Y769016D01*
X176641Y769017D01*
X52448Y769017D01*
X52331Y768998D01*
X52213Y768980D01*
X52210Y768978D01*
X52206Y768978D01*
X52100Y768922D01*
X51995Y768867D01*
X51992Y768864D01*
X51988Y768862D01*
X51906Y768776D01*
X51823Y768691D01*
X51822Y768687D01*
X51819Y768684D01*
X51769Y768576D01*
X51717Y768469D01*
X51717Y768465D01*
X51715Y768461D01*
X51702Y768343D01*
X51688Y768225D01*
X51688Y768220D01*
X51688Y768217D01*
X51691Y768203D01*
X51713Y768059D01*
X53061Y763029D01*
X53061Y755891D01*
X51213Y748996D01*
X47601Y742739D01*
X47560Y742632D01*
X47517Y742525D01*
X47516Y742515D01*
X47514Y742509D01*
X47513Y742486D01*
X47499Y742358D01*
X47499Y655320D01*
X47514Y655230D01*
X47521Y655139D01*
X47533Y655109D01*
X47539Y655077D01*
X47581Y654997D01*
X47617Y654913D01*
X47643Y654881D01*
X47654Y654860D01*
X47677Y654838D01*
X47722Y654782D01*
X67819Y634685D01*
X67819Y568960D01*
X67834Y568870D01*
X67841Y568779D01*
X67853Y568749D01*
X67859Y568717D01*
X67901Y568637D01*
X67937Y568553D01*
X67963Y568521D01*
X67974Y568500D01*
X67997Y568478D01*
X68042Y568422D01*
X70043Y566420D01*
X42865Y539241D01*
X12004Y539241D01*
X11984Y539238D01*
X11965Y539240D01*
X11863Y539218D01*
X11761Y539202D01*
X11744Y539192D01*
X11724Y539188D01*
X11635Y539135D01*
X11544Y539086D01*
X11530Y539072D01*
X11513Y539062D01*
X11446Y538983D01*
X11374Y538908D01*
X11366Y538890D01*
X11353Y538875D01*
X11314Y538779D01*
X11271Y538685D01*
X11269Y538665D01*
X11261Y538647D01*
X11243Y538480D01*
X11243Y536386D01*
X11250Y536341D01*
X11248Y536295D01*
X11270Y536220D01*
X11282Y536144D01*
X11304Y536103D01*
X11317Y536059D01*
X11361Y535995D01*
X11398Y535926D01*
X11431Y535895D01*
X11457Y535857D01*
X11519Y535810D01*
X11576Y535757D01*
X11618Y535737D01*
X11654Y535710D01*
X11728Y535686D01*
X11799Y535653D01*
X11845Y535648D01*
X11888Y535634D01*
X11966Y535635D01*
X12043Y535626D01*
X12088Y535636D01*
X12134Y535636D01*
X12266Y535674D01*
X12284Y535678D01*
X12288Y535681D01*
X12295Y535683D01*
X13463Y536167D01*
X16585Y536167D01*
X19469Y534972D01*
X21071Y533370D01*
X21145Y533317D01*
X21215Y533257D01*
X21245Y533245D01*
X21271Y533226D01*
X21358Y533199D01*
X21443Y533165D01*
X21484Y533161D01*
X21506Y533154D01*
X21538Y533155D01*
X21610Y533147D01*
X47008Y533147D01*
X47099Y533161D01*
X47189Y533169D01*
X47219Y533181D01*
X47251Y533186D01*
X47332Y533229D01*
X47416Y533265D01*
X47448Y533291D01*
X47469Y533302D01*
X47491Y533325D01*
X47547Y533370D01*
X49022Y534845D01*
X51906Y536040D01*
X55028Y536040D01*
X57912Y534845D01*
X60119Y532638D01*
X61314Y529754D01*
X61314Y526632D01*
X60119Y523748D01*
X57912Y521541D01*
X55028Y520346D01*
X51906Y520346D01*
X49022Y521541D01*
X47293Y523270D01*
X47219Y523323D01*
X47149Y523383D01*
X47119Y523395D01*
X47093Y523414D01*
X47006Y523441D01*
X46921Y523475D01*
X46880Y523479D01*
X46858Y523486D01*
X46826Y523485D01*
X46754Y523493D01*
X21610Y523493D01*
X21519Y523479D01*
X21429Y523471D01*
X21399Y523459D01*
X21367Y523454D01*
X21286Y523411D01*
X21202Y523375D01*
X21170Y523349D01*
X21149Y523338D01*
X21127Y523315D01*
X21071Y523270D01*
X19469Y521668D01*
X16585Y520473D01*
X13463Y520473D01*
X12295Y520957D01*
X12251Y520968D01*
X12209Y520987D01*
X12132Y520995D01*
X12056Y521013D01*
X12010Y521009D01*
X11965Y521014D01*
X11888Y520997D01*
X11811Y520990D01*
X11769Y520971D01*
X11724Y520962D01*
X11657Y520922D01*
X11586Y520890D01*
X11552Y520859D01*
X11513Y520836D01*
X11462Y520776D01*
X11405Y520724D01*
X11383Y520683D01*
X11353Y520649D01*
X11324Y520576D01*
X11287Y520508D01*
X11278Y520463D01*
X11261Y520420D01*
X11246Y520285D01*
X11243Y520266D01*
X11244Y520261D01*
X11243Y520254D01*
X11243Y424021D01*
X11254Y423950D01*
X11256Y423878D01*
X11274Y423829D01*
X11282Y423778D01*
X11316Y423714D01*
X11341Y423647D01*
X11373Y423606D01*
X11398Y423560D01*
X11450Y423511D01*
X11494Y423455D01*
X11538Y423427D01*
X11576Y423391D01*
X11641Y423361D01*
X11701Y423322D01*
X11752Y423309D01*
X11799Y423287D01*
X11870Y423280D01*
X11940Y423262D01*
X11992Y423266D01*
X12043Y423260D01*
X12114Y423276D01*
X12185Y423281D01*
X12233Y423302D01*
X12284Y423313D01*
X12345Y423349D01*
X12411Y423377D01*
X12467Y423422D01*
X12495Y423439D01*
X12510Y423457D01*
X12542Y423482D01*
X232697Y643637D01*
X248430Y643637D01*
X248521Y643651D01*
X248611Y643659D01*
X248641Y643671D01*
X248673Y643676D01*
X248754Y643719D01*
X248838Y643755D01*
X248870Y643781D01*
X248891Y643792D01*
X248913Y643815D01*
X248969Y643860D01*
X250571Y645462D01*
X253455Y646657D01*
X256577Y646657D01*
X259461Y645462D01*
X261668Y643255D01*
X262863Y640371D01*
X262863Y637249D01*
X261668Y634365D01*
X259461Y632158D01*
X256577Y630963D01*
X253455Y630963D01*
X250571Y632158D01*
X248969Y633760D01*
X248895Y633813D01*
X248825Y633873D01*
X248795Y633885D01*
X248769Y633904D01*
X248682Y633931D01*
X248597Y633965D01*
X248556Y633969D01*
X248534Y633976D01*
X248502Y633975D01*
X248430Y633983D01*
X237011Y633983D01*
X236921Y633969D01*
X236830Y633961D01*
X236800Y633949D01*
X236768Y633944D01*
X236687Y633901D01*
X236603Y633865D01*
X236571Y633839D01*
X236551Y633828D01*
X236528Y633805D01*
X236472Y633760D01*
X17242Y414530D01*
X17189Y414456D01*
X17129Y414386D01*
X17117Y414356D01*
X17098Y414330D01*
X17071Y414243D01*
X17037Y414158D01*
X17033Y414117D01*
X17026Y414095D01*
X17027Y414063D01*
X17019Y413991D01*
X17019Y358439D01*
X17030Y358368D01*
X17032Y358296D01*
X17050Y358247D01*
X17058Y358196D01*
X17092Y358133D01*
X17117Y358065D01*
X17149Y358025D01*
X17174Y357979D01*
X17226Y357929D01*
X17270Y357873D01*
X17314Y357845D01*
X17352Y357809D01*
X17417Y357779D01*
X17477Y357740D01*
X17528Y357727D01*
X17575Y357706D01*
X17646Y357698D01*
X17716Y357680D01*
X17768Y357684D01*
X17819Y357678D01*
X17890Y357694D01*
X17961Y357699D01*
X18009Y357720D01*
X18060Y357731D01*
X18121Y357767D01*
X18187Y357796D01*
X18243Y357840D01*
X18271Y357857D01*
X18286Y357875D01*
X18318Y357900D01*
X20686Y360268D01*
X25120Y362105D01*
X29920Y362105D01*
X34354Y360268D01*
X37748Y356874D01*
X39585Y352440D01*
X39585Y347640D01*
X37748Y343206D01*
X34354Y339812D01*
X34113Y339712D01*
X34023Y339657D01*
X33931Y339605D01*
X33919Y339592D01*
X33903Y339582D01*
X33836Y339501D01*
X33766Y339424D01*
X33758Y339407D01*
X33747Y339393D01*
X33709Y339295D01*
X33667Y339198D01*
X33665Y339180D01*
X33658Y339163D01*
X33654Y339058D01*
X33645Y338953D01*
X33649Y338936D01*
X33648Y338918D01*
X33677Y338816D01*
X33702Y338714D01*
X33711Y338699D01*
X33717Y338681D01*
X33777Y338595D01*
X33832Y338506D01*
X33849Y338491D01*
X33857Y338479D01*
X33882Y338460D01*
X33956Y338393D01*
X34387Y338080D01*
X35560Y336907D01*
X36535Y335565D01*
X37288Y334086D01*
X37801Y332508D01*
X37951Y331563D01*
X28282Y331563D01*
X28262Y331560D01*
X28243Y331562D01*
X28141Y331540D01*
X28039Y331523D01*
X28022Y331514D01*
X28002Y331510D01*
X27913Y331457D01*
X27822Y331408D01*
X27808Y331394D01*
X27791Y331384D01*
X27724Y331305D01*
X27653Y331230D01*
X27644Y331212D01*
X27631Y331197D01*
X27593Y331101D01*
X27549Y331007D01*
X27547Y330987D01*
X27539Y330969D01*
X27521Y330802D01*
X27521Y330039D01*
X26758Y330039D01*
X26738Y330036D01*
X26719Y330038D01*
X26617Y330016D01*
X26515Y329999D01*
X26498Y329990D01*
X26478Y329986D01*
X26389Y329933D01*
X26298Y329884D01*
X26284Y329870D01*
X26267Y329860D01*
X26200Y329781D01*
X26129Y329706D01*
X26120Y329688D01*
X26107Y329673D01*
X26068Y329577D01*
X26025Y329483D01*
X26023Y329463D01*
X26015Y329445D01*
X25997Y329278D01*
X25997Y322866D01*
X26000Y322846D01*
X25998Y322827D01*
X26020Y322725D01*
X26037Y322623D01*
X26046Y322606D01*
X26050Y322586D01*
X26103Y322497D01*
X26152Y322406D01*
X26166Y322392D01*
X26176Y322375D01*
X26255Y322308D01*
X26330Y322236D01*
X26348Y322228D01*
X26363Y322215D01*
X26459Y322176D01*
X26553Y322133D01*
X26573Y322131D01*
X26591Y322123D01*
X26758Y322105D01*
X28282Y322105D01*
X28302Y322108D01*
X28321Y322106D01*
X28423Y322128D01*
X28525Y322144D01*
X28542Y322154D01*
X28562Y322158D01*
X28651Y322211D01*
X28742Y322260D01*
X28756Y322274D01*
X28773Y322284D01*
X28840Y322363D01*
X28911Y322438D01*
X28920Y322456D01*
X28933Y322471D01*
X28972Y322567D01*
X29015Y322661D01*
X29017Y322681D01*
X29025Y322699D01*
X29043Y322866D01*
X29043Y328517D01*
X37951Y328517D01*
X37801Y327572D01*
X37288Y325994D01*
X36535Y324515D01*
X35560Y323173D01*
X34387Y322000D01*
X33956Y321687D01*
X33883Y321613D01*
X33805Y321541D01*
X33796Y321525D01*
X33783Y321512D01*
X33737Y321418D01*
X33686Y321326D01*
X33683Y321308D01*
X33675Y321292D01*
X33661Y321187D01*
X33643Y321084D01*
X33645Y321066D01*
X33643Y321048D01*
X33663Y320945D01*
X33678Y320840D01*
X33687Y320824D01*
X33690Y320806D01*
X33742Y320715D01*
X33790Y320621D01*
X33803Y320608D01*
X33812Y320593D01*
X33891Y320522D01*
X33966Y320449D01*
X33985Y320438D01*
X33996Y320429D01*
X34025Y320416D01*
X34113Y320368D01*
X34354Y320268D01*
X37748Y316874D01*
X39585Y312440D01*
X39585Y307640D01*
X37748Y303206D01*
X35120Y300578D01*
X35109Y300562D01*
X35093Y300550D01*
X35037Y300462D01*
X34977Y300379D01*
X34971Y300360D01*
X34960Y300343D01*
X34935Y300242D01*
X34904Y300143D01*
X34905Y300124D01*
X34900Y300104D01*
X34908Y300001D01*
X34911Y299898D01*
X34918Y299879D01*
X34919Y299859D01*
X34960Y299764D01*
X34995Y299667D01*
X35008Y299651D01*
X35016Y299633D01*
X35120Y299502D01*
X37748Y296874D01*
X39585Y292440D01*
X39585Y287640D01*
X37748Y283206D01*
X34354Y279812D01*
X29920Y277975D01*
X25120Y277975D01*
X20686Y279812D01*
X17292Y283206D01*
X15455Y287640D01*
X15455Y292440D01*
X17292Y296874D01*
X19920Y299502D01*
X19931Y299518D01*
X19947Y299530D01*
X20003Y299618D01*
X20063Y299701D01*
X20069Y299720D01*
X20080Y299737D01*
X20105Y299838D01*
X20136Y299937D01*
X20135Y299956D01*
X20140Y299976D01*
X20132Y300079D01*
X20129Y300182D01*
X20122Y300201D01*
X20121Y300221D01*
X20080Y300316D01*
X20045Y300413D01*
X20032Y300429D01*
X20024Y300447D01*
X19920Y300578D01*
X17292Y303206D01*
X15455Y307640D01*
X15455Y312440D01*
X16094Y313982D01*
X16120Y314095D01*
X16149Y314209D01*
X16149Y314215D01*
X16150Y314221D01*
X16139Y314338D01*
X16130Y314454D01*
X16128Y314460D01*
X16127Y314466D01*
X16079Y314573D01*
X16034Y314680D01*
X16029Y314686D01*
X16027Y314691D01*
X16014Y314704D01*
X15929Y314811D01*
X12542Y318198D01*
X12484Y318240D01*
X12432Y318289D01*
X12385Y318311D01*
X12343Y318341D01*
X12274Y318362D01*
X12209Y318393D01*
X12157Y318398D01*
X12107Y318414D01*
X12036Y318412D01*
X11965Y318420D01*
X11914Y318409D01*
X11862Y318407D01*
X11794Y318383D01*
X11724Y318367D01*
X11679Y318341D01*
X11631Y318323D01*
X11575Y318278D01*
X11513Y318241D01*
X11479Y318202D01*
X11439Y318169D01*
X11400Y318109D01*
X11353Y318054D01*
X11334Y318006D01*
X11306Y317962D01*
X11288Y317893D01*
X11261Y317826D01*
X11253Y317755D01*
X11245Y317724D01*
X11247Y317700D01*
X11243Y317659D01*
X11243Y215741D01*
X11254Y215670D01*
X11256Y215598D01*
X11274Y215549D01*
X11282Y215498D01*
X11316Y215435D01*
X11341Y215367D01*
X11373Y215326D01*
X11398Y215280D01*
X11449Y215231D01*
X11494Y215175D01*
X11538Y215147D01*
X11576Y215111D01*
X11641Y215081D01*
X11701Y215042D01*
X11752Y215029D01*
X11799Y215007D01*
X11870Y215000D01*
X11940Y214982D01*
X11992Y214986D01*
X12043Y214980D01*
X12114Y214996D01*
X12185Y215001D01*
X12233Y215022D01*
X12284Y215033D01*
X12345Y215069D01*
X12411Y215097D01*
X12467Y215142D01*
X12495Y215159D01*
X12510Y215177D01*
X12542Y215202D01*
X15976Y218636D01*
X16043Y218730D01*
X16114Y218824D01*
X16116Y218830D01*
X16119Y218835D01*
X16153Y218946D01*
X16190Y219058D01*
X16190Y219065D01*
X16192Y219071D01*
X16189Y219187D01*
X16187Y219304D01*
X16185Y219311D01*
X16185Y219316D01*
X16179Y219334D01*
X16141Y219465D01*
X15455Y221120D01*
X15455Y225920D01*
X17292Y230354D01*
X19920Y232982D01*
X19931Y232998D01*
X19947Y233010D01*
X19978Y233059D01*
X19979Y233060D01*
X19980Y233062D01*
X20003Y233098D01*
X20063Y233181D01*
X20069Y233200D01*
X20080Y233217D01*
X20105Y233318D01*
X20136Y233417D01*
X20135Y233436D01*
X20140Y233456D01*
X20132Y233559D01*
X20129Y233662D01*
X20122Y233681D01*
X20121Y233701D01*
X20080Y233796D01*
X20045Y233893D01*
X20032Y233909D01*
X20024Y233927D01*
X19920Y234058D01*
X17292Y236686D01*
X15455Y241120D01*
X15455Y245920D01*
X17292Y250354D01*
X20686Y253748D01*
X25120Y255585D01*
X29920Y255585D01*
X34354Y253748D01*
X37748Y250354D01*
X39585Y245920D01*
X39585Y241120D01*
X37748Y236686D01*
X35120Y234058D01*
X35109Y234042D01*
X35093Y234030D01*
X35037Y233942D01*
X34977Y233859D01*
X34971Y233840D01*
X34960Y233823D01*
X34935Y233722D01*
X34904Y233623D01*
X34905Y233604D01*
X34900Y233584D01*
X34908Y233481D01*
X34911Y233378D01*
X34918Y233359D01*
X34919Y233339D01*
X34960Y233244D01*
X34995Y233147D01*
X35008Y233131D01*
X35016Y233113D01*
X35120Y232982D01*
X37748Y230354D01*
X39585Y225920D01*
X39585Y221120D01*
X37748Y216686D01*
X34354Y213292D01*
X34113Y213192D01*
X34023Y213137D01*
X33931Y213085D01*
X33919Y213072D01*
X33903Y213062D01*
X33836Y212981D01*
X33766Y212904D01*
X33758Y212887D01*
X33747Y212873D01*
X33709Y212775D01*
X33667Y212678D01*
X33665Y212660D01*
X33658Y212643D01*
X33654Y212538D01*
X33645Y212433D01*
X33649Y212416D01*
X33648Y212398D01*
X33677Y212296D01*
X33702Y212194D01*
X33711Y212179D01*
X33717Y212161D01*
X33777Y212075D01*
X33832Y211986D01*
X33849Y211971D01*
X33857Y211959D01*
X33882Y211940D01*
X33956Y211873D01*
X34387Y211560D01*
X35560Y210387D01*
X36535Y209045D01*
X37288Y207566D01*
X37559Y206733D01*
X37594Y206666D01*
X37620Y206594D01*
X37650Y206557D01*
X37672Y206514D01*
X37726Y206462D01*
X37774Y206402D01*
X37814Y206376D01*
X37849Y206343D01*
X37917Y206310D01*
X37981Y206269D01*
X38027Y206258D01*
X38071Y206237D01*
X38146Y206228D01*
X38219Y206209D01*
X38267Y206213D01*
X38315Y206207D01*
X38389Y206223D01*
G37*
G36*
X313731Y135295D02*
X313731Y135295D01*
X313783Y135293D01*
X313852Y135313D01*
X313923Y135323D01*
X313969Y135347D01*
X314019Y135361D01*
X314078Y135402D01*
X314142Y135435D01*
X314179Y135472D01*
X314221Y135502D01*
X314264Y135559D01*
X314314Y135610D01*
X314349Y135673D01*
X314368Y135699D01*
X314375Y135721D01*
X314395Y135757D01*
X314979Y137166D01*
X318766Y140953D01*
X323714Y143003D01*
X329070Y143003D01*
X331320Y142071D01*
X331366Y142060D01*
X331408Y142040D01*
X331485Y142032D01*
X331559Y142015D01*
X331606Y142019D01*
X331653Y142014D01*
X331728Y142031D01*
X331804Y142038D01*
X331847Y142057D01*
X331893Y142067D01*
X331959Y142107D01*
X332029Y142138D01*
X332063Y142170D01*
X332104Y142194D01*
X332153Y142252D01*
X332210Y142304D01*
X332233Y142345D01*
X332263Y142381D01*
X332292Y142453D01*
X332328Y142520D01*
X332337Y142566D01*
X332354Y142610D01*
X332368Y142741D01*
X332372Y142762D01*
X332371Y142768D01*
X332372Y142777D01*
X332270Y174121D01*
X332268Y174136D01*
X332269Y174150D01*
X332258Y174200D01*
X332257Y174261D01*
X332238Y174311D01*
X332230Y174364D01*
X332218Y174385D01*
X332217Y174391D01*
X332200Y174419D01*
X332196Y174426D01*
X332172Y174492D01*
X332139Y174534D01*
X332114Y174581D01*
X332063Y174629D01*
X332019Y174684D01*
X331974Y174713D01*
X331935Y174749D01*
X331871Y174779D01*
X331812Y174817D01*
X331760Y174830D01*
X331712Y174852D01*
X331642Y174860D01*
X331573Y174877D01*
X331520Y174873D01*
X331467Y174879D01*
X331398Y174863D01*
X331328Y174858D01*
X331279Y174837D01*
X331227Y174826D01*
X331166Y174789D01*
X331102Y174762D01*
X331056Y174725D01*
X331041Y174717D01*
X331033Y174709D01*
X331016Y174699D01*
X331001Y174681D01*
X330971Y174657D01*
X329641Y173327D01*
X325720Y171703D01*
X321476Y171703D01*
X317555Y173327D01*
X314553Y176329D01*
X312929Y180250D01*
X312929Y197702D01*
X314553Y201623D01*
X317555Y204625D01*
X321476Y206249D01*
X325720Y206249D01*
X329641Y204625D01*
X330874Y203392D01*
X330933Y203350D01*
X330986Y203300D01*
X331032Y203278D01*
X331073Y203249D01*
X331143Y203227D01*
X331209Y203197D01*
X331260Y203191D01*
X331308Y203176D01*
X331381Y203178D01*
X331454Y203171D01*
X331503Y203181D01*
X331554Y203183D01*
X331623Y203208D01*
X331694Y203224D01*
X331737Y203250D01*
X331785Y203267D01*
X331842Y203313D01*
X331905Y203350D01*
X331938Y203389D01*
X331977Y203421D01*
X332017Y203482D01*
X332064Y203538D01*
X332083Y203585D01*
X332110Y203628D01*
X332128Y203699D01*
X332155Y203766D01*
X332163Y203836D01*
X332170Y203866D01*
X332168Y203890D01*
X332173Y203933D01*
X331980Y263239D01*
X331968Y263308D01*
X331967Y263379D01*
X331948Y263429D01*
X331939Y263481D01*
X331906Y263544D01*
X331882Y263610D01*
X331849Y263651D01*
X331824Y263698D01*
X331772Y263747D01*
X331728Y263802D01*
X331684Y263831D01*
X331645Y263867D01*
X331581Y263897D01*
X331521Y263935D01*
X331470Y263948D01*
X331421Y263970D01*
X331351Y263978D01*
X331283Y263995D01*
X331230Y263991D01*
X331177Y263996D01*
X331108Y263981D01*
X331038Y263976D01*
X330989Y263955D01*
X330937Y263943D01*
X330876Y263907D01*
X330811Y263879D01*
X330754Y263833D01*
X330726Y263816D01*
X330711Y263799D01*
X330680Y263775D01*
X329641Y262735D01*
X325720Y261111D01*
X321476Y261111D01*
X317555Y262735D01*
X314553Y265737D01*
X312929Y269658D01*
X312929Y287110D01*
X314553Y291031D01*
X317555Y294033D01*
X321476Y295657D01*
X325720Y295657D01*
X329641Y294033D01*
X330581Y293092D01*
X330641Y293050D01*
X330694Y293000D01*
X330740Y292979D01*
X330781Y292949D01*
X330851Y292927D01*
X330917Y292897D01*
X330968Y292892D01*
X331016Y292877D01*
X331089Y292878D01*
X331162Y292871D01*
X331211Y292882D01*
X331262Y292883D01*
X331331Y292908D01*
X331402Y292924D01*
X331445Y292950D01*
X331493Y292967D01*
X331550Y293013D01*
X331613Y293051D01*
X331645Y293089D01*
X331685Y293121D01*
X331725Y293182D01*
X331772Y293238D01*
X331791Y293285D01*
X331818Y293328D01*
X331836Y293399D01*
X331863Y293466D01*
X331870Y293536D01*
X331878Y293566D01*
X331876Y293591D01*
X331881Y293633D01*
X331436Y430299D01*
X331420Y430394D01*
X331411Y430490D01*
X331400Y430515D01*
X331395Y430542D01*
X331350Y430626D01*
X331311Y430714D01*
X331292Y430734D01*
X331280Y430759D01*
X331210Y430825D01*
X331145Y430895D01*
X331121Y430909D01*
X331101Y430927D01*
X331013Y430968D01*
X330929Y431014D01*
X330902Y431019D01*
X330877Y431030D01*
X330782Y431041D01*
X330687Y431058D01*
X330660Y431054D01*
X330633Y431057D01*
X330539Y431036D01*
X330444Y431022D01*
X330419Y431009D01*
X330393Y431004D01*
X330310Y430954D01*
X330224Y430910D01*
X330205Y430891D01*
X330182Y430877D01*
X330120Y430803D01*
X330052Y430735D01*
X330036Y430705D01*
X330023Y430689D01*
X330010Y430659D01*
X329971Y430588D01*
X328148Y426186D01*
X324754Y422792D01*
X320320Y420955D01*
X315520Y420955D01*
X311086Y422792D01*
X307692Y426186D01*
X307140Y427519D01*
X307078Y427619D01*
X307018Y427719D01*
X307013Y427723D01*
X307010Y427728D01*
X306920Y427803D01*
X306831Y427879D01*
X306825Y427881D01*
X306821Y427885D01*
X306712Y427927D01*
X306603Y427971D01*
X306596Y427972D01*
X306591Y427973D01*
X306573Y427974D01*
X306436Y427989D01*
X268459Y427989D01*
X268389Y427978D01*
X268317Y427976D01*
X268268Y427958D01*
X268217Y427950D01*
X268154Y427916D01*
X268086Y427891D01*
X268045Y427859D01*
X267999Y427834D01*
X267950Y427783D01*
X267894Y427738D01*
X267866Y427694D01*
X267830Y427656D01*
X267800Y427591D01*
X267761Y427531D01*
X267748Y427480D01*
X267726Y427433D01*
X267718Y427362D01*
X267701Y427292D01*
X267705Y427240D01*
X267699Y427189D01*
X267715Y427118D01*
X267720Y427047D01*
X267740Y426999D01*
X267752Y426948D01*
X267788Y426887D01*
X267816Y426821D01*
X267861Y426765D01*
X267878Y426737D01*
X267895Y426722D01*
X267921Y426690D01*
X268018Y426593D01*
X269213Y423709D01*
X269213Y420587D01*
X268018Y417703D01*
X265811Y415496D01*
X262927Y414301D01*
X260661Y414301D01*
X260571Y414287D01*
X260480Y414279D01*
X260450Y414267D01*
X260418Y414262D01*
X260337Y414219D01*
X260253Y414183D01*
X260221Y414157D01*
X260200Y414146D01*
X260178Y414123D01*
X260122Y414078D01*
X37054Y191010D01*
X34003Y187959D01*
X21623Y187959D01*
X14988Y194594D01*
X12542Y197040D01*
X12484Y197082D01*
X12432Y197131D01*
X12385Y197153D01*
X12343Y197183D01*
X12274Y197204D01*
X12209Y197235D01*
X12157Y197240D01*
X12107Y197256D01*
X12036Y197254D01*
X11965Y197262D01*
X11914Y197251D01*
X11862Y197249D01*
X11794Y197225D01*
X11724Y197209D01*
X11679Y197183D01*
X11631Y197165D01*
X11575Y197120D01*
X11513Y197083D01*
X11479Y197044D01*
X11439Y197011D01*
X11400Y196951D01*
X11353Y196896D01*
X11334Y196848D01*
X11306Y196804D01*
X11288Y196735D01*
X11261Y196668D01*
X11253Y196597D01*
X11245Y196566D01*
X11247Y196542D01*
X11243Y196501D01*
X11243Y175956D01*
X11257Y175866D01*
X11265Y175775D01*
X11277Y175745D01*
X11282Y175713D01*
X11325Y175633D01*
X11361Y175549D01*
X11387Y175517D01*
X11398Y175496D01*
X11421Y175474D01*
X11466Y175418D01*
X24862Y162022D01*
X24936Y161969D01*
X25005Y161909D01*
X25035Y161897D01*
X25061Y161878D01*
X25148Y161851D01*
X25233Y161817D01*
X25274Y161813D01*
X25297Y161806D01*
X25329Y161807D01*
X25400Y161799D01*
X40640Y161799D01*
X40730Y161814D01*
X40821Y161821D01*
X40851Y161833D01*
X40883Y161839D01*
X40963Y161881D01*
X41047Y161917D01*
X41079Y161943D01*
X41100Y161954D01*
X41122Y161977D01*
X41178Y162022D01*
X137475Y258319D01*
X190185Y258319D01*
X288799Y159705D01*
X288799Y138224D01*
X288810Y138153D01*
X288812Y138081D01*
X288830Y138032D01*
X288839Y137981D01*
X288872Y137918D01*
X288897Y137850D01*
X288929Y137810D01*
X288954Y137764D01*
X289006Y137714D01*
X289050Y137658D01*
X289094Y137630D01*
X289132Y137594D01*
X289197Y137564D01*
X289257Y137525D01*
X289308Y137513D01*
X289355Y137491D01*
X289426Y137483D01*
X289496Y137465D01*
X289548Y137469D01*
X289599Y137464D01*
X289670Y137479D01*
X289741Y137484D01*
X289789Y137505D01*
X289840Y137516D01*
X289901Y137553D01*
X289967Y137581D01*
X290023Y137625D01*
X290051Y137642D01*
X290066Y137660D01*
X290098Y137685D01*
X293366Y140953D01*
X293407Y140970D01*
X293506Y141032D01*
X293607Y141092D01*
X293611Y141097D01*
X293616Y141100D01*
X293691Y141190D01*
X293767Y141279D01*
X293769Y141285D01*
X293773Y141289D01*
X293815Y141398D01*
X293859Y141507D01*
X293860Y141514D01*
X293861Y141519D01*
X293862Y141537D01*
X293877Y141674D01*
X293877Y172105D01*
X293858Y172220D01*
X293841Y172336D01*
X293839Y172342D01*
X293838Y172348D01*
X293783Y172451D01*
X293730Y172555D01*
X293725Y172560D01*
X293722Y172565D01*
X293638Y172645D01*
X293554Y172728D01*
X293548Y172731D01*
X293544Y172735D01*
X293527Y172743D01*
X293407Y172809D01*
X292155Y173327D01*
X289153Y176329D01*
X287529Y180250D01*
X287529Y197702D01*
X289153Y201623D01*
X292155Y204625D01*
X296076Y206249D01*
X300320Y206249D01*
X304241Y204625D01*
X307243Y201623D01*
X308867Y197702D01*
X308867Y180250D01*
X307243Y176329D01*
X304241Y173327D01*
X304001Y173228D01*
X303902Y173166D01*
X303801Y173106D01*
X303797Y173102D01*
X303792Y173098D01*
X303718Y173009D01*
X303641Y172919D01*
X303639Y172913D01*
X303635Y172909D01*
X303593Y172801D01*
X303549Y172691D01*
X303548Y172684D01*
X303547Y172679D01*
X303546Y172661D01*
X303531Y172524D01*
X303531Y143569D01*
X303550Y143454D01*
X303567Y143338D01*
X303569Y143332D01*
X303570Y143326D01*
X303625Y143224D01*
X303678Y143119D01*
X303683Y143114D01*
X303686Y143109D01*
X303770Y143029D01*
X303854Y142947D01*
X303860Y142943D01*
X303864Y142940D01*
X303881Y142932D01*
X304001Y142866D01*
X308618Y140953D01*
X312405Y137166D01*
X312989Y135757D01*
X313027Y135696D01*
X313056Y135631D01*
X313091Y135592D01*
X313118Y135548D01*
X313174Y135502D01*
X313222Y135450D01*
X313268Y135425D01*
X313308Y135391D01*
X313375Y135366D01*
X313438Y135331D01*
X313489Y135322D01*
X313537Y135303D01*
X313609Y135300D01*
X313680Y135287D01*
X313731Y135295D01*
G37*
%LPC*%
G36*
X297905Y491263D02*
X297905Y491263D01*
X295021Y492458D01*
X292814Y494665D01*
X291619Y497549D01*
X291619Y499815D01*
X291605Y499905D01*
X291597Y499996D01*
X291585Y500026D01*
X291580Y500058D01*
X291537Y500139D01*
X291501Y500223D01*
X291475Y500255D01*
X291464Y500276D01*
X291441Y500298D01*
X291396Y500354D01*
X251967Y539783D01*
X251967Y558056D01*
X251953Y558147D01*
X251945Y558237D01*
X251933Y558267D01*
X251928Y558299D01*
X251885Y558380D01*
X251849Y558464D01*
X251823Y558496D01*
X251812Y558517D01*
X251789Y558539D01*
X251744Y558595D01*
X250142Y560197D01*
X248947Y563081D01*
X248947Y566203D01*
X250142Y569087D01*
X252349Y571294D01*
X255233Y572489D01*
X258355Y572489D01*
X261239Y571294D01*
X263446Y569087D01*
X264641Y566203D01*
X264641Y563081D01*
X263446Y560197D01*
X261844Y558595D01*
X261791Y558521D01*
X261731Y558451D01*
X261719Y558421D01*
X261700Y558395D01*
X261673Y558308D01*
X261639Y558223D01*
X261635Y558182D01*
X261628Y558160D01*
X261629Y558128D01*
X261621Y558056D01*
X261621Y544097D01*
X261635Y544007D01*
X261643Y543916D01*
X261655Y543886D01*
X261660Y543854D01*
X261703Y543773D01*
X261739Y543689D01*
X261765Y543657D01*
X261776Y543637D01*
X261799Y543614D01*
X261812Y543597D01*
X261818Y543588D01*
X261825Y543582D01*
X261844Y543558D01*
X298222Y507180D01*
X298296Y507127D01*
X298366Y507067D01*
X298396Y507055D01*
X298422Y507036D01*
X298509Y507009D01*
X298594Y506975D01*
X298635Y506971D01*
X298657Y506964D01*
X298689Y506965D01*
X298761Y506957D01*
X301027Y506957D01*
X303911Y505762D01*
X306118Y503555D01*
X307313Y500671D01*
X307313Y498591D01*
X307324Y498524D01*
X307325Y498456D01*
X307343Y498403D01*
X307352Y498348D01*
X307384Y498288D01*
X307407Y498224D01*
X307441Y498180D01*
X307468Y498131D01*
X307517Y498084D01*
X307559Y498031D01*
X307605Y498000D01*
X307646Y497961D01*
X307707Y497933D01*
X307764Y497896D01*
X307818Y497881D01*
X307869Y497858D01*
X307936Y497850D01*
X308002Y497833D01*
X308058Y497837D01*
X308113Y497831D01*
X308180Y497845D01*
X308247Y497850D01*
X308299Y497871D01*
X308354Y497883D01*
X308412Y497918D01*
X308475Y497944D01*
X308517Y497980D01*
X308565Y498009D01*
X308609Y498061D01*
X308660Y498105D01*
X308703Y498171D01*
X308725Y498196D01*
X308733Y498215D01*
X308752Y498245D01*
X308905Y498545D01*
X309880Y499887D01*
X311053Y501060D01*
X312395Y502035D01*
X313874Y502788D01*
X315452Y503301D01*
X316397Y503451D01*
X316397Y494543D01*
X307277Y494543D01*
X307243Y494585D01*
X307173Y494677D01*
X307166Y494681D01*
X307161Y494688D01*
X307064Y494750D01*
X306969Y494814D01*
X306961Y494816D01*
X306954Y494821D01*
X306842Y494849D01*
X306732Y494879D01*
X306724Y494879D01*
X306716Y494881D01*
X306601Y494872D01*
X306486Y494865D01*
X306479Y494862D01*
X306471Y494862D01*
X306365Y494816D01*
X306258Y494774D01*
X306252Y494768D01*
X306244Y494765D01*
X306113Y494660D01*
X303911Y492458D01*
X301027Y491263D01*
X297905Y491263D01*
G37*
%LPD*%
%LPC*%
G36*
X315520Y336235D02*
X315520Y336235D01*
X311086Y338072D01*
X307692Y341466D01*
X305855Y345900D01*
X305855Y350700D01*
X307692Y355134D01*
X310320Y357762D01*
X310331Y357778D01*
X310347Y357790D01*
X310403Y357878D01*
X310463Y357961D01*
X310469Y357980D01*
X310480Y357997D01*
X310505Y358098D01*
X310536Y358197D01*
X310535Y358216D01*
X310540Y358236D01*
X310532Y358339D01*
X310529Y358442D01*
X310522Y358461D01*
X310521Y358481D01*
X310480Y358576D01*
X310445Y358673D01*
X310432Y358689D01*
X310424Y358707D01*
X310320Y358838D01*
X307692Y361466D01*
X305855Y365900D01*
X305855Y370700D01*
X307692Y375134D01*
X311086Y378528D01*
X311327Y378628D01*
X311417Y378683D01*
X311509Y378735D01*
X311521Y378748D01*
X311537Y378758D01*
X311604Y378839D01*
X311674Y378916D01*
X311682Y378933D01*
X311693Y378947D01*
X311731Y379045D01*
X311773Y379142D01*
X311775Y379160D01*
X311782Y379177D01*
X311786Y379282D01*
X311795Y379387D01*
X311791Y379404D01*
X311792Y379422D01*
X311763Y379524D01*
X311738Y379626D01*
X311729Y379641D01*
X311723Y379659D01*
X311663Y379745D01*
X311608Y379834D01*
X311591Y379849D01*
X311583Y379861D01*
X311558Y379880D01*
X311484Y379947D01*
X311053Y380260D01*
X309880Y381433D01*
X308905Y382775D01*
X308152Y384254D01*
X307639Y385832D01*
X307489Y386777D01*
X317158Y386777D01*
X317178Y386780D01*
X317197Y386778D01*
X317299Y386800D01*
X317401Y386817D01*
X317418Y386826D01*
X317438Y386830D01*
X317527Y386883D01*
X317618Y386932D01*
X317632Y386946D01*
X317649Y386956D01*
X317716Y387035D01*
X317787Y387110D01*
X317796Y387128D01*
X317809Y387143D01*
X317847Y387239D01*
X317891Y387333D01*
X317893Y387353D01*
X317901Y387371D01*
X317919Y387538D01*
X317919Y388301D01*
X317921Y388301D01*
X317921Y387538D01*
X317924Y387518D01*
X317922Y387499D01*
X317944Y387397D01*
X317961Y387295D01*
X317970Y387278D01*
X317974Y387258D01*
X318027Y387169D01*
X318076Y387078D01*
X318090Y387064D01*
X318100Y387047D01*
X318179Y386980D01*
X318254Y386909D01*
X318272Y386900D01*
X318287Y386887D01*
X318383Y386848D01*
X318477Y386805D01*
X318497Y386803D01*
X318515Y386795D01*
X318682Y386777D01*
X328351Y386777D01*
X328201Y385832D01*
X327688Y384254D01*
X326935Y382775D01*
X325960Y381433D01*
X324787Y380260D01*
X324356Y379947D01*
X324283Y379873D01*
X324205Y379801D01*
X324196Y379785D01*
X324183Y379772D01*
X324137Y379678D01*
X324086Y379586D01*
X324083Y379568D01*
X324075Y379552D01*
X324061Y379447D01*
X324043Y379344D01*
X324045Y379326D01*
X324043Y379308D01*
X324063Y379205D01*
X324078Y379100D01*
X324087Y379084D01*
X324090Y379066D01*
X324142Y378975D01*
X324190Y378881D01*
X324203Y378868D01*
X324212Y378853D01*
X324291Y378782D01*
X324366Y378709D01*
X324385Y378698D01*
X324396Y378689D01*
X324425Y378676D01*
X324513Y378628D01*
X324754Y378528D01*
X328148Y375134D01*
X329985Y370700D01*
X329985Y365900D01*
X328148Y361466D01*
X325520Y358838D01*
X325509Y358822D01*
X325493Y358810D01*
X325437Y358722D01*
X325377Y358639D01*
X325371Y358620D01*
X325360Y358603D01*
X325335Y358502D01*
X325304Y358403D01*
X325305Y358384D01*
X325300Y358364D01*
X325308Y358261D01*
X325311Y358158D01*
X325318Y358139D01*
X325319Y358119D01*
X325360Y358024D01*
X325395Y357927D01*
X325408Y357911D01*
X325416Y357893D01*
X325520Y357762D01*
X328148Y355134D01*
X329985Y350700D01*
X329985Y345900D01*
X328148Y341466D01*
X324754Y338072D01*
X320320Y336235D01*
X315520Y336235D01*
G37*
%LPD*%
%LPC*%
G36*
X251243Y455863D02*
X251243Y455863D01*
X251243Y474783D01*
X252422Y474597D01*
X254150Y474035D01*
X255769Y473211D01*
X257238Y472143D01*
X258523Y470858D01*
X259591Y469389D01*
X260415Y467770D01*
X260977Y466042D01*
X261261Y464248D01*
X261261Y455863D01*
X251243Y455863D01*
G37*
%LPD*%
%LPC*%
G36*
X238179Y455863D02*
X238179Y455863D01*
X238179Y464248D01*
X238463Y466042D01*
X239025Y467770D01*
X239849Y469389D01*
X240917Y470858D01*
X242202Y472143D01*
X243671Y473211D01*
X245290Y474035D01*
X247018Y474597D01*
X248197Y474783D01*
X248197Y455863D01*
X238179Y455863D01*
G37*
%LPD*%
%LPC*%
G36*
X299721Y273303D02*
X299721Y273303D01*
X299721Y294009D01*
X300865Y293781D01*
X302530Y293092D01*
X304028Y292091D01*
X305301Y290818D01*
X306302Y289320D01*
X306991Y287655D01*
X307343Y285889D01*
X307343Y273303D01*
X299721Y273303D01*
G37*
%LPD*%
%LPC*%
G36*
X289053Y273303D02*
X289053Y273303D01*
X289053Y285889D01*
X289405Y287655D01*
X290094Y289320D01*
X291095Y290818D01*
X292368Y292091D01*
X293866Y293092D01*
X295531Y293781D01*
X296675Y294009D01*
X296675Y273303D01*
X289053Y273303D01*
G37*
%LPD*%
%LPC*%
G36*
X262635Y720597D02*
X262635Y720597D01*
X262635Y729235D01*
X269532Y729235D01*
X271111Y728985D01*
X272632Y728490D01*
X274057Y727764D01*
X275351Y726824D01*
X276482Y725693D01*
X277422Y724399D01*
X278148Y722974D01*
X278643Y721453D01*
X278778Y720597D01*
X262635Y720597D01*
G37*
%LPD*%
%LPC*%
G36*
X197611Y720597D02*
X197611Y720597D01*
X197611Y729235D01*
X204508Y729235D01*
X206087Y728985D01*
X207608Y728490D01*
X209033Y727764D01*
X210327Y726824D01*
X211458Y725693D01*
X212398Y724399D01*
X213124Y722974D01*
X213619Y721453D01*
X213754Y720597D01*
X197611Y720597D01*
G37*
%LPD*%
%LPC*%
G36*
X243446Y720597D02*
X243446Y720597D01*
X243581Y721453D01*
X244076Y722974D01*
X244802Y724399D01*
X245742Y725693D01*
X246873Y726824D01*
X248167Y727764D01*
X249592Y728490D01*
X251113Y728985D01*
X252692Y729235D01*
X259589Y729235D01*
X259589Y720597D01*
X243446Y720597D01*
G37*
%LPD*%
%LPC*%
G36*
X178422Y720597D02*
X178422Y720597D01*
X178557Y721453D01*
X179052Y722974D01*
X179778Y724399D01*
X180718Y725693D01*
X181849Y726824D01*
X183143Y727764D01*
X184568Y728490D01*
X186089Y728985D01*
X187668Y729235D01*
X194565Y729235D01*
X194565Y720597D01*
X178422Y720597D01*
G37*
%LPD*%
%LPC*%
G36*
X197611Y708913D02*
X197611Y708913D01*
X197611Y717551D01*
X213754Y717551D01*
X213619Y716695D01*
X213124Y715174D01*
X212398Y713749D01*
X211458Y712455D01*
X210327Y711324D01*
X209033Y710384D01*
X207608Y709658D01*
X206087Y709163D01*
X204508Y708913D01*
X197611Y708913D01*
G37*
%LPD*%
%LPC*%
G36*
X262635Y708913D02*
X262635Y708913D01*
X262635Y717551D01*
X278778Y717551D01*
X278643Y716695D01*
X278148Y715174D01*
X277422Y713749D01*
X276482Y712455D01*
X275351Y711324D01*
X274057Y710384D01*
X272632Y709658D01*
X271111Y709163D01*
X269532Y708913D01*
X262635Y708913D01*
G37*
%LPD*%
%LPC*%
G36*
X252692Y708913D02*
X252692Y708913D01*
X251113Y709163D01*
X249592Y709658D01*
X248167Y710384D01*
X246873Y711324D01*
X245742Y712455D01*
X244802Y713749D01*
X244076Y715174D01*
X243581Y716695D01*
X243446Y717551D01*
X259589Y717551D01*
X259589Y708913D01*
X252692Y708913D01*
G37*
%LPD*%
%LPC*%
G36*
X187668Y708913D02*
X187668Y708913D01*
X186089Y709163D01*
X184568Y709658D01*
X183143Y710384D01*
X181849Y711324D01*
X180718Y712455D01*
X179778Y713749D01*
X179052Y715174D01*
X178557Y716695D01*
X178422Y717551D01*
X194565Y717551D01*
X194565Y708913D01*
X187668Y708913D01*
G37*
%LPD*%
%LPC*%
G36*
X319443Y702083D02*
X319443Y702083D01*
X319443Y710991D01*
X320388Y710841D01*
X321966Y710328D01*
X323445Y709575D01*
X324787Y708600D01*
X325960Y707427D01*
X326935Y706085D01*
X327688Y704606D01*
X328201Y703028D01*
X328351Y702083D01*
X319443Y702083D01*
G37*
%LPD*%
%LPC*%
G36*
X319443Y389823D02*
X319443Y389823D01*
X319443Y398731D01*
X320388Y398581D01*
X321966Y398068D01*
X323445Y397315D01*
X324787Y396340D01*
X325960Y395167D01*
X326935Y393825D01*
X327688Y392346D01*
X328201Y390768D01*
X328351Y389823D01*
X319443Y389823D01*
G37*
%LPD*%
%LPC*%
G36*
X319443Y494543D02*
X319443Y494543D01*
X319443Y503451D01*
X320388Y503301D01*
X321966Y502788D01*
X323445Y502035D01*
X324787Y501060D01*
X325960Y499887D01*
X326935Y498545D01*
X327688Y497066D01*
X328201Y495488D01*
X328351Y494543D01*
X319443Y494543D01*
G37*
%LPD*%
%LPC*%
G36*
X307489Y702083D02*
X307489Y702083D01*
X307639Y703028D01*
X308152Y704606D01*
X308905Y706085D01*
X309880Y707427D01*
X311053Y708600D01*
X312395Y709575D01*
X313874Y710328D01*
X315452Y710841D01*
X316397Y710991D01*
X316397Y702083D01*
X307489Y702083D01*
G37*
%LPD*%
%LPC*%
G36*
X58629Y756323D02*
X58629Y756323D01*
X58779Y757268D01*
X59292Y758846D01*
X60045Y760325D01*
X61020Y761667D01*
X62193Y762840D01*
X63535Y763815D01*
X65014Y764568D01*
X66592Y765081D01*
X67537Y765231D01*
X67537Y756323D01*
X58629Y756323D01*
G37*
%LPD*%
%LPC*%
G36*
X307489Y389823D02*
X307489Y389823D01*
X307639Y390768D01*
X308152Y392346D01*
X308905Y393825D01*
X309880Y395167D01*
X311053Y396340D01*
X312395Y397315D01*
X313874Y398068D01*
X315452Y398581D01*
X316397Y398731D01*
X316397Y389823D01*
X307489Y389823D01*
G37*
%LPD*%
%LPC*%
G36*
X66592Y744519D02*
X66592Y744519D01*
X65014Y745032D01*
X63535Y745785D01*
X62193Y746760D01*
X61020Y747933D01*
X60045Y749275D01*
X59292Y750754D01*
X58779Y752332D01*
X58629Y753277D01*
X67537Y753277D01*
X67537Y744369D01*
X66592Y744519D01*
G37*
%LPD*%
%LPC*%
G36*
X299721Y270257D02*
X299721Y270257D01*
X307219Y270257D01*
X306991Y269113D01*
X306302Y267448D01*
X305301Y265950D01*
X304028Y264677D01*
X302530Y263676D01*
X300865Y262987D01*
X299721Y262759D01*
X299721Y270257D01*
G37*
%LPD*%
%LPC*%
G36*
X295531Y262987D02*
X295531Y262987D01*
X293866Y263676D01*
X292368Y264677D01*
X291095Y265950D01*
X290094Y267448D01*
X289405Y269113D01*
X289177Y270257D01*
X296675Y270257D01*
X296675Y262759D01*
X295531Y262987D01*
G37*
%LPD*%
%LPC*%
G36*
X317919Y493019D02*
X317919Y493019D01*
X317919Y493021D01*
X317921Y493021D01*
X317921Y493019D01*
X317919Y493019D01*
G37*
%LPD*%
%LPC*%
G36*
X261111Y719073D02*
X261111Y719073D01*
X261111Y719075D01*
X261113Y719075D01*
X261113Y719073D01*
X261111Y719073D01*
G37*
%LPD*%
%LPC*%
G36*
X298197Y271779D02*
X298197Y271779D01*
X298197Y271781D01*
X298199Y271781D01*
X298199Y271779D01*
X298197Y271779D01*
G37*
%LPD*%
%LPC*%
G36*
X196087Y719073D02*
X196087Y719073D01*
X196087Y719075D01*
X196089Y719075D01*
X196089Y719073D01*
X196087Y719073D01*
G37*
%LPD*%
%LPC*%
G36*
X69059Y754799D02*
X69059Y754799D01*
X69059Y754801D01*
X69061Y754801D01*
X69061Y754799D01*
X69059Y754799D01*
G37*
%LPD*%
D10*
X323598Y195580D02*
X323598Y182372D01*
X298198Y182372D02*
X298198Y195580D01*
X298198Y271780D02*
X298198Y284988D01*
X323598Y284988D02*
X323598Y271780D01*
D11*
X300992Y129540D03*
X326392Y129540D03*
D12*
X317920Y700560D03*
X317920Y680560D03*
X317920Y660560D03*
X317920Y640560D03*
X317920Y598060D03*
X317920Y578060D03*
X317920Y558060D03*
X317920Y538060D03*
X317920Y493020D03*
X317920Y473020D03*
X317920Y453020D03*
X317920Y433020D03*
D13*
X197720Y169340D02*
X197720Y151340D01*
X147720Y151340D02*
X147720Y169340D01*
X249720Y445340D02*
X249720Y463340D01*
X95720Y463340D02*
X95720Y445340D01*
D14*
X209013Y129444D02*
X209013Y115220D01*
X146172Y103220D02*
X146172Y88996D01*
D12*
X317920Y388300D03*
X317920Y368300D03*
X317920Y348300D03*
D15*
X147720Y44514D02*
X147720Y26607D01*
X197720Y26607D02*
X197720Y44514D01*
D12*
X27520Y203520D03*
X27520Y223520D03*
X27520Y243520D03*
X27520Y290040D03*
X27520Y310040D03*
X27520Y330040D03*
X27520Y350040D03*
X69060Y754800D03*
X89060Y754800D03*
X109060Y754800D03*
X129060Y754800D03*
D16*
X188468Y719074D02*
X203708Y719074D01*
X203708Y764286D02*
X188468Y764286D01*
X253492Y719074D02*
X268732Y719074D01*
X268732Y764286D02*
X253492Y764286D01*
D17*
X28194Y329946D02*
X28194Y324612D01*
X38100Y314706D01*
X38100Y214122D01*
X28194Y204216D01*
X28194Y329946D02*
X27520Y330040D01*
X28194Y204216D02*
X27520Y203520D01*
X298704Y272034D02*
X298704Y368808D01*
X299085Y369189D02*
X317754Y387858D01*
X299085Y369189D02*
X298704Y368808D01*
X298704Y272034D02*
X298198Y271780D01*
X317754Y387858D02*
X317920Y388300D01*
X299085Y369189D02*
X294132Y374142D01*
X288036Y493014D02*
X307086Y493014D01*
X317754Y493014D01*
X288036Y493014D02*
X249936Y454914D01*
X317754Y493014D02*
X317920Y493020D01*
X249936Y454914D02*
X249720Y454340D01*
X317754Y592836D02*
X317754Y597408D01*
X317754Y592836D02*
X307086Y582168D01*
X307086Y493014D01*
X317754Y597408D02*
X317920Y598060D01*
X74676Y755142D02*
X69342Y755142D01*
X74676Y755142D02*
X85344Y765810D01*
X149352Y765810D01*
X196088Y719074D01*
X69342Y755142D02*
X69060Y754800D01*
X318516Y418338D02*
X318516Y388620D01*
X318516Y418338D02*
X328422Y428244D01*
X328422Y481584D01*
X317754Y492252D01*
X318516Y388620D02*
X317920Y388300D01*
X317754Y492252D02*
X317920Y493020D01*
D18*
X294132Y374142D03*
D17*
X249720Y454340D02*
X129860Y454340D01*
X99060Y485140D01*
D18*
X99060Y485140D03*
X50800Y485140D03*
D17*
X72445Y485140D01*
X75410Y488106D01*
D18*
X75410Y488106D03*
D17*
X318516Y612648D02*
X318516Y640080D01*
X318516Y612648D02*
X328422Y602742D01*
X328422Y548640D01*
X318516Y538734D01*
X318516Y640080D02*
X317920Y640560D01*
X318516Y538734D02*
X317920Y538060D01*
X130302Y419862D02*
X96012Y454152D01*
X95720Y454340D01*
X142494Y432816D02*
X317754Y432816D01*
X142494Y432816D02*
X130302Y420624D01*
X317754Y432816D02*
X317920Y433020D01*
X130302Y420624D02*
X130302Y419862D01*
D18*
X130302Y419862D03*
D17*
X256794Y541782D02*
X256794Y564642D01*
X256794Y541782D02*
X299466Y499110D01*
D18*
X256794Y564642D03*
X299466Y499110D03*
D17*
X261366Y422148D02*
X32004Y192786D01*
X23622Y192786D01*
X16764Y199644D01*
X16764Y212598D01*
X27432Y223266D01*
X27520Y223520D01*
D18*
X261366Y422148D03*
D17*
X317754Y659892D02*
X194310Y659892D01*
X134112Y599694D01*
X128016Y599694D01*
X89154Y638556D01*
X89154Y754380D01*
X317920Y660560D02*
X317754Y659892D01*
X89154Y754380D02*
X89060Y754800D01*
X234696Y638810D02*
X255016Y638810D01*
X234696Y638810D02*
X12192Y416306D01*
X12192Y325374D01*
X27432Y310134D01*
X27520Y310040D01*
D18*
X255016Y638810D03*
X15024Y528320D03*
D17*
X53340Y528320D01*
X53467Y528193D01*
D18*
X53467Y528193D03*
D17*
X298704Y195072D02*
X298704Y131826D01*
X300990Y129540D01*
X298704Y195072D02*
X298198Y195580D01*
X300990Y129540D02*
X300992Y129540D01*
M02*
