G04 EAGLE Gerber RS-274X export*
G75*
%MOMM*%
%FSLAX34Y34*%
%LPD*%
%IN*%
%IPPOS*%
%AMOC8*
5,1,8,0,0,1.08239X$1,22.5*%
G01*
%ADD10C,0.254000*%


D10*
X320Y0D02*
X343760Y0D01*
X341220Y779940D01*
X320Y779940D01*
X320Y0D01*
X63220Y67935D02*
X63147Y66828D01*
X63003Y65727D01*
X62786Y64639D01*
X62499Y63567D01*
X62142Y62516D01*
X61717Y61491D01*
X61227Y60496D01*
X60672Y59534D01*
X60055Y58612D01*
X59380Y57731D01*
X58648Y56897D01*
X57863Y56112D01*
X57029Y55380D01*
X56148Y54705D01*
X55226Y54088D01*
X54264Y53533D01*
X53269Y53043D01*
X52244Y52618D01*
X51193Y52261D01*
X50121Y51974D01*
X49033Y51757D01*
X47932Y51613D01*
X46825Y51540D01*
X45715Y51540D01*
X44608Y51613D01*
X43507Y51757D01*
X42419Y51974D01*
X41347Y52261D01*
X40296Y52618D01*
X39271Y53043D01*
X38276Y53533D01*
X37314Y54088D01*
X36392Y54705D01*
X35511Y55380D01*
X34677Y56112D01*
X33892Y56897D01*
X33160Y57731D01*
X32485Y58612D01*
X31868Y59534D01*
X31313Y60496D01*
X30823Y61491D01*
X30398Y62516D01*
X30041Y63567D01*
X29754Y64639D01*
X29537Y65727D01*
X29393Y66828D01*
X29320Y67935D01*
X29320Y69045D01*
X29393Y70152D01*
X29537Y71253D01*
X29754Y72341D01*
X30041Y73413D01*
X30398Y74464D01*
X30823Y75489D01*
X31313Y76484D01*
X31868Y77446D01*
X32485Y78368D01*
X33160Y79249D01*
X33892Y80083D01*
X34677Y80868D01*
X35511Y81600D01*
X36392Y82275D01*
X37314Y82892D01*
X38276Y83447D01*
X39271Y83937D01*
X40296Y84362D01*
X41347Y84719D01*
X42419Y85006D01*
X43507Y85223D01*
X44608Y85367D01*
X45715Y85440D01*
X46825Y85440D01*
X47932Y85367D01*
X49033Y85223D01*
X50121Y85006D01*
X51193Y84719D01*
X52244Y84362D01*
X53269Y83937D01*
X54264Y83447D01*
X55226Y82892D01*
X56148Y82275D01*
X57029Y81600D01*
X57863Y80868D01*
X58648Y80083D01*
X59380Y79249D01*
X60055Y78368D01*
X60672Y77446D01*
X61227Y76484D01*
X61717Y75489D01*
X62142Y74464D01*
X62499Y73413D01*
X62786Y72341D01*
X63003Y71253D01*
X63147Y70152D01*
X63220Y69045D01*
X63220Y67935D01*
X311270Y67935D02*
X311197Y66828D01*
X311053Y65727D01*
X310836Y64639D01*
X310549Y63567D01*
X310192Y62516D01*
X309767Y61491D01*
X309277Y60496D01*
X308722Y59534D01*
X308105Y58612D01*
X307430Y57731D01*
X306698Y56897D01*
X305913Y56112D01*
X305079Y55380D01*
X304198Y54705D01*
X303276Y54088D01*
X302314Y53533D01*
X301319Y53043D01*
X300294Y52618D01*
X299243Y52261D01*
X298171Y51974D01*
X297083Y51757D01*
X295982Y51613D01*
X294875Y51540D01*
X293765Y51540D01*
X292658Y51613D01*
X291557Y51757D01*
X290469Y51974D01*
X289397Y52261D01*
X288346Y52618D01*
X287321Y53043D01*
X286326Y53533D01*
X285364Y54088D01*
X284442Y54705D01*
X283561Y55380D01*
X282727Y56112D01*
X281942Y56897D01*
X281210Y57731D01*
X280535Y58612D01*
X279918Y59534D01*
X279363Y60496D01*
X278873Y61491D01*
X278448Y62516D01*
X278091Y63567D01*
X277804Y64639D01*
X277587Y65727D01*
X277443Y66828D01*
X277370Y67935D01*
X277370Y69045D01*
X277443Y70152D01*
X277587Y71253D01*
X277804Y72341D01*
X278091Y73413D01*
X278448Y74464D01*
X278873Y75489D01*
X279363Y76484D01*
X279918Y77446D01*
X280535Y78368D01*
X281210Y79249D01*
X281942Y80083D01*
X282727Y80868D01*
X283561Y81600D01*
X284442Y82275D01*
X285364Y82892D01*
X286326Y83447D01*
X287321Y83937D01*
X288346Y84362D01*
X289397Y84719D01*
X290469Y85006D01*
X291557Y85223D01*
X292658Y85367D01*
X293765Y85440D01*
X294875Y85440D01*
X295982Y85367D01*
X297083Y85223D01*
X298171Y85006D01*
X299243Y84719D01*
X300294Y84362D01*
X301319Y83937D01*
X302314Y83447D01*
X303276Y82892D01*
X304198Y82275D01*
X305079Y81600D01*
X305913Y80868D01*
X306698Y80083D01*
X307430Y79249D01*
X308105Y78368D01*
X308722Y77446D01*
X309277Y76484D01*
X309767Y75489D01*
X310192Y74464D01*
X310549Y73413D01*
X310836Y72341D01*
X311053Y71253D01*
X311197Y70152D01*
X311270Y69045D01*
X311270Y67935D01*
X334130Y756365D02*
X334057Y755258D01*
X333913Y754157D01*
X333696Y753069D01*
X333409Y751997D01*
X333052Y750946D01*
X332627Y749921D01*
X332137Y748926D01*
X331582Y747964D01*
X330965Y747042D01*
X330290Y746161D01*
X329558Y745327D01*
X328773Y744542D01*
X327939Y743810D01*
X327058Y743135D01*
X326136Y742518D01*
X325174Y741963D01*
X324179Y741473D01*
X323154Y741048D01*
X322103Y740691D01*
X321031Y740404D01*
X319943Y740187D01*
X318842Y740043D01*
X317735Y739970D01*
X316625Y739970D01*
X315518Y740043D01*
X314417Y740187D01*
X313329Y740404D01*
X312257Y740691D01*
X311206Y741048D01*
X310181Y741473D01*
X309186Y741963D01*
X308224Y742518D01*
X307302Y743135D01*
X306421Y743810D01*
X305587Y744542D01*
X304802Y745327D01*
X304070Y746161D01*
X303395Y747042D01*
X302778Y747964D01*
X302223Y748926D01*
X301733Y749921D01*
X301308Y750946D01*
X300951Y751997D01*
X300664Y753069D01*
X300447Y754157D01*
X300303Y755258D01*
X300230Y756365D01*
X300230Y757475D01*
X300303Y758582D01*
X300447Y759683D01*
X300664Y760771D01*
X300951Y761843D01*
X301308Y762894D01*
X301733Y763919D01*
X302223Y764914D01*
X302778Y765876D01*
X303395Y766798D01*
X304070Y767679D01*
X304802Y768513D01*
X305587Y769298D01*
X306421Y770030D01*
X307302Y770705D01*
X308224Y771322D01*
X309186Y771877D01*
X310181Y772367D01*
X311206Y772792D01*
X312257Y773149D01*
X313329Y773436D01*
X314417Y773653D01*
X315518Y773797D01*
X316625Y773870D01*
X317735Y773870D01*
X318842Y773797D01*
X319943Y773653D01*
X321031Y773436D01*
X322103Y773149D01*
X323154Y772792D01*
X324179Y772367D01*
X325174Y771877D01*
X326136Y771322D01*
X327058Y770705D01*
X327939Y770030D01*
X328773Y769298D01*
X329558Y768513D01*
X330290Y767679D01*
X330965Y766798D01*
X331582Y765876D01*
X332137Y764914D01*
X332627Y763919D01*
X333052Y762894D01*
X333409Y761843D01*
X333696Y760771D01*
X333913Y759683D01*
X334057Y758582D01*
X334130Y757475D01*
X334130Y756365D01*
X42900Y758905D02*
X42827Y757798D01*
X42683Y756697D01*
X42466Y755609D01*
X42179Y754537D01*
X41822Y753486D01*
X41397Y752461D01*
X40907Y751466D01*
X40352Y750504D01*
X39735Y749582D01*
X39060Y748701D01*
X38328Y747867D01*
X37543Y747082D01*
X36709Y746350D01*
X35828Y745675D01*
X34906Y745058D01*
X33944Y744503D01*
X32949Y744013D01*
X31924Y743588D01*
X30873Y743231D01*
X29801Y742944D01*
X28713Y742727D01*
X27612Y742583D01*
X26505Y742510D01*
X25395Y742510D01*
X24288Y742583D01*
X23187Y742727D01*
X22099Y742944D01*
X21027Y743231D01*
X19976Y743588D01*
X18951Y744013D01*
X17956Y744503D01*
X16994Y745058D01*
X16072Y745675D01*
X15191Y746350D01*
X14357Y747082D01*
X13572Y747867D01*
X12840Y748701D01*
X12165Y749582D01*
X11548Y750504D01*
X10993Y751466D01*
X10503Y752461D01*
X10078Y753486D01*
X9721Y754537D01*
X9434Y755609D01*
X9217Y756697D01*
X9073Y757798D01*
X9000Y758905D01*
X9000Y760015D01*
X9073Y761122D01*
X9217Y762223D01*
X9434Y763311D01*
X9721Y764383D01*
X10078Y765434D01*
X10503Y766459D01*
X10993Y767454D01*
X11548Y768416D01*
X12165Y769338D01*
X12840Y770219D01*
X13572Y771053D01*
X14357Y771838D01*
X15191Y772570D01*
X16072Y773245D01*
X16994Y773862D01*
X17956Y774417D01*
X18951Y774907D01*
X19976Y775332D01*
X21027Y775689D01*
X22099Y775976D01*
X23187Y776193D01*
X24288Y776337D01*
X25395Y776410D01*
X26505Y776410D01*
X27612Y776337D01*
X28713Y776193D01*
X29801Y775976D01*
X30873Y775689D01*
X31924Y775332D01*
X32949Y774907D01*
X33944Y774417D01*
X34906Y773862D01*
X35828Y773245D01*
X36709Y772570D01*
X37543Y771838D01*
X38328Y771053D01*
X39060Y770219D01*
X39735Y769338D01*
X40352Y768416D01*
X40907Y767454D01*
X41397Y766459D01*
X41822Y765434D01*
X42179Y764383D01*
X42466Y763311D01*
X42683Y762223D01*
X42827Y761122D01*
X42900Y760015D01*
X42900Y758905D01*
M02*
