G04 EAGLE Gerber RS-274X export*
G75*
%MOMM*%
%FSLAX34Y34*%
%LPD*%
%INSilkscreen Bottom*%
%IPPOS*%
%AMOC8*
5,1,8,0,0,1.08239X$1,22.5*%
G01*
%ADD10C,0.076200*%
%ADD11C,0.101600*%
%ADD12C,0.152400*%
%ADD13C,0.203200*%
%ADD14C,0.127000*%
%ADD15C,0.050800*%


D10*
X136296Y668401D02*
X136296Y674666D01*
X133163Y674666D01*
X133163Y673622D01*
X128685Y668401D02*
X126074Y668401D01*
X128685Y668401D02*
X128762Y668403D01*
X128838Y668409D01*
X128915Y668418D01*
X128991Y668431D01*
X129066Y668448D01*
X129140Y668468D01*
X129213Y668493D01*
X129284Y668520D01*
X129355Y668551D01*
X129423Y668586D01*
X129490Y668624D01*
X129555Y668665D01*
X129618Y668709D01*
X129678Y668756D01*
X129737Y668807D01*
X129792Y668860D01*
X129845Y668915D01*
X129896Y668974D01*
X129943Y669034D01*
X129987Y669097D01*
X130028Y669162D01*
X130066Y669229D01*
X130101Y669297D01*
X130132Y669368D01*
X130159Y669439D01*
X130184Y669512D01*
X130204Y669586D01*
X130221Y669661D01*
X130234Y669737D01*
X130243Y669814D01*
X130249Y669890D01*
X130251Y669967D01*
X130251Y672578D01*
X130249Y672668D01*
X130243Y672757D01*
X130234Y672847D01*
X130220Y672936D01*
X130203Y673024D01*
X130182Y673111D01*
X130157Y673198D01*
X130128Y673283D01*
X130096Y673367D01*
X130061Y673449D01*
X130021Y673530D01*
X129979Y673609D01*
X129933Y673686D01*
X129883Y673761D01*
X129831Y673834D01*
X129775Y673905D01*
X129717Y673973D01*
X129655Y674038D01*
X129591Y674101D01*
X129524Y674161D01*
X129455Y674218D01*
X129383Y674272D01*
X129309Y674323D01*
X129233Y674371D01*
X129155Y674415D01*
X129075Y674456D01*
X128993Y674494D01*
X128910Y674528D01*
X128825Y674558D01*
X128739Y674585D01*
X128653Y674608D01*
X128565Y674627D01*
X128476Y674642D01*
X128387Y674654D01*
X128298Y674662D01*
X128208Y674666D01*
X128118Y674666D01*
X128028Y674662D01*
X127939Y674654D01*
X127850Y674642D01*
X127761Y674627D01*
X127673Y674608D01*
X127587Y674585D01*
X127501Y674558D01*
X127416Y674528D01*
X127333Y674494D01*
X127251Y674456D01*
X127171Y674415D01*
X127093Y674371D01*
X127017Y674323D01*
X126943Y674272D01*
X126871Y674218D01*
X126802Y674161D01*
X126735Y674101D01*
X126671Y674038D01*
X126609Y673973D01*
X126551Y673905D01*
X126495Y673834D01*
X126443Y673761D01*
X126393Y673686D01*
X126347Y673609D01*
X126305Y673530D01*
X126265Y673449D01*
X126230Y673367D01*
X126198Y673283D01*
X126169Y673198D01*
X126144Y673111D01*
X126123Y673024D01*
X126106Y672936D01*
X126092Y672847D01*
X126083Y672757D01*
X126077Y672668D01*
X126075Y672578D01*
X126074Y672578D02*
X126074Y671534D01*
X130251Y671534D01*
X122631Y674666D02*
X120543Y668401D01*
X118454Y674666D01*
X112052Y677800D02*
X111957Y677798D01*
X111863Y677792D01*
X111769Y677783D01*
X111675Y677770D01*
X111582Y677753D01*
X111490Y677732D01*
X111398Y677707D01*
X111308Y677679D01*
X111219Y677647D01*
X111131Y677612D01*
X111045Y677573D01*
X110960Y677531D01*
X110877Y677485D01*
X110796Y677436D01*
X110717Y677384D01*
X110640Y677329D01*
X110566Y677270D01*
X110494Y677209D01*
X110424Y677145D01*
X110357Y677078D01*
X110293Y677008D01*
X110232Y676936D01*
X110173Y676862D01*
X110118Y676785D01*
X110066Y676706D01*
X110017Y676625D01*
X109971Y676542D01*
X109929Y676457D01*
X109890Y676371D01*
X109855Y676283D01*
X109823Y676194D01*
X109795Y676104D01*
X109770Y676012D01*
X109749Y675920D01*
X109732Y675827D01*
X109719Y675733D01*
X109710Y675639D01*
X109704Y675545D01*
X109702Y675450D01*
X112052Y677799D02*
X112160Y677797D01*
X112269Y677791D01*
X112377Y677781D01*
X112484Y677768D01*
X112591Y677750D01*
X112698Y677729D01*
X112803Y677704D01*
X112908Y677675D01*
X113011Y677643D01*
X113113Y677606D01*
X113214Y677566D01*
X113313Y677523D01*
X113411Y677476D01*
X113507Y677425D01*
X113601Y677371D01*
X113693Y677314D01*
X113783Y677253D01*
X113871Y677189D01*
X113956Y677123D01*
X114039Y677053D01*
X114119Y676980D01*
X114197Y676904D01*
X114272Y676826D01*
X114344Y676745D01*
X114413Y676661D01*
X114479Y676575D01*
X114542Y676487D01*
X114601Y676396D01*
X114658Y676304D01*
X114711Y676209D01*
X114760Y676112D01*
X114806Y676014D01*
X114849Y675915D01*
X114888Y675813D01*
X114923Y675711D01*
X110485Y673622D02*
X110416Y673691D01*
X110350Y673762D01*
X110286Y673835D01*
X110225Y673911D01*
X110167Y673990D01*
X110113Y674070D01*
X110061Y674153D01*
X110013Y674237D01*
X109967Y674323D01*
X109926Y674411D01*
X109887Y674501D01*
X109852Y674592D01*
X109821Y674684D01*
X109793Y674777D01*
X109769Y674871D01*
X109749Y674966D01*
X109732Y675062D01*
X109719Y675159D01*
X109710Y675256D01*
X109704Y675353D01*
X109702Y675450D01*
X110486Y673622D02*
X114924Y668401D01*
X109703Y668401D01*
X106173Y668401D02*
X106173Y668923D01*
X105651Y668923D01*
X105651Y668401D01*
X106173Y668401D01*
X102122Y673100D02*
X102120Y673285D01*
X102113Y673470D01*
X102102Y673654D01*
X102087Y673838D01*
X102067Y674022D01*
X102043Y674206D01*
X102014Y674388D01*
X101981Y674570D01*
X101944Y674751D01*
X101902Y674931D01*
X101856Y675111D01*
X101806Y675289D01*
X101752Y675465D01*
X101693Y675641D01*
X101631Y675815D01*
X101564Y675987D01*
X101493Y676158D01*
X101418Y676327D01*
X101339Y676494D01*
X101340Y676494D02*
X101310Y676574D01*
X101277Y676653D01*
X101240Y676730D01*
X101200Y676806D01*
X101157Y676880D01*
X101111Y676952D01*
X101061Y677021D01*
X101009Y677089D01*
X100953Y677154D01*
X100895Y677217D01*
X100833Y677276D01*
X100770Y677334D01*
X100703Y677388D01*
X100635Y677439D01*
X100564Y677487D01*
X100491Y677532D01*
X100417Y677574D01*
X100340Y677612D01*
X100262Y677647D01*
X100183Y677679D01*
X100102Y677707D01*
X100020Y677731D01*
X99936Y677752D01*
X99853Y677769D01*
X99768Y677782D01*
X99683Y677791D01*
X99598Y677797D01*
X99512Y677799D01*
X99426Y677797D01*
X99341Y677791D01*
X99256Y677782D01*
X99171Y677769D01*
X99088Y677752D01*
X99004Y677731D01*
X98922Y677707D01*
X98842Y677679D01*
X98762Y677647D01*
X98684Y677612D01*
X98607Y677574D01*
X98533Y677532D01*
X98460Y677487D01*
X98389Y677439D01*
X98321Y677388D01*
X98254Y677334D01*
X98191Y677276D01*
X98130Y677217D01*
X98071Y677154D01*
X98016Y677089D01*
X97963Y677021D01*
X97913Y676952D01*
X97867Y676880D01*
X97824Y676806D01*
X97784Y676730D01*
X97747Y676653D01*
X97714Y676574D01*
X97684Y676494D01*
X97605Y676327D01*
X97530Y676158D01*
X97459Y675987D01*
X97392Y675815D01*
X97330Y675641D01*
X97271Y675465D01*
X97217Y675289D01*
X97167Y675111D01*
X97121Y674931D01*
X97079Y674751D01*
X97042Y674570D01*
X97009Y674388D01*
X96980Y674206D01*
X96956Y674022D01*
X96936Y673838D01*
X96921Y673654D01*
X96910Y673470D01*
X96903Y673285D01*
X96901Y673100D01*
X102122Y673100D02*
X102120Y672915D01*
X102113Y672730D01*
X102102Y672546D01*
X102087Y672362D01*
X102067Y672178D01*
X102043Y671994D01*
X102014Y671812D01*
X101981Y671630D01*
X101944Y671449D01*
X101902Y671269D01*
X101856Y671089D01*
X101806Y670911D01*
X101752Y670735D01*
X101693Y670559D01*
X101631Y670385D01*
X101564Y670213D01*
X101493Y670042D01*
X101418Y669873D01*
X101339Y669706D01*
X101340Y669706D02*
X101310Y669626D01*
X101277Y669547D01*
X101240Y669470D01*
X101200Y669394D01*
X101157Y669320D01*
X101111Y669248D01*
X101061Y669179D01*
X101008Y669111D01*
X100953Y669046D01*
X100894Y668983D01*
X100833Y668924D01*
X100770Y668866D01*
X100703Y668812D01*
X100635Y668761D01*
X100564Y668713D01*
X100491Y668668D01*
X100417Y668626D01*
X100340Y668588D01*
X100262Y668553D01*
X100183Y668521D01*
X100102Y668493D01*
X100020Y668469D01*
X99936Y668448D01*
X99853Y668431D01*
X99768Y668418D01*
X99683Y668409D01*
X99598Y668403D01*
X99512Y668401D01*
X97684Y669706D02*
X97605Y669873D01*
X97530Y670042D01*
X97459Y670213D01*
X97392Y670385D01*
X97330Y670559D01*
X97271Y670735D01*
X97217Y670911D01*
X97167Y671089D01*
X97121Y671269D01*
X97079Y671449D01*
X97042Y671630D01*
X97009Y671812D01*
X96980Y671994D01*
X96956Y672178D01*
X96936Y672362D01*
X96921Y672546D01*
X96910Y672730D01*
X96903Y672915D01*
X96901Y673100D01*
X97684Y669706D02*
X97714Y669626D01*
X97747Y669547D01*
X97784Y669470D01*
X97824Y669394D01*
X97867Y669320D01*
X97913Y669248D01*
X97963Y669179D01*
X98016Y669111D01*
X98071Y669046D01*
X98130Y668983D01*
X98191Y668924D01*
X98254Y668866D01*
X98321Y668812D01*
X98389Y668761D01*
X98460Y668713D01*
X98533Y668668D01*
X98607Y668626D01*
X98684Y668588D01*
X98762Y668553D01*
X98842Y668521D01*
X98922Y668493D01*
X99004Y668469D01*
X99088Y668448D01*
X99171Y668431D01*
X99256Y668418D01*
X99341Y668409D01*
X99426Y668403D01*
X99512Y668401D01*
X101600Y670489D02*
X97423Y675711D01*
D11*
X229503Y691106D02*
X233172Y691106D01*
X229503Y691106D02*
X229383Y691104D01*
X229263Y691098D01*
X229143Y691088D01*
X229024Y691075D01*
X228905Y691057D01*
X228787Y691036D01*
X228670Y691010D01*
X228553Y690981D01*
X228438Y690948D01*
X228324Y690911D01*
X228211Y690871D01*
X228099Y690827D01*
X227989Y690779D01*
X227880Y690728D01*
X227773Y690673D01*
X227669Y690614D01*
X227566Y690553D01*
X227465Y690488D01*
X227366Y690419D01*
X227269Y690348D01*
X227175Y690273D01*
X227084Y690196D01*
X226995Y690115D01*
X226909Y690031D01*
X226825Y689945D01*
X226744Y689856D01*
X226667Y689765D01*
X226592Y689671D01*
X226521Y689574D01*
X226452Y689475D01*
X226387Y689374D01*
X226326Y689272D01*
X226267Y689167D01*
X226212Y689060D01*
X226161Y688951D01*
X226113Y688841D01*
X226069Y688729D01*
X226029Y688616D01*
X225992Y688502D01*
X225959Y688387D01*
X225930Y688270D01*
X225904Y688153D01*
X225883Y688035D01*
X225865Y687916D01*
X225852Y687797D01*
X225842Y687677D01*
X225836Y687557D01*
X225834Y687437D01*
X225836Y687317D01*
X225842Y687197D01*
X225852Y687077D01*
X225865Y686958D01*
X225883Y686839D01*
X225904Y686721D01*
X225930Y686604D01*
X225959Y686487D01*
X225992Y686372D01*
X226029Y686258D01*
X226069Y686145D01*
X226113Y686033D01*
X226161Y685923D01*
X226212Y685814D01*
X226267Y685707D01*
X226326Y685603D01*
X226387Y685500D01*
X226452Y685399D01*
X226521Y685300D01*
X226592Y685203D01*
X226667Y685109D01*
X226744Y685018D01*
X226825Y684929D01*
X226909Y684843D01*
X226995Y684759D01*
X227084Y684678D01*
X227175Y684601D01*
X227269Y684526D01*
X227366Y684455D01*
X227465Y684386D01*
X227566Y684321D01*
X227669Y684260D01*
X227773Y684201D01*
X227880Y684146D01*
X227989Y684095D01*
X228099Y684047D01*
X228211Y684003D01*
X228324Y683963D01*
X228438Y683926D01*
X228553Y683893D01*
X228670Y683864D01*
X228787Y683838D01*
X228905Y683817D01*
X229024Y683799D01*
X229143Y683786D01*
X229263Y683776D01*
X229383Y683770D01*
X229503Y683768D01*
X233172Y683768D01*
X233172Y696976D01*
X229503Y696976D01*
X229396Y696974D01*
X229289Y696968D01*
X229182Y696958D01*
X229076Y696945D01*
X228970Y696927D01*
X228865Y696906D01*
X228761Y696881D01*
X228657Y696852D01*
X228555Y696819D01*
X228455Y696782D01*
X228355Y696742D01*
X228257Y696698D01*
X228161Y696651D01*
X228067Y696600D01*
X227974Y696546D01*
X227884Y696489D01*
X227795Y696428D01*
X227709Y696364D01*
X227626Y696297D01*
X227544Y696227D01*
X227466Y696154D01*
X227390Y696078D01*
X227317Y696000D01*
X227247Y695918D01*
X227180Y695835D01*
X227116Y695749D01*
X227055Y695660D01*
X226998Y695570D01*
X226944Y695477D01*
X226893Y695383D01*
X226846Y695287D01*
X226802Y695189D01*
X226762Y695089D01*
X226725Y694989D01*
X226692Y694887D01*
X226663Y694783D01*
X226638Y694679D01*
X226617Y694574D01*
X226599Y694468D01*
X226586Y694362D01*
X226576Y694255D01*
X226570Y694148D01*
X226568Y694041D01*
X226570Y693934D01*
X226576Y693827D01*
X226586Y693720D01*
X226599Y693614D01*
X226617Y693508D01*
X226638Y693403D01*
X226663Y693299D01*
X226692Y693195D01*
X226725Y693093D01*
X226762Y692993D01*
X226802Y692893D01*
X226846Y692795D01*
X226893Y692699D01*
X226944Y692605D01*
X226998Y692512D01*
X227055Y692422D01*
X227116Y692333D01*
X227180Y692247D01*
X227247Y692164D01*
X227317Y692082D01*
X227390Y692004D01*
X227466Y691928D01*
X227544Y691855D01*
X227626Y691785D01*
X227709Y691718D01*
X227795Y691654D01*
X227884Y691593D01*
X227974Y691536D01*
X228067Y691482D01*
X228161Y691431D01*
X228257Y691384D01*
X228355Y691340D01*
X228455Y691300D01*
X228555Y691263D01*
X228657Y691230D01*
X228761Y691201D01*
X228865Y691176D01*
X228970Y691155D01*
X229076Y691137D01*
X229182Y691124D01*
X229289Y691114D01*
X229396Y691108D01*
X229503Y691106D01*
X220550Y696976D02*
X220550Y683768D01*
X220550Y691106D02*
X213212Y691106D01*
X213212Y696976D02*
X213212Y683768D01*
X199888Y683768D02*
X199888Y696976D01*
X196219Y696976D01*
X196099Y696974D01*
X195979Y696968D01*
X195859Y696958D01*
X195740Y696945D01*
X195621Y696927D01*
X195503Y696906D01*
X195386Y696880D01*
X195269Y696851D01*
X195154Y696818D01*
X195040Y696781D01*
X194927Y696741D01*
X194815Y696697D01*
X194705Y696649D01*
X194596Y696598D01*
X194489Y696543D01*
X194385Y696484D01*
X194282Y696423D01*
X194181Y696358D01*
X194082Y696289D01*
X193985Y696218D01*
X193891Y696143D01*
X193800Y696066D01*
X193711Y695985D01*
X193625Y695901D01*
X193541Y695815D01*
X193460Y695726D01*
X193383Y695635D01*
X193308Y695541D01*
X193237Y695444D01*
X193168Y695345D01*
X193103Y695244D01*
X193042Y695142D01*
X192983Y695037D01*
X192928Y694930D01*
X192877Y694821D01*
X192829Y694711D01*
X192785Y694599D01*
X192745Y694486D01*
X192708Y694372D01*
X192675Y694257D01*
X192646Y694140D01*
X192620Y694023D01*
X192599Y693905D01*
X192581Y693786D01*
X192568Y693667D01*
X192558Y693547D01*
X192552Y693427D01*
X192550Y693307D01*
X192552Y693187D01*
X192558Y693067D01*
X192568Y692947D01*
X192581Y692828D01*
X192599Y692709D01*
X192620Y692591D01*
X192646Y692474D01*
X192675Y692357D01*
X192708Y692242D01*
X192745Y692128D01*
X192785Y692015D01*
X192829Y691903D01*
X192877Y691793D01*
X192928Y691684D01*
X192983Y691577D01*
X193042Y691473D01*
X193103Y691370D01*
X193168Y691269D01*
X193237Y691170D01*
X193308Y691073D01*
X193383Y690979D01*
X193460Y690888D01*
X193541Y690799D01*
X193625Y690713D01*
X193711Y690629D01*
X193800Y690548D01*
X193891Y690471D01*
X193985Y690396D01*
X194082Y690325D01*
X194181Y690256D01*
X194282Y690191D01*
X194385Y690130D01*
X194489Y690071D01*
X194596Y690016D01*
X194705Y689965D01*
X194815Y689917D01*
X194927Y689873D01*
X195040Y689833D01*
X195154Y689796D01*
X195269Y689763D01*
X195386Y689734D01*
X195503Y689708D01*
X195621Y689687D01*
X195740Y689669D01*
X195859Y689656D01*
X195979Y689646D01*
X196099Y689640D01*
X196219Y689638D01*
X199888Y689638D01*
X188119Y696976D02*
X180782Y696976D01*
X188119Y683768D01*
X180782Y683768D01*
X175294Y683768D02*
X169424Y683768D01*
X175294Y683768D02*
X175294Y696976D01*
X169424Y696976D01*
X170891Y691106D02*
X175294Y691106D01*
X164103Y696976D02*
X164103Y683768D01*
X159701Y689638D02*
X164103Y696976D01*
X159701Y689638D02*
X155298Y696976D01*
X155298Y683768D01*
X140020Y683768D02*
X142955Y696976D01*
X137085Y692573D02*
X140020Y683768D01*
X134149Y683768D02*
X137085Y692573D01*
X131214Y696976D02*
X134149Y683768D01*
X125136Y683768D02*
X125136Y696976D01*
X126604Y683768D02*
X123669Y683768D01*
X123669Y696976D02*
X126604Y696976D01*
X118444Y688904D02*
X109639Y688904D01*
X103605Y683768D02*
X103605Y696976D01*
X97735Y696976D01*
X97735Y691106D02*
X103605Y691106D01*
X93132Y692573D02*
X93132Y683768D01*
X93499Y696242D02*
X93499Y696976D01*
X92766Y696976D01*
X92766Y696242D01*
X93499Y696242D01*
D12*
X285498Y262890D02*
X336298Y262890D01*
X336298Y204470D02*
X285498Y204470D01*
X285498Y262890D01*
X336298Y262890D02*
X336298Y243840D01*
X336298Y223520D02*
X336298Y204470D01*
X336298Y223520D02*
X336051Y223523D01*
X335803Y223532D01*
X335556Y223547D01*
X335310Y223568D01*
X335064Y223595D01*
X334819Y223628D01*
X334574Y223667D01*
X334331Y223712D01*
X334089Y223763D01*
X333848Y223820D01*
X333609Y223882D01*
X333371Y223951D01*
X333135Y224025D01*
X332901Y224105D01*
X332669Y224190D01*
X332439Y224282D01*
X332211Y224378D01*
X331986Y224481D01*
X331763Y224588D01*
X331543Y224702D01*
X331326Y224820D01*
X331111Y224944D01*
X330900Y225073D01*
X330692Y225207D01*
X330487Y225346D01*
X330286Y225490D01*
X330088Y225638D01*
X329894Y225792D01*
X329704Y225950D01*
X329518Y226113D01*
X329336Y226280D01*
X329158Y226452D01*
X328984Y226628D01*
X328814Y226808D01*
X328649Y226993D01*
X328489Y227181D01*
X328333Y227373D01*
X328181Y227569D01*
X328035Y227768D01*
X327893Y227971D01*
X327757Y228178D01*
X327625Y228387D01*
X327499Y228600D01*
X327378Y228816D01*
X327262Y229034D01*
X327152Y229256D01*
X327047Y229480D01*
X326947Y229706D01*
X326853Y229935D01*
X326765Y230166D01*
X326682Y230400D01*
X326605Y230635D01*
X326534Y230872D01*
X326468Y231110D01*
X326409Y231350D01*
X326355Y231592D01*
X326307Y231835D01*
X326265Y232078D01*
X326229Y232323D01*
X326199Y232569D01*
X326175Y232815D01*
X326157Y233062D01*
X326145Y233309D01*
X326139Y233556D01*
X326139Y233804D01*
X326145Y234051D01*
X326157Y234298D01*
X326175Y234545D01*
X326199Y234791D01*
X326229Y235037D01*
X326265Y235282D01*
X326307Y235525D01*
X326355Y235768D01*
X326409Y236010D01*
X326468Y236250D01*
X326534Y236488D01*
X326605Y236725D01*
X326682Y236960D01*
X326765Y237194D01*
X326853Y237425D01*
X326947Y237654D01*
X327047Y237880D01*
X327152Y238104D01*
X327262Y238326D01*
X327378Y238544D01*
X327499Y238760D01*
X327625Y238973D01*
X327757Y239182D01*
X327893Y239389D01*
X328035Y239592D01*
X328181Y239791D01*
X328333Y239987D01*
X328489Y240179D01*
X328649Y240367D01*
X328814Y240552D01*
X328984Y240732D01*
X329158Y240908D01*
X329336Y241080D01*
X329518Y241247D01*
X329704Y241410D01*
X329894Y241568D01*
X330088Y241722D01*
X330286Y241870D01*
X330487Y242014D01*
X330692Y242153D01*
X330900Y242287D01*
X331111Y242416D01*
X331326Y242540D01*
X331543Y242658D01*
X331763Y242772D01*
X331986Y242879D01*
X332211Y242982D01*
X332439Y243078D01*
X332669Y243170D01*
X332901Y243255D01*
X333135Y243335D01*
X333371Y243409D01*
X333609Y243478D01*
X333848Y243540D01*
X334089Y243597D01*
X334331Y243648D01*
X334574Y243693D01*
X334819Y243732D01*
X335064Y243765D01*
X335310Y243792D01*
X335556Y243813D01*
X335803Y243828D01*
X336051Y243837D01*
X336298Y243840D01*
D13*
X334920Y720060D02*
X289920Y720060D01*
X289920Y621060D01*
X334920Y621060D02*
X334920Y660560D01*
X334920Y680560D02*
X334920Y720060D01*
X329920Y680560D02*
X329920Y660560D01*
X334920Y660560D01*
X334920Y680560D02*
X329920Y680560D01*
X334920Y621060D02*
X289920Y621060D01*
D14*
X286385Y657058D02*
X281559Y657058D01*
X286385Y657058D02*
X286385Y658398D01*
X286383Y658469D01*
X286377Y658541D01*
X286368Y658611D01*
X286355Y658681D01*
X286338Y658751D01*
X286317Y658819D01*
X286293Y658886D01*
X286265Y658952D01*
X286234Y659016D01*
X286199Y659079D01*
X286161Y659139D01*
X286120Y659198D01*
X286076Y659254D01*
X286029Y659308D01*
X285980Y659359D01*
X285927Y659407D01*
X285872Y659453D01*
X285815Y659495D01*
X285755Y659535D01*
X285694Y659571D01*
X285630Y659604D01*
X285565Y659633D01*
X285499Y659659D01*
X285431Y659682D01*
X285362Y659701D01*
X285292Y659716D01*
X285222Y659727D01*
X285151Y659735D01*
X285080Y659739D01*
X285008Y659739D01*
X284937Y659735D01*
X284866Y659727D01*
X284796Y659716D01*
X284726Y659701D01*
X284657Y659682D01*
X284589Y659659D01*
X284523Y659633D01*
X284458Y659604D01*
X284394Y659571D01*
X284333Y659535D01*
X284273Y659495D01*
X284216Y659453D01*
X284161Y659407D01*
X284108Y659359D01*
X284059Y659308D01*
X284012Y659254D01*
X283968Y659198D01*
X283927Y659139D01*
X283889Y659079D01*
X283854Y659016D01*
X283823Y658952D01*
X283795Y658886D01*
X283771Y658819D01*
X283750Y658751D01*
X283733Y658681D01*
X283720Y658611D01*
X283711Y658541D01*
X283705Y658469D01*
X283703Y658398D01*
X283704Y658398D02*
X283704Y657058D01*
X286385Y662032D02*
X286385Y664713D01*
X281559Y662032D01*
X281559Y664713D01*
X281559Y667538D02*
X281559Y669683D01*
X281559Y667538D02*
X286385Y667538D01*
X286385Y669683D01*
X284240Y669146D02*
X284240Y667538D01*
X286385Y672371D02*
X281559Y672371D01*
X283704Y673979D02*
X286385Y672371D01*
X283704Y673979D02*
X286385Y675588D01*
X281559Y675588D01*
X285313Y678674D02*
X286385Y680014D01*
X281559Y680014D01*
X281559Y678674D02*
X281559Y681355D01*
D13*
X289920Y617560D02*
X334920Y617560D01*
X289920Y617560D02*
X289920Y518560D01*
X334920Y518560D02*
X334920Y558060D01*
X334920Y578060D02*
X334920Y617560D01*
X329920Y578060D02*
X329920Y558060D01*
X334920Y558060D01*
X334920Y578060D02*
X329920Y578060D01*
X334920Y518560D02*
X289920Y518560D01*
D14*
X286385Y554558D02*
X281559Y554558D01*
X286385Y554558D02*
X286385Y555898D01*
X286383Y555969D01*
X286377Y556041D01*
X286368Y556111D01*
X286355Y556181D01*
X286338Y556251D01*
X286317Y556319D01*
X286293Y556386D01*
X286265Y556452D01*
X286234Y556516D01*
X286199Y556579D01*
X286161Y556639D01*
X286120Y556698D01*
X286076Y556754D01*
X286029Y556808D01*
X285980Y556859D01*
X285927Y556907D01*
X285872Y556953D01*
X285815Y556995D01*
X285755Y557035D01*
X285694Y557071D01*
X285630Y557104D01*
X285565Y557133D01*
X285499Y557159D01*
X285431Y557182D01*
X285362Y557201D01*
X285292Y557216D01*
X285222Y557227D01*
X285151Y557235D01*
X285080Y557239D01*
X285008Y557239D01*
X284937Y557235D01*
X284866Y557227D01*
X284796Y557216D01*
X284726Y557201D01*
X284657Y557182D01*
X284589Y557159D01*
X284523Y557133D01*
X284458Y557104D01*
X284394Y557071D01*
X284333Y557035D01*
X284273Y556995D01*
X284216Y556953D01*
X284161Y556907D01*
X284108Y556859D01*
X284059Y556808D01*
X284012Y556754D01*
X283968Y556698D01*
X283927Y556639D01*
X283889Y556579D01*
X283854Y556516D01*
X283823Y556452D01*
X283795Y556386D01*
X283771Y556319D01*
X283750Y556251D01*
X283733Y556181D01*
X283720Y556111D01*
X283711Y556041D01*
X283705Y555969D01*
X283703Y555898D01*
X283704Y555898D02*
X283704Y554558D01*
X286385Y559532D02*
X286385Y562213D01*
X281559Y559532D01*
X281559Y562213D01*
X281559Y565038D02*
X281559Y567183D01*
X281559Y565038D02*
X286385Y565038D01*
X286385Y567183D01*
X284240Y566646D02*
X284240Y565038D01*
X286385Y569871D02*
X281559Y569871D01*
X283704Y571479D02*
X286385Y569871D01*
X283704Y571479D02*
X286385Y573088D01*
X281559Y573088D01*
X286385Y577648D02*
X286383Y577716D01*
X286377Y577783D01*
X286368Y577850D01*
X286355Y577917D01*
X286338Y577982D01*
X286317Y578047D01*
X286293Y578110D01*
X286265Y578172D01*
X286234Y578232D01*
X286200Y578290D01*
X286162Y578346D01*
X286122Y578401D01*
X286078Y578452D01*
X286031Y578501D01*
X285982Y578548D01*
X285931Y578592D01*
X285876Y578632D01*
X285820Y578670D01*
X285762Y578704D01*
X285702Y578735D01*
X285640Y578763D01*
X285577Y578787D01*
X285512Y578808D01*
X285447Y578825D01*
X285380Y578838D01*
X285313Y578847D01*
X285246Y578853D01*
X285178Y578855D01*
X286385Y577648D02*
X286383Y577570D01*
X286377Y577492D01*
X286367Y577415D01*
X286354Y577338D01*
X286336Y577262D01*
X286315Y577187D01*
X286290Y577113D01*
X286261Y577041D01*
X286229Y576970D01*
X286193Y576901D01*
X286154Y576833D01*
X286111Y576768D01*
X286065Y576705D01*
X286016Y576644D01*
X285964Y576586D01*
X285909Y576531D01*
X285852Y576478D01*
X285792Y576429D01*
X285729Y576382D01*
X285664Y576339D01*
X285598Y576299D01*
X285529Y576262D01*
X285458Y576229D01*
X285386Y576199D01*
X285313Y576173D01*
X284240Y578453D02*
X284289Y578502D01*
X284341Y578549D01*
X284396Y578592D01*
X284453Y578633D01*
X284512Y578671D01*
X284573Y578705D01*
X284636Y578736D01*
X284700Y578764D01*
X284766Y578788D01*
X284832Y578808D01*
X284900Y578825D01*
X284969Y578838D01*
X285038Y578847D01*
X285108Y578853D01*
X285178Y578855D01*
X284240Y578453D02*
X281559Y576174D01*
X281559Y578855D01*
D13*
X289920Y512520D02*
X334920Y512520D01*
X289920Y512520D02*
X289920Y413520D01*
X334920Y413520D02*
X334920Y453020D01*
X334920Y473020D02*
X334920Y512520D01*
X329920Y473020D02*
X329920Y453020D01*
X334920Y453020D01*
X334920Y473020D02*
X329920Y473020D01*
X334920Y413520D02*
X289920Y413520D01*
D14*
X286385Y449518D02*
X281559Y449518D01*
X286385Y449518D02*
X286385Y450858D01*
X286383Y450929D01*
X286377Y451001D01*
X286368Y451071D01*
X286355Y451141D01*
X286338Y451211D01*
X286317Y451279D01*
X286293Y451346D01*
X286265Y451412D01*
X286234Y451476D01*
X286199Y451539D01*
X286161Y451599D01*
X286120Y451658D01*
X286076Y451714D01*
X286029Y451768D01*
X285980Y451819D01*
X285927Y451867D01*
X285872Y451913D01*
X285815Y451955D01*
X285755Y451995D01*
X285694Y452031D01*
X285630Y452064D01*
X285565Y452093D01*
X285499Y452119D01*
X285431Y452142D01*
X285362Y452161D01*
X285292Y452176D01*
X285222Y452187D01*
X285151Y452195D01*
X285080Y452199D01*
X285008Y452199D01*
X284937Y452195D01*
X284866Y452187D01*
X284796Y452176D01*
X284726Y452161D01*
X284657Y452142D01*
X284589Y452119D01*
X284523Y452093D01*
X284458Y452064D01*
X284394Y452031D01*
X284333Y451995D01*
X284273Y451955D01*
X284216Y451913D01*
X284161Y451867D01*
X284108Y451819D01*
X284059Y451768D01*
X284012Y451714D01*
X283968Y451658D01*
X283927Y451599D01*
X283889Y451539D01*
X283854Y451476D01*
X283823Y451412D01*
X283795Y451346D01*
X283771Y451279D01*
X283750Y451211D01*
X283733Y451141D01*
X283720Y451071D01*
X283711Y451001D01*
X283705Y450929D01*
X283703Y450858D01*
X283704Y450858D02*
X283704Y449518D01*
X286385Y454492D02*
X286385Y457173D01*
X281559Y454492D01*
X281559Y457173D01*
X281559Y459998D02*
X281559Y462143D01*
X281559Y459998D02*
X286385Y459998D01*
X286385Y462143D01*
X284240Y461606D02*
X284240Y459998D01*
X286385Y464831D02*
X281559Y464831D01*
X283704Y466439D02*
X286385Y464831D01*
X283704Y466439D02*
X286385Y468048D01*
X281559Y468048D01*
X281559Y471134D02*
X281559Y472474D01*
X281561Y472545D01*
X281567Y472617D01*
X281576Y472687D01*
X281589Y472757D01*
X281606Y472827D01*
X281627Y472895D01*
X281651Y472962D01*
X281679Y473028D01*
X281710Y473092D01*
X281745Y473155D01*
X281783Y473215D01*
X281824Y473274D01*
X281868Y473330D01*
X281915Y473384D01*
X281964Y473435D01*
X282017Y473483D01*
X282072Y473529D01*
X282129Y473571D01*
X282189Y473611D01*
X282250Y473647D01*
X282314Y473680D01*
X282379Y473709D01*
X282445Y473735D01*
X282513Y473758D01*
X282582Y473777D01*
X282652Y473792D01*
X282722Y473803D01*
X282793Y473811D01*
X282864Y473815D01*
X282936Y473815D01*
X283007Y473811D01*
X283078Y473803D01*
X283148Y473792D01*
X283218Y473777D01*
X283287Y473758D01*
X283355Y473735D01*
X283421Y473709D01*
X283486Y473680D01*
X283550Y473647D01*
X283611Y473611D01*
X283671Y473571D01*
X283728Y473529D01*
X283783Y473483D01*
X283836Y473435D01*
X283885Y473384D01*
X283932Y473330D01*
X283976Y473274D01*
X284017Y473215D01*
X284055Y473155D01*
X284090Y473092D01*
X284121Y473028D01*
X284149Y472962D01*
X284173Y472895D01*
X284194Y472827D01*
X284211Y472757D01*
X284224Y472687D01*
X284233Y472617D01*
X284239Y472545D01*
X284241Y472474D01*
X286385Y472743D02*
X286385Y471134D01*
X286385Y472743D02*
X286383Y472808D01*
X286377Y472872D01*
X286367Y472936D01*
X286354Y473000D01*
X286336Y473062D01*
X286315Y473123D01*
X286291Y473183D01*
X286262Y473241D01*
X286230Y473298D01*
X286195Y473352D01*
X286157Y473404D01*
X286115Y473454D01*
X286071Y473501D01*
X286024Y473545D01*
X285974Y473587D01*
X285922Y473625D01*
X285868Y473660D01*
X285811Y473692D01*
X285753Y473721D01*
X285693Y473745D01*
X285632Y473766D01*
X285570Y473784D01*
X285506Y473797D01*
X285442Y473807D01*
X285378Y473813D01*
X285313Y473815D01*
X285248Y473813D01*
X285184Y473807D01*
X285120Y473797D01*
X285056Y473784D01*
X284994Y473766D01*
X284933Y473745D01*
X284873Y473721D01*
X284815Y473692D01*
X284758Y473660D01*
X284704Y473625D01*
X284652Y473587D01*
X284602Y473545D01*
X284555Y473501D01*
X284511Y473454D01*
X284469Y473404D01*
X284431Y473352D01*
X284396Y473298D01*
X284364Y473241D01*
X284335Y473183D01*
X284311Y473123D01*
X284290Y473062D01*
X284272Y473000D01*
X284259Y472936D01*
X284249Y472872D01*
X284243Y472808D01*
X284241Y472743D01*
X284240Y472743D02*
X284240Y471670D01*
X272720Y137340D02*
X172720Y137340D01*
X272720Y137340D02*
X272720Y477340D01*
X72720Y477340D01*
X72720Y137340D01*
X172720Y137340D01*
D11*
X90562Y146756D02*
X78878Y146756D01*
X85369Y146756D02*
X85369Y153247D01*
X90562Y153247D02*
X78878Y153247D01*
X78878Y158971D02*
X90562Y158971D01*
X78878Y158971D02*
X78878Y164163D01*
X78878Y169023D02*
X90562Y169023D01*
X90562Y175514D02*
X83422Y169023D01*
X86018Y171620D02*
X78878Y175514D01*
X83422Y180016D02*
X83422Y187805D01*
X78878Y193407D02*
X90562Y193407D01*
X90562Y196653D01*
X90560Y196766D01*
X90554Y196879D01*
X90544Y196992D01*
X90530Y197105D01*
X90513Y197217D01*
X90491Y197328D01*
X90466Y197438D01*
X90436Y197548D01*
X90403Y197656D01*
X90366Y197763D01*
X90326Y197869D01*
X90281Y197973D01*
X90233Y198076D01*
X90182Y198177D01*
X90127Y198276D01*
X90069Y198373D01*
X90007Y198468D01*
X89942Y198561D01*
X89874Y198651D01*
X89803Y198739D01*
X89728Y198825D01*
X89651Y198908D01*
X89571Y198988D01*
X89488Y199065D01*
X89402Y199140D01*
X89314Y199211D01*
X89224Y199279D01*
X89131Y199344D01*
X89036Y199406D01*
X88939Y199464D01*
X88840Y199519D01*
X88739Y199570D01*
X88636Y199618D01*
X88532Y199663D01*
X88426Y199703D01*
X88319Y199740D01*
X88211Y199773D01*
X88101Y199803D01*
X87991Y199828D01*
X87880Y199850D01*
X87768Y199867D01*
X87655Y199881D01*
X87542Y199891D01*
X87429Y199897D01*
X87316Y199899D01*
X87203Y199897D01*
X87090Y199891D01*
X86977Y199881D01*
X86864Y199867D01*
X86752Y199850D01*
X86641Y199828D01*
X86531Y199803D01*
X86421Y199773D01*
X86313Y199740D01*
X86206Y199703D01*
X86100Y199663D01*
X85996Y199618D01*
X85893Y199570D01*
X85792Y199519D01*
X85693Y199464D01*
X85596Y199406D01*
X85501Y199344D01*
X85408Y199279D01*
X85318Y199211D01*
X85230Y199140D01*
X85144Y199065D01*
X85061Y198988D01*
X84981Y198908D01*
X84904Y198825D01*
X84829Y198739D01*
X84758Y198651D01*
X84690Y198561D01*
X84625Y198468D01*
X84563Y198373D01*
X84505Y198276D01*
X84450Y198177D01*
X84399Y198076D01*
X84351Y197973D01*
X84306Y197869D01*
X84266Y197763D01*
X84229Y197656D01*
X84196Y197548D01*
X84166Y197438D01*
X84141Y197328D01*
X84119Y197217D01*
X84102Y197105D01*
X84088Y196992D01*
X84078Y196879D01*
X84072Y196766D01*
X84070Y196653D01*
X84071Y196653D02*
X84071Y193407D01*
X78878Y204781D02*
X90562Y204781D01*
X84071Y208676D01*
X90562Y212570D01*
X78878Y212570D01*
X84720Y218003D02*
X84950Y218006D01*
X85180Y218014D01*
X85409Y218028D01*
X85638Y218047D01*
X85867Y218072D01*
X86094Y218102D01*
X86322Y218137D01*
X86548Y218178D01*
X86773Y218224D01*
X86997Y218276D01*
X87219Y218333D01*
X87441Y218395D01*
X87660Y218463D01*
X87878Y218536D01*
X88095Y218614D01*
X88309Y218697D01*
X88521Y218785D01*
X88731Y218878D01*
X88939Y218977D01*
X88939Y218976D02*
X89029Y219009D01*
X89118Y219045D01*
X89206Y219085D01*
X89291Y219129D01*
X89375Y219176D01*
X89457Y219226D01*
X89537Y219280D01*
X89614Y219336D01*
X89690Y219396D01*
X89763Y219459D01*
X89833Y219524D01*
X89901Y219593D01*
X89965Y219664D01*
X90027Y219737D01*
X90086Y219813D01*
X90142Y219891D01*
X90195Y219972D01*
X90244Y220054D01*
X90290Y220138D01*
X90333Y220225D01*
X90372Y220312D01*
X90408Y220402D01*
X90440Y220492D01*
X90468Y220584D01*
X90493Y220677D01*
X90514Y220771D01*
X90531Y220865D01*
X90545Y220960D01*
X90554Y221056D01*
X90560Y221152D01*
X90562Y221248D01*
X90560Y221344D01*
X90554Y221440D01*
X90545Y221536D01*
X90531Y221631D01*
X90514Y221725D01*
X90493Y221819D01*
X90468Y221912D01*
X90440Y222004D01*
X90408Y222094D01*
X90372Y222184D01*
X90333Y222271D01*
X90290Y222358D01*
X90244Y222442D01*
X90195Y222524D01*
X90142Y222605D01*
X90086Y222683D01*
X90027Y222759D01*
X89965Y222832D01*
X89901Y222903D01*
X89833Y222972D01*
X89763Y223037D01*
X89690Y223100D01*
X89614Y223160D01*
X89537Y223216D01*
X89457Y223270D01*
X89375Y223320D01*
X89291Y223367D01*
X89206Y223411D01*
X89118Y223451D01*
X89029Y223487D01*
X88939Y223520D01*
X88939Y223521D02*
X88732Y223620D01*
X88522Y223713D01*
X88309Y223801D01*
X88095Y223884D01*
X87879Y223962D01*
X87661Y224035D01*
X87441Y224103D01*
X87220Y224165D01*
X86997Y224222D01*
X86773Y224274D01*
X86548Y224320D01*
X86322Y224361D01*
X86095Y224396D01*
X85867Y224426D01*
X85638Y224451D01*
X85409Y224470D01*
X85180Y224484D01*
X84950Y224492D01*
X84720Y224495D01*
X84720Y218003D02*
X84490Y218006D01*
X84260Y218014D01*
X84031Y218028D01*
X83802Y218047D01*
X83573Y218072D01*
X83345Y218102D01*
X83118Y218137D01*
X82892Y218178D01*
X82667Y218224D01*
X82443Y218276D01*
X82220Y218333D01*
X81999Y218395D01*
X81779Y218463D01*
X81561Y218536D01*
X81345Y218614D01*
X81131Y218697D01*
X80919Y218785D01*
X80708Y218878D01*
X80501Y218977D01*
X80501Y218976D02*
X80411Y219009D01*
X80322Y219045D01*
X80234Y219086D01*
X80149Y219129D01*
X80065Y219176D01*
X79983Y219226D01*
X79903Y219280D01*
X79826Y219336D01*
X79750Y219396D01*
X79677Y219459D01*
X79607Y219524D01*
X79539Y219593D01*
X79475Y219664D01*
X79413Y219737D01*
X79354Y219813D01*
X79298Y219891D01*
X79245Y219972D01*
X79196Y220054D01*
X79150Y220138D01*
X79107Y220225D01*
X79068Y220312D01*
X79032Y220402D01*
X79000Y220492D01*
X78972Y220584D01*
X78947Y220677D01*
X78926Y220771D01*
X78909Y220865D01*
X78895Y220960D01*
X78886Y221056D01*
X78880Y221152D01*
X78878Y221248D01*
X80501Y223520D02*
X80708Y223619D01*
X80919Y223712D01*
X81131Y223800D01*
X81345Y223883D01*
X81561Y223961D01*
X81779Y224034D01*
X81999Y224102D01*
X82220Y224164D01*
X82443Y224221D01*
X82667Y224273D01*
X82892Y224319D01*
X83118Y224360D01*
X83345Y224395D01*
X83573Y224425D01*
X83802Y224450D01*
X84031Y224469D01*
X84260Y224483D01*
X84490Y224491D01*
X84720Y224494D01*
X80501Y223520D02*
X80411Y223487D01*
X80322Y223451D01*
X80234Y223411D01*
X80149Y223367D01*
X80065Y223320D01*
X79983Y223270D01*
X79903Y223216D01*
X79826Y223160D01*
X79750Y223100D01*
X79677Y223037D01*
X79607Y222972D01*
X79539Y222903D01*
X79475Y222832D01*
X79413Y222759D01*
X79354Y222683D01*
X79298Y222605D01*
X79245Y222524D01*
X79196Y222442D01*
X79150Y222358D01*
X79107Y222271D01*
X79068Y222184D01*
X79032Y222094D01*
X79000Y222004D01*
X78972Y221912D01*
X78947Y221819D01*
X78926Y221725D01*
X78909Y221631D01*
X78895Y221536D01*
X78886Y221440D01*
X78880Y221344D01*
X78878Y221248D01*
X81474Y218652D02*
X87966Y223845D01*
X87966Y229433D02*
X90562Y232678D01*
X78878Y232678D01*
X78878Y229433D02*
X78878Y235924D01*
D12*
X132080Y120650D02*
X132080Y97790D01*
D15*
X152400Y121920D02*
X191770Y121920D01*
X203200Y96520D02*
X163830Y96520D01*
X177800Y99060D02*
X203200Y99060D01*
X177800Y119380D02*
X152400Y119380D01*
D12*
X153670Y85090D02*
X184150Y85090D01*
X171450Y133350D02*
X201930Y133350D01*
X171450Y133350D02*
X171292Y133348D01*
X171133Y133342D01*
X170975Y133332D01*
X170818Y133318D01*
X170660Y133301D01*
X170504Y133279D01*
X170347Y133254D01*
X170192Y133224D01*
X170037Y133191D01*
X169883Y133154D01*
X169730Y133113D01*
X169578Y133068D01*
X169428Y133019D01*
X169278Y132967D01*
X169130Y132911D01*
X168983Y132851D01*
X168838Y132788D01*
X168695Y132721D01*
X168553Y132651D01*
X168413Y132577D01*
X168275Y132499D01*
X168139Y132418D01*
X168005Y132334D01*
X167873Y132247D01*
X167743Y132156D01*
X167616Y132062D01*
X167491Y131965D01*
X167368Y131864D01*
X167248Y131761D01*
X167131Y131655D01*
X167016Y131546D01*
X166904Y131434D01*
X166795Y131319D01*
X166689Y131202D01*
X166586Y131082D01*
X166485Y130959D01*
X166388Y130834D01*
X166294Y130707D01*
X166203Y130577D01*
X166116Y130445D01*
X166032Y130311D01*
X165951Y130175D01*
X165873Y130037D01*
X165799Y129897D01*
X165729Y129755D01*
X165662Y129612D01*
X165599Y129467D01*
X165539Y129320D01*
X165483Y129172D01*
X165431Y129022D01*
X165382Y128872D01*
X165337Y128720D01*
X165296Y128567D01*
X165259Y128413D01*
X165226Y128258D01*
X165196Y128103D01*
X165171Y127946D01*
X165149Y127790D01*
X165132Y127632D01*
X165118Y127475D01*
X165108Y127317D01*
X165102Y127158D01*
X165100Y127000D01*
X190500Y91440D02*
X190498Y91282D01*
X190492Y91123D01*
X190482Y90965D01*
X190468Y90808D01*
X190451Y90650D01*
X190429Y90494D01*
X190404Y90337D01*
X190374Y90182D01*
X190341Y90027D01*
X190304Y89873D01*
X190263Y89720D01*
X190218Y89568D01*
X190169Y89418D01*
X190117Y89268D01*
X190061Y89120D01*
X190001Y88973D01*
X189938Y88828D01*
X189871Y88685D01*
X189801Y88543D01*
X189727Y88403D01*
X189649Y88265D01*
X189568Y88129D01*
X189484Y87995D01*
X189397Y87863D01*
X189306Y87733D01*
X189212Y87606D01*
X189115Y87481D01*
X189014Y87358D01*
X188911Y87238D01*
X188805Y87121D01*
X188696Y87006D01*
X188584Y86894D01*
X188469Y86785D01*
X188352Y86679D01*
X188232Y86576D01*
X188109Y86475D01*
X187984Y86378D01*
X187857Y86284D01*
X187727Y86193D01*
X187595Y86106D01*
X187461Y86022D01*
X187325Y85941D01*
X187187Y85863D01*
X187047Y85789D01*
X186905Y85719D01*
X186762Y85652D01*
X186617Y85589D01*
X186470Y85529D01*
X186322Y85473D01*
X186172Y85421D01*
X186022Y85372D01*
X185870Y85327D01*
X185717Y85286D01*
X185563Y85249D01*
X185408Y85216D01*
X185253Y85186D01*
X185096Y85161D01*
X184940Y85139D01*
X184782Y85122D01*
X184625Y85108D01*
X184467Y85098D01*
X184308Y85092D01*
X184150Y85090D01*
X162560Y91440D02*
X217170Y91440D01*
X193040Y127000D02*
X138430Y127000D01*
X217170Y91440D02*
X217328Y91442D01*
X217487Y91448D01*
X217645Y91458D01*
X217802Y91472D01*
X217960Y91489D01*
X218116Y91511D01*
X218273Y91536D01*
X218428Y91566D01*
X218583Y91599D01*
X218737Y91636D01*
X218890Y91677D01*
X219042Y91722D01*
X219192Y91771D01*
X219342Y91823D01*
X219490Y91879D01*
X219637Y91939D01*
X219782Y92002D01*
X219925Y92069D01*
X220067Y92139D01*
X220207Y92213D01*
X220345Y92291D01*
X220481Y92372D01*
X220615Y92456D01*
X220747Y92543D01*
X220877Y92634D01*
X221004Y92728D01*
X221129Y92825D01*
X221252Y92926D01*
X221372Y93029D01*
X221489Y93135D01*
X221604Y93244D01*
X221716Y93356D01*
X221825Y93471D01*
X221931Y93588D01*
X222034Y93708D01*
X222135Y93831D01*
X222232Y93956D01*
X222326Y94083D01*
X222417Y94213D01*
X222504Y94345D01*
X222588Y94479D01*
X222669Y94615D01*
X222747Y94753D01*
X222821Y94893D01*
X222891Y95035D01*
X222958Y95178D01*
X223021Y95323D01*
X223081Y95470D01*
X223137Y95618D01*
X223189Y95768D01*
X223238Y95918D01*
X223283Y96070D01*
X223324Y96223D01*
X223361Y96377D01*
X223394Y96532D01*
X223424Y96687D01*
X223449Y96844D01*
X223471Y97000D01*
X223488Y97158D01*
X223502Y97315D01*
X223512Y97473D01*
X223518Y97632D01*
X223520Y97790D01*
X223520Y120650D02*
X223518Y120808D01*
X223512Y120967D01*
X223502Y121125D01*
X223488Y121282D01*
X223471Y121440D01*
X223449Y121596D01*
X223424Y121753D01*
X223394Y121908D01*
X223361Y122063D01*
X223324Y122217D01*
X223283Y122370D01*
X223238Y122522D01*
X223189Y122672D01*
X223137Y122822D01*
X223081Y122970D01*
X223021Y123117D01*
X222958Y123262D01*
X222891Y123405D01*
X222821Y123547D01*
X222747Y123687D01*
X222669Y123825D01*
X222588Y123961D01*
X222504Y124095D01*
X222417Y124227D01*
X222326Y124357D01*
X222232Y124484D01*
X222135Y124609D01*
X222034Y124732D01*
X221931Y124852D01*
X221825Y124969D01*
X221716Y125084D01*
X221604Y125196D01*
X221489Y125305D01*
X221372Y125411D01*
X221252Y125514D01*
X221129Y125615D01*
X221004Y125712D01*
X220877Y125806D01*
X220747Y125897D01*
X220615Y125984D01*
X220481Y126068D01*
X220345Y126149D01*
X220207Y126227D01*
X220067Y126301D01*
X219925Y126371D01*
X219782Y126438D01*
X219637Y126501D01*
X219490Y126561D01*
X219342Y126617D01*
X219192Y126669D01*
X219042Y126718D01*
X218890Y126763D01*
X218737Y126804D01*
X218583Y126841D01*
X218428Y126874D01*
X218273Y126904D01*
X218116Y126929D01*
X217960Y126951D01*
X217802Y126968D01*
X217645Y126982D01*
X217487Y126992D01*
X217328Y126998D01*
X217170Y127000D01*
X138430Y127000D02*
X138272Y126998D01*
X138113Y126992D01*
X137955Y126982D01*
X137798Y126968D01*
X137640Y126951D01*
X137484Y126929D01*
X137327Y126904D01*
X137172Y126874D01*
X137017Y126841D01*
X136863Y126804D01*
X136710Y126763D01*
X136558Y126718D01*
X136408Y126669D01*
X136258Y126617D01*
X136110Y126561D01*
X135963Y126501D01*
X135818Y126438D01*
X135675Y126371D01*
X135533Y126301D01*
X135393Y126227D01*
X135255Y126149D01*
X135119Y126068D01*
X134985Y125984D01*
X134853Y125897D01*
X134723Y125806D01*
X134596Y125712D01*
X134471Y125615D01*
X134348Y125514D01*
X134228Y125411D01*
X134111Y125305D01*
X133996Y125196D01*
X133884Y125084D01*
X133775Y124969D01*
X133669Y124852D01*
X133566Y124732D01*
X133465Y124609D01*
X133368Y124484D01*
X133274Y124357D01*
X133183Y124227D01*
X133096Y124095D01*
X133012Y123961D01*
X132931Y123825D01*
X132853Y123687D01*
X132779Y123547D01*
X132709Y123405D01*
X132642Y123262D01*
X132579Y123117D01*
X132519Y122970D01*
X132463Y122822D01*
X132411Y122672D01*
X132362Y122522D01*
X132317Y122370D01*
X132276Y122217D01*
X132239Y122063D01*
X132206Y121908D01*
X132176Y121753D01*
X132151Y121596D01*
X132129Y121440D01*
X132112Y121282D01*
X132098Y121125D01*
X132088Y120967D01*
X132082Y120808D01*
X132080Y120650D01*
X132080Y97790D02*
X132082Y97632D01*
X132088Y97473D01*
X132098Y97315D01*
X132112Y97158D01*
X132129Y97000D01*
X132151Y96844D01*
X132176Y96687D01*
X132206Y96532D01*
X132239Y96377D01*
X132276Y96223D01*
X132317Y96070D01*
X132362Y95918D01*
X132411Y95768D01*
X132463Y95618D01*
X132519Y95470D01*
X132579Y95323D01*
X132642Y95178D01*
X132709Y95035D01*
X132779Y94893D01*
X132853Y94753D01*
X132931Y94615D01*
X133012Y94479D01*
X133096Y94345D01*
X133183Y94213D01*
X133274Y94083D01*
X133368Y93956D01*
X133465Y93831D01*
X133566Y93708D01*
X133669Y93588D01*
X133775Y93471D01*
X133884Y93356D01*
X133996Y93244D01*
X134111Y93135D01*
X134228Y93029D01*
X134348Y92926D01*
X134471Y92825D01*
X134596Y92728D01*
X134723Y92634D01*
X134853Y92543D01*
X134985Y92456D01*
X135119Y92372D01*
X135255Y92291D01*
X135393Y92213D01*
X135533Y92139D01*
X135675Y92069D01*
X135818Y92002D01*
X135963Y91939D01*
X136110Y91879D01*
X136258Y91823D01*
X136408Y91771D01*
X136558Y91722D01*
X136710Y91677D01*
X136863Y91636D01*
X137017Y91599D01*
X137172Y91566D01*
X137327Y91536D01*
X137484Y91511D01*
X137640Y91489D01*
X137798Y91472D01*
X137955Y91458D01*
X138113Y91448D01*
X138272Y91442D01*
X138430Y91440D01*
X223520Y97790D02*
X223520Y120650D01*
X142240Y91440D02*
X138430Y91440D01*
X213360Y127000D02*
X217170Y127000D01*
D14*
X217805Y137795D02*
X217805Y149225D01*
X214630Y149225D01*
X214519Y149223D01*
X214409Y149217D01*
X214298Y149208D01*
X214188Y149194D01*
X214079Y149177D01*
X213970Y149156D01*
X213862Y149131D01*
X213755Y149102D01*
X213649Y149070D01*
X213544Y149034D01*
X213441Y148994D01*
X213339Y148951D01*
X213238Y148904D01*
X213139Y148853D01*
X213043Y148800D01*
X212948Y148743D01*
X212855Y148682D01*
X212764Y148619D01*
X212675Y148552D01*
X212589Y148482D01*
X212506Y148409D01*
X212424Y148334D01*
X212346Y148256D01*
X212271Y148174D01*
X212198Y148091D01*
X212128Y148005D01*
X212061Y147916D01*
X211998Y147825D01*
X211937Y147732D01*
X211880Y147638D01*
X211827Y147541D01*
X211776Y147442D01*
X211729Y147341D01*
X211686Y147239D01*
X211646Y147136D01*
X211610Y147031D01*
X211578Y146925D01*
X211549Y146818D01*
X211524Y146710D01*
X211503Y146601D01*
X211486Y146492D01*
X211472Y146382D01*
X211463Y146271D01*
X211457Y146161D01*
X211455Y146050D01*
X211457Y145939D01*
X211463Y145829D01*
X211472Y145718D01*
X211486Y145608D01*
X211503Y145499D01*
X211524Y145390D01*
X211549Y145282D01*
X211578Y145175D01*
X211610Y145069D01*
X211646Y144964D01*
X211686Y144861D01*
X211729Y144759D01*
X211776Y144658D01*
X211827Y144559D01*
X211880Y144463D01*
X211937Y144368D01*
X211998Y144275D01*
X212061Y144184D01*
X212128Y144095D01*
X212198Y144009D01*
X212271Y143926D01*
X212346Y143844D01*
X212424Y143766D01*
X212506Y143691D01*
X212589Y143618D01*
X212675Y143548D01*
X212764Y143481D01*
X212855Y143418D01*
X212948Y143357D01*
X213043Y143300D01*
X213139Y143247D01*
X213238Y143196D01*
X213339Y143149D01*
X213441Y143106D01*
X213544Y143066D01*
X213649Y143030D01*
X213755Y142998D01*
X213862Y142969D01*
X213970Y142944D01*
X214079Y142923D01*
X214188Y142906D01*
X214298Y142892D01*
X214409Y142883D01*
X214519Y142877D01*
X214630Y142875D01*
X217805Y142875D01*
X213995Y142875D02*
X211455Y137795D01*
X206458Y137795D02*
X202648Y137795D01*
X202548Y137797D01*
X202449Y137803D01*
X202349Y137813D01*
X202251Y137826D01*
X202152Y137844D01*
X202055Y137865D01*
X201959Y137890D01*
X201863Y137919D01*
X201769Y137952D01*
X201676Y137988D01*
X201585Y138028D01*
X201495Y138072D01*
X201407Y138119D01*
X201321Y138169D01*
X201237Y138223D01*
X201155Y138280D01*
X201076Y138340D01*
X200998Y138404D01*
X200924Y138470D01*
X200852Y138539D01*
X200783Y138611D01*
X200717Y138685D01*
X200653Y138763D01*
X200593Y138842D01*
X200536Y138924D01*
X200482Y139008D01*
X200432Y139094D01*
X200385Y139182D01*
X200341Y139272D01*
X200301Y139363D01*
X200265Y139456D01*
X200232Y139550D01*
X200203Y139646D01*
X200178Y139742D01*
X200157Y139839D01*
X200139Y139938D01*
X200126Y140036D01*
X200116Y140136D01*
X200110Y140235D01*
X200108Y140335D01*
X200108Y141605D01*
X200110Y141705D01*
X200116Y141804D01*
X200126Y141904D01*
X200139Y142002D01*
X200157Y142101D01*
X200178Y142198D01*
X200203Y142294D01*
X200232Y142390D01*
X200265Y142484D01*
X200301Y142577D01*
X200341Y142668D01*
X200385Y142758D01*
X200432Y142846D01*
X200482Y142932D01*
X200536Y143016D01*
X200593Y143098D01*
X200653Y143177D01*
X200717Y143255D01*
X200783Y143329D01*
X200852Y143401D01*
X200924Y143470D01*
X200998Y143536D01*
X201076Y143600D01*
X201155Y143660D01*
X201237Y143717D01*
X201321Y143771D01*
X201407Y143821D01*
X201495Y143868D01*
X201585Y143912D01*
X201676Y143952D01*
X201769Y143988D01*
X201863Y144021D01*
X201959Y144050D01*
X202055Y144075D01*
X202152Y144096D01*
X202251Y144114D01*
X202349Y144127D01*
X202449Y144137D01*
X202548Y144143D01*
X202648Y144145D01*
X206458Y144145D01*
X206458Y149225D01*
X200108Y149225D01*
D13*
X289920Y407800D02*
X334920Y407800D01*
X289920Y407800D02*
X289920Y328800D01*
X334920Y328800D01*
X334920Y358300D01*
X334920Y378300D02*
X334920Y407800D01*
X329920Y378300D02*
X329920Y358300D01*
X334920Y358300D01*
X334920Y378300D02*
X329920Y378300D01*
D14*
X286385Y346219D02*
X281559Y346219D01*
X286385Y346219D02*
X286385Y347559D01*
X286383Y347629D01*
X286378Y347699D01*
X286368Y347769D01*
X286356Y347838D01*
X286339Y347906D01*
X286319Y347973D01*
X286296Y348040D01*
X286269Y348104D01*
X286239Y348168D01*
X286205Y348230D01*
X286169Y348289D01*
X286129Y348347D01*
X286086Y348403D01*
X286041Y348456D01*
X285992Y348507D01*
X285941Y348556D01*
X285888Y348601D01*
X285832Y348644D01*
X285774Y348684D01*
X285715Y348720D01*
X285653Y348754D01*
X285589Y348784D01*
X285525Y348811D01*
X285458Y348834D01*
X285391Y348854D01*
X285323Y348871D01*
X285254Y348883D01*
X285184Y348893D01*
X285114Y348898D01*
X285044Y348900D01*
X282900Y348900D01*
X282830Y348898D01*
X282760Y348893D01*
X282690Y348883D01*
X282621Y348871D01*
X282553Y348854D01*
X282486Y348834D01*
X282419Y348811D01*
X282355Y348784D01*
X282291Y348754D01*
X282230Y348720D01*
X282170Y348684D01*
X282112Y348644D01*
X282056Y348601D01*
X282003Y348556D01*
X281952Y348507D01*
X281903Y348456D01*
X281858Y348403D01*
X281815Y348347D01*
X281775Y348289D01*
X281739Y348230D01*
X281705Y348168D01*
X281675Y348104D01*
X281648Y348040D01*
X281625Y347973D01*
X281605Y347906D01*
X281588Y347838D01*
X281576Y347769D01*
X281566Y347699D01*
X281561Y347629D01*
X281559Y347559D01*
X281559Y346219D01*
X281559Y353314D02*
X281561Y353379D01*
X281567Y353443D01*
X281577Y353507D01*
X281590Y353571D01*
X281608Y353633D01*
X281629Y353694D01*
X281653Y353754D01*
X281682Y353812D01*
X281714Y353869D01*
X281749Y353923D01*
X281787Y353975D01*
X281829Y354025D01*
X281873Y354072D01*
X281920Y354116D01*
X281970Y354158D01*
X282022Y354196D01*
X282076Y354231D01*
X282133Y354263D01*
X282191Y354292D01*
X282251Y354316D01*
X282312Y354337D01*
X282374Y354355D01*
X282438Y354368D01*
X282502Y354378D01*
X282566Y354384D01*
X282631Y354386D01*
X281559Y353314D02*
X281561Y353220D01*
X281567Y353126D01*
X281577Y353032D01*
X281590Y352939D01*
X281608Y352847D01*
X281629Y352755D01*
X281654Y352664D01*
X281683Y352574D01*
X281716Y352486D01*
X281752Y352399D01*
X281792Y352314D01*
X281835Y352230D01*
X281882Y352149D01*
X281932Y352069D01*
X281985Y351991D01*
X282042Y351916D01*
X282101Y351843D01*
X282164Y351773D01*
X282229Y351705D01*
X285313Y351840D02*
X285378Y351842D01*
X285442Y351848D01*
X285506Y351858D01*
X285570Y351871D01*
X285632Y351889D01*
X285693Y351910D01*
X285753Y351934D01*
X285811Y351963D01*
X285868Y351995D01*
X285922Y352030D01*
X285974Y352068D01*
X286024Y352110D01*
X286071Y352154D01*
X286115Y352201D01*
X286157Y352251D01*
X286195Y352303D01*
X286230Y352357D01*
X286262Y352414D01*
X286291Y352472D01*
X286315Y352532D01*
X286336Y352593D01*
X286354Y352655D01*
X286367Y352719D01*
X286377Y352783D01*
X286383Y352847D01*
X286385Y352912D01*
X286385Y352911D02*
X286383Y352997D01*
X286378Y353083D01*
X286368Y353169D01*
X286355Y353254D01*
X286339Y353339D01*
X286319Y353423D01*
X286295Y353506D01*
X286268Y353588D01*
X286237Y353668D01*
X286203Y353748D01*
X286165Y353825D01*
X286124Y353901D01*
X286080Y353975D01*
X286033Y354047D01*
X285983Y354118D01*
X284375Y352375D02*
X284408Y352322D01*
X284445Y352271D01*
X284484Y352222D01*
X284526Y352175D01*
X284571Y352131D01*
X284618Y352090D01*
X284667Y352051D01*
X284719Y352015D01*
X284773Y351982D01*
X284828Y351953D01*
X284885Y351927D01*
X284944Y351904D01*
X285003Y351884D01*
X285064Y351868D01*
X285125Y351855D01*
X285188Y351846D01*
X285250Y351841D01*
X285313Y351839D01*
X283569Y353850D02*
X283536Y353903D01*
X283499Y353954D01*
X283460Y354003D01*
X283418Y354050D01*
X283373Y354094D01*
X283326Y354135D01*
X283277Y354174D01*
X283225Y354210D01*
X283171Y354243D01*
X283116Y354272D01*
X283059Y354298D01*
X283000Y354321D01*
X282941Y354341D01*
X282880Y354357D01*
X282819Y354370D01*
X282756Y354379D01*
X282694Y354384D01*
X282631Y354386D01*
X283570Y353850D02*
X284374Y352375D01*
X285313Y357009D02*
X286385Y358349D01*
X281559Y358349D01*
X281559Y357009D02*
X281559Y359690D01*
X282900Y362494D02*
X282971Y362496D01*
X283043Y362502D01*
X283113Y362511D01*
X283183Y362524D01*
X283253Y362541D01*
X283321Y362562D01*
X283388Y362586D01*
X283454Y362614D01*
X283518Y362645D01*
X283581Y362680D01*
X283641Y362718D01*
X283700Y362759D01*
X283756Y362803D01*
X283810Y362850D01*
X283861Y362899D01*
X283909Y362952D01*
X283955Y363007D01*
X283997Y363064D01*
X284037Y363124D01*
X284073Y363185D01*
X284106Y363249D01*
X284135Y363314D01*
X284161Y363380D01*
X284184Y363448D01*
X284203Y363517D01*
X284218Y363587D01*
X284229Y363657D01*
X284237Y363728D01*
X284241Y363799D01*
X284241Y363871D01*
X284237Y363942D01*
X284229Y364013D01*
X284218Y364083D01*
X284203Y364153D01*
X284184Y364222D01*
X284161Y364290D01*
X284135Y364356D01*
X284106Y364421D01*
X284073Y364485D01*
X284037Y364546D01*
X283997Y364606D01*
X283955Y364663D01*
X283909Y364718D01*
X283861Y364771D01*
X283810Y364820D01*
X283756Y364867D01*
X283700Y364911D01*
X283641Y364952D01*
X283581Y364990D01*
X283518Y365025D01*
X283454Y365056D01*
X283388Y365084D01*
X283321Y365108D01*
X283253Y365129D01*
X283183Y365146D01*
X283113Y365159D01*
X283043Y365168D01*
X282971Y365174D01*
X282900Y365176D01*
X282829Y365174D01*
X282757Y365168D01*
X282687Y365159D01*
X282617Y365146D01*
X282547Y365129D01*
X282479Y365108D01*
X282412Y365084D01*
X282346Y365056D01*
X282282Y365025D01*
X282219Y364990D01*
X282159Y364952D01*
X282100Y364911D01*
X282044Y364867D01*
X281990Y364820D01*
X281939Y364771D01*
X281891Y364718D01*
X281845Y364663D01*
X281803Y364606D01*
X281763Y364546D01*
X281727Y364485D01*
X281694Y364421D01*
X281665Y364356D01*
X281639Y364290D01*
X281616Y364222D01*
X281597Y364153D01*
X281582Y364083D01*
X281571Y364013D01*
X281563Y363942D01*
X281559Y363871D01*
X281559Y363799D01*
X281563Y363728D01*
X281571Y363657D01*
X281582Y363587D01*
X281597Y363517D01*
X281616Y363448D01*
X281639Y363380D01*
X281665Y363314D01*
X281694Y363249D01*
X281727Y363185D01*
X281763Y363124D01*
X281803Y363064D01*
X281845Y363007D01*
X281891Y362952D01*
X281939Y362899D01*
X281990Y362850D01*
X282044Y362803D01*
X282100Y362759D01*
X282159Y362718D01*
X282219Y362680D01*
X282282Y362645D01*
X282346Y362614D01*
X282412Y362586D01*
X282479Y362562D01*
X282547Y362541D01*
X282617Y362524D01*
X282687Y362511D01*
X282757Y362502D01*
X282829Y362496D01*
X282900Y362494D01*
X285313Y362763D02*
X285378Y362765D01*
X285442Y362771D01*
X285506Y362781D01*
X285570Y362794D01*
X285632Y362812D01*
X285693Y362833D01*
X285753Y362857D01*
X285811Y362886D01*
X285868Y362918D01*
X285922Y362953D01*
X285974Y362991D01*
X286024Y363033D01*
X286071Y363077D01*
X286115Y363124D01*
X286157Y363174D01*
X286195Y363226D01*
X286230Y363280D01*
X286262Y363337D01*
X286291Y363395D01*
X286315Y363455D01*
X286336Y363516D01*
X286354Y363578D01*
X286367Y363642D01*
X286377Y363706D01*
X286383Y363770D01*
X286385Y363835D01*
X286383Y363900D01*
X286377Y363964D01*
X286367Y364028D01*
X286354Y364092D01*
X286336Y364154D01*
X286315Y364215D01*
X286291Y364275D01*
X286262Y364333D01*
X286230Y364390D01*
X286195Y364444D01*
X286157Y364496D01*
X286115Y364546D01*
X286071Y364593D01*
X286024Y364637D01*
X285974Y364679D01*
X285922Y364717D01*
X285868Y364752D01*
X285811Y364784D01*
X285753Y364813D01*
X285693Y364837D01*
X285632Y364858D01*
X285570Y364876D01*
X285506Y364889D01*
X285442Y364899D01*
X285378Y364905D01*
X285313Y364907D01*
X285248Y364905D01*
X285184Y364899D01*
X285120Y364889D01*
X285056Y364876D01*
X284994Y364858D01*
X284933Y364837D01*
X284873Y364813D01*
X284815Y364784D01*
X284758Y364752D01*
X284704Y364717D01*
X284652Y364679D01*
X284602Y364637D01*
X284555Y364593D01*
X284511Y364546D01*
X284469Y364496D01*
X284431Y364444D01*
X284396Y364390D01*
X284364Y364333D01*
X284335Y364275D01*
X284311Y364215D01*
X284290Y364154D01*
X284272Y364092D01*
X284259Y364028D01*
X284249Y363964D01*
X284243Y363900D01*
X284241Y363835D01*
X284243Y363770D01*
X284249Y363706D01*
X284259Y363642D01*
X284272Y363578D01*
X284290Y363516D01*
X284311Y363455D01*
X284335Y363395D01*
X284364Y363337D01*
X284396Y363280D01*
X284431Y363226D01*
X284469Y363174D01*
X284511Y363124D01*
X284555Y363077D01*
X284602Y363033D01*
X284652Y362991D01*
X284704Y362953D01*
X284758Y362918D01*
X284815Y362886D01*
X284873Y362857D01*
X284933Y362833D01*
X284994Y362812D01*
X285056Y362794D01*
X285120Y362781D01*
X285184Y362771D01*
X285248Y362765D01*
X285313Y362763D01*
X284240Y368311D02*
X284240Y369651D01*
X284241Y369651D02*
X284239Y369722D01*
X284233Y369794D01*
X284224Y369864D01*
X284211Y369934D01*
X284194Y370004D01*
X284173Y370072D01*
X284149Y370139D01*
X284121Y370205D01*
X284090Y370269D01*
X284055Y370332D01*
X284017Y370392D01*
X283976Y370451D01*
X283932Y370507D01*
X283885Y370561D01*
X283836Y370612D01*
X283783Y370660D01*
X283728Y370706D01*
X283671Y370748D01*
X283611Y370788D01*
X283550Y370824D01*
X283486Y370857D01*
X283421Y370886D01*
X283355Y370912D01*
X283287Y370935D01*
X283218Y370954D01*
X283148Y370969D01*
X283078Y370980D01*
X283007Y370988D01*
X282936Y370992D01*
X282864Y370992D01*
X282793Y370988D01*
X282722Y370980D01*
X282652Y370969D01*
X282582Y370954D01*
X282513Y370935D01*
X282445Y370912D01*
X282379Y370886D01*
X282314Y370857D01*
X282250Y370824D01*
X282189Y370788D01*
X282129Y370748D01*
X282072Y370706D01*
X282017Y370660D01*
X281964Y370612D01*
X281915Y370561D01*
X281868Y370507D01*
X281824Y370451D01*
X281783Y370392D01*
X281745Y370332D01*
X281710Y370269D01*
X281679Y370205D01*
X281651Y370139D01*
X281627Y370072D01*
X281606Y370004D01*
X281589Y369934D01*
X281576Y369864D01*
X281567Y369794D01*
X281561Y369722D01*
X281559Y369651D01*
X281559Y368311D01*
X286385Y368311D01*
X286385Y369651D01*
X286383Y369716D01*
X286377Y369780D01*
X286367Y369844D01*
X286354Y369908D01*
X286336Y369970D01*
X286315Y370031D01*
X286291Y370091D01*
X286262Y370149D01*
X286230Y370206D01*
X286195Y370260D01*
X286157Y370312D01*
X286115Y370362D01*
X286071Y370409D01*
X286024Y370453D01*
X285974Y370495D01*
X285922Y370533D01*
X285868Y370568D01*
X285811Y370600D01*
X285753Y370629D01*
X285693Y370653D01*
X285632Y370674D01*
X285570Y370692D01*
X285506Y370705D01*
X285442Y370715D01*
X285378Y370721D01*
X285313Y370723D01*
X285248Y370721D01*
X285184Y370715D01*
X285120Y370705D01*
X285056Y370692D01*
X284994Y370674D01*
X284933Y370653D01*
X284873Y370629D01*
X284815Y370600D01*
X284758Y370568D01*
X284704Y370533D01*
X284652Y370495D01*
X284602Y370453D01*
X284555Y370409D01*
X284511Y370362D01*
X284469Y370312D01*
X284431Y370260D01*
X284396Y370206D01*
X284364Y370149D01*
X284335Y370091D01*
X284311Y370031D01*
X284290Y369970D01*
X284272Y369908D01*
X284259Y369844D01*
X284249Y369780D01*
X284243Y369716D01*
X284241Y369651D01*
X286385Y374942D02*
X286383Y375010D01*
X286377Y375077D01*
X286368Y375144D01*
X286355Y375211D01*
X286338Y375276D01*
X286317Y375341D01*
X286293Y375404D01*
X286265Y375466D01*
X286234Y375526D01*
X286200Y375584D01*
X286162Y375640D01*
X286122Y375695D01*
X286078Y375746D01*
X286031Y375795D01*
X285982Y375842D01*
X285931Y375886D01*
X285876Y375926D01*
X285820Y375964D01*
X285762Y375998D01*
X285702Y376029D01*
X285640Y376057D01*
X285577Y376081D01*
X285512Y376102D01*
X285447Y376119D01*
X285380Y376132D01*
X285313Y376141D01*
X285246Y376147D01*
X285178Y376149D01*
X286385Y374942D02*
X286383Y374864D01*
X286377Y374786D01*
X286367Y374709D01*
X286354Y374632D01*
X286336Y374556D01*
X286315Y374481D01*
X286290Y374407D01*
X286261Y374335D01*
X286229Y374264D01*
X286193Y374195D01*
X286154Y374127D01*
X286111Y374062D01*
X286065Y373999D01*
X286016Y373938D01*
X285964Y373880D01*
X285909Y373825D01*
X285852Y373772D01*
X285792Y373723D01*
X285729Y373676D01*
X285664Y373633D01*
X285598Y373593D01*
X285529Y373556D01*
X285458Y373523D01*
X285386Y373493D01*
X285313Y373467D01*
X284240Y375747D02*
X284289Y375796D01*
X284341Y375843D01*
X284396Y375886D01*
X284453Y375927D01*
X284512Y375965D01*
X284573Y375999D01*
X284636Y376030D01*
X284700Y376058D01*
X284766Y376082D01*
X284832Y376102D01*
X284900Y376119D01*
X284969Y376132D01*
X285038Y376141D01*
X285108Y376147D01*
X285178Y376149D01*
X284240Y375747D02*
X281559Y373468D01*
X281559Y376149D01*
X283972Y378954D02*
X284092Y378956D01*
X284212Y378961D01*
X284332Y378970D01*
X284452Y378983D01*
X284571Y378999D01*
X284690Y379019D01*
X284808Y379043D01*
X284925Y379070D01*
X285041Y379100D01*
X285156Y379134D01*
X285271Y379172D01*
X285384Y379213D01*
X285495Y379257D01*
X285606Y379305D01*
X285715Y379356D01*
X285772Y379377D01*
X285828Y379403D01*
X285883Y379431D01*
X285935Y379463D01*
X285986Y379499D01*
X286034Y379537D01*
X286080Y379578D01*
X286123Y379622D01*
X286163Y379668D01*
X286200Y379717D01*
X286234Y379769D01*
X286265Y379822D01*
X286293Y379877D01*
X286317Y379933D01*
X286338Y379991D01*
X286355Y380050D01*
X286368Y380110D01*
X286377Y380171D01*
X286383Y380233D01*
X286385Y380294D01*
X286383Y380355D01*
X286377Y380417D01*
X286368Y380478D01*
X286355Y380538D01*
X286338Y380597D01*
X286317Y380655D01*
X286293Y380711D01*
X286265Y380766D01*
X286234Y380819D01*
X286200Y380871D01*
X286163Y380920D01*
X286123Y380966D01*
X286080Y381010D01*
X286034Y381051D01*
X285986Y381089D01*
X285935Y381125D01*
X285883Y381157D01*
X285828Y381185D01*
X285772Y381211D01*
X285715Y381232D01*
X285715Y381233D02*
X285606Y381284D01*
X285495Y381332D01*
X285384Y381376D01*
X285271Y381417D01*
X285156Y381455D01*
X285041Y381489D01*
X284925Y381519D01*
X284808Y381546D01*
X284690Y381570D01*
X284571Y381590D01*
X284452Y381606D01*
X284332Y381619D01*
X284212Y381628D01*
X284092Y381633D01*
X283972Y381635D01*
X283972Y378954D02*
X283852Y378956D01*
X283732Y378961D01*
X283612Y378970D01*
X283492Y378983D01*
X283373Y378999D01*
X283254Y379019D01*
X283136Y379043D01*
X283019Y379070D01*
X282903Y379100D01*
X282788Y379134D01*
X282673Y379172D01*
X282560Y379213D01*
X282449Y379257D01*
X282338Y379305D01*
X282229Y379356D01*
X282172Y379377D01*
X282116Y379403D01*
X282061Y379431D01*
X282009Y379463D01*
X281958Y379499D01*
X281910Y379537D01*
X281864Y379578D01*
X281821Y379622D01*
X281781Y379668D01*
X281744Y379717D01*
X281710Y379769D01*
X281679Y379822D01*
X281651Y379877D01*
X281627Y379933D01*
X281606Y379991D01*
X281589Y380050D01*
X281576Y380110D01*
X281567Y380171D01*
X281561Y380233D01*
X281559Y380294D01*
X282229Y381233D02*
X282338Y381284D01*
X282449Y381332D01*
X282560Y381376D01*
X282673Y381417D01*
X282788Y381455D01*
X282903Y381489D01*
X283019Y381519D01*
X283136Y381546D01*
X283254Y381570D01*
X283373Y381590D01*
X283492Y381606D01*
X283612Y381619D01*
X283732Y381628D01*
X283852Y381633D01*
X283972Y381635D01*
X282229Y381232D02*
X282172Y381211D01*
X282116Y381185D01*
X282061Y381157D01*
X282009Y381125D01*
X281958Y381089D01*
X281910Y381051D01*
X281864Y381010D01*
X281821Y380966D01*
X281781Y380919D01*
X281744Y380871D01*
X281710Y380819D01*
X281679Y380766D01*
X281651Y380711D01*
X281627Y380655D01*
X281606Y380597D01*
X281589Y380538D01*
X281576Y380478D01*
X281567Y380417D01*
X281561Y380355D01*
X281559Y380294D01*
X282631Y379222D02*
X285313Y381367D01*
D12*
X222650Y77470D02*
X122830Y77470D01*
X222650Y-12450D02*
X222650Y-14480D01*
X122830Y-14480D01*
X122830Y53590D02*
X122830Y77470D01*
X122830Y53590D02*
X138830Y53590D01*
X156610Y53590D02*
X188870Y53590D01*
X206650Y53590D02*
X222650Y53590D01*
X122830Y53590D02*
X122830Y-12450D01*
X222650Y53590D02*
X222650Y77470D01*
X222650Y-12450D02*
X122830Y-12450D01*
X122830Y-14480D01*
X222650Y-12450D02*
X222650Y53590D01*
X142640Y762D02*
X142642Y904D01*
X142648Y1047D01*
X142658Y1189D01*
X142672Y1331D01*
X142690Y1472D01*
X142712Y1613D01*
X142738Y1753D01*
X142767Y1892D01*
X142801Y2031D01*
X142839Y2168D01*
X142880Y2305D01*
X142925Y2440D01*
X142974Y2574D01*
X143027Y2706D01*
X143083Y2837D01*
X143143Y2966D01*
X143207Y3094D01*
X143274Y3219D01*
X143345Y3343D01*
X143419Y3465D01*
X143496Y3584D01*
X143577Y3702D01*
X143661Y3817D01*
X143748Y3929D01*
X143839Y4039D01*
X143932Y4147D01*
X144029Y4252D01*
X144128Y4354D01*
X144230Y4453D01*
X144335Y4550D01*
X144443Y4643D01*
X144553Y4734D01*
X144665Y4821D01*
X144780Y4905D01*
X144898Y4986D01*
X145017Y5063D01*
X145139Y5137D01*
X145263Y5208D01*
X145388Y5275D01*
X145516Y5339D01*
X145645Y5399D01*
X145776Y5455D01*
X145908Y5508D01*
X146042Y5557D01*
X146177Y5602D01*
X146314Y5643D01*
X146451Y5681D01*
X146590Y5715D01*
X146729Y5744D01*
X146869Y5770D01*
X147010Y5792D01*
X147151Y5810D01*
X147293Y5824D01*
X147435Y5834D01*
X147578Y5840D01*
X147720Y5842D01*
X147862Y5840D01*
X148005Y5834D01*
X148147Y5824D01*
X148289Y5810D01*
X148430Y5792D01*
X148571Y5770D01*
X148711Y5744D01*
X148850Y5715D01*
X148989Y5681D01*
X149126Y5643D01*
X149263Y5602D01*
X149398Y5557D01*
X149532Y5508D01*
X149664Y5455D01*
X149795Y5399D01*
X149924Y5339D01*
X150052Y5275D01*
X150177Y5208D01*
X150301Y5137D01*
X150423Y5063D01*
X150542Y4986D01*
X150660Y4905D01*
X150775Y4821D01*
X150887Y4734D01*
X150997Y4643D01*
X151105Y4550D01*
X151210Y4453D01*
X151312Y4354D01*
X151411Y4252D01*
X151508Y4147D01*
X151601Y4039D01*
X151692Y3929D01*
X151779Y3817D01*
X151863Y3702D01*
X151944Y3584D01*
X152021Y3465D01*
X152095Y3343D01*
X152166Y3219D01*
X152233Y3094D01*
X152297Y2966D01*
X152357Y2837D01*
X152413Y2706D01*
X152466Y2574D01*
X152515Y2440D01*
X152560Y2305D01*
X152601Y2168D01*
X152639Y2031D01*
X152673Y1892D01*
X152702Y1753D01*
X152728Y1613D01*
X152750Y1472D01*
X152768Y1331D01*
X152782Y1189D01*
X152792Y1047D01*
X152798Y904D01*
X152800Y762D01*
X152798Y620D01*
X152792Y477D01*
X152782Y335D01*
X152768Y193D01*
X152750Y52D01*
X152728Y-89D01*
X152702Y-229D01*
X152673Y-368D01*
X152639Y-507D01*
X152601Y-644D01*
X152560Y-781D01*
X152515Y-916D01*
X152466Y-1050D01*
X152413Y-1182D01*
X152357Y-1313D01*
X152297Y-1442D01*
X152233Y-1570D01*
X152166Y-1695D01*
X152095Y-1819D01*
X152021Y-1941D01*
X151944Y-2060D01*
X151863Y-2178D01*
X151779Y-2293D01*
X151692Y-2405D01*
X151601Y-2515D01*
X151508Y-2623D01*
X151411Y-2728D01*
X151312Y-2830D01*
X151210Y-2929D01*
X151105Y-3026D01*
X150997Y-3119D01*
X150887Y-3210D01*
X150775Y-3297D01*
X150660Y-3381D01*
X150542Y-3462D01*
X150423Y-3539D01*
X150301Y-3613D01*
X150177Y-3684D01*
X150052Y-3751D01*
X149924Y-3815D01*
X149795Y-3875D01*
X149664Y-3931D01*
X149532Y-3984D01*
X149398Y-4033D01*
X149263Y-4078D01*
X149126Y-4119D01*
X148989Y-4157D01*
X148850Y-4191D01*
X148711Y-4220D01*
X148571Y-4246D01*
X148430Y-4268D01*
X148289Y-4286D01*
X148147Y-4300D01*
X148005Y-4310D01*
X147862Y-4316D01*
X147720Y-4318D01*
X147578Y-4316D01*
X147435Y-4310D01*
X147293Y-4300D01*
X147151Y-4286D01*
X147010Y-4268D01*
X146869Y-4246D01*
X146729Y-4220D01*
X146590Y-4191D01*
X146451Y-4157D01*
X146314Y-4119D01*
X146177Y-4078D01*
X146042Y-4033D01*
X145908Y-3984D01*
X145776Y-3931D01*
X145645Y-3875D01*
X145516Y-3815D01*
X145388Y-3751D01*
X145263Y-3684D01*
X145139Y-3613D01*
X145017Y-3539D01*
X144898Y-3462D01*
X144780Y-3381D01*
X144665Y-3297D01*
X144553Y-3210D01*
X144443Y-3119D01*
X144335Y-3026D01*
X144230Y-2929D01*
X144128Y-2830D01*
X144029Y-2728D01*
X143932Y-2623D01*
X143839Y-2515D01*
X143748Y-2405D01*
X143661Y-2293D01*
X143577Y-2178D01*
X143496Y-2060D01*
X143419Y-1941D01*
X143345Y-1819D01*
X143274Y-1695D01*
X143207Y-1570D01*
X143143Y-1442D01*
X143083Y-1313D01*
X143027Y-1182D01*
X142974Y-1050D01*
X142925Y-916D01*
X142880Y-781D01*
X142839Y-644D01*
X142801Y-507D01*
X142767Y-368D01*
X142738Y-229D01*
X142712Y-89D01*
X142690Y52D01*
X142672Y193D01*
X142658Y335D01*
X142648Y477D01*
X142642Y620D01*
X142640Y762D01*
X192678Y762D02*
X192680Y904D01*
X192686Y1047D01*
X192696Y1189D01*
X192710Y1331D01*
X192728Y1472D01*
X192750Y1613D01*
X192776Y1753D01*
X192805Y1892D01*
X192839Y2031D01*
X192877Y2168D01*
X192918Y2305D01*
X192963Y2440D01*
X193012Y2574D01*
X193065Y2706D01*
X193121Y2837D01*
X193181Y2966D01*
X193245Y3094D01*
X193312Y3219D01*
X193383Y3343D01*
X193457Y3465D01*
X193534Y3584D01*
X193615Y3702D01*
X193699Y3817D01*
X193786Y3929D01*
X193877Y4039D01*
X193970Y4147D01*
X194067Y4252D01*
X194166Y4354D01*
X194268Y4453D01*
X194373Y4550D01*
X194481Y4643D01*
X194591Y4734D01*
X194703Y4821D01*
X194818Y4905D01*
X194936Y4986D01*
X195055Y5063D01*
X195177Y5137D01*
X195301Y5208D01*
X195426Y5275D01*
X195554Y5339D01*
X195683Y5399D01*
X195814Y5455D01*
X195946Y5508D01*
X196080Y5557D01*
X196215Y5602D01*
X196352Y5643D01*
X196489Y5681D01*
X196628Y5715D01*
X196767Y5744D01*
X196907Y5770D01*
X197048Y5792D01*
X197189Y5810D01*
X197331Y5824D01*
X197473Y5834D01*
X197616Y5840D01*
X197758Y5842D01*
X197900Y5840D01*
X198043Y5834D01*
X198185Y5824D01*
X198327Y5810D01*
X198468Y5792D01*
X198609Y5770D01*
X198749Y5744D01*
X198888Y5715D01*
X199027Y5681D01*
X199164Y5643D01*
X199301Y5602D01*
X199436Y5557D01*
X199570Y5508D01*
X199702Y5455D01*
X199833Y5399D01*
X199962Y5339D01*
X200090Y5275D01*
X200215Y5208D01*
X200339Y5137D01*
X200461Y5063D01*
X200580Y4986D01*
X200698Y4905D01*
X200813Y4821D01*
X200925Y4734D01*
X201035Y4643D01*
X201143Y4550D01*
X201248Y4453D01*
X201350Y4354D01*
X201449Y4252D01*
X201546Y4147D01*
X201639Y4039D01*
X201730Y3929D01*
X201817Y3817D01*
X201901Y3702D01*
X201982Y3584D01*
X202059Y3465D01*
X202133Y3343D01*
X202204Y3219D01*
X202271Y3094D01*
X202335Y2966D01*
X202395Y2837D01*
X202451Y2706D01*
X202504Y2574D01*
X202553Y2440D01*
X202598Y2305D01*
X202639Y2168D01*
X202677Y2031D01*
X202711Y1892D01*
X202740Y1753D01*
X202766Y1613D01*
X202788Y1472D01*
X202806Y1331D01*
X202820Y1189D01*
X202830Y1047D01*
X202836Y904D01*
X202838Y762D01*
X202836Y620D01*
X202830Y477D01*
X202820Y335D01*
X202806Y193D01*
X202788Y52D01*
X202766Y-89D01*
X202740Y-229D01*
X202711Y-368D01*
X202677Y-507D01*
X202639Y-644D01*
X202598Y-781D01*
X202553Y-916D01*
X202504Y-1050D01*
X202451Y-1182D01*
X202395Y-1313D01*
X202335Y-1442D01*
X202271Y-1570D01*
X202204Y-1695D01*
X202133Y-1819D01*
X202059Y-1941D01*
X201982Y-2060D01*
X201901Y-2178D01*
X201817Y-2293D01*
X201730Y-2405D01*
X201639Y-2515D01*
X201546Y-2623D01*
X201449Y-2728D01*
X201350Y-2830D01*
X201248Y-2929D01*
X201143Y-3026D01*
X201035Y-3119D01*
X200925Y-3210D01*
X200813Y-3297D01*
X200698Y-3381D01*
X200580Y-3462D01*
X200461Y-3539D01*
X200339Y-3613D01*
X200215Y-3684D01*
X200090Y-3751D01*
X199962Y-3815D01*
X199833Y-3875D01*
X199702Y-3931D01*
X199570Y-3984D01*
X199436Y-4033D01*
X199301Y-4078D01*
X199164Y-4119D01*
X199027Y-4157D01*
X198888Y-4191D01*
X198749Y-4220D01*
X198609Y-4246D01*
X198468Y-4268D01*
X198327Y-4286D01*
X198185Y-4300D01*
X198043Y-4310D01*
X197900Y-4316D01*
X197758Y-4318D01*
X197616Y-4316D01*
X197473Y-4310D01*
X197331Y-4300D01*
X197189Y-4286D01*
X197048Y-4268D01*
X196907Y-4246D01*
X196767Y-4220D01*
X196628Y-4191D01*
X196489Y-4157D01*
X196352Y-4119D01*
X196215Y-4078D01*
X196080Y-4033D01*
X195946Y-3984D01*
X195814Y-3931D01*
X195683Y-3875D01*
X195554Y-3815D01*
X195426Y-3751D01*
X195301Y-3684D01*
X195177Y-3613D01*
X195055Y-3539D01*
X194936Y-3462D01*
X194818Y-3381D01*
X194703Y-3297D01*
X194591Y-3210D01*
X194481Y-3119D01*
X194373Y-3026D01*
X194268Y-2929D01*
X194166Y-2830D01*
X194067Y-2728D01*
X193970Y-2623D01*
X193877Y-2515D01*
X193786Y-2405D01*
X193699Y-2293D01*
X193615Y-2178D01*
X193534Y-2060D01*
X193457Y-1941D01*
X193383Y-1819D01*
X193312Y-1695D01*
X193245Y-1570D01*
X193181Y-1442D01*
X193121Y-1313D01*
X193065Y-1182D01*
X193012Y-1050D01*
X192963Y-916D01*
X192918Y-781D01*
X192877Y-644D01*
X192839Y-507D01*
X192805Y-368D01*
X192776Y-229D01*
X192750Y-89D01*
X192728Y52D01*
X192710Y193D01*
X192696Y335D01*
X192686Y477D01*
X192680Y620D01*
X192678Y762D01*
D14*
X134385Y13335D02*
X131210Y15875D01*
X131210Y4445D01*
X134385Y4445D02*
X128035Y4445D01*
X177565Y13018D02*
X177567Y13122D01*
X177573Y13227D01*
X177582Y13331D01*
X177595Y13434D01*
X177613Y13537D01*
X177633Y13639D01*
X177658Y13741D01*
X177686Y13841D01*
X177718Y13941D01*
X177754Y14039D01*
X177793Y14136D01*
X177835Y14231D01*
X177881Y14325D01*
X177931Y14417D01*
X177983Y14507D01*
X178039Y14595D01*
X178099Y14681D01*
X178161Y14765D01*
X178226Y14846D01*
X178294Y14925D01*
X178366Y15002D01*
X178439Y15075D01*
X178516Y15147D01*
X178595Y15215D01*
X178676Y15280D01*
X178760Y15342D01*
X178846Y15402D01*
X178934Y15458D01*
X179024Y15510D01*
X179116Y15560D01*
X179210Y15606D01*
X179305Y15648D01*
X179402Y15687D01*
X179500Y15723D01*
X179600Y15755D01*
X179700Y15783D01*
X179802Y15808D01*
X179904Y15828D01*
X180007Y15846D01*
X180110Y15859D01*
X180214Y15868D01*
X180319Y15874D01*
X180423Y15876D01*
X180423Y15875D02*
X180541Y15873D01*
X180660Y15867D01*
X180778Y15858D01*
X180895Y15845D01*
X181012Y15827D01*
X181129Y15807D01*
X181245Y15782D01*
X181360Y15754D01*
X181473Y15721D01*
X181586Y15686D01*
X181698Y15646D01*
X181808Y15604D01*
X181917Y15557D01*
X182025Y15507D01*
X182130Y15454D01*
X182234Y15397D01*
X182336Y15337D01*
X182436Y15274D01*
X182534Y15207D01*
X182630Y15138D01*
X182723Y15065D01*
X182814Y14989D01*
X182903Y14911D01*
X182989Y14829D01*
X183072Y14745D01*
X183153Y14659D01*
X183230Y14569D01*
X183305Y14478D01*
X183377Y14384D01*
X183446Y14287D01*
X183511Y14189D01*
X183574Y14088D01*
X183633Y13985D01*
X183689Y13881D01*
X183741Y13775D01*
X183790Y13667D01*
X183835Y13558D01*
X183877Y13447D01*
X183915Y13335D01*
X178517Y10796D02*
X178441Y10871D01*
X178366Y10950D01*
X178295Y11031D01*
X178226Y11115D01*
X178161Y11201D01*
X178099Y11289D01*
X178039Y11379D01*
X177983Y11471D01*
X177930Y11566D01*
X177881Y11662D01*
X177835Y11760D01*
X177792Y11859D01*
X177753Y11960D01*
X177718Y12062D01*
X177686Y12165D01*
X177658Y12269D01*
X177633Y12374D01*
X177612Y12481D01*
X177595Y12587D01*
X177582Y12694D01*
X177573Y12802D01*
X177567Y12910D01*
X177565Y13018D01*
X178518Y10795D02*
X183915Y4445D01*
X177565Y4445D01*
X153308Y60833D02*
X145688Y72263D01*
X153308Y72263D02*
X145688Y60833D01*
X141243Y69723D02*
X138068Y72263D01*
X138068Y60833D01*
X141243Y60833D02*
X134893Y60833D01*
D10*
X183628Y470125D02*
X181991Y472171D01*
X189357Y472171D01*
X189357Y470125D02*
X189357Y474218D01*
X185674Y477441D02*
X185521Y477443D01*
X185368Y477449D01*
X185216Y477458D01*
X185063Y477472D01*
X184911Y477489D01*
X184760Y477510D01*
X184609Y477535D01*
X184459Y477564D01*
X184309Y477596D01*
X184161Y477633D01*
X184013Y477673D01*
X183866Y477716D01*
X183721Y477764D01*
X183577Y477815D01*
X183434Y477869D01*
X183292Y477928D01*
X183153Y477989D01*
X183014Y478055D01*
X182944Y478081D01*
X182874Y478111D01*
X182807Y478144D01*
X182741Y478180D01*
X182677Y478219D01*
X182615Y478262D01*
X182556Y478308D01*
X182498Y478356D01*
X182444Y478407D01*
X182391Y478461D01*
X182342Y478518D01*
X182295Y478577D01*
X182252Y478638D01*
X182211Y478701D01*
X182174Y478766D01*
X182139Y478833D01*
X182109Y478902D01*
X182081Y478972D01*
X182058Y479043D01*
X182037Y479115D01*
X182021Y479188D01*
X182008Y479262D01*
X181998Y479337D01*
X181993Y479412D01*
X181991Y479487D01*
X181993Y479562D01*
X181998Y479637D01*
X182008Y479712D01*
X182021Y479786D01*
X182037Y479859D01*
X182058Y479931D01*
X182081Y480002D01*
X182109Y480072D01*
X182139Y480141D01*
X182174Y480208D01*
X182211Y480273D01*
X182252Y480336D01*
X182295Y480397D01*
X182342Y480456D01*
X182391Y480513D01*
X182444Y480567D01*
X182498Y480618D01*
X182556Y480667D01*
X182615Y480712D01*
X182677Y480755D01*
X182741Y480794D01*
X182807Y480831D01*
X182875Y480863D01*
X182944Y480893D01*
X183014Y480919D01*
X183152Y480984D01*
X183292Y481046D01*
X183434Y481104D01*
X183577Y481159D01*
X183721Y481210D01*
X183866Y481258D01*
X184013Y481301D01*
X184160Y481341D01*
X184309Y481378D01*
X184459Y481410D01*
X184609Y481439D01*
X184760Y481464D01*
X184911Y481485D01*
X185063Y481502D01*
X185216Y481516D01*
X185368Y481525D01*
X185521Y481531D01*
X185674Y481533D01*
X185674Y477441D02*
X185827Y477443D01*
X185980Y477449D01*
X186132Y477458D01*
X186285Y477472D01*
X186437Y477489D01*
X186588Y477510D01*
X186739Y477535D01*
X186889Y477564D01*
X187039Y477596D01*
X187187Y477633D01*
X187335Y477673D01*
X187482Y477716D01*
X187627Y477764D01*
X187771Y477815D01*
X187914Y477869D01*
X188056Y477928D01*
X188195Y477989D01*
X188334Y478055D01*
X188405Y478081D01*
X188474Y478111D01*
X188541Y478144D01*
X188607Y478180D01*
X188671Y478219D01*
X188733Y478262D01*
X188792Y478308D01*
X188850Y478356D01*
X188904Y478407D01*
X188957Y478461D01*
X189006Y478518D01*
X189053Y478577D01*
X189096Y478638D01*
X189137Y478701D01*
X189174Y478766D01*
X189209Y478833D01*
X189239Y478902D01*
X189267Y478972D01*
X189290Y479043D01*
X189311Y479115D01*
X189327Y479188D01*
X189340Y479262D01*
X189350Y479337D01*
X189355Y479412D01*
X189357Y479487D01*
X188334Y480919D02*
X188196Y480984D01*
X188056Y481046D01*
X187914Y481104D01*
X187771Y481159D01*
X187627Y481210D01*
X187482Y481258D01*
X187335Y481301D01*
X187188Y481341D01*
X187039Y481378D01*
X186889Y481410D01*
X186739Y481439D01*
X186588Y481464D01*
X186437Y481485D01*
X186285Y481502D01*
X186132Y481516D01*
X185980Y481525D01*
X185827Y481531D01*
X185674Y481533D01*
X188334Y480919D02*
X188404Y480893D01*
X188474Y480863D01*
X188541Y480830D01*
X188607Y480794D01*
X188671Y480755D01*
X188733Y480712D01*
X188792Y480666D01*
X188850Y480618D01*
X188904Y480567D01*
X188957Y480513D01*
X189006Y480456D01*
X189053Y480397D01*
X189096Y480336D01*
X189137Y480273D01*
X189174Y480208D01*
X189209Y480141D01*
X189239Y480072D01*
X189267Y480002D01*
X189290Y479931D01*
X189311Y479859D01*
X189327Y479786D01*
X189340Y479712D01*
X189350Y479637D01*
X189355Y479562D01*
X189357Y479487D01*
X187720Y477850D02*
X183628Y481124D01*
X181991Y485015D02*
X189357Y485015D01*
X186902Y485015D02*
X184446Y488289D01*
X185879Y486448D02*
X189357Y488289D01*
D13*
X55520Y184020D02*
X10520Y184020D01*
X55520Y184020D02*
X55520Y263020D01*
X10520Y263020D01*
X10520Y233520D01*
X10520Y213520D02*
X10520Y184020D01*
X15520Y213520D02*
X15520Y233520D01*
X10520Y233520D01*
X10520Y213520D02*
X15520Y213520D01*
D14*
X59055Y210185D02*
X63881Y210185D01*
X63881Y211526D01*
X63879Y211597D01*
X63873Y211669D01*
X63864Y211739D01*
X63851Y211809D01*
X63834Y211879D01*
X63813Y211947D01*
X63789Y212014D01*
X63761Y212080D01*
X63730Y212144D01*
X63695Y212207D01*
X63657Y212267D01*
X63616Y212326D01*
X63572Y212382D01*
X63525Y212436D01*
X63476Y212487D01*
X63423Y212535D01*
X63368Y212581D01*
X63311Y212623D01*
X63251Y212663D01*
X63190Y212699D01*
X63126Y212732D01*
X63061Y212761D01*
X62995Y212787D01*
X62927Y212810D01*
X62858Y212829D01*
X62788Y212844D01*
X62718Y212855D01*
X62647Y212863D01*
X62576Y212867D01*
X62504Y212867D01*
X62433Y212863D01*
X62362Y212855D01*
X62292Y212844D01*
X62222Y212829D01*
X62153Y212810D01*
X62085Y212787D01*
X62019Y212761D01*
X61954Y212732D01*
X61890Y212699D01*
X61829Y212663D01*
X61769Y212623D01*
X61712Y212581D01*
X61657Y212535D01*
X61604Y212487D01*
X61555Y212436D01*
X61508Y212382D01*
X61464Y212326D01*
X61423Y212267D01*
X61385Y212207D01*
X61350Y212144D01*
X61319Y212080D01*
X61291Y212014D01*
X61267Y211947D01*
X61246Y211879D01*
X61229Y211809D01*
X61216Y211739D01*
X61207Y211669D01*
X61201Y211597D01*
X61199Y211526D01*
X61200Y211526D02*
X61200Y210185D01*
X61200Y211794D02*
X59055Y212866D01*
X59055Y215810D02*
X59055Y217955D01*
X59055Y215810D02*
X63881Y215810D01*
X63881Y217955D01*
X61736Y217419D02*
X61736Y215810D01*
X63881Y220565D02*
X59055Y220565D01*
X59055Y222710D01*
X59055Y224849D02*
X63881Y226458D01*
X59055Y228067D01*
X60262Y227664D02*
X60262Y225251D01*
X63881Y230336D02*
X61602Y231944D01*
X63881Y233553D01*
X61602Y231944D02*
X59055Y231944D01*
D13*
X55520Y270540D02*
X10520Y270540D01*
X55520Y270540D02*
X55520Y369540D01*
X10520Y369540D02*
X10520Y330040D01*
X10520Y310040D02*
X10520Y270540D01*
X15520Y310040D02*
X15520Y330040D01*
X10520Y330040D01*
X10520Y310040D02*
X15520Y310040D01*
X10520Y369540D02*
X55520Y369540D01*
D14*
X59055Y309245D02*
X63881Y309245D01*
X63881Y310586D01*
X63879Y310656D01*
X63874Y310726D01*
X63864Y310796D01*
X63852Y310865D01*
X63835Y310933D01*
X63815Y311000D01*
X63792Y311067D01*
X63765Y311131D01*
X63735Y311195D01*
X63701Y311257D01*
X63665Y311316D01*
X63625Y311374D01*
X63582Y311430D01*
X63537Y311483D01*
X63488Y311534D01*
X63437Y311583D01*
X63384Y311628D01*
X63328Y311671D01*
X63270Y311711D01*
X63211Y311747D01*
X63149Y311781D01*
X63085Y311811D01*
X63021Y311838D01*
X62954Y311861D01*
X62887Y311881D01*
X62819Y311898D01*
X62750Y311910D01*
X62680Y311920D01*
X62610Y311925D01*
X62540Y311927D01*
X62540Y311926D02*
X60396Y311926D01*
X60396Y311927D02*
X60326Y311925D01*
X60256Y311920D01*
X60186Y311910D01*
X60117Y311898D01*
X60049Y311881D01*
X59982Y311861D01*
X59915Y311838D01*
X59851Y311811D01*
X59787Y311781D01*
X59726Y311747D01*
X59666Y311711D01*
X59608Y311671D01*
X59552Y311628D01*
X59499Y311583D01*
X59448Y311534D01*
X59399Y311483D01*
X59354Y311430D01*
X59311Y311374D01*
X59271Y311316D01*
X59235Y311257D01*
X59201Y311195D01*
X59171Y311131D01*
X59144Y311067D01*
X59121Y311000D01*
X59101Y310933D01*
X59084Y310865D01*
X59072Y310796D01*
X59062Y310726D01*
X59057Y310656D01*
X59055Y310586D01*
X59055Y309245D01*
X59055Y315158D02*
X63881Y315158D01*
X59055Y314621D02*
X59055Y315694D01*
X63881Y315694D02*
X63881Y314621D01*
X59055Y319632D02*
X59057Y319697D01*
X59063Y319761D01*
X59073Y319825D01*
X59086Y319889D01*
X59104Y319951D01*
X59125Y320012D01*
X59149Y320072D01*
X59178Y320130D01*
X59210Y320187D01*
X59245Y320241D01*
X59283Y320293D01*
X59325Y320343D01*
X59369Y320390D01*
X59416Y320434D01*
X59466Y320476D01*
X59518Y320514D01*
X59572Y320549D01*
X59629Y320581D01*
X59687Y320610D01*
X59747Y320634D01*
X59808Y320655D01*
X59870Y320673D01*
X59934Y320686D01*
X59998Y320696D01*
X60062Y320702D01*
X60127Y320704D01*
X59055Y319632D02*
X59057Y319538D01*
X59063Y319444D01*
X59073Y319350D01*
X59086Y319257D01*
X59104Y319165D01*
X59125Y319073D01*
X59150Y318982D01*
X59179Y318892D01*
X59212Y318804D01*
X59248Y318717D01*
X59288Y318632D01*
X59331Y318548D01*
X59378Y318467D01*
X59428Y318387D01*
X59481Y318309D01*
X59538Y318234D01*
X59597Y318161D01*
X59660Y318091D01*
X59725Y318023D01*
X62809Y318158D02*
X62874Y318160D01*
X62938Y318166D01*
X63002Y318176D01*
X63066Y318189D01*
X63128Y318207D01*
X63189Y318228D01*
X63249Y318252D01*
X63307Y318281D01*
X63364Y318313D01*
X63418Y318348D01*
X63470Y318386D01*
X63520Y318428D01*
X63567Y318472D01*
X63611Y318519D01*
X63653Y318569D01*
X63691Y318621D01*
X63726Y318675D01*
X63758Y318732D01*
X63787Y318790D01*
X63811Y318850D01*
X63832Y318911D01*
X63850Y318973D01*
X63863Y319037D01*
X63873Y319101D01*
X63879Y319165D01*
X63881Y319230D01*
X63879Y319316D01*
X63874Y319402D01*
X63864Y319488D01*
X63851Y319573D01*
X63835Y319658D01*
X63815Y319742D01*
X63791Y319825D01*
X63764Y319907D01*
X63733Y319987D01*
X63699Y320067D01*
X63661Y320144D01*
X63620Y320220D01*
X63576Y320294D01*
X63529Y320366D01*
X63479Y320437D01*
X61871Y318693D02*
X61904Y318640D01*
X61941Y318589D01*
X61980Y318540D01*
X62022Y318493D01*
X62067Y318449D01*
X62114Y318408D01*
X62163Y318369D01*
X62215Y318333D01*
X62269Y318300D01*
X62324Y318271D01*
X62381Y318245D01*
X62440Y318222D01*
X62499Y318202D01*
X62560Y318186D01*
X62621Y318173D01*
X62684Y318164D01*
X62746Y318159D01*
X62809Y318157D01*
X61065Y320168D02*
X61032Y320221D01*
X60995Y320272D01*
X60956Y320321D01*
X60914Y320368D01*
X60869Y320412D01*
X60822Y320453D01*
X60773Y320492D01*
X60721Y320528D01*
X60667Y320561D01*
X60612Y320590D01*
X60555Y320616D01*
X60496Y320639D01*
X60437Y320659D01*
X60376Y320675D01*
X60315Y320688D01*
X60252Y320697D01*
X60190Y320702D01*
X60127Y320704D01*
X61066Y320168D02*
X61870Y318693D01*
X63881Y323656D02*
X59055Y323656D01*
X63881Y323656D02*
X63881Y324997D01*
X63879Y325068D01*
X63873Y325140D01*
X63864Y325210D01*
X63851Y325280D01*
X63834Y325350D01*
X63813Y325418D01*
X63789Y325485D01*
X63761Y325551D01*
X63730Y325615D01*
X63695Y325678D01*
X63657Y325738D01*
X63616Y325797D01*
X63572Y325853D01*
X63525Y325907D01*
X63476Y325958D01*
X63423Y326006D01*
X63368Y326052D01*
X63311Y326094D01*
X63251Y326134D01*
X63190Y326170D01*
X63126Y326203D01*
X63061Y326232D01*
X62995Y326258D01*
X62927Y326281D01*
X62858Y326300D01*
X62788Y326315D01*
X62718Y326326D01*
X62647Y326334D01*
X62576Y326338D01*
X62504Y326338D01*
X62433Y326334D01*
X62362Y326326D01*
X62292Y326315D01*
X62222Y326300D01*
X62153Y326281D01*
X62085Y326258D01*
X62019Y326232D01*
X61954Y326203D01*
X61890Y326170D01*
X61829Y326134D01*
X61769Y326094D01*
X61712Y326052D01*
X61657Y326006D01*
X61604Y325958D01*
X61555Y325907D01*
X61508Y325853D01*
X61464Y325797D01*
X61423Y325738D01*
X61385Y325678D01*
X61350Y325615D01*
X61319Y325551D01*
X61291Y325485D01*
X61267Y325418D01*
X61246Y325350D01*
X61229Y325280D01*
X61216Y325210D01*
X61207Y325140D01*
X61201Y325068D01*
X61199Y324997D01*
X61200Y324997D02*
X61200Y323656D01*
X59055Y329015D02*
X63881Y329015D01*
X59055Y329015D02*
X59055Y331160D01*
X59055Y333300D02*
X63881Y334908D01*
X59055Y336517D01*
X60262Y336115D02*
X60262Y333702D01*
X63881Y338786D02*
X61602Y340395D01*
X63881Y342003D01*
X61602Y340395D02*
X59055Y340395D01*
D13*
X49560Y726800D02*
X49560Y771800D01*
X49560Y726800D02*
X148560Y726800D01*
X148560Y771800D02*
X109060Y771800D01*
X89060Y771800D02*
X49560Y771800D01*
X89060Y766800D02*
X109060Y766800D01*
X109060Y771800D01*
X89060Y771800D02*
X89060Y766800D01*
X148560Y771800D02*
X148560Y726800D01*
D14*
X107405Y720725D02*
X107405Y717240D01*
X107406Y717240D02*
X107404Y717169D01*
X107398Y717097D01*
X107389Y717027D01*
X107376Y716957D01*
X107359Y716887D01*
X107338Y716819D01*
X107314Y716752D01*
X107286Y716686D01*
X107255Y716622D01*
X107220Y716559D01*
X107182Y716499D01*
X107141Y716440D01*
X107097Y716384D01*
X107050Y716330D01*
X107001Y716279D01*
X106948Y716231D01*
X106893Y716185D01*
X106836Y716143D01*
X106776Y716103D01*
X106715Y716067D01*
X106651Y716034D01*
X106586Y716005D01*
X106520Y715979D01*
X106452Y715956D01*
X106383Y715937D01*
X106313Y715922D01*
X106243Y715911D01*
X106172Y715903D01*
X106101Y715899D01*
X106029Y715899D01*
X105958Y715903D01*
X105887Y715911D01*
X105817Y715922D01*
X105747Y715937D01*
X105678Y715956D01*
X105610Y715979D01*
X105544Y716005D01*
X105479Y716034D01*
X105415Y716067D01*
X105354Y716103D01*
X105294Y716143D01*
X105237Y716185D01*
X105182Y716231D01*
X105129Y716279D01*
X105080Y716330D01*
X105033Y716384D01*
X104989Y716440D01*
X104948Y716499D01*
X104910Y716559D01*
X104875Y716622D01*
X104844Y716686D01*
X104816Y716752D01*
X104792Y716819D01*
X104771Y716887D01*
X104754Y716957D01*
X104741Y717027D01*
X104732Y717097D01*
X104726Y717169D01*
X104724Y717240D01*
X104724Y720725D01*
X100395Y720725D02*
X102004Y715899D01*
X98787Y715899D02*
X100395Y720725D01*
X99189Y717106D02*
X101602Y717106D01*
X96003Y715899D02*
X96003Y720725D01*
X94662Y720725D01*
X94591Y720723D01*
X94519Y720717D01*
X94449Y720708D01*
X94379Y720695D01*
X94309Y720678D01*
X94241Y720657D01*
X94174Y720633D01*
X94108Y720605D01*
X94044Y720574D01*
X93981Y720539D01*
X93921Y720501D01*
X93862Y720460D01*
X93806Y720416D01*
X93752Y720369D01*
X93701Y720320D01*
X93653Y720267D01*
X93607Y720212D01*
X93565Y720155D01*
X93525Y720095D01*
X93489Y720034D01*
X93456Y719970D01*
X93427Y719905D01*
X93401Y719839D01*
X93378Y719771D01*
X93359Y719702D01*
X93344Y719632D01*
X93333Y719562D01*
X93325Y719491D01*
X93321Y719420D01*
X93321Y719348D01*
X93325Y719277D01*
X93333Y719206D01*
X93344Y719136D01*
X93359Y719066D01*
X93378Y718997D01*
X93401Y718929D01*
X93427Y718863D01*
X93456Y718798D01*
X93489Y718734D01*
X93525Y718673D01*
X93565Y718613D01*
X93607Y718556D01*
X93653Y718501D01*
X93701Y718448D01*
X93752Y718399D01*
X93806Y718352D01*
X93862Y718308D01*
X93921Y718267D01*
X93981Y718229D01*
X94044Y718194D01*
X94108Y718163D01*
X94174Y718135D01*
X94241Y718111D01*
X94309Y718090D01*
X94379Y718073D01*
X94449Y718060D01*
X94519Y718051D01*
X94591Y718045D01*
X94662Y718043D01*
X94662Y718044D02*
X96003Y718044D01*
X94394Y718044D02*
X93322Y715899D01*
X89606Y715899D02*
X89606Y720725D01*
X90946Y720725D02*
X88265Y720725D01*
D12*
X259080Y749300D02*
X261620Y749300D01*
X261620Y734060D01*
X259080Y734060D01*
X198120Y734060D02*
X195580Y734060D01*
X195580Y749300D01*
X198120Y749300D01*
D15*
X215900Y713740D02*
X215900Y711200D01*
X215900Y713740D02*
X241300Y713740D01*
X241300Y711200D01*
X240030Y769620D02*
X215900Y769620D01*
X240030Y769620D02*
X240030Y772160D01*
X215900Y772160D02*
X215900Y769620D01*
D12*
X215900Y772160D02*
X207010Y772160D01*
X241300Y711200D02*
X250190Y711200D01*
X241300Y711200D02*
X215900Y711200D01*
X207010Y711200D01*
X215900Y772160D02*
X240030Y772160D01*
X250190Y772160D01*
X259080Y751840D02*
X259080Y749300D01*
X259080Y734060D02*
X259080Y731520D01*
X198120Y749300D02*
X198120Y751840D01*
X198120Y734060D02*
X198120Y731520D01*
X210820Y741680D02*
X210825Y742116D01*
X210841Y742552D01*
X210868Y742988D01*
X210906Y743423D01*
X210954Y743856D01*
X211012Y744289D01*
X211082Y744720D01*
X211162Y745149D01*
X211252Y745576D01*
X211353Y746000D01*
X211464Y746422D01*
X211586Y746841D01*
X211717Y747257D01*
X211859Y747670D01*
X212011Y748079D01*
X212173Y748484D01*
X212345Y748885D01*
X212527Y749282D01*
X212718Y749674D01*
X212919Y750061D01*
X213130Y750444D01*
X213350Y750821D01*
X213579Y751192D01*
X213816Y751558D01*
X214063Y751918D01*
X214319Y752272D01*
X214583Y752619D01*
X214856Y752960D01*
X215137Y753293D01*
X215426Y753620D01*
X215723Y753940D01*
X216028Y754252D01*
X216340Y754557D01*
X216660Y754854D01*
X216987Y755143D01*
X217320Y755424D01*
X217661Y755697D01*
X218008Y755961D01*
X218362Y756217D01*
X218722Y756464D01*
X219088Y756701D01*
X219459Y756930D01*
X219836Y757150D01*
X220219Y757361D01*
X220606Y757562D01*
X220998Y757753D01*
X221395Y757935D01*
X221796Y758107D01*
X222201Y758269D01*
X222610Y758421D01*
X223023Y758563D01*
X223439Y758694D01*
X223858Y758816D01*
X224280Y758927D01*
X224704Y759028D01*
X225131Y759118D01*
X225560Y759198D01*
X225991Y759268D01*
X226424Y759326D01*
X226857Y759374D01*
X227292Y759412D01*
X227728Y759439D01*
X228164Y759455D01*
X228600Y759460D01*
X229036Y759455D01*
X229472Y759439D01*
X229908Y759412D01*
X230343Y759374D01*
X230776Y759326D01*
X231209Y759268D01*
X231640Y759198D01*
X232069Y759118D01*
X232496Y759028D01*
X232920Y758927D01*
X233342Y758816D01*
X233761Y758694D01*
X234177Y758563D01*
X234590Y758421D01*
X234999Y758269D01*
X235404Y758107D01*
X235805Y757935D01*
X236202Y757753D01*
X236594Y757562D01*
X236981Y757361D01*
X237364Y757150D01*
X237741Y756930D01*
X238112Y756701D01*
X238478Y756464D01*
X238838Y756217D01*
X239192Y755961D01*
X239539Y755697D01*
X239880Y755424D01*
X240213Y755143D01*
X240540Y754854D01*
X240860Y754557D01*
X241172Y754252D01*
X241477Y753940D01*
X241774Y753620D01*
X242063Y753293D01*
X242344Y752960D01*
X242617Y752619D01*
X242881Y752272D01*
X243137Y751918D01*
X243384Y751558D01*
X243621Y751192D01*
X243850Y750821D01*
X244070Y750444D01*
X244281Y750061D01*
X244482Y749674D01*
X244673Y749282D01*
X244855Y748885D01*
X245027Y748484D01*
X245189Y748079D01*
X245341Y747670D01*
X245483Y747257D01*
X245614Y746841D01*
X245736Y746422D01*
X245847Y746000D01*
X245948Y745576D01*
X246038Y745149D01*
X246118Y744720D01*
X246188Y744289D01*
X246246Y743856D01*
X246294Y743423D01*
X246332Y742988D01*
X246359Y742552D01*
X246375Y742116D01*
X246380Y741680D01*
X246375Y741244D01*
X246359Y740808D01*
X246332Y740372D01*
X246294Y739937D01*
X246246Y739504D01*
X246188Y739071D01*
X246118Y738640D01*
X246038Y738211D01*
X245948Y737784D01*
X245847Y737360D01*
X245736Y736938D01*
X245614Y736519D01*
X245483Y736103D01*
X245341Y735690D01*
X245189Y735281D01*
X245027Y734876D01*
X244855Y734475D01*
X244673Y734078D01*
X244482Y733686D01*
X244281Y733299D01*
X244070Y732916D01*
X243850Y732539D01*
X243621Y732168D01*
X243384Y731802D01*
X243137Y731442D01*
X242881Y731088D01*
X242617Y730741D01*
X242344Y730400D01*
X242063Y730067D01*
X241774Y729740D01*
X241477Y729420D01*
X241172Y729108D01*
X240860Y728803D01*
X240540Y728506D01*
X240213Y728217D01*
X239880Y727936D01*
X239539Y727663D01*
X239192Y727399D01*
X238838Y727143D01*
X238478Y726896D01*
X238112Y726659D01*
X237741Y726430D01*
X237364Y726210D01*
X236981Y725999D01*
X236594Y725798D01*
X236202Y725607D01*
X235805Y725425D01*
X235404Y725253D01*
X234999Y725091D01*
X234590Y724939D01*
X234177Y724797D01*
X233761Y724666D01*
X233342Y724544D01*
X232920Y724433D01*
X232496Y724332D01*
X232069Y724242D01*
X231640Y724162D01*
X231209Y724092D01*
X230776Y724034D01*
X230343Y723986D01*
X229908Y723948D01*
X229472Y723921D01*
X229036Y723905D01*
X228600Y723900D01*
X228164Y723905D01*
X227728Y723921D01*
X227292Y723948D01*
X226857Y723986D01*
X226424Y724034D01*
X225991Y724092D01*
X225560Y724162D01*
X225131Y724242D01*
X224704Y724332D01*
X224280Y724433D01*
X223858Y724544D01*
X223439Y724666D01*
X223023Y724797D01*
X222610Y724939D01*
X222201Y725091D01*
X221796Y725253D01*
X221395Y725425D01*
X220998Y725607D01*
X220606Y725798D01*
X220219Y725999D01*
X219836Y726210D01*
X219459Y726430D01*
X219088Y726659D01*
X218722Y726896D01*
X218362Y727143D01*
X218008Y727399D01*
X217661Y727663D01*
X217320Y727936D01*
X216987Y728217D01*
X216660Y728506D01*
X216340Y728803D01*
X216028Y729108D01*
X215723Y729420D01*
X215426Y729740D01*
X215137Y730067D01*
X214856Y730400D01*
X214583Y730741D01*
X214319Y731088D01*
X214063Y731442D01*
X213816Y731802D01*
X213579Y732168D01*
X213350Y732539D01*
X213130Y732916D01*
X212919Y733299D01*
X212718Y733686D01*
X212527Y734078D01*
X212345Y734475D01*
X212173Y734876D01*
X212011Y735281D01*
X211859Y735690D01*
X211717Y736103D01*
X211586Y736519D01*
X211464Y736938D01*
X211353Y737360D01*
X211252Y737784D01*
X211162Y738211D01*
X211082Y738640D01*
X211012Y739071D01*
X210954Y739504D01*
X210906Y739937D01*
X210868Y740372D01*
X210841Y740808D01*
X210825Y741244D01*
X210820Y741680D01*
X226060Y741680D02*
X226062Y741780D01*
X226068Y741881D01*
X226078Y741980D01*
X226092Y742080D01*
X226109Y742179D01*
X226131Y742277D01*
X226157Y742374D01*
X226186Y742470D01*
X226219Y742564D01*
X226256Y742658D01*
X226296Y742750D01*
X226340Y742840D01*
X226388Y742928D01*
X226439Y743015D01*
X226493Y743099D01*
X226551Y743181D01*
X226612Y743261D01*
X226676Y743338D01*
X226743Y743413D01*
X226813Y743485D01*
X226886Y743554D01*
X226961Y743620D01*
X227039Y743684D01*
X227119Y743744D01*
X227202Y743801D01*
X227287Y743854D01*
X227374Y743904D01*
X227463Y743951D01*
X227553Y743994D01*
X227645Y744034D01*
X227739Y744070D01*
X227834Y744102D01*
X227930Y744130D01*
X228028Y744155D01*
X228126Y744175D01*
X228225Y744192D01*
X228325Y744205D01*
X228424Y744214D01*
X228525Y744219D01*
X228625Y744220D01*
X228725Y744217D01*
X228826Y744210D01*
X228925Y744199D01*
X229025Y744184D01*
X229123Y744166D01*
X229221Y744143D01*
X229318Y744116D01*
X229413Y744086D01*
X229508Y744052D01*
X229601Y744014D01*
X229692Y743973D01*
X229782Y743928D01*
X229870Y743880D01*
X229956Y743828D01*
X230040Y743773D01*
X230121Y743714D01*
X230200Y743652D01*
X230277Y743588D01*
X230351Y743520D01*
X230422Y743449D01*
X230491Y743376D01*
X230556Y743300D01*
X230619Y743221D01*
X230678Y743140D01*
X230734Y743057D01*
X230787Y742972D01*
X230836Y742884D01*
X230882Y742795D01*
X230924Y742704D01*
X230963Y742611D01*
X230998Y742517D01*
X231029Y742422D01*
X231057Y742325D01*
X231080Y742228D01*
X231100Y742129D01*
X231116Y742030D01*
X231128Y741931D01*
X231136Y741830D01*
X231140Y741730D01*
X231140Y741630D01*
X231136Y741530D01*
X231128Y741429D01*
X231116Y741330D01*
X231100Y741231D01*
X231080Y741132D01*
X231057Y741035D01*
X231029Y740938D01*
X230998Y740843D01*
X230963Y740749D01*
X230924Y740656D01*
X230882Y740565D01*
X230836Y740476D01*
X230787Y740388D01*
X230734Y740303D01*
X230678Y740220D01*
X230619Y740139D01*
X230556Y740060D01*
X230491Y739984D01*
X230422Y739911D01*
X230351Y739840D01*
X230277Y739772D01*
X230200Y739708D01*
X230121Y739646D01*
X230040Y739587D01*
X229956Y739532D01*
X229870Y739480D01*
X229782Y739432D01*
X229692Y739387D01*
X229601Y739346D01*
X229508Y739308D01*
X229413Y739274D01*
X229318Y739244D01*
X229221Y739217D01*
X229123Y739194D01*
X229025Y739176D01*
X228925Y739161D01*
X228826Y739150D01*
X228725Y739143D01*
X228625Y739140D01*
X228525Y739141D01*
X228424Y739146D01*
X228325Y739155D01*
X228225Y739168D01*
X228126Y739185D01*
X228028Y739205D01*
X227930Y739230D01*
X227834Y739258D01*
X227739Y739290D01*
X227645Y739326D01*
X227553Y739366D01*
X227463Y739409D01*
X227374Y739456D01*
X227287Y739506D01*
X227202Y739559D01*
X227119Y739616D01*
X227039Y739676D01*
X226961Y739740D01*
X226886Y739806D01*
X226813Y739875D01*
X226743Y739947D01*
X226676Y740022D01*
X226612Y740099D01*
X226551Y740179D01*
X226493Y740261D01*
X226439Y740345D01*
X226388Y740432D01*
X226340Y740520D01*
X226296Y740610D01*
X226256Y740702D01*
X226219Y740796D01*
X226186Y740890D01*
X226157Y740986D01*
X226131Y741083D01*
X226109Y741181D01*
X226092Y741280D01*
X226078Y741380D01*
X226068Y741479D01*
X226062Y741580D01*
X226060Y741680D01*
D14*
X182245Y737616D02*
X182145Y737614D01*
X182046Y737608D01*
X181946Y737598D01*
X181848Y737585D01*
X181749Y737567D01*
X181652Y737546D01*
X181556Y737521D01*
X181460Y737492D01*
X181366Y737459D01*
X181273Y737423D01*
X181182Y737383D01*
X181092Y737339D01*
X181004Y737292D01*
X180918Y737242D01*
X180834Y737188D01*
X180752Y737131D01*
X180673Y737071D01*
X180595Y737007D01*
X180521Y736941D01*
X180449Y736872D01*
X180380Y736800D01*
X180314Y736726D01*
X180250Y736648D01*
X180190Y736569D01*
X180133Y736487D01*
X180079Y736403D01*
X180029Y736317D01*
X179982Y736229D01*
X179938Y736139D01*
X179898Y736048D01*
X179862Y735955D01*
X179829Y735861D01*
X179800Y735765D01*
X179775Y735669D01*
X179754Y735572D01*
X179736Y735473D01*
X179723Y735375D01*
X179713Y735275D01*
X179707Y735176D01*
X179705Y735076D01*
X179707Y734935D01*
X179712Y734794D01*
X179722Y734653D01*
X179735Y734512D01*
X179751Y734372D01*
X179772Y734232D01*
X179796Y734093D01*
X179824Y733954D01*
X179855Y733817D01*
X179890Y733680D01*
X179928Y733544D01*
X179970Y733409D01*
X180016Y733276D01*
X180065Y733143D01*
X180118Y733012D01*
X180174Y732883D01*
X180233Y732754D01*
X180296Y732628D01*
X180362Y732503D01*
X180431Y732380D01*
X180504Y732259D01*
X180580Y732140D01*
X180659Y732022D01*
X180740Y731907D01*
X180825Y731795D01*
X180913Y731684D01*
X181004Y731576D01*
X181097Y731470D01*
X181194Y731367D01*
X181293Y731266D01*
X188595Y731584D02*
X188695Y731586D01*
X188794Y731592D01*
X188894Y731602D01*
X188992Y731615D01*
X189091Y731633D01*
X189188Y731654D01*
X189284Y731679D01*
X189380Y731708D01*
X189474Y731741D01*
X189567Y731777D01*
X189658Y731817D01*
X189748Y731861D01*
X189836Y731908D01*
X189922Y731958D01*
X190006Y732012D01*
X190088Y732069D01*
X190167Y732129D01*
X190245Y732193D01*
X190319Y732259D01*
X190391Y732328D01*
X190460Y732400D01*
X190526Y732474D01*
X190590Y732552D01*
X190650Y732631D01*
X190707Y732713D01*
X190761Y732797D01*
X190811Y732883D01*
X190858Y732971D01*
X190902Y733061D01*
X190942Y733152D01*
X190978Y733245D01*
X191011Y733339D01*
X191040Y733435D01*
X191065Y733531D01*
X191086Y733628D01*
X191104Y733727D01*
X191117Y733825D01*
X191127Y733925D01*
X191133Y734024D01*
X191135Y734124D01*
X191136Y734124D02*
X191134Y734257D01*
X191129Y734390D01*
X191119Y734523D01*
X191106Y734656D01*
X191089Y734788D01*
X191069Y734920D01*
X191045Y735051D01*
X191017Y735181D01*
X190986Y735311D01*
X190951Y735439D01*
X190912Y735567D01*
X190870Y735693D01*
X190824Y735818D01*
X190775Y735942D01*
X190723Y736065D01*
X190667Y736186D01*
X190607Y736305D01*
X190545Y736423D01*
X190479Y736538D01*
X190410Y736652D01*
X190337Y736764D01*
X190262Y736874D01*
X190183Y736982D01*
X186372Y732853D02*
X186424Y732769D01*
X186479Y732686D01*
X186538Y732606D01*
X186599Y732528D01*
X186663Y732453D01*
X186731Y732380D01*
X186801Y732309D01*
X186873Y732242D01*
X186948Y732177D01*
X187026Y732115D01*
X187106Y732056D01*
X187188Y732000D01*
X187272Y731948D01*
X187358Y731899D01*
X187446Y731853D01*
X187536Y731810D01*
X187627Y731771D01*
X187720Y731736D01*
X187814Y731704D01*
X187909Y731676D01*
X188005Y731651D01*
X188102Y731631D01*
X188200Y731613D01*
X188298Y731600D01*
X188397Y731591D01*
X188496Y731585D01*
X188595Y731583D01*
X184468Y736346D02*
X184416Y736430D01*
X184361Y736513D01*
X184302Y736593D01*
X184241Y736671D01*
X184177Y736746D01*
X184109Y736819D01*
X184039Y736890D01*
X183967Y736957D01*
X183892Y737022D01*
X183814Y737084D01*
X183734Y737143D01*
X183652Y737199D01*
X183568Y737251D01*
X183482Y737300D01*
X183394Y737346D01*
X183304Y737389D01*
X183213Y737428D01*
X183120Y737463D01*
X183026Y737495D01*
X182931Y737523D01*
X182835Y737548D01*
X182738Y737568D01*
X182640Y737586D01*
X182542Y737599D01*
X182443Y737608D01*
X182344Y737614D01*
X182245Y737616D01*
X184468Y736346D02*
X186373Y732854D01*
X188595Y742315D02*
X191135Y745490D01*
X179705Y745490D01*
X179705Y742315D02*
X179705Y748665D01*
M02*
