G04 EAGLE Gerber RS-274X export*
G75*
%MOMM*%
%FSLAX34Y34*%
%LPD*%
%INSilkscreen Top*%
%IPPOS*%
%AMOC8*
5,1,8,0,0,1.08239X$1,22.5*%
G01*
%ADD10C,0.127000*%
%ADD11C,0.101600*%
%ADD12C,0.076200*%
%ADD13C,0.025400*%
%ADD14C,0.609600*%
%ADD15C,0.203200*%
%ADD16C,0.152400*%


D10*
X84711Y445243D02*
X84711Y448206D01*
X84709Y448295D01*
X84703Y448383D01*
X84693Y448471D01*
X84679Y448559D01*
X84661Y448646D01*
X84640Y448732D01*
X84614Y448817D01*
X84585Y448900D01*
X84552Y448983D01*
X84515Y449063D01*
X84475Y449142D01*
X84431Y449219D01*
X84384Y449295D01*
X84334Y449367D01*
X84280Y449438D01*
X84223Y449506D01*
X84163Y449572D01*
X84101Y449634D01*
X84035Y449694D01*
X83967Y449751D01*
X83896Y449805D01*
X83824Y449855D01*
X83749Y449902D01*
X83671Y449946D01*
X83592Y449986D01*
X83512Y450023D01*
X83429Y450056D01*
X83346Y450085D01*
X83261Y450111D01*
X83175Y450132D01*
X83088Y450150D01*
X83000Y450164D01*
X82912Y450174D01*
X82824Y450180D01*
X82735Y450182D01*
X81748Y450182D01*
X81662Y450180D01*
X81576Y450174D01*
X81490Y450165D01*
X81405Y450152D01*
X81320Y450135D01*
X81237Y450115D01*
X81154Y450091D01*
X81072Y450063D01*
X80992Y450032D01*
X80913Y449997D01*
X80836Y449959D01*
X80760Y449917D01*
X80686Y449873D01*
X80615Y449825D01*
X80545Y449774D01*
X80478Y449720D01*
X80413Y449663D01*
X80351Y449603D01*
X80291Y449541D01*
X80234Y449476D01*
X80180Y449409D01*
X80129Y449339D01*
X80081Y449268D01*
X80037Y449194D01*
X79995Y449118D01*
X79957Y449041D01*
X79922Y448962D01*
X79891Y448882D01*
X79863Y448800D01*
X79839Y448717D01*
X79819Y448634D01*
X79802Y448549D01*
X79789Y448464D01*
X79780Y448378D01*
X79774Y448292D01*
X79772Y448206D01*
X79772Y445243D01*
X75821Y445243D01*
X75821Y450182D01*
X75821Y453893D02*
X84711Y456856D01*
X75821Y459820D01*
X231767Y446426D02*
X231767Y444944D01*
X231767Y446426D02*
X236706Y446426D01*
X236706Y443462D01*
X236704Y443373D01*
X236698Y443285D01*
X236688Y443197D01*
X236674Y443109D01*
X236656Y443022D01*
X236635Y442936D01*
X236609Y442851D01*
X236580Y442768D01*
X236547Y442685D01*
X236510Y442605D01*
X236470Y442526D01*
X236426Y442449D01*
X236379Y442373D01*
X236329Y442301D01*
X236275Y442230D01*
X236218Y442162D01*
X236158Y442096D01*
X236096Y442034D01*
X236030Y441974D01*
X235962Y441917D01*
X235891Y441863D01*
X235819Y441813D01*
X235744Y441766D01*
X235666Y441722D01*
X235587Y441682D01*
X235507Y441645D01*
X235424Y441612D01*
X235341Y441583D01*
X235256Y441557D01*
X235170Y441536D01*
X235083Y441518D01*
X234995Y441504D01*
X234907Y441494D01*
X234819Y441488D01*
X234730Y441486D01*
X234730Y441487D02*
X229791Y441487D01*
X229791Y441486D02*
X229702Y441488D01*
X229614Y441494D01*
X229526Y441504D01*
X229438Y441518D01*
X229351Y441536D01*
X229265Y441557D01*
X229180Y441583D01*
X229097Y441612D01*
X229014Y441645D01*
X228934Y441682D01*
X228855Y441722D01*
X228778Y441766D01*
X228702Y441813D01*
X228630Y441863D01*
X228559Y441917D01*
X228491Y441974D01*
X228425Y442034D01*
X228363Y442096D01*
X228303Y442162D01*
X228246Y442230D01*
X228192Y442301D01*
X228142Y442373D01*
X228095Y442448D01*
X228051Y442526D01*
X228011Y442605D01*
X227974Y442685D01*
X227941Y442768D01*
X227912Y442851D01*
X227886Y442936D01*
X227865Y443022D01*
X227847Y443109D01*
X227833Y443197D01*
X227823Y443285D01*
X227817Y443373D01*
X227815Y443462D01*
X227816Y443462D02*
X227816Y446426D01*
X227816Y451240D02*
X236706Y451240D01*
X236706Y456179D02*
X227816Y451240D01*
X227816Y456179D02*
X236706Y456179D01*
X236706Y460994D02*
X227816Y460994D01*
X227816Y463463D01*
X227818Y463560D01*
X227824Y463657D01*
X227833Y463753D01*
X227846Y463849D01*
X227863Y463945D01*
X227884Y464039D01*
X227909Y464133D01*
X227937Y464226D01*
X227969Y464318D01*
X228004Y464408D01*
X228043Y464497D01*
X228085Y464584D01*
X228131Y464669D01*
X228180Y464753D01*
X228232Y464835D01*
X228288Y464914D01*
X228346Y464992D01*
X228408Y465066D01*
X228472Y465139D01*
X228539Y465209D01*
X228609Y465276D01*
X228682Y465340D01*
X228756Y465402D01*
X228834Y465460D01*
X228913Y465516D01*
X228995Y465568D01*
X229079Y465617D01*
X229164Y465663D01*
X229251Y465705D01*
X229340Y465744D01*
X229430Y465779D01*
X229522Y465811D01*
X229615Y465839D01*
X229709Y465864D01*
X229803Y465885D01*
X229899Y465902D01*
X229995Y465915D01*
X230091Y465924D01*
X230188Y465930D01*
X230285Y465932D01*
X230285Y465933D02*
X234236Y465933D01*
X234236Y465932D02*
X234333Y465930D01*
X234430Y465924D01*
X234526Y465915D01*
X234622Y465902D01*
X234718Y465885D01*
X234812Y465864D01*
X234906Y465839D01*
X234999Y465811D01*
X235091Y465779D01*
X235181Y465744D01*
X235270Y465705D01*
X235357Y465663D01*
X235442Y465617D01*
X235526Y465568D01*
X235608Y465516D01*
X235687Y465460D01*
X235765Y465402D01*
X235839Y465340D01*
X235912Y465276D01*
X235982Y465209D01*
X236049Y465139D01*
X236113Y465066D01*
X236175Y464992D01*
X236233Y464914D01*
X236289Y464835D01*
X236341Y464753D01*
X236390Y464669D01*
X236436Y464584D01*
X236478Y464497D01*
X236517Y464408D01*
X236552Y464318D01*
X236584Y464226D01*
X236612Y464133D01*
X236637Y464039D01*
X236658Y463945D01*
X236675Y463849D01*
X236688Y463753D01*
X236697Y463657D01*
X236703Y463560D01*
X236705Y463463D01*
X236706Y463463D02*
X236706Y460994D01*
D11*
X11458Y38014D02*
X11458Y34346D01*
X11458Y38014D02*
X11460Y38134D01*
X11466Y38254D01*
X11476Y38374D01*
X11489Y38493D01*
X11507Y38612D01*
X11528Y38730D01*
X11554Y38847D01*
X11583Y38964D01*
X11616Y39079D01*
X11653Y39193D01*
X11693Y39306D01*
X11737Y39418D01*
X11785Y39528D01*
X11836Y39637D01*
X11891Y39744D01*
X11950Y39848D01*
X12011Y39951D01*
X12076Y40052D01*
X12145Y40151D01*
X12216Y40248D01*
X12291Y40342D01*
X12368Y40433D01*
X12449Y40522D01*
X12533Y40608D01*
X12619Y40692D01*
X12708Y40773D01*
X12799Y40850D01*
X12893Y40925D01*
X12990Y40996D01*
X13089Y41065D01*
X13190Y41130D01*
X13293Y41191D01*
X13397Y41250D01*
X13504Y41305D01*
X13613Y41356D01*
X13723Y41404D01*
X13835Y41448D01*
X13948Y41488D01*
X14062Y41525D01*
X14177Y41558D01*
X14294Y41587D01*
X14411Y41613D01*
X14529Y41634D01*
X14648Y41652D01*
X14767Y41665D01*
X14887Y41675D01*
X15007Y41681D01*
X15127Y41683D01*
X15247Y41681D01*
X15367Y41675D01*
X15487Y41665D01*
X15606Y41652D01*
X15725Y41634D01*
X15843Y41613D01*
X15960Y41587D01*
X16077Y41558D01*
X16192Y41525D01*
X16306Y41488D01*
X16419Y41448D01*
X16531Y41404D01*
X16641Y41356D01*
X16750Y41305D01*
X16857Y41250D01*
X16962Y41191D01*
X17064Y41130D01*
X17165Y41065D01*
X17264Y40996D01*
X17361Y40925D01*
X17455Y40850D01*
X17546Y40773D01*
X17635Y40692D01*
X17721Y40608D01*
X17805Y40522D01*
X17886Y40433D01*
X17963Y40342D01*
X18038Y40248D01*
X18109Y40151D01*
X18178Y40052D01*
X18243Y39951D01*
X18304Y39849D01*
X18363Y39744D01*
X18418Y39637D01*
X18469Y39528D01*
X18517Y39418D01*
X18561Y39306D01*
X18601Y39193D01*
X18638Y39079D01*
X18671Y38964D01*
X18700Y38847D01*
X18726Y38730D01*
X18747Y38612D01*
X18765Y38493D01*
X18778Y38374D01*
X18788Y38254D01*
X18794Y38134D01*
X18796Y38014D01*
X18796Y34346D01*
X5588Y34346D01*
X5588Y38014D01*
X5590Y38121D01*
X5596Y38228D01*
X5606Y38335D01*
X5619Y38441D01*
X5637Y38547D01*
X5658Y38652D01*
X5683Y38756D01*
X5712Y38860D01*
X5745Y38962D01*
X5782Y39062D01*
X5822Y39162D01*
X5866Y39260D01*
X5913Y39356D01*
X5964Y39450D01*
X6018Y39543D01*
X6075Y39633D01*
X6136Y39722D01*
X6200Y39808D01*
X6267Y39891D01*
X6337Y39973D01*
X6410Y40051D01*
X6486Y40127D01*
X6564Y40200D01*
X6646Y40270D01*
X6729Y40337D01*
X6815Y40401D01*
X6904Y40462D01*
X6994Y40519D01*
X7087Y40573D01*
X7181Y40624D01*
X7277Y40671D01*
X7375Y40715D01*
X7475Y40755D01*
X7575Y40792D01*
X7677Y40825D01*
X7781Y40854D01*
X7885Y40879D01*
X7990Y40900D01*
X8096Y40918D01*
X8202Y40931D01*
X8309Y40941D01*
X8416Y40947D01*
X8523Y40949D01*
X8630Y40947D01*
X8737Y40941D01*
X8844Y40931D01*
X8950Y40918D01*
X9056Y40900D01*
X9161Y40879D01*
X9265Y40854D01*
X9369Y40825D01*
X9471Y40792D01*
X9571Y40755D01*
X9671Y40715D01*
X9769Y40671D01*
X9865Y40624D01*
X9959Y40573D01*
X10052Y40519D01*
X10142Y40462D01*
X10231Y40401D01*
X10317Y40337D01*
X10400Y40270D01*
X10482Y40200D01*
X10560Y40127D01*
X10636Y40051D01*
X10709Y39973D01*
X10779Y39891D01*
X10846Y39808D01*
X10910Y39722D01*
X10971Y39633D01*
X11028Y39543D01*
X11082Y39450D01*
X11133Y39356D01*
X11180Y39260D01*
X11224Y39162D01*
X11264Y39062D01*
X11301Y38962D01*
X11334Y38860D01*
X11363Y38756D01*
X11388Y38652D01*
X11409Y38547D01*
X11427Y38441D01*
X11440Y38335D01*
X11450Y38228D01*
X11456Y38121D01*
X11458Y38014D01*
X5588Y46968D02*
X18796Y46968D01*
X11458Y46968D02*
X11458Y54305D01*
X5588Y54305D02*
X18796Y54305D01*
X18796Y67630D02*
X5588Y67630D01*
X5588Y71299D01*
X5590Y71419D01*
X5596Y71539D01*
X5606Y71659D01*
X5619Y71778D01*
X5637Y71897D01*
X5658Y72015D01*
X5684Y72132D01*
X5713Y72249D01*
X5746Y72364D01*
X5783Y72478D01*
X5823Y72591D01*
X5867Y72703D01*
X5915Y72813D01*
X5966Y72922D01*
X6021Y73029D01*
X6080Y73134D01*
X6141Y73236D01*
X6206Y73337D01*
X6275Y73436D01*
X6346Y73533D01*
X6421Y73627D01*
X6498Y73718D01*
X6579Y73807D01*
X6663Y73893D01*
X6749Y73977D01*
X6838Y74058D01*
X6929Y74135D01*
X7023Y74210D01*
X7120Y74281D01*
X7219Y74350D01*
X7320Y74415D01*
X7423Y74476D01*
X7527Y74535D01*
X7634Y74590D01*
X7743Y74641D01*
X7853Y74689D01*
X7965Y74733D01*
X8078Y74773D01*
X8192Y74810D01*
X8307Y74843D01*
X8424Y74872D01*
X8541Y74898D01*
X8659Y74919D01*
X8778Y74937D01*
X8897Y74950D01*
X9017Y74960D01*
X9137Y74966D01*
X9257Y74968D01*
X9377Y74966D01*
X9497Y74960D01*
X9617Y74950D01*
X9736Y74937D01*
X9855Y74919D01*
X9973Y74898D01*
X10090Y74872D01*
X10207Y74843D01*
X10322Y74810D01*
X10436Y74773D01*
X10549Y74733D01*
X10661Y74689D01*
X10771Y74641D01*
X10880Y74590D01*
X10987Y74535D01*
X11092Y74476D01*
X11194Y74415D01*
X11295Y74350D01*
X11394Y74281D01*
X11491Y74210D01*
X11585Y74135D01*
X11676Y74058D01*
X11765Y73977D01*
X11851Y73893D01*
X11935Y73807D01*
X12016Y73718D01*
X12093Y73627D01*
X12168Y73533D01*
X12239Y73436D01*
X12308Y73337D01*
X12373Y73236D01*
X12434Y73134D01*
X12493Y73029D01*
X12548Y72922D01*
X12599Y72813D01*
X12647Y72703D01*
X12691Y72591D01*
X12731Y72478D01*
X12768Y72364D01*
X12801Y72249D01*
X12830Y72132D01*
X12856Y72015D01*
X12877Y71897D01*
X12895Y71778D01*
X12908Y71659D01*
X12918Y71539D01*
X12924Y71419D01*
X12926Y71299D01*
X12926Y67630D01*
X5588Y79398D02*
X5588Y86736D01*
X18796Y79398D01*
X18796Y86736D01*
X18796Y92224D02*
X18796Y98094D01*
X18796Y92224D02*
X5588Y92224D01*
X5588Y98094D01*
X11458Y96626D02*
X11458Y92224D01*
X5588Y103414D02*
X18796Y103414D01*
X12926Y107817D02*
X5588Y103414D01*
X12926Y107817D02*
X5588Y112220D01*
X18796Y112220D01*
X18796Y127498D02*
X5588Y124563D01*
X9991Y130433D02*
X18796Y127498D01*
X18796Y133368D02*
X9991Y130433D01*
X5588Y136303D02*
X18796Y133368D01*
X18796Y142381D02*
X5588Y142381D01*
X18796Y140914D02*
X18796Y143849D01*
X5588Y143849D02*
X5588Y140914D01*
X13660Y149073D02*
X13660Y157879D01*
X18796Y163913D02*
X5588Y163913D01*
X5588Y169783D01*
X11458Y169783D02*
X11458Y163913D01*
X9991Y174385D02*
X18796Y174385D01*
X6322Y174018D02*
X5588Y174018D01*
X5588Y174752D01*
X6322Y174752D01*
X6322Y174018D01*
D12*
X26374Y137541D02*
X32639Y137541D01*
X26374Y137541D02*
X26374Y140674D01*
X27418Y140674D01*
X32639Y145152D02*
X32639Y147762D01*
X32639Y145152D02*
X32637Y145075D01*
X32631Y144999D01*
X32622Y144922D01*
X32609Y144846D01*
X32592Y144771D01*
X32572Y144697D01*
X32547Y144624D01*
X32520Y144553D01*
X32489Y144482D01*
X32454Y144414D01*
X32416Y144347D01*
X32375Y144282D01*
X32331Y144219D01*
X32284Y144159D01*
X32233Y144100D01*
X32180Y144045D01*
X32125Y143992D01*
X32066Y143941D01*
X32006Y143894D01*
X31943Y143850D01*
X31878Y143809D01*
X31811Y143771D01*
X31743Y143736D01*
X31672Y143705D01*
X31601Y143678D01*
X31528Y143653D01*
X31454Y143633D01*
X31379Y143616D01*
X31303Y143603D01*
X31226Y143594D01*
X31150Y143588D01*
X31073Y143586D01*
X28462Y143586D01*
X28372Y143588D01*
X28283Y143594D01*
X28193Y143603D01*
X28104Y143617D01*
X28016Y143634D01*
X27929Y143655D01*
X27842Y143680D01*
X27757Y143709D01*
X27673Y143741D01*
X27591Y143776D01*
X27510Y143816D01*
X27431Y143858D01*
X27354Y143904D01*
X27279Y143954D01*
X27206Y144006D01*
X27135Y144062D01*
X27067Y144120D01*
X27002Y144182D01*
X26939Y144246D01*
X26879Y144313D01*
X26822Y144382D01*
X26768Y144454D01*
X26717Y144528D01*
X26669Y144604D01*
X26625Y144682D01*
X26584Y144762D01*
X26546Y144844D01*
X26512Y144927D01*
X26482Y145012D01*
X26455Y145098D01*
X26432Y145184D01*
X26413Y145272D01*
X26398Y145361D01*
X26386Y145450D01*
X26378Y145539D01*
X26374Y145629D01*
X26374Y145719D01*
X26378Y145809D01*
X26386Y145898D01*
X26398Y145987D01*
X26413Y146076D01*
X26432Y146164D01*
X26455Y146250D01*
X26482Y146336D01*
X26512Y146421D01*
X26546Y146504D01*
X26584Y146586D01*
X26625Y146666D01*
X26669Y146744D01*
X26717Y146820D01*
X26768Y146894D01*
X26822Y146966D01*
X26879Y147035D01*
X26939Y147102D01*
X27002Y147166D01*
X27067Y147228D01*
X27135Y147286D01*
X27206Y147342D01*
X27279Y147394D01*
X27354Y147444D01*
X27431Y147490D01*
X27510Y147532D01*
X27591Y147572D01*
X27673Y147607D01*
X27757Y147639D01*
X27842Y147668D01*
X27929Y147693D01*
X28016Y147714D01*
X28104Y147731D01*
X28193Y147745D01*
X28283Y147754D01*
X28372Y147760D01*
X28462Y147762D01*
X29506Y147762D01*
X29506Y143586D01*
X26374Y151205D02*
X32639Y153294D01*
X26374Y155382D01*
X23241Y161784D02*
X23243Y161879D01*
X23249Y161973D01*
X23258Y162067D01*
X23271Y162161D01*
X23288Y162254D01*
X23309Y162346D01*
X23334Y162438D01*
X23362Y162528D01*
X23394Y162617D01*
X23429Y162705D01*
X23468Y162791D01*
X23510Y162876D01*
X23556Y162959D01*
X23605Y163040D01*
X23657Y163119D01*
X23712Y163196D01*
X23771Y163270D01*
X23832Y163342D01*
X23896Y163412D01*
X23963Y163479D01*
X24033Y163543D01*
X24105Y163604D01*
X24179Y163663D01*
X24256Y163718D01*
X24335Y163770D01*
X24416Y163819D01*
X24499Y163865D01*
X24584Y163907D01*
X24670Y163946D01*
X24758Y163981D01*
X24847Y164013D01*
X24937Y164041D01*
X25029Y164066D01*
X25121Y164087D01*
X25214Y164104D01*
X25308Y164117D01*
X25402Y164126D01*
X25496Y164132D01*
X25591Y164134D01*
X23241Y161784D02*
X23243Y161676D01*
X23249Y161567D01*
X23259Y161459D01*
X23272Y161352D01*
X23290Y161245D01*
X23311Y161138D01*
X23336Y161033D01*
X23365Y160928D01*
X23397Y160825D01*
X23434Y160723D01*
X23474Y160622D01*
X23517Y160523D01*
X23564Y160425D01*
X23615Y160329D01*
X23669Y160235D01*
X23726Y160143D01*
X23787Y160053D01*
X23851Y159965D01*
X23917Y159880D01*
X23987Y159797D01*
X24060Y159717D01*
X24136Y159639D01*
X24214Y159564D01*
X24295Y159492D01*
X24379Y159423D01*
X24465Y159357D01*
X24553Y159294D01*
X24644Y159235D01*
X24736Y159178D01*
X24831Y159125D01*
X24928Y159076D01*
X25026Y159030D01*
X25125Y158987D01*
X25227Y158948D01*
X25329Y158913D01*
X27419Y163351D02*
X27350Y163420D01*
X27279Y163486D01*
X27206Y163550D01*
X27130Y163611D01*
X27051Y163669D01*
X26971Y163723D01*
X26888Y163775D01*
X26804Y163823D01*
X26718Y163869D01*
X26630Y163910D01*
X26540Y163949D01*
X26449Y163984D01*
X26357Y164015D01*
X26264Y164043D01*
X26170Y164067D01*
X26075Y164087D01*
X25979Y164104D01*
X25882Y164117D01*
X25785Y164126D01*
X25688Y164132D01*
X25591Y164134D01*
X27418Y163351D02*
X32639Y158913D01*
X32639Y164134D01*
X32639Y167663D02*
X32117Y167663D01*
X32117Y168185D01*
X32639Y168185D01*
X32639Y167663D01*
X27940Y171714D02*
X27755Y171716D01*
X27570Y171723D01*
X27386Y171734D01*
X27202Y171749D01*
X27018Y171769D01*
X26834Y171793D01*
X26652Y171822D01*
X26470Y171855D01*
X26289Y171892D01*
X26109Y171934D01*
X25929Y171980D01*
X25751Y172030D01*
X25575Y172084D01*
X25399Y172143D01*
X25225Y172205D01*
X25053Y172272D01*
X24882Y172343D01*
X24713Y172418D01*
X24546Y172497D01*
X24466Y172527D01*
X24387Y172560D01*
X24310Y172597D01*
X24234Y172637D01*
X24160Y172680D01*
X24088Y172726D01*
X24019Y172776D01*
X23951Y172828D01*
X23886Y172884D01*
X23823Y172942D01*
X23764Y173004D01*
X23706Y173067D01*
X23652Y173134D01*
X23601Y173202D01*
X23553Y173273D01*
X23508Y173346D01*
X23466Y173420D01*
X23428Y173497D01*
X23393Y173575D01*
X23361Y173654D01*
X23333Y173735D01*
X23309Y173817D01*
X23288Y173901D01*
X23271Y173984D01*
X23258Y174069D01*
X23249Y174154D01*
X23243Y174239D01*
X23241Y174325D01*
X23243Y174411D01*
X23249Y174496D01*
X23258Y174581D01*
X23271Y174666D01*
X23288Y174749D01*
X23309Y174833D01*
X23333Y174915D01*
X23361Y174996D01*
X23393Y175075D01*
X23428Y175153D01*
X23466Y175230D01*
X23508Y175304D01*
X23553Y175377D01*
X23601Y175448D01*
X23652Y175516D01*
X23706Y175583D01*
X23764Y175646D01*
X23823Y175708D01*
X23886Y175766D01*
X23951Y175822D01*
X24019Y175874D01*
X24088Y175924D01*
X24160Y175970D01*
X24234Y176013D01*
X24310Y176053D01*
X24387Y176090D01*
X24466Y176123D01*
X24546Y176153D01*
X24713Y176232D01*
X24882Y176307D01*
X25053Y176378D01*
X25225Y176445D01*
X25399Y176507D01*
X25575Y176566D01*
X25751Y176620D01*
X25929Y176670D01*
X26109Y176716D01*
X26289Y176758D01*
X26470Y176795D01*
X26652Y176828D01*
X26834Y176857D01*
X27018Y176881D01*
X27202Y176901D01*
X27386Y176916D01*
X27570Y176927D01*
X27755Y176934D01*
X27940Y176936D01*
X27940Y171714D02*
X28125Y171716D01*
X28310Y171723D01*
X28494Y171734D01*
X28678Y171749D01*
X28862Y171769D01*
X29046Y171793D01*
X29228Y171822D01*
X29410Y171855D01*
X29591Y171892D01*
X29771Y171934D01*
X29951Y171980D01*
X30129Y172030D01*
X30305Y172084D01*
X30481Y172143D01*
X30655Y172205D01*
X30827Y172272D01*
X30998Y172343D01*
X31167Y172418D01*
X31334Y172497D01*
X31414Y172527D01*
X31493Y172560D01*
X31570Y172597D01*
X31646Y172637D01*
X31720Y172680D01*
X31792Y172726D01*
X31861Y172776D01*
X31929Y172829D01*
X31994Y172884D01*
X32057Y172943D01*
X32116Y173004D01*
X32174Y173067D01*
X32228Y173134D01*
X32279Y173202D01*
X32327Y173273D01*
X32372Y173346D01*
X32414Y173420D01*
X32452Y173497D01*
X32487Y173575D01*
X32519Y173654D01*
X32547Y173735D01*
X32571Y173817D01*
X32592Y173901D01*
X32609Y173984D01*
X32622Y174069D01*
X32631Y174154D01*
X32637Y174239D01*
X32639Y174325D01*
X31334Y176153D02*
X31167Y176232D01*
X30998Y176307D01*
X30827Y176378D01*
X30655Y176445D01*
X30481Y176507D01*
X30305Y176566D01*
X30129Y176620D01*
X29951Y176670D01*
X29771Y176716D01*
X29591Y176758D01*
X29410Y176795D01*
X29228Y176828D01*
X29046Y176857D01*
X28862Y176881D01*
X28678Y176901D01*
X28494Y176916D01*
X28310Y176927D01*
X28125Y176934D01*
X27940Y176936D01*
X31334Y176153D02*
X31414Y176123D01*
X31493Y176090D01*
X31570Y176053D01*
X31646Y176013D01*
X31720Y175970D01*
X31792Y175924D01*
X31861Y175874D01*
X31929Y175822D01*
X31994Y175766D01*
X32057Y175708D01*
X32116Y175646D01*
X32174Y175583D01*
X32228Y175516D01*
X32279Y175448D01*
X32327Y175377D01*
X32372Y175304D01*
X32414Y175230D01*
X32452Y175153D01*
X32487Y175075D01*
X32519Y174996D01*
X32547Y174915D01*
X32571Y174833D01*
X32592Y174749D01*
X32609Y174666D01*
X32622Y174581D01*
X32631Y174496D01*
X32637Y174411D01*
X32639Y174325D01*
X30551Y172237D02*
X25329Y176413D01*
D13*
X320590Y70824D02*
X320645Y70822D01*
X320701Y70817D01*
X320755Y70808D01*
X320809Y70795D01*
X320862Y70779D01*
X320914Y70760D01*
X320965Y70737D01*
X321014Y70711D01*
X321061Y70681D01*
X321106Y70649D01*
X321148Y70614D01*
X321189Y70576D01*
X321227Y70535D01*
X321262Y70493D01*
X321294Y70448D01*
X321324Y70401D01*
X321350Y70352D01*
X321373Y70301D01*
X321392Y70249D01*
X321408Y70196D01*
X321421Y70142D01*
X321430Y70088D01*
X321435Y70032D01*
X321437Y69977D01*
X321435Y69894D01*
X321429Y69811D01*
X321420Y69729D01*
X321406Y69647D01*
X321389Y69565D01*
X321368Y69485D01*
X321343Y69406D01*
X321315Y69327D01*
X321283Y69251D01*
X321247Y69176D01*
X321209Y69102D01*
X321166Y69031D01*
X321121Y68961D01*
X321072Y68894D01*
X321020Y68829D01*
X320965Y68767D01*
X320908Y68707D01*
X318474Y68813D02*
X318419Y68815D01*
X318363Y68820D01*
X318309Y68829D01*
X318255Y68842D01*
X318202Y68858D01*
X318150Y68877D01*
X318099Y68900D01*
X318051Y68926D01*
X318003Y68956D01*
X317958Y68988D01*
X317916Y69023D01*
X317875Y69061D01*
X317837Y69102D01*
X317802Y69144D01*
X317770Y69189D01*
X317740Y69237D01*
X317714Y69285D01*
X317691Y69336D01*
X317672Y69388D01*
X317656Y69441D01*
X317643Y69495D01*
X317634Y69549D01*
X317629Y69605D01*
X317627Y69660D01*
X317629Y69739D01*
X317635Y69817D01*
X317644Y69895D01*
X317658Y69972D01*
X317675Y70049D01*
X317697Y70125D01*
X317721Y70199D01*
X317750Y70273D01*
X317782Y70344D01*
X317818Y70414D01*
X317857Y70483D01*
X317899Y70549D01*
X317945Y70613D01*
X319215Y69236D02*
X319185Y69189D01*
X319152Y69144D01*
X319116Y69101D01*
X319078Y69061D01*
X319037Y69023D01*
X318994Y68988D01*
X318948Y68956D01*
X318901Y68926D01*
X318851Y68900D01*
X318800Y68877D01*
X318748Y68858D01*
X318695Y68842D01*
X318640Y68829D01*
X318585Y68820D01*
X318530Y68815D01*
X318474Y68813D01*
X319849Y70401D02*
X319879Y70448D01*
X319912Y70493D01*
X319948Y70536D01*
X319986Y70576D01*
X320027Y70614D01*
X320070Y70649D01*
X320116Y70681D01*
X320163Y70711D01*
X320213Y70737D01*
X320264Y70760D01*
X320316Y70779D01*
X320369Y70795D01*
X320424Y70808D01*
X320479Y70817D01*
X320534Y70822D01*
X320590Y70824D01*
X319850Y70400D02*
X319215Y69236D01*
X317627Y72569D02*
X321437Y72569D01*
X321437Y72146D02*
X321437Y72993D01*
X317627Y72993D02*
X317627Y72146D01*
X319320Y76041D02*
X319320Y76676D01*
X321437Y76676D01*
X321437Y75406D01*
X321435Y75348D01*
X321429Y75291D01*
X321419Y75234D01*
X321406Y75177D01*
X321388Y75122D01*
X321367Y75069D01*
X321342Y75016D01*
X321314Y74966D01*
X321282Y74918D01*
X321247Y74871D01*
X321209Y74828D01*
X321168Y74787D01*
X321125Y74749D01*
X321078Y74714D01*
X321030Y74682D01*
X320980Y74654D01*
X320927Y74629D01*
X320874Y74608D01*
X320819Y74590D01*
X320762Y74577D01*
X320705Y74567D01*
X320648Y74561D01*
X320590Y74559D01*
X318474Y74559D01*
X318416Y74561D01*
X318359Y74567D01*
X318302Y74577D01*
X318245Y74590D01*
X318190Y74608D01*
X318137Y74629D01*
X318084Y74654D01*
X318034Y74682D01*
X317986Y74714D01*
X317939Y74749D01*
X317896Y74787D01*
X317855Y74828D01*
X317817Y74871D01*
X317782Y74918D01*
X317750Y74966D01*
X317722Y75016D01*
X317697Y75069D01*
X317676Y75122D01*
X317658Y75177D01*
X317645Y75234D01*
X317635Y75291D01*
X317629Y75348D01*
X317627Y75406D01*
X317627Y76676D01*
X317627Y78461D02*
X321437Y78461D01*
X321437Y80577D02*
X317627Y78461D01*
X317627Y80577D02*
X321437Y80577D01*
X321437Y82028D02*
X317627Y83298D01*
X321437Y84568D01*
X320485Y84251D02*
X320485Y82346D01*
X321437Y86026D02*
X317627Y86026D01*
X321437Y86026D02*
X321437Y87719D01*
X325416Y73538D02*
X325416Y72903D01*
X325416Y73538D02*
X327533Y73538D01*
X327533Y72268D01*
X327531Y72210D01*
X327525Y72153D01*
X327515Y72096D01*
X327502Y72039D01*
X327484Y71984D01*
X327463Y71931D01*
X327438Y71878D01*
X327410Y71828D01*
X327378Y71780D01*
X327343Y71733D01*
X327305Y71690D01*
X327264Y71649D01*
X327221Y71611D01*
X327174Y71576D01*
X327126Y71544D01*
X327076Y71516D01*
X327023Y71491D01*
X326970Y71470D01*
X326915Y71452D01*
X326858Y71439D01*
X326801Y71429D01*
X326744Y71423D01*
X326686Y71421D01*
X324570Y71421D01*
X324512Y71423D01*
X324455Y71429D01*
X324398Y71439D01*
X324341Y71452D01*
X324286Y71470D01*
X324233Y71491D01*
X324180Y71516D01*
X324130Y71544D01*
X324082Y71576D01*
X324035Y71611D01*
X323992Y71649D01*
X323951Y71690D01*
X323913Y71733D01*
X323878Y71780D01*
X323846Y71828D01*
X323818Y71878D01*
X323793Y71931D01*
X323772Y71984D01*
X323754Y72039D01*
X323741Y72096D01*
X323731Y72153D01*
X323725Y72210D01*
X323723Y72268D01*
X323723Y73538D01*
X323723Y75323D02*
X327533Y75323D01*
X327533Y77439D02*
X323723Y75323D01*
X323723Y77439D02*
X327533Y77439D01*
X327533Y79224D02*
X323723Y79224D01*
X323723Y80283D01*
X323725Y80347D01*
X323731Y80411D01*
X323740Y80474D01*
X323754Y80536D01*
X323771Y80598D01*
X323792Y80658D01*
X323816Y80717D01*
X323844Y80775D01*
X323876Y80830D01*
X323910Y80884D01*
X323948Y80935D01*
X323989Y80985D01*
X324033Y81031D01*
X324079Y81075D01*
X324129Y81116D01*
X324180Y81154D01*
X324234Y81188D01*
X324289Y81220D01*
X324347Y81248D01*
X324406Y81272D01*
X324466Y81293D01*
X324528Y81310D01*
X324590Y81324D01*
X324654Y81333D01*
X324717Y81339D01*
X324781Y81341D01*
X326475Y81341D01*
X326539Y81339D01*
X326603Y81333D01*
X326666Y81324D01*
X326728Y81310D01*
X326790Y81293D01*
X326850Y81272D01*
X326909Y81248D01*
X326967Y81220D01*
X327022Y81188D01*
X327076Y81154D01*
X327127Y81116D01*
X327177Y81075D01*
X327223Y81031D01*
X327267Y80985D01*
X327308Y80935D01*
X327346Y80884D01*
X327380Y80830D01*
X327412Y80775D01*
X327440Y80717D01*
X327464Y80658D01*
X327485Y80598D01*
X327502Y80536D01*
X327516Y80474D01*
X327525Y80411D01*
X327531Y80347D01*
X327533Y80283D01*
X327533Y79224D01*
X292483Y152222D02*
X288673Y152222D01*
X288673Y153280D01*
X288675Y153344D01*
X288681Y153408D01*
X288690Y153471D01*
X288704Y153533D01*
X288721Y153595D01*
X288742Y153655D01*
X288766Y153714D01*
X288794Y153772D01*
X288826Y153827D01*
X288860Y153881D01*
X288898Y153932D01*
X288939Y153982D01*
X288983Y154028D01*
X289029Y154072D01*
X289079Y154113D01*
X289130Y154151D01*
X289184Y154185D01*
X289239Y154217D01*
X289297Y154245D01*
X289356Y154269D01*
X289416Y154290D01*
X289478Y154307D01*
X289540Y154321D01*
X289603Y154330D01*
X289667Y154336D01*
X289731Y154338D01*
X289795Y154336D01*
X289859Y154330D01*
X289922Y154321D01*
X289984Y154307D01*
X290046Y154290D01*
X290106Y154269D01*
X290165Y154245D01*
X290223Y154217D01*
X290278Y154185D01*
X290332Y154151D01*
X290383Y154113D01*
X290433Y154072D01*
X290479Y154028D01*
X290523Y153982D01*
X290564Y153932D01*
X290602Y153881D01*
X290636Y153827D01*
X290668Y153772D01*
X290696Y153714D01*
X290720Y153655D01*
X290741Y153595D01*
X290758Y153533D01*
X290772Y153471D01*
X290781Y153408D01*
X290787Y153344D01*
X290789Y153280D01*
X290790Y153280D02*
X290790Y152222D01*
X290790Y153492D02*
X292483Y154339D01*
X292483Y155987D02*
X292483Y157680D01*
X292483Y155987D02*
X288673Y155987D01*
X288673Y157680D01*
X290366Y157257D02*
X290366Y155987D01*
X288673Y158817D02*
X292483Y160087D01*
X288673Y161357D01*
X288673Y162856D02*
X292483Y162856D01*
X288673Y162856D02*
X288673Y163915D01*
X288675Y163979D01*
X288681Y164043D01*
X288690Y164106D01*
X288704Y164168D01*
X288721Y164230D01*
X288742Y164290D01*
X288766Y164349D01*
X288794Y164407D01*
X288826Y164462D01*
X288860Y164516D01*
X288898Y164567D01*
X288939Y164617D01*
X288983Y164663D01*
X289029Y164707D01*
X289079Y164748D01*
X289130Y164786D01*
X289184Y164820D01*
X289239Y164852D01*
X289297Y164880D01*
X289356Y164904D01*
X289416Y164925D01*
X289478Y164942D01*
X289540Y164956D01*
X289603Y164965D01*
X289667Y164971D01*
X289731Y164973D01*
X289795Y164971D01*
X289859Y164965D01*
X289922Y164956D01*
X289984Y164942D01*
X290046Y164925D01*
X290106Y164904D01*
X290165Y164880D01*
X290223Y164852D01*
X290278Y164820D01*
X290332Y164786D01*
X290383Y164748D01*
X290433Y164707D01*
X290479Y164663D01*
X290523Y164617D01*
X290564Y164567D01*
X290602Y164516D01*
X290636Y164462D01*
X290668Y164407D01*
X290696Y164349D01*
X290720Y164290D01*
X290741Y164230D01*
X290758Y164168D01*
X290772Y164106D01*
X290781Y164043D01*
X290787Y163979D01*
X290789Y163915D01*
X290790Y163915D02*
X290790Y162856D01*
D10*
X73416Y694995D02*
X416Y694995D01*
X240416Y694995D02*
X240416Y534995D01*
X73416Y534995D02*
X416Y534995D01*
X416Y694995D01*
D14*
X7416Y566995D02*
X56416Y566995D01*
X7416Y566995D02*
X7416Y575995D01*
X44416Y575995D01*
X44416Y585995D01*
X8416Y585995D01*
X8416Y597995D01*
X44416Y597995D01*
X44416Y609995D01*
X8416Y609995D01*
X8416Y620995D01*
X43416Y620995D01*
X43416Y631995D01*
X8416Y631995D01*
X8416Y671995D01*
X57416Y566995D02*
X63416Y566995D01*
X63416Y631995D01*
D11*
X111908Y580017D02*
X111908Y574146D01*
X98700Y574146D01*
X98700Y580017D01*
X104571Y578549D02*
X104571Y574146D01*
X111908Y588766D02*
X111906Y588873D01*
X111900Y588980D01*
X111890Y589087D01*
X111877Y589193D01*
X111859Y589299D01*
X111838Y589404D01*
X111813Y589508D01*
X111784Y589612D01*
X111751Y589714D01*
X111714Y589814D01*
X111674Y589914D01*
X111630Y590012D01*
X111583Y590108D01*
X111532Y590202D01*
X111478Y590295D01*
X111421Y590385D01*
X111360Y590474D01*
X111296Y590560D01*
X111229Y590643D01*
X111159Y590725D01*
X111086Y590803D01*
X111010Y590879D01*
X110932Y590952D01*
X110850Y591022D01*
X110767Y591089D01*
X110681Y591153D01*
X110592Y591214D01*
X110502Y591271D01*
X110409Y591325D01*
X110315Y591376D01*
X110219Y591423D01*
X110121Y591467D01*
X110021Y591507D01*
X109921Y591544D01*
X109819Y591577D01*
X109715Y591606D01*
X109611Y591631D01*
X109506Y591652D01*
X109400Y591670D01*
X109294Y591683D01*
X109187Y591693D01*
X109080Y591699D01*
X108973Y591701D01*
X111908Y588766D02*
X111906Y588613D01*
X111900Y588460D01*
X111891Y588307D01*
X111878Y588155D01*
X111861Y588003D01*
X111840Y587851D01*
X111816Y587700D01*
X111788Y587550D01*
X111756Y587400D01*
X111720Y587252D01*
X111681Y587104D01*
X111638Y586957D01*
X111592Y586811D01*
X111542Y586667D01*
X111488Y586523D01*
X111431Y586381D01*
X111371Y586241D01*
X111306Y586102D01*
X111239Y585965D01*
X111168Y585829D01*
X111094Y585695D01*
X111017Y585563D01*
X110936Y585433D01*
X110852Y585305D01*
X110765Y585179D01*
X110675Y585056D01*
X110582Y584934D01*
X110486Y584815D01*
X110387Y584699D01*
X110286Y584584D01*
X110181Y584473D01*
X110074Y584364D01*
X101635Y584731D02*
X101528Y584733D01*
X101421Y584739D01*
X101314Y584749D01*
X101208Y584762D01*
X101102Y584780D01*
X100997Y584801D01*
X100893Y584826D01*
X100789Y584855D01*
X100687Y584888D01*
X100587Y584925D01*
X100487Y584965D01*
X100389Y585009D01*
X100293Y585056D01*
X100199Y585107D01*
X100106Y585161D01*
X100016Y585218D01*
X99927Y585279D01*
X99841Y585343D01*
X99758Y585410D01*
X99676Y585480D01*
X99598Y585553D01*
X99522Y585629D01*
X99449Y585707D01*
X99379Y585789D01*
X99312Y585872D01*
X99248Y585958D01*
X99187Y586047D01*
X99130Y586137D01*
X99076Y586230D01*
X99025Y586324D01*
X98978Y586420D01*
X98934Y586518D01*
X98894Y586618D01*
X98857Y586718D01*
X98824Y586820D01*
X98795Y586924D01*
X98770Y587028D01*
X98749Y587133D01*
X98731Y587239D01*
X98718Y587345D01*
X98708Y587452D01*
X98702Y587559D01*
X98700Y587666D01*
X98701Y587666D02*
X98703Y587814D01*
X98709Y587961D01*
X98719Y588108D01*
X98733Y588255D01*
X98750Y588402D01*
X98772Y588547D01*
X98798Y588693D01*
X98827Y588837D01*
X98860Y588981D01*
X98898Y589124D01*
X98939Y589266D01*
X98983Y589406D01*
X99032Y589546D01*
X99084Y589684D01*
X99140Y589820D01*
X99200Y589955D01*
X99263Y590088D01*
X99330Y590220D01*
X99400Y590350D01*
X99473Y590478D01*
X99551Y590603D01*
X99631Y590727D01*
X99715Y590849D01*
X99802Y590968D01*
X104203Y586198D02*
X104147Y586107D01*
X104088Y586018D01*
X104026Y585931D01*
X103961Y585847D01*
X103893Y585764D01*
X103822Y585685D01*
X103748Y585608D01*
X103671Y585534D01*
X103592Y585462D01*
X103510Y585394D01*
X103426Y585328D01*
X103339Y585265D01*
X103251Y585206D01*
X103160Y585150D01*
X103067Y585097D01*
X102973Y585047D01*
X102877Y585001D01*
X102779Y584958D01*
X102680Y584919D01*
X102579Y584883D01*
X102477Y584851D01*
X102374Y584823D01*
X102270Y584799D01*
X102166Y584778D01*
X102060Y584761D01*
X101955Y584747D01*
X101848Y584738D01*
X101742Y584732D01*
X101635Y584730D01*
X106405Y590233D02*
X106461Y590324D01*
X106520Y590413D01*
X106582Y590500D01*
X106647Y590585D01*
X106715Y590667D01*
X106786Y590746D01*
X106860Y590823D01*
X106937Y590897D01*
X107016Y590969D01*
X107098Y591037D01*
X107182Y591103D01*
X107269Y591166D01*
X107357Y591225D01*
X107448Y591281D01*
X107541Y591334D01*
X107635Y591384D01*
X107731Y591430D01*
X107829Y591473D01*
X107928Y591512D01*
X108029Y591548D01*
X108131Y591580D01*
X108234Y591608D01*
X108338Y591632D01*
X108442Y591653D01*
X108548Y591670D01*
X108653Y591684D01*
X108760Y591693D01*
X108866Y591699D01*
X108973Y591701D01*
X106405Y590234D02*
X104204Y586198D01*
X98700Y597345D02*
X111908Y597345D01*
X98700Y597345D02*
X98700Y601014D01*
X98702Y601134D01*
X98708Y601254D01*
X98718Y601374D01*
X98731Y601493D01*
X98749Y601612D01*
X98770Y601730D01*
X98796Y601847D01*
X98825Y601964D01*
X98858Y602079D01*
X98895Y602193D01*
X98935Y602306D01*
X98979Y602418D01*
X99027Y602528D01*
X99078Y602637D01*
X99133Y602744D01*
X99192Y602849D01*
X99253Y602951D01*
X99318Y603052D01*
X99387Y603151D01*
X99458Y603248D01*
X99533Y603342D01*
X99610Y603433D01*
X99691Y603522D01*
X99775Y603608D01*
X99861Y603692D01*
X99950Y603773D01*
X100041Y603850D01*
X100135Y603925D01*
X100232Y603996D01*
X100331Y604065D01*
X100432Y604130D01*
X100535Y604191D01*
X100639Y604250D01*
X100746Y604305D01*
X100855Y604356D01*
X100965Y604404D01*
X101077Y604448D01*
X101190Y604488D01*
X101304Y604525D01*
X101419Y604558D01*
X101536Y604587D01*
X101653Y604613D01*
X101771Y604634D01*
X101890Y604652D01*
X102009Y604665D01*
X102129Y604675D01*
X102249Y604681D01*
X102369Y604683D01*
X102489Y604681D01*
X102609Y604675D01*
X102729Y604665D01*
X102848Y604652D01*
X102967Y604634D01*
X103085Y604613D01*
X103202Y604587D01*
X103319Y604558D01*
X103434Y604525D01*
X103548Y604488D01*
X103661Y604448D01*
X103773Y604404D01*
X103883Y604356D01*
X103992Y604305D01*
X104099Y604250D01*
X104204Y604191D01*
X104306Y604130D01*
X104407Y604065D01*
X104506Y603996D01*
X104603Y603925D01*
X104697Y603850D01*
X104788Y603773D01*
X104877Y603692D01*
X104963Y603608D01*
X105047Y603522D01*
X105128Y603433D01*
X105205Y603342D01*
X105280Y603248D01*
X105351Y603151D01*
X105420Y603052D01*
X105485Y602951D01*
X105546Y602849D01*
X105605Y602744D01*
X105660Y602637D01*
X105711Y602528D01*
X105759Y602418D01*
X105803Y602306D01*
X105843Y602193D01*
X105880Y602079D01*
X105913Y601964D01*
X105942Y601847D01*
X105968Y601730D01*
X105989Y601612D01*
X106007Y601493D01*
X106020Y601374D01*
X106030Y601254D01*
X106036Y601134D01*
X106038Y601014D01*
X106038Y597345D01*
X106772Y616487D02*
X106772Y625293D01*
X101635Y637704D02*
X98700Y641372D01*
X111908Y641372D01*
X111908Y637704D02*
X111908Y645041D01*
X102002Y657843D02*
X101889Y657841D01*
X101777Y657835D01*
X101664Y657826D01*
X101552Y657812D01*
X101441Y657795D01*
X101330Y657774D01*
X101220Y657749D01*
X101111Y657721D01*
X101003Y657688D01*
X100896Y657652D01*
X100791Y657613D01*
X100686Y657570D01*
X100584Y657523D01*
X100483Y657473D01*
X100384Y657419D01*
X100286Y657362D01*
X100191Y657302D01*
X100098Y657239D01*
X100007Y657172D01*
X99918Y657102D01*
X99832Y657030D01*
X99748Y656954D01*
X99667Y656876D01*
X99589Y656795D01*
X99513Y656711D01*
X99441Y656625D01*
X99371Y656536D01*
X99304Y656445D01*
X99241Y656352D01*
X99181Y656257D01*
X99124Y656159D01*
X99070Y656060D01*
X99020Y655959D01*
X98973Y655857D01*
X98930Y655752D01*
X98891Y655647D01*
X98855Y655540D01*
X98822Y655432D01*
X98794Y655323D01*
X98769Y655213D01*
X98748Y655102D01*
X98731Y654991D01*
X98717Y654879D01*
X98708Y654766D01*
X98702Y654654D01*
X98700Y654541D01*
X98702Y654414D01*
X98708Y654287D01*
X98717Y654160D01*
X98730Y654034D01*
X98747Y653908D01*
X98768Y653783D01*
X98793Y653658D01*
X98821Y653535D01*
X98853Y653412D01*
X98889Y653290D01*
X98928Y653169D01*
X98971Y653049D01*
X99017Y652931D01*
X99067Y652814D01*
X99121Y652699D01*
X99178Y652586D01*
X99238Y652474D01*
X99301Y652364D01*
X99368Y652256D01*
X99438Y652150D01*
X99511Y652046D01*
X99588Y651944D01*
X99667Y651845D01*
X99749Y651748D01*
X99834Y651654D01*
X99922Y651562D01*
X100012Y651473D01*
X100106Y651387D01*
X100201Y651303D01*
X100299Y651223D01*
X100400Y651145D01*
X100503Y651070D01*
X100608Y650999D01*
X100715Y650931D01*
X100824Y650866D01*
X100935Y650804D01*
X101048Y650745D01*
X101162Y650690D01*
X101278Y650639D01*
X101396Y650591D01*
X101515Y650546D01*
X101635Y650505D01*
X104570Y656742D02*
X104490Y656824D01*
X104407Y656903D01*
X104321Y656980D01*
X104233Y657054D01*
X104142Y657124D01*
X104050Y657192D01*
X103955Y657257D01*
X103858Y657319D01*
X103759Y657377D01*
X103658Y657433D01*
X103556Y657485D01*
X103452Y657533D01*
X103346Y657578D01*
X103239Y657620D01*
X103131Y657659D01*
X103021Y657693D01*
X102911Y657725D01*
X102799Y657752D01*
X102687Y657776D01*
X102574Y657797D01*
X102460Y657813D01*
X102346Y657826D01*
X102232Y657836D01*
X102117Y657841D01*
X102002Y657843D01*
X104571Y656742D02*
X111908Y650505D01*
X111908Y657843D01*
D12*
X221875Y471177D02*
X223511Y469131D01*
X221875Y471177D02*
X229241Y471177D01*
X229241Y469131D02*
X229241Y473223D01*
X225558Y476447D02*
X225405Y476449D01*
X225252Y476455D01*
X225100Y476464D01*
X224947Y476478D01*
X224795Y476495D01*
X224644Y476516D01*
X224493Y476541D01*
X224343Y476570D01*
X224193Y476602D01*
X224045Y476639D01*
X223897Y476679D01*
X223750Y476722D01*
X223605Y476770D01*
X223461Y476821D01*
X223318Y476875D01*
X223176Y476934D01*
X223037Y476995D01*
X222898Y477061D01*
X222898Y477060D02*
X222828Y477086D01*
X222758Y477116D01*
X222691Y477149D01*
X222625Y477185D01*
X222561Y477224D01*
X222499Y477267D01*
X222440Y477313D01*
X222382Y477361D01*
X222328Y477412D01*
X222275Y477466D01*
X222226Y477523D01*
X222179Y477582D01*
X222136Y477643D01*
X222095Y477706D01*
X222058Y477771D01*
X222023Y477838D01*
X221993Y477907D01*
X221965Y477977D01*
X221942Y478048D01*
X221921Y478120D01*
X221905Y478193D01*
X221892Y478267D01*
X221882Y478342D01*
X221877Y478417D01*
X221875Y478492D01*
X221877Y478567D01*
X221882Y478642D01*
X221892Y478717D01*
X221905Y478791D01*
X221921Y478864D01*
X221942Y478936D01*
X221965Y479007D01*
X221993Y479077D01*
X222023Y479146D01*
X222058Y479213D01*
X222095Y479278D01*
X222136Y479341D01*
X222179Y479402D01*
X222226Y479461D01*
X222275Y479518D01*
X222328Y479572D01*
X222382Y479623D01*
X222440Y479672D01*
X222499Y479717D01*
X222561Y479760D01*
X222625Y479799D01*
X222691Y479836D01*
X222759Y479868D01*
X222828Y479898D01*
X222898Y479924D01*
X222898Y479925D02*
X223036Y479990D01*
X223176Y480052D01*
X223318Y480110D01*
X223461Y480165D01*
X223605Y480216D01*
X223750Y480264D01*
X223897Y480307D01*
X224044Y480347D01*
X224193Y480384D01*
X224343Y480416D01*
X224493Y480445D01*
X224644Y480470D01*
X224795Y480491D01*
X224947Y480508D01*
X225100Y480522D01*
X225252Y480531D01*
X225405Y480537D01*
X225558Y480539D01*
X225558Y476447D02*
X225711Y476449D01*
X225864Y476455D01*
X226016Y476464D01*
X226169Y476478D01*
X226321Y476495D01*
X226472Y476516D01*
X226623Y476541D01*
X226773Y476570D01*
X226923Y476602D01*
X227071Y476639D01*
X227219Y476679D01*
X227366Y476722D01*
X227511Y476770D01*
X227655Y476821D01*
X227798Y476875D01*
X227940Y476934D01*
X228079Y476995D01*
X228218Y477061D01*
X228217Y477060D02*
X228288Y477086D01*
X228357Y477116D01*
X228424Y477149D01*
X228490Y477185D01*
X228554Y477224D01*
X228616Y477267D01*
X228675Y477313D01*
X228733Y477361D01*
X228787Y477412D01*
X228840Y477466D01*
X228889Y477523D01*
X228936Y477582D01*
X228979Y477643D01*
X229020Y477706D01*
X229057Y477771D01*
X229092Y477838D01*
X229122Y477907D01*
X229150Y477977D01*
X229173Y478048D01*
X229194Y478120D01*
X229210Y478193D01*
X229223Y478267D01*
X229233Y478342D01*
X229238Y478417D01*
X229240Y478492D01*
X228218Y479924D02*
X228080Y479989D01*
X227940Y480051D01*
X227798Y480109D01*
X227655Y480164D01*
X227511Y480215D01*
X227366Y480263D01*
X227219Y480306D01*
X227072Y480346D01*
X226923Y480383D01*
X226773Y480415D01*
X226623Y480444D01*
X226472Y480469D01*
X226321Y480490D01*
X226169Y480507D01*
X226016Y480521D01*
X225864Y480530D01*
X225711Y480536D01*
X225558Y480538D01*
X228217Y479924D02*
X228287Y479898D01*
X228357Y479868D01*
X228424Y479835D01*
X228490Y479799D01*
X228554Y479760D01*
X228616Y479717D01*
X228675Y479671D01*
X228733Y479623D01*
X228787Y479572D01*
X228840Y479518D01*
X228889Y479461D01*
X228936Y479402D01*
X228979Y479341D01*
X229020Y479278D01*
X229057Y479213D01*
X229092Y479146D01*
X229122Y479077D01*
X229150Y479007D01*
X229173Y478936D01*
X229194Y478864D01*
X229210Y478791D01*
X229223Y478717D01*
X229233Y478642D01*
X229238Y478567D01*
X229240Y478492D01*
X227604Y476856D02*
X223511Y480129D01*
X221875Y484021D02*
X229241Y484021D01*
X226785Y484021D02*
X224330Y487295D01*
X225762Y485453D02*
X229241Y487295D01*
X126191Y469849D02*
X124555Y471896D01*
X131921Y471896D01*
X131921Y473942D02*
X131921Y469849D01*
X128238Y477165D02*
X128085Y477167D01*
X127932Y477173D01*
X127780Y477182D01*
X127627Y477196D01*
X127475Y477213D01*
X127324Y477234D01*
X127173Y477259D01*
X127023Y477288D01*
X126873Y477320D01*
X126725Y477357D01*
X126577Y477397D01*
X126430Y477440D01*
X126285Y477488D01*
X126141Y477539D01*
X125998Y477593D01*
X125856Y477652D01*
X125717Y477713D01*
X125578Y477779D01*
X125508Y477805D01*
X125438Y477835D01*
X125371Y477868D01*
X125305Y477904D01*
X125241Y477943D01*
X125179Y477986D01*
X125120Y478032D01*
X125062Y478080D01*
X125008Y478131D01*
X124955Y478185D01*
X124906Y478242D01*
X124859Y478301D01*
X124816Y478362D01*
X124775Y478425D01*
X124738Y478490D01*
X124703Y478557D01*
X124673Y478626D01*
X124645Y478696D01*
X124622Y478767D01*
X124601Y478839D01*
X124585Y478912D01*
X124572Y478986D01*
X124562Y479061D01*
X124557Y479136D01*
X124555Y479211D01*
X124557Y479286D01*
X124562Y479361D01*
X124572Y479436D01*
X124585Y479510D01*
X124601Y479583D01*
X124622Y479655D01*
X124645Y479726D01*
X124673Y479796D01*
X124703Y479865D01*
X124738Y479932D01*
X124775Y479997D01*
X124816Y480060D01*
X124859Y480121D01*
X124906Y480180D01*
X124955Y480237D01*
X125008Y480291D01*
X125062Y480342D01*
X125120Y480391D01*
X125179Y480436D01*
X125241Y480479D01*
X125305Y480518D01*
X125371Y480555D01*
X125439Y480587D01*
X125508Y480617D01*
X125578Y480643D01*
X125716Y480708D01*
X125856Y480770D01*
X125998Y480828D01*
X126141Y480883D01*
X126285Y480934D01*
X126430Y480982D01*
X126577Y481025D01*
X126724Y481065D01*
X126873Y481102D01*
X127023Y481134D01*
X127173Y481163D01*
X127324Y481188D01*
X127475Y481209D01*
X127627Y481226D01*
X127780Y481240D01*
X127932Y481249D01*
X128085Y481255D01*
X128238Y481257D01*
X128238Y477165D02*
X128391Y477167D01*
X128544Y477173D01*
X128696Y477182D01*
X128849Y477196D01*
X129001Y477213D01*
X129152Y477234D01*
X129303Y477259D01*
X129453Y477288D01*
X129603Y477320D01*
X129751Y477357D01*
X129899Y477397D01*
X130046Y477440D01*
X130191Y477488D01*
X130335Y477539D01*
X130478Y477593D01*
X130620Y477652D01*
X130759Y477713D01*
X130898Y477779D01*
X130897Y477779D02*
X130968Y477805D01*
X131037Y477835D01*
X131104Y477868D01*
X131170Y477904D01*
X131234Y477943D01*
X131296Y477986D01*
X131355Y478032D01*
X131413Y478080D01*
X131467Y478131D01*
X131520Y478185D01*
X131569Y478242D01*
X131616Y478301D01*
X131659Y478362D01*
X131700Y478425D01*
X131737Y478490D01*
X131772Y478557D01*
X131802Y478626D01*
X131830Y478696D01*
X131853Y478767D01*
X131874Y478839D01*
X131890Y478912D01*
X131903Y478986D01*
X131913Y479061D01*
X131918Y479136D01*
X131920Y479211D01*
X130898Y480643D02*
X130760Y480708D01*
X130620Y480770D01*
X130478Y480828D01*
X130335Y480883D01*
X130191Y480934D01*
X130046Y480982D01*
X129899Y481025D01*
X129752Y481065D01*
X129603Y481102D01*
X129453Y481134D01*
X129303Y481163D01*
X129152Y481188D01*
X129001Y481209D01*
X128849Y481226D01*
X128696Y481240D01*
X128544Y481249D01*
X128391Y481255D01*
X128238Y481257D01*
X130897Y480643D02*
X130967Y480617D01*
X131037Y480587D01*
X131104Y480554D01*
X131170Y480518D01*
X131234Y480479D01*
X131296Y480436D01*
X131355Y480390D01*
X131413Y480342D01*
X131467Y480291D01*
X131520Y480237D01*
X131569Y480180D01*
X131616Y480121D01*
X131659Y480060D01*
X131700Y479997D01*
X131737Y479932D01*
X131772Y479865D01*
X131802Y479796D01*
X131830Y479726D01*
X131853Y479655D01*
X131874Y479583D01*
X131890Y479510D01*
X131903Y479436D01*
X131913Y479361D01*
X131918Y479286D01*
X131920Y479211D01*
X130284Y477574D02*
X126191Y480848D01*
X124555Y484739D02*
X131921Y484739D01*
X129465Y484739D02*
X127010Y488013D01*
X128442Y486172D02*
X131921Y488013D01*
X58920Y470617D02*
X57284Y472663D01*
X64650Y472663D01*
X64650Y470617D02*
X64650Y474709D01*
X60967Y477932D02*
X60814Y477934D01*
X60661Y477940D01*
X60509Y477949D01*
X60356Y477963D01*
X60204Y477980D01*
X60053Y478001D01*
X59902Y478026D01*
X59752Y478055D01*
X59602Y478087D01*
X59454Y478124D01*
X59306Y478164D01*
X59159Y478207D01*
X59014Y478255D01*
X58870Y478306D01*
X58727Y478360D01*
X58585Y478419D01*
X58446Y478480D01*
X58307Y478546D01*
X58237Y478572D01*
X58167Y478602D01*
X58100Y478635D01*
X58034Y478671D01*
X57970Y478710D01*
X57908Y478753D01*
X57849Y478799D01*
X57791Y478847D01*
X57737Y478898D01*
X57684Y478952D01*
X57635Y479009D01*
X57588Y479068D01*
X57545Y479129D01*
X57504Y479192D01*
X57467Y479257D01*
X57432Y479324D01*
X57402Y479393D01*
X57374Y479463D01*
X57351Y479534D01*
X57330Y479606D01*
X57314Y479679D01*
X57301Y479753D01*
X57291Y479828D01*
X57286Y479903D01*
X57284Y479978D01*
X57286Y480053D01*
X57291Y480128D01*
X57301Y480203D01*
X57314Y480277D01*
X57330Y480350D01*
X57351Y480422D01*
X57374Y480493D01*
X57402Y480563D01*
X57432Y480632D01*
X57467Y480699D01*
X57504Y480764D01*
X57545Y480827D01*
X57588Y480888D01*
X57635Y480947D01*
X57684Y481004D01*
X57737Y481058D01*
X57791Y481109D01*
X57849Y481158D01*
X57908Y481203D01*
X57970Y481246D01*
X58034Y481285D01*
X58100Y481322D01*
X58168Y481354D01*
X58237Y481384D01*
X58307Y481410D01*
X58445Y481475D01*
X58585Y481537D01*
X58727Y481595D01*
X58870Y481650D01*
X59014Y481701D01*
X59159Y481749D01*
X59306Y481792D01*
X59453Y481832D01*
X59602Y481869D01*
X59752Y481901D01*
X59902Y481930D01*
X60053Y481955D01*
X60204Y481976D01*
X60356Y481993D01*
X60509Y482007D01*
X60661Y482016D01*
X60814Y482022D01*
X60967Y482024D01*
X60967Y477932D02*
X61120Y477934D01*
X61273Y477940D01*
X61425Y477949D01*
X61578Y477963D01*
X61730Y477980D01*
X61881Y478001D01*
X62032Y478026D01*
X62182Y478055D01*
X62332Y478087D01*
X62480Y478124D01*
X62628Y478164D01*
X62775Y478207D01*
X62920Y478255D01*
X63064Y478306D01*
X63207Y478360D01*
X63349Y478419D01*
X63488Y478480D01*
X63627Y478546D01*
X63626Y478546D02*
X63697Y478572D01*
X63766Y478602D01*
X63833Y478635D01*
X63899Y478671D01*
X63963Y478710D01*
X64025Y478753D01*
X64084Y478799D01*
X64142Y478847D01*
X64196Y478898D01*
X64249Y478952D01*
X64298Y479009D01*
X64345Y479068D01*
X64388Y479129D01*
X64429Y479192D01*
X64466Y479257D01*
X64501Y479324D01*
X64531Y479393D01*
X64559Y479463D01*
X64582Y479534D01*
X64603Y479606D01*
X64619Y479679D01*
X64632Y479753D01*
X64642Y479828D01*
X64647Y479903D01*
X64649Y479978D01*
X63627Y481410D02*
X63489Y481475D01*
X63349Y481537D01*
X63207Y481595D01*
X63064Y481650D01*
X62920Y481701D01*
X62775Y481749D01*
X62628Y481792D01*
X62481Y481832D01*
X62332Y481869D01*
X62182Y481901D01*
X62032Y481930D01*
X61881Y481955D01*
X61730Y481976D01*
X61578Y481993D01*
X61425Y482007D01*
X61273Y482016D01*
X61120Y482022D01*
X60967Y482024D01*
X63626Y481410D02*
X63696Y481384D01*
X63766Y481354D01*
X63833Y481321D01*
X63899Y481285D01*
X63963Y481246D01*
X64025Y481203D01*
X64084Y481157D01*
X64142Y481109D01*
X64196Y481058D01*
X64249Y481004D01*
X64298Y480947D01*
X64345Y480888D01*
X64388Y480827D01*
X64429Y480764D01*
X64466Y480699D01*
X64501Y480632D01*
X64531Y480563D01*
X64559Y480493D01*
X64582Y480422D01*
X64603Y480350D01*
X64619Y480277D01*
X64632Y480203D01*
X64642Y480128D01*
X64647Y480053D01*
X64649Y479978D01*
X63013Y478341D02*
X58920Y481615D01*
X57284Y485507D02*
X64650Y485507D01*
X62194Y485507D02*
X59739Y488780D01*
X61171Y486939D02*
X64650Y488780D01*
D13*
X42283Y386526D02*
X43130Y385468D01*
X42283Y386526D02*
X46093Y386526D01*
X46093Y385468D02*
X46093Y387585D01*
X44188Y389125D02*
X44078Y389127D01*
X43969Y389133D01*
X43860Y389142D01*
X43751Y389156D01*
X43643Y389173D01*
X43535Y389194D01*
X43429Y389218D01*
X43323Y389247D01*
X43218Y389279D01*
X43114Y389314D01*
X43012Y389353D01*
X42911Y389396D01*
X42812Y389443D01*
X42762Y389463D01*
X42713Y389485D01*
X42665Y389511D01*
X42620Y389540D01*
X42577Y389573D01*
X42536Y389608D01*
X42497Y389646D01*
X42462Y389686D01*
X42429Y389729D01*
X42399Y389774D01*
X42372Y389821D01*
X42349Y389869D01*
X42329Y389919D01*
X42313Y389971D01*
X42300Y390023D01*
X42290Y390076D01*
X42285Y390130D01*
X42283Y390184D01*
X42285Y390238D01*
X42290Y390292D01*
X42300Y390345D01*
X42313Y390397D01*
X42329Y390449D01*
X42349Y390499D01*
X42372Y390547D01*
X42399Y390594D01*
X42429Y390639D01*
X42462Y390682D01*
X42497Y390722D01*
X42536Y390760D01*
X42577Y390795D01*
X42620Y390828D01*
X42665Y390857D01*
X42713Y390883D01*
X42762Y390905D01*
X42812Y390925D01*
X42911Y390972D01*
X43012Y391015D01*
X43114Y391054D01*
X43218Y391089D01*
X43323Y391121D01*
X43429Y391150D01*
X43535Y391174D01*
X43643Y391195D01*
X43751Y391212D01*
X43860Y391226D01*
X43969Y391235D01*
X44078Y391241D01*
X44188Y391243D01*
X44188Y389125D02*
X44298Y389127D01*
X44407Y389133D01*
X44516Y389142D01*
X44625Y389156D01*
X44733Y389173D01*
X44841Y389194D01*
X44947Y389218D01*
X45053Y389247D01*
X45158Y389279D01*
X45262Y389314D01*
X45364Y389353D01*
X45465Y389396D01*
X45564Y389443D01*
X45614Y389463D01*
X45663Y389485D01*
X45711Y389511D01*
X45756Y389540D01*
X45799Y389573D01*
X45840Y389608D01*
X45879Y389646D01*
X45914Y389686D01*
X45947Y389729D01*
X45977Y389774D01*
X46004Y389821D01*
X46027Y389869D01*
X46047Y389920D01*
X46063Y389971D01*
X46076Y390023D01*
X46086Y390076D01*
X46091Y390130D01*
X46093Y390184D01*
X45564Y390925D02*
X45465Y390972D01*
X45364Y391015D01*
X45262Y391054D01*
X45158Y391089D01*
X45053Y391121D01*
X44947Y391150D01*
X44841Y391174D01*
X44733Y391195D01*
X44625Y391212D01*
X44516Y391226D01*
X44407Y391235D01*
X44298Y391241D01*
X44188Y391243D01*
X45564Y390925D02*
X45614Y390905D01*
X45663Y390883D01*
X45711Y390857D01*
X45756Y390828D01*
X45799Y390795D01*
X45840Y390760D01*
X45879Y390722D01*
X45914Y390682D01*
X45947Y390639D01*
X45977Y390594D01*
X46004Y390547D01*
X46027Y390499D01*
X46047Y390448D01*
X46063Y390397D01*
X46076Y390345D01*
X46086Y390292D01*
X46091Y390238D01*
X46093Y390184D01*
X45246Y389337D02*
X43130Y391031D01*
X42283Y392912D02*
X46093Y392912D01*
X44823Y392912D02*
X43553Y394605D01*
X44294Y393652D02*
X46093Y394605D01*
D10*
X43123Y422555D02*
X18123Y422555D01*
X43123Y422555D02*
X43123Y452555D01*
X18123Y452555D01*
X18123Y422555D01*
D11*
X13158Y418288D02*
X5284Y418288D01*
X5284Y420475D01*
X5286Y420568D01*
X5292Y420660D01*
X5302Y420753D01*
X5315Y420845D01*
X5333Y420936D01*
X5355Y421026D01*
X5380Y421115D01*
X5409Y421204D01*
X5442Y421290D01*
X5478Y421376D01*
X5518Y421460D01*
X5562Y421542D01*
X5609Y421622D01*
X5659Y421700D01*
X5713Y421775D01*
X5769Y421849D01*
X5829Y421920D01*
X5892Y421988D01*
X5958Y422054D01*
X6026Y422117D01*
X6097Y422177D01*
X6171Y422233D01*
X6246Y422287D01*
X6324Y422337D01*
X6404Y422384D01*
X6486Y422428D01*
X6570Y422468D01*
X6656Y422504D01*
X6742Y422537D01*
X6831Y422566D01*
X6920Y422591D01*
X7010Y422613D01*
X7101Y422631D01*
X7193Y422644D01*
X7286Y422654D01*
X7378Y422660D01*
X7471Y422662D01*
X7564Y422660D01*
X7656Y422654D01*
X7749Y422644D01*
X7841Y422631D01*
X7932Y422613D01*
X8022Y422591D01*
X8111Y422566D01*
X8200Y422537D01*
X8286Y422504D01*
X8372Y422468D01*
X8456Y422428D01*
X8538Y422384D01*
X8618Y422337D01*
X8696Y422287D01*
X8771Y422233D01*
X8845Y422177D01*
X8916Y422117D01*
X8984Y422054D01*
X9050Y421988D01*
X9113Y421920D01*
X9173Y421849D01*
X9229Y421775D01*
X9283Y421700D01*
X9333Y421622D01*
X9380Y421542D01*
X9424Y421460D01*
X9464Y421376D01*
X9500Y421290D01*
X9533Y421204D01*
X9562Y421115D01*
X9587Y421026D01*
X9609Y420936D01*
X9627Y420845D01*
X9640Y420753D01*
X9650Y420660D01*
X9656Y420568D01*
X9658Y420475D01*
X9659Y420475D02*
X9659Y418288D01*
X9659Y420913D02*
X13158Y422662D01*
X13158Y426512D02*
X13158Y430012D01*
X13158Y426512D02*
X5284Y426512D01*
X5284Y430012D01*
X8784Y429137D02*
X8784Y426512D01*
X13158Y435519D02*
X13156Y435600D01*
X13151Y435680D01*
X13141Y435761D01*
X13128Y435841D01*
X13112Y435920D01*
X13091Y435998D01*
X13067Y436075D01*
X13040Y436151D01*
X13009Y436226D01*
X12975Y436299D01*
X12937Y436371D01*
X12896Y436440D01*
X12852Y436508D01*
X12805Y436574D01*
X12754Y436637D01*
X12701Y436698D01*
X12645Y436756D01*
X12587Y436812D01*
X12526Y436865D01*
X12463Y436916D01*
X12397Y436963D01*
X12329Y437007D01*
X12260Y437048D01*
X12188Y437086D01*
X12115Y437120D01*
X12040Y437151D01*
X11964Y437178D01*
X11887Y437202D01*
X11809Y437223D01*
X11730Y437239D01*
X11650Y437252D01*
X11569Y437262D01*
X11489Y437267D01*
X11408Y437269D01*
X13158Y435519D02*
X13156Y435402D01*
X13151Y435286D01*
X13141Y435169D01*
X13129Y435053D01*
X13112Y434938D01*
X13092Y434823D01*
X13068Y434709D01*
X13041Y434595D01*
X13010Y434483D01*
X12975Y434371D01*
X12937Y434261D01*
X12896Y434152D01*
X12851Y434044D01*
X12803Y433938D01*
X12751Y433833D01*
X12696Y433730D01*
X12638Y433629D01*
X12577Y433529D01*
X12512Y433432D01*
X12445Y433337D01*
X12374Y433243D01*
X12301Y433153D01*
X12225Y433064D01*
X12146Y432978D01*
X12065Y432895D01*
X7034Y433112D02*
X6953Y433114D01*
X6873Y433119D01*
X6792Y433129D01*
X6712Y433142D01*
X6633Y433158D01*
X6555Y433179D01*
X6478Y433203D01*
X6402Y433230D01*
X6327Y433261D01*
X6254Y433295D01*
X6182Y433333D01*
X6113Y433374D01*
X6045Y433418D01*
X5979Y433465D01*
X5916Y433516D01*
X5855Y433569D01*
X5797Y433625D01*
X5741Y433683D01*
X5688Y433744D01*
X5637Y433807D01*
X5590Y433873D01*
X5546Y433941D01*
X5505Y434010D01*
X5467Y434082D01*
X5433Y434155D01*
X5402Y434230D01*
X5375Y434306D01*
X5351Y434383D01*
X5330Y434461D01*
X5314Y434540D01*
X5301Y434620D01*
X5291Y434701D01*
X5286Y434781D01*
X5284Y434862D01*
X5286Y434973D01*
X5292Y435084D01*
X5301Y435195D01*
X5314Y435305D01*
X5331Y435415D01*
X5352Y435524D01*
X5376Y435633D01*
X5404Y435740D01*
X5435Y435847D01*
X5470Y435952D01*
X5509Y436056D01*
X5551Y436159D01*
X5597Y436260D01*
X5646Y436360D01*
X5698Y436458D01*
X5754Y436554D01*
X5813Y436648D01*
X5875Y436741D01*
X5940Y436831D01*
X8565Y433988D02*
X8521Y433917D01*
X8473Y433848D01*
X8422Y433781D01*
X8368Y433717D01*
X8312Y433655D01*
X8252Y433596D01*
X8189Y433540D01*
X8125Y433487D01*
X8057Y433437D01*
X7987Y433390D01*
X7916Y433347D01*
X7842Y433307D01*
X7766Y433271D01*
X7689Y433238D01*
X7610Y433209D01*
X7530Y433184D01*
X7449Y433162D01*
X7367Y433145D01*
X7285Y433131D01*
X7201Y433121D01*
X7118Y433115D01*
X7034Y433113D01*
X9877Y436393D02*
X9921Y436464D01*
X9969Y436533D01*
X10020Y436600D01*
X10074Y436664D01*
X10130Y436726D01*
X10190Y436785D01*
X10252Y436841D01*
X10317Y436894D01*
X10385Y436944D01*
X10455Y436991D01*
X10526Y437034D01*
X10600Y437074D01*
X10676Y437110D01*
X10753Y437143D01*
X10832Y437172D01*
X10912Y437197D01*
X10993Y437219D01*
X11075Y437236D01*
X11157Y437250D01*
X11241Y437260D01*
X11324Y437266D01*
X11408Y437268D01*
X9877Y436393D02*
X8565Y433987D01*
X13158Y440914D02*
X13158Y444414D01*
X13158Y440914D02*
X5284Y440914D01*
X5284Y444414D01*
X8784Y443539D02*
X8784Y440914D01*
X5284Y449216D02*
X13158Y449216D01*
X5284Y447029D02*
X5284Y451403D01*
D10*
X18123Y517245D02*
X43123Y517245D01*
X18123Y517245D02*
X18123Y487245D01*
X43123Y487245D01*
X43123Y517245D01*
D11*
X13997Y487820D02*
X6123Y487820D01*
X6123Y491319D01*
X9623Y491319D02*
X9623Y487820D01*
X6123Y494754D02*
X13997Y494754D01*
X13997Y498254D01*
X13997Y500965D02*
X6123Y503590D01*
X13997Y506214D01*
X12028Y505558D02*
X12028Y501621D01*
X13997Y511761D02*
X13995Y511842D01*
X13990Y511922D01*
X13980Y512003D01*
X13967Y512083D01*
X13951Y512162D01*
X13930Y512240D01*
X13906Y512317D01*
X13879Y512393D01*
X13848Y512468D01*
X13814Y512541D01*
X13776Y512613D01*
X13735Y512682D01*
X13691Y512750D01*
X13644Y512816D01*
X13593Y512879D01*
X13540Y512940D01*
X13484Y512998D01*
X13426Y513054D01*
X13365Y513107D01*
X13302Y513158D01*
X13236Y513205D01*
X13168Y513249D01*
X13099Y513290D01*
X13027Y513328D01*
X12954Y513362D01*
X12879Y513393D01*
X12803Y513420D01*
X12726Y513444D01*
X12648Y513465D01*
X12569Y513481D01*
X12489Y513494D01*
X12408Y513504D01*
X12328Y513509D01*
X12247Y513511D01*
X13996Y511761D02*
X13994Y511644D01*
X13989Y511528D01*
X13979Y511411D01*
X13967Y511295D01*
X13950Y511180D01*
X13930Y511065D01*
X13906Y510951D01*
X13879Y510837D01*
X13848Y510725D01*
X13813Y510613D01*
X13775Y510503D01*
X13734Y510394D01*
X13689Y510286D01*
X13641Y510180D01*
X13589Y510075D01*
X13534Y509972D01*
X13476Y509871D01*
X13415Y509771D01*
X13350Y509674D01*
X13283Y509579D01*
X13212Y509485D01*
X13139Y509395D01*
X13063Y509306D01*
X12984Y509220D01*
X12903Y509137D01*
X7873Y509355D02*
X7792Y509357D01*
X7712Y509362D01*
X7631Y509372D01*
X7551Y509385D01*
X7472Y509401D01*
X7394Y509422D01*
X7317Y509446D01*
X7241Y509473D01*
X7166Y509504D01*
X7093Y509538D01*
X7021Y509576D01*
X6952Y509617D01*
X6884Y509661D01*
X6818Y509708D01*
X6755Y509759D01*
X6694Y509812D01*
X6636Y509868D01*
X6580Y509926D01*
X6527Y509987D01*
X6476Y510050D01*
X6429Y510116D01*
X6385Y510184D01*
X6344Y510253D01*
X6306Y510325D01*
X6272Y510398D01*
X6241Y510473D01*
X6214Y510549D01*
X6190Y510626D01*
X6169Y510704D01*
X6153Y510783D01*
X6140Y510863D01*
X6130Y510944D01*
X6125Y511024D01*
X6123Y511105D01*
X6125Y511216D01*
X6131Y511327D01*
X6140Y511438D01*
X6153Y511548D01*
X6170Y511658D01*
X6191Y511767D01*
X6215Y511876D01*
X6243Y511983D01*
X6274Y512090D01*
X6309Y512195D01*
X6348Y512299D01*
X6390Y512402D01*
X6436Y512503D01*
X6485Y512603D01*
X6537Y512701D01*
X6593Y512797D01*
X6652Y512891D01*
X6714Y512984D01*
X6779Y513074D01*
X9404Y510230D02*
X9360Y510159D01*
X9312Y510090D01*
X9261Y510023D01*
X9207Y509959D01*
X9151Y509897D01*
X9091Y509838D01*
X9028Y509782D01*
X8964Y509729D01*
X8896Y509679D01*
X8826Y509632D01*
X8755Y509589D01*
X8681Y509549D01*
X8605Y509513D01*
X8528Y509480D01*
X8449Y509451D01*
X8369Y509426D01*
X8288Y509404D01*
X8206Y509387D01*
X8124Y509373D01*
X8040Y509363D01*
X7957Y509357D01*
X7873Y509355D01*
X10716Y512636D02*
X10760Y512707D01*
X10808Y512776D01*
X10859Y512843D01*
X10913Y512907D01*
X10969Y512969D01*
X11029Y513028D01*
X11091Y513084D01*
X11156Y513137D01*
X11224Y513187D01*
X11294Y513234D01*
X11365Y513277D01*
X11439Y513317D01*
X11515Y513353D01*
X11592Y513386D01*
X11671Y513415D01*
X11751Y513440D01*
X11832Y513462D01*
X11914Y513479D01*
X11996Y513493D01*
X12080Y513503D01*
X12163Y513509D01*
X12247Y513511D01*
X10716Y512636D02*
X9404Y510230D01*
X6123Y517138D02*
X13997Y517138D01*
X9623Y517138D02*
X9623Y521512D01*
X6123Y521512D02*
X13997Y521512D01*
D13*
X288357Y158623D02*
X287299Y157776D01*
X288357Y158623D02*
X288357Y154813D01*
X287299Y154813D02*
X289415Y154813D01*
X291126Y154813D02*
X291126Y158623D01*
X293243Y158623D02*
X291126Y156295D01*
X291973Y157141D02*
X293243Y154813D01*
X329057Y311700D02*
X330115Y312547D01*
X330115Y308737D01*
X329057Y308737D02*
X331174Y308737D01*
X332714Y310642D02*
X332716Y310752D01*
X332722Y310861D01*
X332731Y310970D01*
X332745Y311079D01*
X332762Y311187D01*
X332783Y311295D01*
X332807Y311401D01*
X332836Y311507D01*
X332868Y311612D01*
X332903Y311716D01*
X332942Y311818D01*
X332985Y311919D01*
X333032Y312018D01*
X333052Y312068D01*
X333074Y312117D01*
X333100Y312165D01*
X333129Y312210D01*
X333162Y312253D01*
X333197Y312294D01*
X333235Y312333D01*
X333275Y312368D01*
X333318Y312401D01*
X333363Y312431D01*
X333410Y312458D01*
X333458Y312481D01*
X333508Y312501D01*
X333560Y312517D01*
X333612Y312530D01*
X333665Y312540D01*
X333719Y312545D01*
X333773Y312547D01*
X333827Y312545D01*
X333881Y312540D01*
X333934Y312530D01*
X333986Y312517D01*
X334038Y312501D01*
X334088Y312481D01*
X334136Y312458D01*
X334183Y312431D01*
X334228Y312401D01*
X334271Y312368D01*
X334311Y312333D01*
X334349Y312294D01*
X334384Y312253D01*
X334417Y312210D01*
X334446Y312165D01*
X334472Y312117D01*
X334494Y312068D01*
X334514Y312018D01*
X334561Y311919D01*
X334604Y311818D01*
X334643Y311716D01*
X334678Y311612D01*
X334710Y311507D01*
X334739Y311401D01*
X334763Y311295D01*
X334784Y311187D01*
X334801Y311079D01*
X334815Y310970D01*
X334824Y310861D01*
X334830Y310752D01*
X334832Y310642D01*
X332714Y310642D02*
X332716Y310532D01*
X332722Y310423D01*
X332731Y310314D01*
X332745Y310205D01*
X332762Y310097D01*
X332783Y309989D01*
X332807Y309883D01*
X332836Y309777D01*
X332868Y309672D01*
X332903Y309569D01*
X332942Y309466D01*
X332985Y309365D01*
X333032Y309266D01*
X333052Y309216D01*
X333074Y309167D01*
X333100Y309119D01*
X333129Y309074D01*
X333162Y309031D01*
X333197Y308990D01*
X333235Y308951D01*
X333275Y308916D01*
X333318Y308883D01*
X333363Y308853D01*
X333410Y308826D01*
X333458Y308803D01*
X333508Y308783D01*
X333560Y308767D01*
X333612Y308754D01*
X333665Y308744D01*
X333719Y308739D01*
X333773Y308737D01*
X334513Y309266D02*
X334560Y309365D01*
X334603Y309466D01*
X334642Y309569D01*
X334677Y309672D01*
X334709Y309777D01*
X334738Y309883D01*
X334762Y309989D01*
X334783Y310097D01*
X334800Y310205D01*
X334814Y310314D01*
X334823Y310423D01*
X334829Y310532D01*
X334831Y310642D01*
X334514Y309266D02*
X334494Y309216D01*
X334472Y309167D01*
X334446Y309119D01*
X334417Y309074D01*
X334384Y309031D01*
X334349Y308990D01*
X334311Y308951D01*
X334271Y308916D01*
X334228Y308883D01*
X334183Y308853D01*
X334136Y308826D01*
X334088Y308803D01*
X334038Y308783D01*
X333986Y308767D01*
X333934Y308754D01*
X333881Y308744D01*
X333827Y308739D01*
X333773Y308737D01*
X332926Y309584D02*
X334620Y311700D01*
X336501Y312547D02*
X336501Y308737D01*
X336501Y310007D02*
X338194Y311277D01*
X337241Y310536D02*
X338194Y308737D01*
D15*
X307342Y142240D02*
X294642Y142240D01*
X307342Y142240D02*
X313692Y135890D01*
X313692Y123190D02*
X307342Y116840D01*
X313692Y135890D02*
X320042Y142240D01*
X332742Y142240D01*
X339092Y135890D01*
X339092Y123190D02*
X332742Y116840D01*
X320042Y116840D01*
X313692Y123190D01*
X288292Y123190D02*
X288292Y135890D01*
X294642Y142240D01*
X288292Y123190D02*
X294642Y116840D01*
X307342Y116840D01*
X339092Y123190D02*
X339092Y135890D01*
D10*
X239840Y366522D02*
X239840Y415798D01*
X239840Y366522D02*
X215456Y366522D01*
X215456Y415798D01*
X239840Y415798D01*
D15*
X145034Y390779D02*
X145034Y357759D01*
X145034Y390779D02*
X210566Y390779D01*
X210566Y357759D01*
X145034Y357759D01*
D13*
X162436Y329057D02*
X161166Y325247D01*
X163706Y325247D02*
X162436Y329057D01*
X163389Y326200D02*
X161484Y326200D01*
X165190Y325247D02*
X165190Y329057D01*
X166460Y326940D01*
X167730Y329057D01*
X167730Y325247D01*
X170573Y325247D02*
X170631Y325249D01*
X170688Y325255D01*
X170745Y325265D01*
X170802Y325278D01*
X170857Y325296D01*
X170910Y325317D01*
X170963Y325342D01*
X171013Y325370D01*
X171061Y325402D01*
X171108Y325437D01*
X171151Y325475D01*
X171192Y325516D01*
X171230Y325559D01*
X171265Y325606D01*
X171297Y325654D01*
X171325Y325704D01*
X171350Y325757D01*
X171371Y325810D01*
X171389Y325865D01*
X171402Y325922D01*
X171412Y325979D01*
X171418Y326036D01*
X171420Y326094D01*
X170573Y325247D02*
X170490Y325249D01*
X170407Y325255D01*
X170325Y325264D01*
X170243Y325278D01*
X170162Y325295D01*
X170081Y325316D01*
X170002Y325341D01*
X169924Y325369D01*
X169847Y325401D01*
X169772Y325436D01*
X169699Y325475D01*
X169627Y325518D01*
X169558Y325563D01*
X169491Y325612D01*
X169426Y325664D01*
X169363Y325718D01*
X169303Y325776D01*
X169408Y328210D02*
X169410Y328265D01*
X169415Y328321D01*
X169424Y328375D01*
X169437Y328429D01*
X169453Y328482D01*
X169472Y328534D01*
X169495Y328585D01*
X169521Y328634D01*
X169551Y328681D01*
X169583Y328726D01*
X169618Y328768D01*
X169656Y328809D01*
X169697Y328847D01*
X169739Y328882D01*
X169784Y328914D01*
X169832Y328944D01*
X169880Y328970D01*
X169931Y328993D01*
X169983Y329012D01*
X170036Y329028D01*
X170090Y329041D01*
X170144Y329050D01*
X170200Y329055D01*
X170255Y329057D01*
X170255Y329058D02*
X170334Y329056D01*
X170412Y329050D01*
X170490Y329041D01*
X170567Y329027D01*
X170644Y329010D01*
X170720Y328988D01*
X170794Y328964D01*
X170868Y328935D01*
X170939Y328903D01*
X171009Y328867D01*
X171078Y328828D01*
X171144Y328786D01*
X171208Y328740D01*
X169832Y327469D02*
X169785Y327499D01*
X169740Y327532D01*
X169697Y327568D01*
X169657Y327606D01*
X169619Y327647D01*
X169584Y327690D01*
X169552Y327736D01*
X169522Y327783D01*
X169496Y327833D01*
X169473Y327884D01*
X169454Y327936D01*
X169438Y327989D01*
X169425Y328044D01*
X169416Y328099D01*
X169411Y328154D01*
X169409Y328210D01*
X170997Y326835D02*
X171044Y326805D01*
X171089Y326772D01*
X171132Y326736D01*
X171172Y326698D01*
X171210Y326657D01*
X171245Y326614D01*
X171277Y326568D01*
X171307Y326521D01*
X171333Y326471D01*
X171356Y326420D01*
X171375Y326368D01*
X171391Y326315D01*
X171404Y326260D01*
X171413Y326205D01*
X171418Y326150D01*
X171420Y326094D01*
X170996Y326835D02*
X169832Y327470D01*
X172839Y328210D02*
X173897Y329057D01*
X173897Y325247D01*
X172839Y325247D02*
X174955Y325247D01*
X176496Y328210D02*
X177554Y329057D01*
X177554Y325247D01*
X176496Y325247D02*
X178613Y325247D01*
X180154Y328210D02*
X181212Y329057D01*
X181212Y325247D01*
X180154Y325247D02*
X182270Y325247D01*
X183811Y328634D02*
X183811Y329057D01*
X185928Y329057D01*
X184870Y325247D01*
D10*
X268732Y366522D02*
X268732Y415798D01*
X268732Y366522D02*
X244348Y366522D01*
X244348Y415798D01*
X268732Y415798D01*
X111252Y415798D02*
X111252Y366522D01*
X86868Y366522D01*
X86868Y415798D01*
X111252Y415798D01*
X140145Y415798D02*
X140145Y366522D01*
X115761Y366522D01*
X115761Y415798D01*
X140145Y415798D01*
D16*
X235460Y106440D02*
X235460Y76440D01*
X267460Y76440D02*
X267460Y106440D01*
X267460Y76440D02*
X235460Y76440D01*
X235460Y106440D02*
X267460Y106440D01*
X235460Y76440D02*
X235460Y75940D01*
X235460Y106440D02*
X235460Y106940D01*
X267460Y76440D02*
X267460Y75940D01*
X267460Y106440D02*
X267460Y106940D01*
D11*
X228412Y85188D02*
X216728Y85188D01*
X216728Y90381D01*
X221921Y90381D02*
X221921Y85188D01*
X219324Y94690D02*
X216728Y97936D01*
X228412Y97936D01*
X228412Y94690D02*
X228412Y101182D01*
M02*
