G04 EAGLE Gerber RS-274X export*
G75*
%MOMM*%
%FSLAX34Y34*%
%LPD*%
%INSolderpaste Top*%
%IPPOS*%
%AMOC8*
5,1,8,0,0,1.08239X$1,22.5*%
G01*
%ADD10R,1.200000X2.286000*%
%ADD11R,1.100000X1.000000*%
%ADD12R,1.000000X1.100000*%
%ADD13R,1.700000X1.282600*%
%ADD14R,2.032000X1.270000*%
%ADD15R,1.219200X2.235200*%
%ADD16R,3.600000X2.200000*%
%ADD17R,3.150000X1.780000*%


D10*
X84416Y538075D03*
X104416Y538075D03*
X124416Y538075D03*
X144416Y538075D03*
X164416Y538075D03*
X184416Y538075D03*
X204416Y538075D03*
X224416Y538075D03*
X84416Y691915D03*
X104416Y691915D03*
X124416Y691915D03*
X144416Y691915D03*
X164416Y691915D03*
X184416Y691915D03*
X204416Y691915D03*
X224416Y691915D03*
D11*
X227555Y496680D03*
X227555Y513680D03*
X127594Y513680D03*
X127594Y496680D03*
X61482Y513680D03*
X61482Y496680D03*
D12*
X16620Y390709D03*
X33620Y390709D03*
D13*
X30623Y416999D03*
X30623Y458111D03*
X30623Y522801D03*
X30623Y481689D03*
D12*
X318380Y162560D03*
X301380Y162560D03*
X301380Y309880D03*
X318380Y309880D03*
D14*
X227648Y407670D03*
X227648Y374650D03*
D15*
X200914Y405257D03*
X177800Y405257D03*
X154686Y405257D03*
D16*
X177800Y343279D03*
D14*
X256540Y407670D03*
X256540Y374650D03*
X99060Y407670D03*
X99060Y374650D03*
X127953Y407670D03*
X127953Y374650D03*
D11*
X106751Y513680D03*
X106751Y496680D03*
X85387Y496680D03*
X85387Y513680D03*
D17*
X251460Y65240D03*
X251460Y117640D03*
D11*
X187960Y513680D03*
X187960Y496680D03*
M02*
