G04 EAGLE Gerber RS-274X export*
G75*
%MOMM*%
%FSLAX34Y34*%
%LPD*%
%INSoldermask Top*%
%IPNEG*%
%AMOC8*
5,1,8,0,0,1.08239X$1,22.5*%
G01*
%ADD10C,3.593200*%
%ADD11R,1.403200X2.489200*%
%ADD12R,1.303200X1.203200*%
%ADD13R,1.203200X1.303200*%
%ADD14R,1.903200X1.485800*%
%ADD15C,1.524000*%
%ADD16C,2.082800*%
%ADD17C,1.803200*%
%ADD18R,2.235200X1.473200*%
%ADD19R,1.422400X2.438400*%
%ADD20R,3.803200X2.403200*%
%ADD21C,2.003200*%
%ADD22C,1.625600*%
%ADD23C,1.993900*%
%ADD24R,3.353200X1.983200*%
%ADD25C,1.727200*%
%ADD26C,0.959600*%


D10*
X46270Y68490D03*
X294320Y68490D03*
X317180Y756920D03*
X25950Y759460D03*
D11*
X84416Y538075D03*
X104416Y538075D03*
X124416Y538075D03*
X144416Y538075D03*
X164416Y538075D03*
X184416Y538075D03*
X204416Y538075D03*
X224416Y538075D03*
X84416Y691915D03*
X104416Y691915D03*
X124416Y691915D03*
X144416Y691915D03*
X164416Y691915D03*
X184416Y691915D03*
X204416Y691915D03*
X224416Y691915D03*
D12*
X227555Y496680D03*
X227555Y513680D03*
X127594Y513680D03*
X127594Y496680D03*
X61482Y513680D03*
X61482Y496680D03*
D13*
X16620Y390709D03*
X33620Y390709D03*
D14*
X30623Y416999D03*
X30623Y458111D03*
X30623Y522801D03*
X30623Y481689D03*
D15*
X323598Y195580D02*
X323598Y182372D01*
X298198Y182372D02*
X298198Y195580D01*
X298198Y271780D02*
X298198Y284988D01*
X323598Y284988D02*
X323598Y271780D01*
D13*
X318380Y162560D03*
X301380Y162560D03*
X301380Y309880D03*
X318380Y309880D03*
D16*
X300992Y129540D03*
X326392Y129540D03*
D17*
X317920Y700560D03*
X317920Y680560D03*
X317920Y660560D03*
X317920Y640560D03*
X317920Y598060D03*
X317920Y578060D03*
X317920Y558060D03*
X317920Y538060D03*
X317920Y493020D03*
X317920Y473020D03*
X317920Y453020D03*
X317920Y433020D03*
D18*
X227648Y407670D03*
X227648Y374650D03*
D19*
X200914Y405257D03*
X177800Y405257D03*
X154686Y405257D03*
D20*
X177800Y343279D03*
D18*
X256540Y407670D03*
X256540Y374650D03*
X99060Y407670D03*
X99060Y374650D03*
X127953Y407670D03*
X127953Y374650D03*
D21*
X197720Y169340D02*
X197720Y151340D01*
X147720Y151340D02*
X147720Y169340D01*
X249720Y445340D02*
X249720Y463340D01*
X95720Y463340D02*
X95720Y445340D01*
D22*
X209013Y129444D02*
X209013Y115220D01*
X146172Y103220D02*
X146172Y88996D01*
D12*
X106751Y513680D03*
X106751Y496680D03*
X85387Y496680D03*
X85387Y513680D03*
D17*
X317920Y388300D03*
X317920Y368300D03*
X317920Y348300D03*
D23*
X147720Y44514D02*
X147720Y26607D01*
X197720Y26607D02*
X197720Y44514D01*
D24*
X251460Y65240D03*
X251460Y117640D03*
D12*
X187960Y513680D03*
X187960Y496680D03*
D17*
X27520Y203520D03*
X27520Y223520D03*
X27520Y243520D03*
X27520Y290040D03*
X27520Y310040D03*
X27520Y330040D03*
X27520Y350040D03*
X69060Y754800D03*
X89060Y754800D03*
X109060Y754800D03*
X129060Y754800D03*
D25*
X188468Y719074D02*
X203708Y719074D01*
X203708Y764286D02*
X188468Y764286D01*
X253492Y719074D02*
X268732Y719074D01*
X268732Y764286D02*
X253492Y764286D01*
D26*
X294132Y374142D03*
X99060Y485140D03*
X50800Y485140D03*
X75410Y488106D03*
X130302Y419862D03*
X256794Y564642D03*
X299466Y499110D03*
X261366Y422148D03*
X255016Y638810D03*
X15024Y528320D03*
X53467Y528193D03*
M02*
